<svg width="1000" height="200" viewBox="0 0 1000 200" fill="none" xmlns="http://www.w3.org/2000/svg">
<rect width="1000" height="200" fill="url(#paint0_linear_452_48)"/>
<path d="M136.562 52.0246C131.165 52.221 125.92 53.2661 121.055 55.0904C112.149 58.4475 104.472 64.3637 98.9045 72.1675C95.5157 76.9119 92.9947 82.3277 91.5441 87.9905C90.727 91.1829 90.252 94.3121 90.0429 97.9289C89.9986 98.689 89.9859 101.28 90.0176 102.154C90.2646 108.608 91.6772 114.626 94.3185 120.466C94.6416 121.176 95.5221 122.943 95.9084 123.64C97.9164 127.288 100.222 130.468 103.072 133.527C103.649 134.148 105.08 135.561 105.663 136.093C109.141 139.266 112.796 141.781 116.9 143.814C124.945 147.811 133.92 149.458 142.972 148.603C152.226 147.735 161.101 144.144 168.404 138.316C169.329 137.581 169.747 137.22 169.721 137.189C169.715 137.176 169.797 137.1 169.899 137.011C170.209 136.739 186.171 120.802 198.156 108.792C205.415 101.52 209.482 97.4602 209.501 97.4792C209.513 97.4918 209.475 97.4538 209.456 97.4855C209.431 97.5299 211.23 100.026 227.864 122.746C242.926 143.333 246.303 147.925 246.48 148.109C246.708 148.337 246.936 148.495 247.24 148.616C247.468 148.711 248.19 148.869 248.577 148.901C248.786 148.92 252.82 148.926 261.498 148.92C273.242 148.913 274.129 148.907 274.287 148.869C274.946 148.704 275.44 148.413 275.902 147.931C276.986 146.785 277.302 144.986 276.694 143.415C276.536 143.003 276.308 142.63 275.978 142.25C275.852 142.098 217.292 54.2669 217.045 53.8552C216.912 53.6272 216.595 53.2915 216.361 53.1331C215.974 52.8607 215.512 52.6707 214.973 52.5567C214.752 52.506 214.631 52.4997 214.15 52.4997C213.39 52.4933 213.187 52.5314 212.307 52.8544C211.984 52.9684 211.743 53.0951 211.553 53.2471C211.47 53.3168 201.038 64.4524 188.363 78.0014C175.695 91.5503 162.899 105.226 159.929 108.393C156.964 111.567 154.342 114.379 154.101 114.651C153.29 115.544 153.056 115.76 151.91 116.628C150.193 117.926 149.154 118.591 147.723 119.288C145.297 120.473 142.871 121.119 140.045 121.347C139.507 121.391 137.67 121.391 137.113 121.347C133.952 121.106 131.089 120.289 128.561 118.927C126.763 117.951 125.23 116.811 123.785 115.367C122.132 113.72 120.846 111.921 119.82 109.825C118.629 107.373 117.964 104.827 117.743 101.888C117.698 101.324 117.698 99.6455 117.743 99.1007C117.857 97.5679 118.072 96.282 118.439 94.9391C119.662 90.4798 122.348 86.5336 126.085 83.7275C128.935 81.5802 132.381 80.1803 135.935 79.7369C136.935 79.6103 137.246 79.5913 138.589 79.5913C139.925 79.5913 140.229 79.6103 141.23 79.7369C143.928 80.0727 146.576 80.9595 148.958 82.3277C153.829 85.1147 157.395 89.7894 158.795 95.2052C158.858 95.4459 158.934 95.7563 158.966 95.8893C159.01 96.1046 159.036 96.1553 159.162 96.3327C159.555 96.8774 160.049 97.2511 160.625 97.4222C160.923 97.5108 161.43 97.5299 161.778 97.4728C162.228 97.3968 162.735 97.2005 163.083 96.9724C163.166 96.9218 163.375 96.7444 163.552 96.5797C164.059 96.1046 177.766 81.9349 177.741 81.9033C177.715 81.8843 177.867 81.6879 177.924 81.6626C177.956 81.6499 178.501 81.0861 179.641 79.8953C180.015 79.5089 180.224 79.2302 180.382 78.9008C180.667 78.3054 180.749 77.7037 180.623 77.0449C180.597 76.8865 180.547 76.7852 180.35 76.4368C178.786 73.6877 176.822 70.926 174.738 68.5507C173.459 67.0811 171.907 65.5166 170.469 64.2307C163.672 58.1815 155.387 54.1909 146.468 52.677C144.315 52.3097 142.256 52.1006 140.007 52.0183C139.209 51.9929 137.366 51.9929 136.562 52.0246ZM214.403 53.1774C214.435 53.2218 214.403 53.2345 214.321 53.2154C214.27 53.2028 214.264 53.1964 214.296 53.1711C214.34 53.1458 214.384 53.1458 214.403 53.1774ZM212.889 56.7183C212.915 56.7563 212.877 56.7563 212.826 56.7183C212.794 56.6993 212.794 56.693 212.832 56.693C212.858 56.693 212.883 56.7056 212.889 56.7183ZM215.214 56.769C215.195 56.788 215.157 56.7943 215.138 56.7943C215.113 56.7943 215.119 56.788 215.151 56.769C215.22 56.7436 215.258 56.7436 215.214 56.769ZM140.217 57.1554C147.97 57.5037 155.178 59.7714 161.671 63.9077C165.972 66.6504 169.88 70.2672 172.965 74.3718C173.649 75.2903 174.865 77.0512 174.865 77.1336C174.865 77.1589 162.697 89.7767 162.659 89.7957C162.646 89.8021 162.576 89.669 162.507 89.498C162.31 89.0673 161.816 88.0918 161.576 87.6484C160.86 86.3562 160.011 85.0767 159.08 83.9112C155.001 78.8058 149.217 75.3853 142.833 74.3148C140.654 73.9474 138.354 73.8588 136.099 74.0425C134.541 74.1755 132.799 74.4795 131.304 74.8786C127.301 75.9554 123.595 77.9824 120.523 80.7948C119.96 81.3142 118.984 82.3087 118.515 82.8471C114.892 86.9897 112.72 92.0127 112.143 97.5742C111.972 99.2021 111.953 101.109 112.092 102.68C112.542 107.842 114.43 112.65 117.622 116.729C118.819 118.256 120.321 119.782 121.828 120.998C127.155 125.306 133.832 127.345 140.692 126.775C144.359 126.465 147.97 125.369 151.2 123.57C152.904 122.626 154.545 121.461 156.027 120.137C156.907 119.358 158.225 117.964 158.96 117.052C159.169 116.799 160.632 115.215 160.644 115.234C162.494 117.647 170.969 128.878 170.963 128.903C170.95 128.916 170.817 129.074 170.659 129.252C166.149 134.281 160.625 138.151 154.412 140.634C150.25 142.3 145.829 143.295 141.331 143.599C139.931 143.688 138.031 143.713 136.714 143.662C128.536 143.32 121.068 140.951 114.468 136.606C112.561 135.352 110.889 134.047 109.065 132.387C108.482 131.855 107.069 130.443 106.499 129.816C103.193 126.192 100.589 122.151 98.6765 117.679C96.8903 113.505 95.7944 109.084 95.37 104.352C95.237 102.882 95.1927 101.622 95.2053 99.9052C95.2243 98.556 95.237 98.2076 95.3194 97.1245C95.8134 90.3975 97.8911 83.8859 101.375 78.09C105.581 71.097 111.706 65.4089 118.984 61.735C124.444 58.9796 130.373 57.4341 136.536 57.1617C137.214 57.13 139.551 57.13 140.217 57.1554ZM219.464 66.5807C222.536 71.1984 225.051 74.9799 225.057 74.9926C225.064 75.0053 221.719 78.3688 217.634 82.4607L210.197 89.8971L204.503 82.1123C201.367 77.824 198.796 74.3085 198.796 74.2895C198.783 74.2515 213.833 58.1562 213.858 58.1815C213.865 58.1878 216.392 61.9694 219.464 66.5807ZM200.854 85.6658C203.92 89.8527 206.473 93.3366 206.517 93.3999L206.606 93.5266L190.821 109.337C182.137 118.034 175.004 125.166 174.966 125.198L174.897 125.249L169.576 118.218L164.249 111.186L164.356 111.06C164.654 110.73 195.248 78.0394 195.261 78.0457C195.274 78.0457 197.789 81.4789 200.854 85.6658ZM249.261 111.294C261.055 128.992 270.702 143.491 270.702 143.523C270.708 143.574 270.689 143.574 260.162 143.574L249.622 143.58L231.683 119.066C221.814 105.581 213.618 94.3881 213.472 94.1854C213.25 93.8877 213.149 93.799 213.111 93.8243C213.086 93.8497 213.124 93.8877 213.105 93.8623C213.079 93.837 214.777 92.1267 220.421 86.4766C224.462 82.429 227.781 79.1162 227.794 79.1162C227.807 79.1225 237.473 93.5963 249.261 111.294Z" fill="white"/>
<path d="M180.186 100.477C179.331 100.629 178.653 101.091 178.279 101.775C178.076 102.155 177.994 102.485 177.994 102.953C177.994 103.568 178.209 104.087 178.786 104.885C178.875 105.012 178.944 105.126 178.944 105.132C178.944 105.145 178.849 105.215 178.735 105.284C177.576 106 176.955 106.893 176.905 107.938C176.822 109.503 177.956 110.852 179.654 111.194C180.591 111.384 181.586 111.283 182.485 110.903C182.681 110.82 183.03 110.637 183.195 110.529L183.271 110.478L184.031 111.416L185.31 111.517C186.013 111.568 186.602 111.612 186.615 111.606C186.634 111.6 186.203 111.048 185.659 110.383C185.114 109.718 184.664 109.167 184.664 109.155C184.664 109.148 184.702 109.091 184.74 109.034C185.158 108.413 185.526 107.52 185.69 106.709C185.76 106.38 185.849 105.753 185.836 105.734C185.823 105.721 184.214 105.601 184.208 105.614C184.202 105.62 184.183 105.747 184.164 105.899C184.1 106.431 183.974 106.9 183.784 107.349C183.651 107.666 183.562 107.818 183.537 107.793C183.404 107.641 181.744 105.595 181.744 105.582C181.744 105.569 181.864 105.481 182.004 105.386C182.365 105.158 182.656 104.911 182.954 104.619C183.473 104.087 183.682 103.625 183.708 102.928C183.733 102.371 183.651 102.041 183.372 101.629C182.998 101.066 182.377 100.686 181.535 100.502C181.269 100.439 180.464 100.426 180.186 100.477ZM181.085 101.952C181.396 102.003 181.662 102.18 181.788 102.421C181.852 102.542 181.858 102.586 181.858 102.814C181.858 103.048 181.852 103.086 181.776 103.238C181.731 103.327 181.655 103.454 181.598 103.511C181.478 103.65 181.155 103.91 180.857 104.093L180.629 104.239L180.553 104.157C180.515 104.106 180.376 103.935 180.249 103.77C179.882 103.276 179.793 103.048 179.844 102.744C179.913 102.345 180.192 102.06 180.597 101.965C180.762 101.921 180.895 101.921 181.085 101.952ZM181.161 107.862C181.763 108.603 182.251 109.218 182.257 109.231C182.27 109.269 181.845 109.49 181.624 109.566C181.288 109.68 181.047 109.718 180.654 109.699C180.236 109.687 180.021 109.636 179.717 109.478C179.172 109.193 178.881 108.768 178.849 108.217C178.824 107.748 178.951 107.444 179.305 107.09C179.514 106.881 179.977 106.526 180.04 106.526C180.059 106.526 180.559 107.128 181.161 107.862Z" fill="white"/>
<path d="M348.832 94.384C346.272 94.384 343.824 94 341.488 93.232C339.152 92.432 337.312 91.408 335.968 90.16L337.744 86.416C339.024 87.536 340.656 88.464 342.64 89.2C344.624 89.936 346.688 90.304 348.832 90.304C350.784 90.304 352.368 90.08 353.584 89.632C354.8 89.184 355.696 88.576 356.272 87.808C356.848 87.008 357.136 86.112 357.136 85.12C357.136 83.968 356.752 83.04 355.984 82.336C355.248 81.632 354.272 81.072 353.056 80.656C351.872 80.208 350.56 79.824 349.12 79.504C347.68 79.184 346.224 78.816 344.752 78.4C343.312 77.952 341.984 77.392 340.768 76.72C339.584 76.048 338.624 75.152 337.888 74.032C337.152 72.88 336.784 71.408 336.784 69.616C336.784 67.888 337.232 66.304 338.128 64.864C339.056 63.392 340.464 62.224 342.352 61.36C344.272 60.464 346.704 60.016 349.648 60.016C351.6 60.016 353.536 60.272 355.456 60.784C357.376 61.296 359.04 62.032 360.448 62.992L358.864 66.832C357.424 65.872 355.904 65.184 354.304 64.768C352.704 64.32 351.152 64.096 349.648 64.096C347.76 64.096 346.208 64.336 344.992 64.816C343.776 65.296 342.88 65.936 342.304 66.736C341.76 67.536 341.488 68.432 341.488 69.424C341.488 70.608 341.856 71.552 342.592 72.256C343.36 72.96 344.336 73.52 345.52 73.936C346.736 74.352 348.064 74.736 349.504 75.088C350.944 75.408 352.384 75.776 353.824 76.192C355.296 76.608 356.624 77.152 357.808 77.824C359.024 78.496 360 79.392 360.736 80.512C361.472 81.632 361.84 83.072 361.84 84.832C361.84 86.528 361.376 88.112 360.448 89.584C359.52 91.024 358.08 92.192 356.128 93.088C354.208 93.952 351.776 94.384 348.832 94.384ZM378.885 94.288C376.709 94.288 374.789 93.888 373.125 93.088C371.493 92.288 370.213 91.072 369.285 89.44C368.389 87.776 367.941 85.696 367.941 83.2V68.56H372.549V82.672C372.549 85.168 373.141 87.04 374.325 88.288C375.541 89.536 377.237 90.16 379.413 90.16C381.013 90.16 382.405 89.84 383.589 89.2C384.773 88.528 385.685 87.568 386.325 86.32C386.965 85.04 387.285 83.504 387.285 81.712V68.56H391.893V94H387.525V87.136L388.245 88.96C387.413 90.656 386.165 91.968 384.501 92.896C382.837 93.824 380.965 94.288 378.885 94.288ZM432.489 68.32C434.537 68.32 436.345 68.72 437.913 69.52C439.481 70.32 440.697 71.536 441.561 73.168C442.457 74.8 442.905 76.864 442.905 79.36V94H438.297V79.888C438.297 77.424 437.721 75.568 436.569 74.32C435.417 73.072 433.801 72.448 431.721 72.448C430.185 72.448 428.841 72.768 427.689 73.408C426.537 74.048 425.641 74.992 425.001 76.24C424.393 77.488 424.089 79.04 424.089 80.896V94H419.481V79.888C419.481 77.424 418.905 75.568 417.753 74.32C416.633 73.072 415.017 72.448 412.905 72.448C411.401 72.448 410.073 72.768 408.921 73.408C407.769 74.048 406.873 74.992 406.233 76.24C405.593 77.488 405.273 79.04 405.273 80.896V94H400.665V68.56H405.081V75.328L404.361 73.6C405.161 71.936 406.393 70.64 408.057 69.712C409.721 68.784 411.657 68.32 413.865 68.32C416.297 68.32 418.393 68.928 420.153 70.144C421.913 71.328 423.065 73.136 423.609 75.568L421.737 74.8C422.505 72.848 423.849 71.28 425.769 70.096C427.689 68.912 429.929 68.32 432.489 68.32ZM483.208 68.32C485.256 68.32 487.064 68.72 488.632 69.52C490.2 70.32 491.416 71.536 492.28 73.168C493.176 74.8 493.624 76.864 493.624 79.36V94H489.016V79.888C489.016 77.424 488.44 75.568 487.288 74.32C486.136 73.072 484.52 72.448 482.44 72.448C480.904 72.448 479.56 72.768 478.408 73.408C477.256 74.048 476.36 74.992 475.72 76.24C475.112 77.488 474.808 79.04 474.808 80.896V94H470.2V79.888C470.2 77.424 469.624 75.568 468.472 74.32C467.352 73.072 465.736 72.448 463.624 72.448C462.12 72.448 460.792 72.768 459.64 73.408C458.488 74.048 457.592 74.992 456.952 76.24C456.312 77.488 455.992 79.04 455.992 80.896V94H451.384V68.56H455.8V75.328L455.08 73.6C455.88 71.936 457.112 70.64 458.776 69.712C460.44 68.784 462.376 68.32 464.584 68.32C467.016 68.32 469.112 68.928 470.872 70.144C472.632 71.328 473.784 73.136 474.328 75.568L472.456 74.8C473.224 72.848 474.568 71.28 476.488 70.096C478.408 68.912 480.648 68.32 483.208 68.32ZM513.43 94.288C510.71 94.288 508.31 93.728 506.23 92.608C504.182 91.488 502.582 89.952 501.43 88C500.31 86.048 499.75 83.808 499.75 81.28C499.75 78.752 500.294 76.512 501.382 74.56C502.502 72.608 504.022 71.088 505.942 70C507.894 68.88 510.086 68.32 512.518 68.32C514.982 68.32 517.158 68.864 519.046 69.952C520.934 71.04 522.406 72.576 523.462 74.56C524.55 76.512 525.094 78.8 525.094 81.424C525.094 81.616 525.078 81.84 525.046 82.096C525.046 82.352 525.03 82.592 524.998 82.816H503.35V79.504H522.598L520.726 80.656C520.758 79.024 520.422 77.568 519.718 76.288C519.014 75.008 518.038 74.016 516.79 73.312C515.574 72.576 514.15 72.208 512.518 72.208C510.918 72.208 509.494 72.576 508.246 73.312C506.998 74.016 506.022 75.024 505.318 76.336C504.614 77.616 504.262 79.088 504.262 80.752V81.52C504.262 83.216 504.646 84.736 505.414 86.08C506.214 87.392 507.318 88.416 508.726 89.152C510.134 89.888 511.75 90.256 513.574 90.256C515.078 90.256 516.438 90 517.654 89.488C518.902 88.976 519.99 88.208 520.918 87.184L523.462 90.16C522.31 91.504 520.87 92.528 519.142 93.232C517.446 93.936 515.542 94.288 513.43 94.288ZM531.493 94V68.56H535.909V75.472L535.477 73.744C536.181 71.984 537.365 70.64 539.029 69.712C540.693 68.784 542.741 68.32 545.173 68.32V72.784C544.981 72.752 544.789 72.736 544.597 72.736C544.437 72.736 544.277 72.736 544.117 72.736C541.653 72.736 539.701 73.472 538.261 74.944C536.821 76.416 536.101 78.544 536.101 81.328V94H531.493ZM559.655 94L574.871 60.4H579.623L594.887 94H589.847L576.263 63.088H578.183L564.599 94H559.655ZM566.135 85.6L567.431 81.76H586.343L587.735 85.6H566.135ZM612.811 68.32C614.891 68.32 616.715 68.72 618.283 69.52C619.883 70.32 621.131 71.536 622.027 73.168C622.923 74.8 623.371 76.864 623.371 79.36V94H618.763V79.888C618.763 77.424 618.155 75.568 616.939 74.32C615.755 73.072 614.075 72.448 611.899 72.448C610.267 72.448 608.843 72.768 607.627 73.408C606.411 74.048 605.467 74.992 604.795 76.24C604.155 77.488 603.835 79.04 603.835 80.896V94H599.227V68.56H603.643V75.424L602.923 73.6C603.755 71.936 605.035 70.64 606.763 69.712C608.491 68.784 610.507 68.32 612.811 68.32ZM647.691 94V88.624L647.451 87.616V78.448C647.451 76.496 646.875 74.992 645.723 73.936C644.603 72.848 642.907 72.304 640.635 72.304C639.131 72.304 637.659 72.56 636.219 73.072C634.779 73.552 633.563 74.208 632.571 75.04L630.651 71.584C631.963 70.528 633.531 69.728 635.355 69.184C637.211 68.608 639.147 68.32 641.163 68.32C644.651 68.32 647.339 69.168 649.227 70.864C651.115 72.56 652.059 75.152 652.059 78.64V94H647.691ZM639.339 94.288C637.451 94.288 635.787 93.968 634.347 93.328C632.939 92.688 631.851 91.808 631.083 90.688C630.315 89.536 629.931 88.24 629.931 86.8C629.931 85.424 630.251 84.176 630.891 83.056C631.563 81.936 632.635 81.04 634.107 80.368C635.611 79.696 637.627 79.36 640.155 79.36H648.219V82.672H640.347C638.043 82.672 636.491 83.056 635.691 83.824C634.891 84.592 634.491 85.52 634.491 86.608C634.491 87.856 634.987 88.864 635.979 89.632C636.971 90.368 638.347 90.736 640.107 90.736C641.835 90.736 643.339 90.352 644.619 89.584C645.931 88.816 646.875 87.696 647.451 86.224L648.363 89.392C647.755 90.896 646.683 92.096 645.147 92.992C643.611 93.856 641.675 94.288 639.339 94.288ZM660.587 94V58.384H665.195V94H660.587ZM675.097 103.6C673.881 103.6 672.697 103.392 671.545 102.976C670.393 102.592 669.401 102.016 668.569 101.248L670.537 97.792C671.177 98.4 671.881 98.864 672.649 99.184C673.417 99.504 674.233 99.664 675.097 99.664C676.217 99.664 677.145 99.376 677.881 98.8C678.617 98.224 679.305 97.2 679.945 95.728L681.529 92.224L682.009 91.648L691.993 68.56H696.505L684.169 96.544C683.433 98.336 682.601 99.744 681.673 100.768C680.777 101.792 679.785 102.512 678.697 102.928C677.609 103.376 676.409 103.6 675.097 103.6ZM681.145 94.816L669.529 68.56H674.329L684.217 91.216L681.145 94.816ZM710.245 94.288C707.685 94.288 705.701 93.6 704.293 92.224C702.885 90.848 702.181 88.88 702.181 86.32V62.992H706.789V86.128C706.789 87.504 707.125 88.56 707.797 89.296C708.501 90.032 709.493 90.4 710.773 90.4C712.213 90.4 713.413 90 714.373 89.2L715.813 92.512C715.109 93.12 714.261 93.568 713.269 93.856C712.309 94.144 711.301 94.288 710.245 94.288ZM697.861 72.352V68.56H714.085V72.352H697.861ZM721.384 94V68.56H725.992V94H721.384ZM723.688 63.664C722.792 63.664 722.04 63.376 721.432 62.8C720.856 62.224 720.568 61.52 720.568 60.688C720.568 59.824 720.856 59.104 721.432 58.528C722.04 57.952 722.792 57.664 723.688 57.664C724.584 57.664 725.32 57.952 725.896 58.528C726.504 59.072 726.808 59.76 726.808 60.592C726.808 61.456 726.52 62.192 725.944 62.8C725.368 63.376 724.616 63.664 723.688 63.664ZM745.878 94.288C743.286 94.288 740.966 93.728 738.918 92.608C736.902 91.488 735.318 89.952 734.166 88C733.014 86.048 732.438 83.808 732.438 81.28C732.438 78.752 733.014 76.512 734.166 74.56C735.318 72.608 736.902 71.088 738.918 70C740.966 68.88 743.286 68.32 745.878 68.32C748.182 68.32 750.23 68.784 752.022 69.712C753.846 70.608 755.254 71.952 756.246 73.744L752.742 76C751.91 74.752 750.886 73.84 749.67 73.264C748.486 72.656 747.206 72.352 745.83 72.352C744.166 72.352 742.678 72.72 741.366 73.456C740.054 74.192 739.014 75.232 738.246 76.576C737.478 77.888 737.094 79.456 737.094 81.28C737.094 83.104 737.478 84.688 738.246 86.032C739.014 87.376 740.054 88.416 741.366 89.152C742.678 89.888 744.166 90.256 745.83 90.256C747.206 90.256 748.486 89.968 749.67 89.392C750.886 88.784 751.91 87.856 752.742 86.608L756.246 88.816C755.254 90.576 753.846 91.936 752.022 92.896C750.23 93.824 748.182 94.288 745.878 94.288ZM769.508 94.288C767.396 94.288 765.38 94 763.46 93.424C761.572 92.848 760.084 92.144 758.996 91.312L760.916 87.664C762.004 88.4 763.348 89.024 764.948 89.536C766.548 90.048 768.18 90.304 769.844 90.304C771.988 90.304 773.524 90 774.452 89.392C775.412 88.784 775.892 87.936 775.892 86.848C775.892 86.048 775.604 85.424 775.028 84.976C774.452 84.528 773.684 84.192 772.724 83.968C771.796 83.744 770.756 83.552 769.604 83.392C768.452 83.2 767.3 82.976 766.148 82.72C764.996 82.432 763.94 82.048 762.98 81.568C762.02 81.056 761.252 80.368 760.676 79.504C760.1 78.608 759.812 77.424 759.812 75.952C759.812 74.416 760.244 73.072 761.108 71.92C761.972 70.768 763.188 69.888 764.756 69.28C766.356 68.64 768.244 68.32 770.42 68.32C772.084 68.32 773.764 68.528 775.46 68.944C777.188 69.328 778.596 69.888 779.684 70.624L777.716 74.272C776.564 73.504 775.364 72.976 774.116 72.688C772.868 72.4 771.62 72.256 770.372 72.256C768.356 72.256 766.852 72.592 765.86 73.264C764.868 73.904 764.372 74.736 764.372 75.76C764.372 76.624 764.66 77.296 765.236 77.776C765.844 78.224 766.612 78.576 767.54 78.832C768.5 79.088 769.556 79.312 770.708 79.504C771.86 79.664 773.012 79.888 774.164 80.176C775.316 80.432 776.356 80.8 777.284 81.28C778.244 81.76 779.012 82.432 779.588 83.296C780.196 84.16 780.5 85.312 780.5 86.752C780.5 88.288 780.052 89.616 779.156 90.736C778.26 91.856 776.996 92.736 775.364 93.376C773.732 93.984 771.78 94.288 769.508 94.288ZM796.557 94V90.736L810.237 77.536C811.453 76.384 812.349 75.376 812.925 74.512C813.533 73.616 813.933 72.8 814.125 72.064C814.349 71.296 814.461 70.56 814.461 69.856C814.461 68.128 813.853 66.768 812.637 65.776C811.421 64.784 809.645 64.288 807.309 64.288C805.517 64.288 803.901 64.592 802.461 65.2C801.021 65.776 799.773 66.688 798.717 67.936L795.453 65.104C796.733 63.472 798.445 62.224 800.589 61.36C802.765 60.464 805.149 60.016 807.741 60.016C810.077 60.016 812.109 60.4 813.837 61.168C815.565 61.904 816.893 62.976 817.821 64.384C818.781 65.792 819.261 67.456 819.261 69.376C819.261 70.464 819.117 71.536 818.829 72.592C818.541 73.648 817.997 74.768 817.197 75.952C816.397 77.136 815.245 78.464 813.741 79.936L801.549 91.696L800.397 89.824H820.701V94H796.557ZM838.329 94.384C835.705 94.384 833.353 93.712 831.273 92.368C829.225 91.024 827.593 89.072 826.377 86.512C825.193 83.952 824.601 80.848 824.601 77.2C824.601 73.552 825.193 70.448 826.377 67.888C827.593 65.328 829.225 63.376 831.273 62.032C833.353 60.688 835.705 60.016 838.329 60.016C840.921 60.016 843.257 60.688 845.337 62.032C847.417 63.376 849.049 65.328 850.233 67.888C851.417 70.448 852.009 73.552 852.009 77.2C852.009 80.848 851.417 83.952 850.233 86.512C849.049 89.072 847.417 91.024 845.337 92.368C843.257 93.712 840.921 94.384 838.329 94.384ZM838.329 90.112C840.089 90.112 841.625 89.632 842.937 88.672C844.281 87.712 845.321 86.272 846.057 84.352C846.825 82.432 847.209 80.048 847.209 77.2C847.209 74.352 846.825 71.968 846.057 70.048C845.321 68.128 844.281 66.688 842.937 65.728C841.625 64.768 840.089 64.288 838.329 64.288C836.569 64.288 835.017 64.768 833.673 65.728C832.329 66.688 831.273 68.128 830.505 70.048C829.769 71.968 829.401 74.352 829.401 77.2C829.401 80.048 829.769 82.432 830.505 84.352C831.273 86.272 832.329 87.712 833.673 88.672C835.017 89.632 836.569 90.112 838.329 90.112ZM856.089 94V90.736L869.769 77.536C870.985 76.384 871.881 75.376 872.457 74.512C873.065 73.616 873.465 72.8 873.657 72.064C873.881 71.296 873.993 70.56 873.993 69.856C873.993 68.128 873.385 66.768 872.169 65.776C870.953 64.784 869.177 64.288 866.841 64.288C865.049 64.288 863.433 64.592 861.993 65.2C860.553 65.776 859.305 66.688 858.249 67.936L854.985 65.104C856.265 63.472 857.977 62.224 860.121 61.36C862.297 60.464 864.681 60.016 867.273 60.016C869.609 60.016 871.641 60.4 873.369 61.168C875.097 61.904 876.425 62.976 877.353 64.384C878.313 65.792 878.793 67.456 878.793 69.376C878.793 70.464 878.649 71.536 878.361 72.592C878.073 73.648 877.529 74.768 876.729 75.952C875.929 77.136 874.777 78.464 873.273 79.936L861.081 91.696L859.929 89.824H880.233V94H856.089ZM883.651 94V90.736L897.331 77.536C898.547 76.384 899.443 75.376 900.019 74.512C900.627 73.616 901.027 72.8 901.219 72.064C901.443 71.296 901.555 70.56 901.555 69.856C901.555 68.128 900.947 66.768 899.731 65.776C898.515 64.784 896.739 64.288 894.403 64.288C892.611 64.288 890.995 64.592 889.555 65.2C888.115 65.776 886.867 66.688 885.811 67.936L882.547 65.104C883.827 63.472 885.539 62.224 887.683 61.36C889.859 60.464 892.243 60.016 894.835 60.016C897.171 60.016 899.203 60.4 900.931 61.168C902.659 61.904 903.987 62.976 904.915 64.384C905.875 65.792 906.355 67.456 906.355 69.376C906.355 70.464 906.211 71.536 905.923 72.592C905.635 73.648 905.091 74.768 904.291 75.952C903.491 77.136 902.339 78.464 900.835 79.936L888.643 91.696L887.491 89.824H907.795V94H883.651Z" fill="white"/>
<path d="M336.98 149L343.32 135H345.3L351.66 149H349.56L343.9 136.12H344.7L339.04 149H336.98ZM339.68 145.5L340.22 143.9H348.1L348.68 145.5H339.68ZM364.46 149.12C363.58 149.12 362.773 148.92 362.04 148.52C361.32 148.107 360.74 147.5 360.3 146.7C359.873 145.9 359.66 144.9 359.66 143.7C359.66 142.5 359.866 141.5 360.28 140.7C360.706 139.9 361.28 139.3 362 138.9C362.733 138.5 363.553 138.3 364.46 138.3C365.5 138.3 366.42 138.527 367.22 138.98C368.02 139.433 368.653 140.067 369.12 140.88C369.586 141.68 369.82 142.62 369.82 143.7C369.82 144.78 369.586 145.727 369.12 146.54C368.653 147.353 368.02 147.987 367.22 148.44C366.42 148.893 365.5 149.12 364.46 149.12ZM358.84 152.88V138.4H360.68V141.26L360.56 143.72L360.76 146.18V152.88H358.84ZM364.3 147.44C364.98 147.44 365.586 147.287 366.12 146.98C366.666 146.673 367.093 146.24 367.4 145.68C367.72 145.107 367.88 144.447 367.88 143.7C367.88 142.94 367.72 142.287 367.4 141.74C367.093 141.18 366.666 140.747 366.12 140.44C365.586 140.133 364.98 139.98 364.3 139.98C363.633 139.98 363.026 140.133 362.48 140.44C361.946 140.747 361.52 141.18 361.2 141.74C360.893 142.287 360.74 142.94 360.74 143.7C360.74 144.447 360.893 145.107 361.2 145.68C361.52 146.24 361.946 146.673 362.48 146.98C363.026 147.287 363.633 147.44 364.3 147.44ZM372.472 149V138.4H374.312V141.28L374.132 140.56C374.426 139.827 374.919 139.267 375.612 138.88C376.306 138.493 377.159 138.3 378.172 138.3V140.16C378.092 140.147 378.012 140.14 377.932 140.14C377.866 140.14 377.799 140.14 377.732 140.14C376.706 140.14 375.892 140.447 375.292 141.06C374.692 141.673 374.392 142.56 374.392 143.72V149H372.472ZM380.539 149V138.4H382.459V149H380.539ZM381.499 136.36C381.125 136.36 380.812 136.24 380.559 136C380.319 135.76 380.199 135.467 380.199 135.12C380.199 134.76 380.319 134.46 380.559 134.22C380.812 133.98 381.125 133.86 381.499 133.86C381.872 133.86 382.179 133.98 382.419 134.22C382.672 134.447 382.799 134.733 382.799 135.08C382.799 135.44 382.679 135.747 382.439 136C382.199 136.24 381.885 136.36 381.499 136.36ZM399.385 138.3C400.238 138.3 400.991 138.467 401.645 138.8C402.298 139.133 402.805 139.64 403.165 140.32C403.538 141 403.725 141.86 403.725 142.9V149H401.805V143.12C401.805 142.093 401.565 141.32 401.085 140.8C400.605 140.28 399.931 140.02 399.065 140.02C398.425 140.02 397.865 140.153 397.385 140.42C396.905 140.687 396.531 141.08 396.265 141.6C396.011 142.12 395.885 142.767 395.885 143.54V149H393.965V143.12C393.965 142.093 393.725 141.32 393.245 140.8C392.778 140.28 392.105 140.02 391.225 140.02C390.598 140.02 390.045 140.153 389.565 140.42C389.085 140.687 388.711 141.08 388.445 141.6C388.178 142.12 388.045 142.767 388.045 143.54V149H386.125V138.4H387.965V141.22L387.665 140.5C387.998 139.807 388.511 139.267 389.205 138.88C389.898 138.493 390.705 138.3 391.625 138.3C392.638 138.3 393.511 138.553 394.245 139.06C394.978 139.553 395.458 140.307 395.685 141.32L394.905 141C395.225 140.187 395.785 139.533 396.585 139.04C397.385 138.547 398.318 138.3 399.385 138.3ZM411.978 149.12C410.844 149.12 409.844 148.887 408.978 148.42C408.124 147.953 407.458 147.313 406.978 146.5C406.511 145.687 406.278 144.753 406.278 143.7C406.278 142.647 406.504 141.713 406.958 140.9C407.424 140.087 408.058 139.453 408.858 139C409.671 138.533 410.584 138.3 411.598 138.3C412.624 138.3 413.531 138.527 414.318 138.98C415.104 139.433 415.718 140.073 416.158 140.9C416.611 141.713 416.838 142.667 416.838 143.76C416.838 143.84 416.831 143.933 416.818 144.04C416.818 144.147 416.811 144.247 416.798 144.34H407.778V142.96H415.798L415.018 143.44C415.031 142.76 414.891 142.153 414.598 141.62C414.304 141.087 413.898 140.673 413.378 140.38C412.871 140.073 412.278 139.92 411.598 139.92C410.931 139.92 410.338 140.073 409.818 140.38C409.298 140.673 408.891 141.093 408.598 141.64C408.304 142.173 408.158 142.787 408.158 143.48V143.8C408.158 144.507 408.318 145.14 408.638 145.7C408.971 146.247 409.431 146.673 410.018 146.98C410.604 147.287 411.278 147.44 412.038 147.44C412.664 147.44 413.231 147.333 413.738 147.12C414.258 146.907 414.711 146.587 415.098 146.16L416.158 147.4C415.678 147.96 415.078 148.387 414.358 148.68C413.651 148.973 412.858 149.12 411.978 149.12ZM419.504 149V138.4H421.344V141.28L421.164 140.56C421.457 139.827 421.95 139.267 422.644 138.88C423.337 138.493 424.19 138.3 425.204 138.3V140.16C425.124 140.147 425.044 140.14 424.964 140.14C424.897 140.14 424.83 140.14 424.764 140.14C423.737 140.14 422.924 140.447 422.324 141.06C421.724 141.673 421.424 142.56 421.424 143.72V149H419.504ZM437.698 149.12C436.618 149.12 435.651 148.887 434.798 148.42C433.958 147.953 433.298 147.313 432.818 146.5C432.338 145.687 432.098 144.753 432.098 143.7C432.098 142.647 432.338 141.713 432.818 140.9C433.298 140.087 433.958 139.453 434.798 139C435.651 138.533 436.618 138.3 437.698 138.3C438.658 138.3 439.511 138.493 440.258 138.88C441.018 139.253 441.604 139.813 442.018 140.56L440.558 141.5C440.211 140.98 439.784 140.6 439.278 140.36C438.784 140.107 438.251 139.98 437.678 139.98C436.984 139.98 436.364 140.133 435.818 140.44C435.271 140.747 434.838 141.18 434.518 141.74C434.198 142.287 434.038 142.94 434.038 143.7C434.038 144.46 434.198 145.12 434.518 145.68C434.838 146.24 435.271 146.673 435.818 146.98C436.364 147.287 436.984 147.44 437.678 147.44C438.251 147.44 438.784 147.32 439.278 147.08C439.784 146.827 440.211 146.44 440.558 145.92L442.018 146.84C441.604 147.573 441.018 148.14 440.258 148.54C439.511 148.927 438.658 149.12 437.698 149.12ZM448.887 149.12C447.821 149.12 446.874 148.887 446.047 148.42C445.221 147.953 444.567 147.313 444.087 146.5C443.607 145.673 443.367 144.74 443.367 143.7C443.367 142.647 443.607 141.713 444.087 140.9C444.567 140.087 445.221 139.453 446.047 139C446.874 138.533 447.821 138.3 448.887 138.3C449.941 138.3 450.881 138.533 451.707 139C452.547 139.453 453.201 140.087 453.667 140.9C454.147 141.7 454.387 142.633 454.387 143.7C454.387 144.753 454.147 145.687 453.667 146.5C453.201 147.313 452.547 147.953 451.707 148.42C450.881 148.887 449.941 149.12 448.887 149.12ZM448.887 147.44C449.567 147.44 450.174 147.287 450.707 146.98C451.254 146.673 451.681 146.24 451.987 145.68C452.294 145.107 452.447 144.447 452.447 143.7C452.447 142.94 452.294 142.287 451.987 141.74C451.681 141.18 451.254 140.747 450.707 140.44C450.174 140.133 449.567 139.98 448.887 139.98C448.207 139.98 447.601 140.133 447.067 140.44C446.534 140.747 446.107 141.18 445.787 141.74C445.467 142.287 445.307 142.94 445.307 143.7C445.307 144.447 445.467 145.107 445.787 145.68C446.107 146.24 446.534 146.673 447.067 146.98C447.601 147.287 448.207 147.44 448.887 147.44ZM461.503 149.12C460.596 149.12 459.796 148.953 459.103 148.62C458.423 148.287 457.889 147.78 457.503 147.1C457.129 146.407 456.943 145.54 456.943 144.5V138.4H458.863V144.28C458.863 145.32 459.109 146.1 459.603 146.62C460.109 147.14 460.816 147.4 461.723 147.4C462.389 147.4 462.969 147.267 463.463 147C463.956 146.72 464.336 146.32 464.603 145.8C464.869 145.267 465.003 144.627 465.003 143.88V138.4H466.923V149H465.103V146.14L465.403 146.9C465.056 147.607 464.536 148.153 463.843 148.54C463.149 148.927 462.369 149.12 461.503 149.12ZM470.578 149V138.4H472.418V141.28L472.238 140.56C472.531 139.827 473.024 139.267 473.718 138.88C474.411 138.493 475.264 138.3 476.278 138.3V140.16C476.198 140.147 476.118 140.14 476.038 140.14C475.971 140.14 475.904 140.14 475.838 140.14C474.811 140.14 473.998 140.447 473.398 141.06C472.798 141.673 472.498 142.56 472.498 143.72V149H470.578ZM481.801 149.12C480.921 149.12 480.081 149 479.281 148.76C478.495 148.52 477.875 148.227 477.421 147.88L478.221 146.36C478.675 146.667 479.235 146.927 479.901 147.14C480.568 147.353 481.248 147.46 481.941 147.46C482.835 147.46 483.475 147.333 483.861 147.08C484.261 146.827 484.461 146.473 484.461 146.02C484.461 145.687 484.341 145.427 484.101 145.24C483.861 145.053 483.541 144.913 483.141 144.82C482.755 144.727 482.321 144.647 481.841 144.58C481.361 144.5 480.881 144.407 480.401 144.3C479.921 144.18 479.481 144.02 479.081 143.82C478.681 143.607 478.361 143.32 478.121 142.96C477.881 142.587 477.761 142.093 477.761 141.48C477.761 140.84 477.941 140.28 478.301 139.8C478.661 139.32 479.168 138.953 479.821 138.7C480.488 138.433 481.275 138.3 482.181 138.3C482.875 138.3 483.575 138.387 484.281 138.56C485.001 138.72 485.588 138.953 486.041 139.26L485.221 140.78C484.741 140.46 484.241 140.24 483.721 140.12C483.201 140 482.681 139.94 482.161 139.94C481.321 139.94 480.695 140.08 480.281 140.36C479.868 140.627 479.661 140.973 479.661 141.4C479.661 141.76 479.781 142.04 480.021 142.24C480.275 142.427 480.595 142.573 480.981 142.68C481.381 142.787 481.821 142.88 482.301 142.96C482.781 143.027 483.261 143.12 483.741 143.24C484.221 143.347 484.655 143.5 485.041 143.7C485.441 143.9 485.761 144.18 486.001 144.54C486.255 144.9 486.381 145.38 486.381 145.98C486.381 146.62 486.195 147.173 485.821 147.64C485.448 148.107 484.921 148.473 484.241 148.74C483.561 148.993 482.748 149.12 481.801 149.12ZM493.501 149.12C492.368 149.12 491.368 148.887 490.501 148.42C489.648 147.953 488.981 147.313 488.501 146.5C488.034 145.687 487.801 144.753 487.801 143.7C487.801 142.647 488.028 141.713 488.481 140.9C488.948 140.087 489.581 139.453 490.381 139C491.194 138.533 492.108 138.3 493.121 138.3C494.148 138.3 495.054 138.527 495.841 138.98C496.628 139.433 497.241 140.073 497.681 140.9C498.134 141.713 498.361 142.667 498.361 143.76C498.361 143.84 498.354 143.933 498.341 144.04C498.341 144.147 498.334 144.247 498.321 144.34H489.301V142.96H497.321L496.541 143.44C496.554 142.76 496.414 142.153 496.121 141.62C495.828 141.087 495.421 140.673 494.901 140.38C494.394 140.073 493.801 139.92 493.121 139.92C492.454 139.92 491.861 140.073 491.341 140.38C490.821 140.673 490.414 141.093 490.121 141.64C489.828 142.173 489.681 142.787 489.681 143.48V143.8C489.681 144.507 489.841 145.14 490.161 145.7C490.494 146.247 490.954 146.673 491.541 146.98C492.128 147.287 492.801 147.44 493.561 147.44C494.188 147.44 494.754 147.333 495.261 147.12C495.781 146.907 496.234 146.587 496.621 146.16L497.681 147.4C497.201 147.96 496.601 148.387 495.881 148.68C495.174 148.973 494.381 149.12 493.501 149.12ZM510.938 149.12C509.871 149.12 508.925 148.887 508.098 148.42C507.271 147.953 506.618 147.313 506.138 146.5C505.658 145.673 505.418 144.74 505.418 143.7C505.418 142.647 505.658 141.713 506.138 140.9C506.618 140.087 507.271 139.453 508.098 139C508.925 138.533 509.871 138.3 510.938 138.3C511.991 138.3 512.931 138.533 513.758 139C514.598 139.453 515.251 140.087 515.718 140.9C516.198 141.7 516.438 142.633 516.438 143.7C516.438 144.753 516.198 145.687 515.718 146.5C515.251 147.313 514.598 147.953 513.758 148.42C512.931 148.887 511.991 149.12 510.938 149.12ZM510.938 147.44C511.618 147.44 512.225 147.287 512.758 146.98C513.305 146.673 513.731 146.24 514.038 145.68C514.345 145.107 514.498 144.447 514.498 143.7C514.498 142.94 514.345 142.287 514.038 141.74C513.731 141.18 513.305 140.747 512.758 140.44C512.225 140.133 511.618 139.98 510.938 139.98C510.258 139.98 509.651 140.133 509.118 140.44C508.585 140.747 508.158 141.18 507.838 141.74C507.518 142.287 507.358 142.94 507.358 143.7C507.358 144.447 507.518 145.107 507.838 145.68C508.158 146.24 508.585 146.673 509.118 146.98C509.651 147.287 510.258 147.44 510.938 147.44ZM524.753 138.3C525.62 138.3 526.38 138.467 527.033 138.8C527.7 139.133 528.22 139.64 528.593 140.32C528.967 141 529.153 141.86 529.153 142.9V149H527.233V143.12C527.233 142.093 526.98 141.32 526.473 140.8C525.98 140.28 525.28 140.02 524.373 140.02C523.693 140.02 523.1 140.153 522.593 140.42C522.087 140.687 521.693 141.08 521.413 141.6C521.147 142.12 521.013 142.767 521.013 143.54V149H519.093V138.4H520.933V141.26L520.633 140.5C520.98 139.807 521.513 139.267 522.233 138.88C522.953 138.493 523.793 138.3 524.753 138.3ZM538.358 149V135H544.258C545.751 135 547.064 135.293 548.198 135.88C549.344 136.467 550.231 137.287 550.858 138.34C551.498 139.393 551.818 140.613 551.818 142C551.818 143.387 551.498 144.607 550.858 145.66C550.231 146.713 549.344 147.533 548.198 148.12C547.064 148.707 545.751 149 544.258 149H538.358ZM540.358 147.26H544.138C545.298 147.26 546.298 147.04 547.138 146.6C547.991 146.16 548.651 145.547 549.118 144.76C549.584 143.96 549.818 143.04 549.818 142C549.818 140.947 549.584 140.027 549.118 139.24C548.651 138.453 547.991 137.84 547.138 137.4C546.298 136.96 545.298 136.74 544.138 136.74H540.358V147.26ZM561.181 149V146.76L561.081 146.34V142.52C561.081 141.707 560.841 141.08 560.361 140.64C559.895 140.187 559.188 139.96 558.241 139.96C557.615 139.96 557.001 140.067 556.401 140.28C555.801 140.48 555.295 140.753 554.881 141.1L554.081 139.66C554.628 139.22 555.281 138.887 556.041 138.66C556.815 138.42 557.621 138.3 558.461 138.3C559.915 138.3 561.035 138.653 561.821 139.36C562.608 140.067 563.001 141.147 563.001 142.6V149H561.181ZM557.701 149.12C556.915 149.12 556.221 148.987 555.621 148.72C555.035 148.453 554.581 148.087 554.261 147.62C553.941 147.14 553.781 146.6 553.781 146C553.781 145.427 553.915 144.907 554.181 144.44C554.461 143.973 554.908 143.6 555.521 143.32C556.148 143.04 556.988 142.9 558.041 142.9H561.401V144.28H558.121C557.161 144.28 556.515 144.44 556.181 144.76C555.848 145.08 555.681 145.467 555.681 145.92C555.681 146.44 555.888 146.86 556.301 147.18C556.715 147.487 557.288 147.64 558.021 147.64C558.741 147.64 559.368 147.48 559.901 147.16C560.448 146.84 560.841 146.373 561.081 145.76L561.461 147.08C561.208 147.707 560.761 148.207 560.121 148.58C559.481 148.94 558.675 149.12 557.701 149.12ZM570.194 149.12C569.128 149.12 568.301 148.833 567.714 148.26C567.128 147.687 566.834 146.867 566.834 145.8V136.08H568.754V145.72C568.754 146.293 568.894 146.733 569.174 147.04C569.468 147.347 569.881 147.5 570.414 147.5C571.014 147.5 571.514 147.333 571.914 147L572.514 148.38C572.221 148.633 571.868 148.82 571.454 148.94C571.054 149.06 570.634 149.12 570.194 149.12ZM565.034 139.98V138.4H571.794V139.98H565.034ZM581.416 149V146.76L581.316 146.34V142.52C581.316 141.707 581.076 141.08 580.596 140.64C580.129 140.187 579.422 139.96 578.476 139.96C577.849 139.96 577.236 140.067 576.636 140.28C576.036 140.48 575.529 140.753 575.116 141.1L574.316 139.66C574.862 139.22 575.516 138.887 576.276 138.66C577.049 138.42 577.856 138.3 578.696 138.3C580.149 138.3 581.269 138.653 582.056 139.36C582.842 140.067 583.236 141.147 583.236 142.6V149H581.416ZM577.936 149.12C577.149 149.12 576.456 148.987 575.856 148.72C575.269 148.453 574.816 148.087 574.496 147.62C574.176 147.14 574.016 146.6 574.016 146C574.016 145.427 574.149 144.907 574.416 144.44C574.696 143.973 575.142 143.6 575.756 143.32C576.382 143.04 577.222 142.9 578.276 142.9H581.636V144.28H578.356C577.396 144.28 576.749 144.44 576.416 144.76C576.082 145.08 575.916 145.467 575.916 145.92C575.916 146.44 576.122 146.86 576.536 147.18C576.949 147.487 577.522 147.64 578.256 147.64C578.976 147.64 579.602 147.48 580.136 147.16C580.682 146.84 581.076 146.373 581.316 145.76L581.696 147.08C581.442 147.707 580.996 148.207 580.356 148.58C579.716 148.94 578.909 149.12 577.936 149.12ZM596.52 149.16C595.453 149.16 594.433 149 593.46 148.68C592.487 148.347 591.72 147.92 591.16 147.4L591.9 145.84C592.433 146.307 593.113 146.693 593.94 147C594.767 147.307 595.627 147.46 596.52 147.46C597.333 147.46 597.993 147.367 598.5 147.18C599.007 146.993 599.38 146.74 599.62 146.42C599.86 146.087 599.98 145.713 599.98 145.3C599.98 144.82 599.82 144.433 599.5 144.14C599.193 143.847 598.787 143.613 598.28 143.44C597.787 143.253 597.24 143.093 596.64 142.96C596.04 142.827 595.433 142.673 594.82 142.5C594.22 142.313 593.667 142.08 593.16 141.8C592.667 141.52 592.267 141.147 591.96 140.68C591.653 140.2 591.5 139.587 591.5 138.84C591.5 138.12 591.687 137.46 592.06 136.86C592.447 136.247 593.033 135.76 593.82 135.4C594.62 135.027 595.633 134.84 596.86 134.84C597.673 134.84 598.48 134.947 599.28 135.16C600.08 135.373 600.773 135.68 601.36 136.08L600.7 137.68C600.1 137.28 599.467 136.993 598.8 136.82C598.133 136.633 597.487 136.54 596.86 136.54C596.073 136.54 595.427 136.64 594.92 136.84C594.413 137.04 594.04 137.307 593.8 137.64C593.573 137.973 593.46 138.347 593.46 138.76C593.46 139.253 593.613 139.647 593.92 139.94C594.24 140.233 594.647 140.467 595.14 140.64C595.647 140.813 596.2 140.973 596.8 141.12C597.4 141.253 598 141.407 598.6 141.58C599.213 141.753 599.767 141.98 600.26 142.26C600.767 142.54 601.173 142.913 601.48 143.38C601.787 143.847 601.94 144.447 601.94 145.18C601.94 145.887 601.747 146.547 601.36 147.16C600.973 147.76 600.373 148.247 599.56 148.62C598.76 148.98 597.747 149.16 596.52 149.16ZM609.202 149.12C608.122 149.12 607.155 148.887 606.302 148.42C605.462 147.953 604.802 147.313 604.322 146.5C603.842 145.687 603.602 144.753 603.602 143.7C603.602 142.647 603.842 141.713 604.322 140.9C604.802 140.087 605.462 139.453 606.302 139C607.155 138.533 608.122 138.3 609.202 138.3C610.162 138.3 611.015 138.493 611.762 138.88C612.522 139.253 613.108 139.813 613.522 140.56L612.062 141.5C611.715 140.98 611.288 140.6 610.782 140.36C610.288 140.107 609.755 139.98 609.182 139.98C608.488 139.98 607.868 140.133 607.322 140.44C606.775 140.747 606.342 141.18 606.022 141.74C605.702 142.287 605.542 142.94 605.542 143.7C605.542 144.46 605.702 145.12 606.022 145.68C606.342 146.24 606.775 146.673 607.322 146.98C607.868 147.287 608.488 147.44 609.182 147.44C609.755 147.44 610.288 147.32 610.782 147.08C611.288 146.827 611.715 146.44 612.062 145.92L613.522 146.84C613.108 147.573 612.522 148.14 611.762 148.54C611.015 148.927 610.162 149.12 609.202 149.12ZM615.871 149V138.4H617.791V149H615.871ZM616.831 136.36C616.457 136.36 616.144 136.24 615.891 136C615.651 135.76 615.531 135.467 615.531 135.12C615.531 134.76 615.651 134.46 615.891 134.22C616.144 133.98 616.457 133.86 616.831 133.86C617.204 133.86 617.511 133.98 617.751 134.22C618.004 134.447 618.131 134.733 618.131 135.08C618.131 135.44 618.011 135.747 617.771 136C617.531 136.24 617.217 136.36 616.831 136.36ZM626.177 149.12C625.043 149.12 624.043 148.887 623.177 148.42C622.323 147.953 621.657 147.313 621.177 146.5C620.71 145.687 620.477 144.753 620.477 143.7C620.477 142.647 620.703 141.713 621.157 140.9C621.623 140.087 622.257 139.453 623.057 139C623.87 138.533 624.783 138.3 625.797 138.3C626.823 138.3 627.73 138.527 628.517 138.98C629.303 139.433 629.917 140.073 630.357 140.9C630.81 141.713 631.037 142.667 631.037 143.76C631.037 143.84 631.03 143.933 631.017 144.04C631.017 144.147 631.01 144.247 630.997 144.34H621.977V142.96H629.997L629.217 143.44C629.23 142.76 629.09 142.153 628.797 141.62C628.503 141.087 628.097 140.673 627.577 140.38C627.07 140.073 626.477 139.92 625.797 139.92C625.13 139.92 624.537 140.073 624.017 140.38C623.497 140.673 623.09 141.093 622.797 141.64C622.503 142.173 622.357 142.787 622.357 143.48V143.8C622.357 144.507 622.517 145.14 622.837 145.7C623.17 146.247 623.63 146.673 624.217 146.98C624.803 147.287 625.477 147.44 626.237 147.44C626.863 147.44 627.43 147.333 627.937 147.12C628.457 146.907 628.91 146.587 629.297 146.16L630.357 147.4C629.877 147.96 629.277 148.387 628.557 148.68C627.85 148.973 627.057 149.12 626.177 149.12ZM639.363 138.3C640.229 138.3 640.989 138.467 641.643 138.8C642.309 139.133 642.829 139.64 643.203 140.32C643.576 141 643.763 141.86 643.763 142.9V149H641.843V143.12C641.843 142.093 641.589 141.32 641.083 140.8C640.589 140.28 639.889 140.02 638.983 140.02C638.303 140.02 637.709 140.153 637.203 140.42C636.696 140.687 636.303 141.08 636.023 141.6C635.756 142.12 635.623 142.767 635.623 143.54V149H633.703V138.4H635.543V141.26L635.243 140.5C635.589 139.807 636.123 139.267 636.843 138.88C637.563 138.493 638.403 138.3 639.363 138.3ZM651.936 149.12C650.856 149.12 649.889 148.887 649.036 148.42C648.196 147.953 647.536 147.313 647.056 146.5C646.576 145.687 646.336 144.753 646.336 143.7C646.336 142.647 646.576 141.713 647.056 140.9C647.536 140.087 648.196 139.453 649.036 139C649.889 138.533 650.856 138.3 651.936 138.3C652.896 138.3 653.749 138.493 654.496 138.88C655.256 139.253 655.843 139.813 656.256 140.56L654.796 141.5C654.449 140.98 654.023 140.6 653.516 140.36C653.023 140.107 652.489 139.98 651.916 139.98C651.223 139.98 650.603 140.133 650.056 140.44C649.509 140.747 649.076 141.18 648.756 141.74C648.436 142.287 648.276 142.94 648.276 143.7C648.276 144.46 648.436 145.12 648.756 145.68C649.076 146.24 649.509 146.673 650.056 146.98C650.603 147.287 651.223 147.44 651.916 147.44C652.489 147.44 653.023 147.32 653.516 147.08C654.023 146.827 654.449 146.44 654.796 145.92L656.256 146.84C655.843 147.573 655.256 148.14 654.496 148.54C653.749 148.927 652.896 149.12 651.936 149.12ZM663.306 149.12C662.172 149.12 661.172 148.887 660.306 148.42C659.452 147.953 658.786 147.313 658.306 146.5C657.839 145.687 657.606 144.753 657.606 143.7C657.606 142.647 657.832 141.713 658.286 140.9C658.752 140.087 659.386 139.453 660.186 139C660.999 138.533 661.912 138.3 662.926 138.3C663.952 138.3 664.859 138.527 665.646 138.98C666.432 139.433 667.046 140.073 667.486 140.9C667.939 141.713 668.166 142.667 668.166 143.76C668.166 143.84 668.159 143.933 668.146 144.04C668.146 144.147 668.139 144.247 668.126 144.34H659.106V142.96H667.126L666.346 143.44C666.359 142.76 666.219 142.153 665.926 141.62C665.632 141.087 665.226 140.673 664.706 140.38C664.199 140.073 663.606 139.92 662.926 139.92C662.259 139.92 661.666 140.073 661.146 140.38C660.626 140.673 660.219 141.093 659.926 141.64C659.632 142.173 659.486 142.787 659.486 143.48V143.8C659.486 144.507 659.646 145.14 659.966 145.7C660.299 146.247 660.759 146.673 661.346 146.98C661.932 147.287 662.606 147.44 663.366 147.44C663.992 147.44 664.559 147.333 665.066 147.12C665.586 146.907 666.039 146.587 666.426 146.16L667.486 147.4C667.006 147.96 666.406 148.387 665.686 148.68C664.979 148.973 664.186 149.12 663.306 149.12ZM682.783 149V146.76L682.683 146.34V142.52C682.683 141.707 682.443 141.08 681.963 140.64C681.496 140.187 680.789 139.96 679.843 139.96C679.216 139.96 678.603 140.067 678.003 140.28C677.403 140.48 676.896 140.753 676.483 141.1L675.683 139.66C676.229 139.22 676.883 138.887 677.643 138.66C678.416 138.42 679.223 138.3 680.063 138.3C681.516 138.3 682.636 138.653 683.423 139.36C684.209 140.067 684.603 141.147 684.603 142.6V149H682.783ZM679.303 149.12C678.516 149.12 677.823 148.987 677.223 148.72C676.636 148.453 676.183 148.087 675.863 147.62C675.543 147.14 675.383 146.6 675.383 146C675.383 145.427 675.516 144.907 675.783 144.44C676.063 143.973 676.509 143.6 677.123 143.32C677.749 143.04 678.589 142.9 679.643 142.9H683.003V144.28H679.723C678.763 144.28 678.116 144.44 677.783 144.76C677.449 145.08 677.283 145.467 677.283 145.92C677.283 146.44 677.489 146.86 677.903 147.18C678.316 147.487 678.889 147.64 679.623 147.64C680.343 147.64 680.969 147.48 681.503 147.16C682.049 146.84 682.443 146.373 682.683 145.76L683.063 147.08C682.809 147.707 682.363 148.207 681.723 148.58C681.083 148.94 680.276 149.12 679.303 149.12ZM693.816 138.3C694.683 138.3 695.443 138.467 696.096 138.8C696.763 139.133 697.283 139.64 697.656 140.32C698.029 141 698.216 141.86 698.216 142.9V149H696.296V143.12C696.296 142.093 696.043 141.32 695.536 140.8C695.043 140.28 694.343 140.02 693.436 140.02C692.756 140.02 692.163 140.153 691.656 140.42C691.149 140.687 690.756 141.08 690.476 141.6C690.209 142.12 690.076 142.767 690.076 143.54V149H688.156V138.4H689.996V141.26L689.696 140.5C690.043 139.807 690.576 139.267 691.296 138.88C692.016 138.493 692.856 138.3 693.816 138.3ZM706.149 149.12C705.123 149.12 704.203 148.893 703.389 148.44C702.589 147.987 701.956 147.353 701.489 146.54C701.023 145.727 700.789 144.78 700.789 143.7C700.789 142.62 701.023 141.68 701.489 140.88C701.956 140.067 702.589 139.433 703.389 138.98C704.203 138.527 705.123 138.3 706.149 138.3C707.043 138.3 707.849 138.5 708.569 138.9C709.289 139.3 709.863 139.9 710.289 140.7C710.729 141.5 710.949 142.5 710.949 143.7C710.949 144.9 710.736 145.9 710.309 146.7C709.896 147.5 709.329 148.107 708.609 148.52C707.889 148.92 707.069 149.12 706.149 149.12ZM706.309 147.44C706.976 147.44 707.576 147.287 708.109 146.98C708.656 146.673 709.083 146.24 709.389 145.68C709.709 145.107 709.869 144.447 709.869 143.7C709.869 142.94 709.709 142.287 709.389 141.74C709.083 141.18 708.656 140.747 708.109 140.44C707.576 140.133 706.976 139.98 706.309 139.98C705.629 139.98 705.023 140.133 704.489 140.44C703.956 140.747 703.529 141.18 703.209 141.74C702.889 142.287 702.729 142.94 702.729 143.7C702.729 144.447 702.889 145.107 703.209 145.68C703.529 146.24 703.956 146.673 704.489 146.98C705.023 147.287 705.629 147.44 706.309 147.44ZM709.929 149V146.14L710.049 143.68L709.849 141.22V134.16H711.769V149H709.929ZM721.053 149V135H722.693L728.973 145.58H728.093L734.293 135H735.933L735.953 149H734.033L734.013 138.02H734.473L728.953 147.3H728.033L722.473 138.02H722.973V149H721.053ZM746.455 149V146.76L746.355 146.34V142.52C746.355 141.707 746.115 141.08 745.635 140.64C745.168 140.187 744.461 139.96 743.515 139.96C742.888 139.96 742.275 140.067 741.675 140.28C741.075 140.48 740.568 140.753 740.155 141.1L739.355 139.66C739.901 139.22 740.555 138.887 741.315 138.66C742.088 138.42 742.895 138.3 743.735 138.3C745.188 138.3 746.308 138.653 747.095 139.36C747.881 140.067 748.275 141.147 748.275 142.6V149H746.455ZM742.975 149.12C742.188 149.12 741.495 148.987 740.895 148.72C740.308 148.453 739.855 148.087 739.535 147.62C739.215 147.14 739.055 146.6 739.055 146C739.055 145.427 739.188 144.907 739.455 144.44C739.735 143.973 740.181 143.6 740.795 143.32C741.421 143.04 742.261 142.9 743.315 142.9H746.675V144.28H743.395C742.435 144.28 741.788 144.44 741.455 144.76C741.121 145.08 740.955 145.467 740.955 145.92C740.955 146.44 741.161 146.86 741.575 147.18C741.988 147.487 742.561 147.64 743.295 147.64C744.015 147.64 744.641 147.48 745.175 147.16C745.721 146.84 746.115 146.373 746.355 145.76L746.735 147.08C746.481 147.707 746.035 148.207 745.395 148.58C744.755 148.94 743.948 149.12 742.975 149.12ZM756.448 149.12C755.368 149.12 754.401 148.887 753.548 148.42C752.708 147.953 752.048 147.313 751.568 146.5C751.088 145.687 750.848 144.753 750.848 143.7C750.848 142.647 751.088 141.713 751.568 140.9C752.048 140.087 752.708 139.453 753.548 139C754.401 138.533 755.368 138.3 756.448 138.3C757.408 138.3 758.261 138.493 759.008 138.88C759.768 139.253 760.354 139.813 760.768 140.56L759.308 141.5C758.961 140.98 758.534 140.6 758.028 140.36C757.534 140.107 757.001 139.98 756.428 139.98C755.734 139.98 755.114 140.133 754.568 140.44C754.021 140.747 753.588 141.18 753.268 141.74C752.948 142.287 752.788 142.94 752.788 143.7C752.788 144.46 752.948 145.12 753.268 145.68C753.588 146.24 754.021 146.673 754.568 146.98C755.114 147.287 755.734 147.44 756.428 147.44C757.001 147.44 757.534 147.32 758.028 147.08C758.534 146.827 758.961 146.44 759.308 145.92L760.768 146.84C760.354 147.573 759.768 148.14 759.008 148.54C758.261 148.927 757.408 149.12 756.448 149.12ZM768.777 138.3C769.644 138.3 770.404 138.467 771.057 138.8C771.724 139.133 772.244 139.64 772.617 140.32C772.99 141 773.177 141.86 773.177 142.9V149H771.257V143.12C771.257 142.093 771.004 141.32 770.497 140.8C770.004 140.28 769.304 140.02 768.397 140.02C767.717 140.02 767.124 140.153 766.617 140.42C766.11 140.687 765.717 141.08 765.437 141.6C765.17 142.12 765.037 142.767 765.037 143.54V149H763.117V134.16H765.037V141.26L764.657 140.5C765.004 139.807 765.537 139.267 766.257 138.88C766.977 138.493 767.817 138.3 768.777 138.3ZM776.73 149V138.4H778.65V149H776.73ZM777.69 136.36C777.317 136.36 777.003 136.24 776.75 136C776.51 135.76 776.39 135.467 776.39 135.12C776.39 134.76 776.51 134.46 776.75 134.22C777.003 133.98 777.317 133.86 777.69 133.86C778.063 133.86 778.37 133.98 778.61 134.22C778.863 134.447 778.99 134.733 778.99 135.08C778.99 135.44 778.87 135.747 778.63 136C778.39 136.24 778.077 136.36 777.69 136.36ZM787.976 138.3C788.843 138.3 789.603 138.467 790.256 138.8C790.923 139.133 791.443 139.64 791.816 140.32C792.189 141 792.376 141.86 792.376 142.9V149H790.456V143.12C790.456 142.093 790.203 141.32 789.696 140.8C789.203 140.28 788.503 140.02 787.596 140.02C786.916 140.02 786.323 140.153 785.816 140.42C785.309 140.687 784.916 141.08 784.636 141.6C784.369 142.12 784.236 142.767 784.236 143.54V149H782.316V138.4H784.156V141.26L783.856 140.5C784.203 139.807 784.736 139.267 785.456 138.88C786.176 138.493 787.016 138.3 787.976 138.3ZM800.649 149.12C799.516 149.12 798.516 148.887 797.649 148.42C796.796 147.953 796.129 147.313 795.649 146.5C795.183 145.687 794.949 144.753 794.949 143.7C794.949 142.647 795.176 141.713 795.629 140.9C796.096 140.087 796.729 139.453 797.529 139C798.343 138.533 799.256 138.3 800.269 138.3C801.296 138.3 802.203 138.527 802.989 138.98C803.776 139.433 804.389 140.073 804.829 140.9C805.283 141.713 805.509 142.667 805.509 143.76C805.509 143.84 805.503 143.933 805.489 144.04C805.489 144.147 805.483 144.247 805.469 144.34H796.449V142.96H804.469L803.689 143.44C803.703 142.76 803.563 142.153 803.269 141.62C802.976 141.087 802.569 140.673 802.049 140.38C801.543 140.073 800.949 139.92 800.269 139.92C799.603 139.92 799.009 140.073 798.489 140.38C797.969 140.673 797.563 141.093 797.269 141.64C796.976 142.173 796.829 142.787 796.829 143.48V143.8C796.829 144.507 796.989 145.14 797.309 145.7C797.643 146.247 798.103 146.673 798.689 146.98C799.276 147.287 799.949 147.44 800.709 147.44C801.336 147.44 801.903 147.333 802.409 147.12C802.929 146.907 803.383 146.587 803.769 146.16L804.829 147.4C804.349 147.96 803.749 148.387 803.029 148.68C802.323 148.973 801.529 149.12 800.649 149.12ZM813.827 149V135H815.827V147.26H823.407V149H813.827ZM830.005 149.12C828.872 149.12 827.872 148.887 827.005 148.42C826.152 147.953 825.485 147.313 825.005 146.5C824.538 145.687 824.305 144.753 824.305 143.7C824.305 142.647 824.532 141.713 824.985 140.9C825.452 140.087 826.085 139.453 826.885 139C827.698 138.533 828.612 138.3 829.625 138.3C830.652 138.3 831.558 138.527 832.345 138.98C833.132 139.433 833.745 140.073 834.185 140.9C834.638 141.713 834.865 142.667 834.865 143.76C834.865 143.84 834.858 143.933 834.845 144.04C834.845 144.147 834.838 144.247 834.825 144.34H825.805V142.96H833.825L833.045 143.44C833.058 142.76 832.918 142.153 832.625 141.62C832.332 141.087 831.925 140.673 831.405 140.38C830.898 140.073 830.305 139.92 829.625 139.92C828.958 139.92 828.365 140.073 827.845 140.38C827.325 140.673 826.918 141.093 826.625 141.64C826.332 142.173 826.185 142.787 826.185 143.48V143.8C826.185 144.507 826.345 145.14 826.665 145.7C826.998 146.247 827.458 146.673 828.045 146.98C828.632 147.287 829.305 147.44 830.065 147.44C830.692 147.44 831.258 147.333 831.765 147.12C832.285 146.907 832.738 146.587 833.125 146.16L834.185 147.4C833.705 147.96 833.105 148.387 832.385 148.68C831.678 148.973 830.885 149.12 830.005 149.12ZM843.818 149V146.76L843.718 146.34V142.52C843.718 141.707 843.478 141.08 842.998 140.64C842.531 140.187 841.825 139.96 840.878 139.96C840.251 139.96 839.638 140.067 839.038 140.28C838.438 140.48 837.931 140.753 837.518 141.1L836.718 139.66C837.265 139.22 837.918 138.887 838.678 138.66C839.451 138.42 840.258 138.3 841.098 138.3C842.551 138.3 843.671 138.653 844.458 139.36C845.245 140.067 845.638 141.147 845.638 142.6V149H843.818ZM840.338 149.12C839.551 149.12 838.858 148.987 838.258 148.72C837.671 148.453 837.218 148.087 836.898 147.62C836.578 147.14 836.418 146.6 836.418 146C836.418 145.427 836.551 144.907 836.818 144.44C837.098 143.973 837.545 143.6 838.158 143.32C838.785 143.04 839.625 142.9 840.678 142.9H844.038V144.28H840.758C839.798 144.28 839.151 144.44 838.818 144.76C838.485 145.08 838.318 145.467 838.318 145.92C838.318 146.44 838.525 146.86 838.938 147.18C839.351 147.487 839.925 147.64 840.658 147.64C841.378 147.64 842.005 147.48 842.538 147.16C843.085 146.84 843.478 146.373 843.718 145.76L844.098 147.08C843.845 147.707 843.398 148.207 842.758 148.58C842.118 148.94 841.311 149.12 840.338 149.12ZM849.191 149V138.4H851.031V141.28L850.851 140.56C851.144 139.827 851.638 139.267 852.331 138.88C853.024 138.493 853.878 138.3 854.891 138.3V140.16C854.811 140.147 854.731 140.14 854.651 140.14C854.584 140.14 854.518 140.14 854.451 140.14C853.424 140.14 852.611 140.447 852.011 141.06C851.411 141.673 851.111 142.56 851.111 143.72V149H849.191ZM862.918 138.3C863.784 138.3 864.544 138.467 865.198 138.8C865.864 139.133 866.384 139.64 866.758 140.32C867.131 141 867.318 141.86 867.318 142.9V149H865.398V143.12C865.398 142.093 865.144 141.32 864.638 140.8C864.144 140.28 863.444 140.02 862.538 140.02C861.858 140.02 861.264 140.153 860.758 140.42C860.251 140.687 859.858 141.08 859.578 141.6C859.311 142.12 859.178 142.767 859.178 143.54V149H857.258V138.4H859.098V141.26L858.798 140.5C859.144 139.807 859.678 139.267 860.398 138.88C861.118 138.493 861.958 138.3 862.918 138.3ZM870.871 149V138.4H872.791V149H870.871ZM871.831 136.36C871.457 136.36 871.144 136.24 870.891 136C870.651 135.76 870.531 135.467 870.531 135.12C870.531 134.76 870.651 134.46 870.891 134.22C871.144 133.98 871.457 133.86 871.831 133.86C872.204 133.86 872.511 133.98 872.751 134.22C873.004 134.447 873.131 134.733 873.131 135.08C873.131 135.44 873.011 135.747 872.771 136C872.531 136.24 872.217 136.36 871.831 136.36ZM882.117 138.3C882.983 138.3 883.743 138.467 884.397 138.8C885.063 139.133 885.583 139.64 885.957 140.32C886.33 141 886.517 141.86 886.517 142.9V149H884.597V143.12C884.597 142.093 884.343 141.32 883.837 140.8C883.343 140.28 882.643 140.02 881.737 140.02C881.057 140.02 880.463 140.153 879.957 140.42C879.45 140.687 879.057 141.08 878.777 141.6C878.51 142.12 878.377 142.767 878.377 143.54V149H876.457V138.4H878.297V141.26L877.997 140.5C878.343 139.807 878.877 139.267 879.597 138.88C880.317 138.493 881.157 138.3 882.117 138.3ZM894.71 153C893.737 153 892.79 152.86 891.87 152.58C890.963 152.313 890.223 151.927 889.65 151.42L890.57 149.94C891.063 150.367 891.67 150.7 892.39 150.94C893.11 151.193 893.863 151.32 894.65 151.32C895.903 151.32 896.823 151.027 897.41 150.44C897.997 149.853 898.29 148.96 898.29 147.76V145.52L898.49 143.42L898.39 141.3V138.4H900.21V147.56C900.21 149.427 899.743 150.8 898.81 151.68C897.877 152.56 896.51 153 894.71 153ZM894.47 148.56C893.443 148.56 892.523 148.347 891.71 147.92C890.91 147.48 890.27 146.873 889.79 146.1C889.323 145.327 889.09 144.433 889.09 143.42C889.09 142.393 889.323 141.5 889.79 140.74C890.27 139.967 890.91 139.367 891.71 138.94C892.523 138.513 893.443 138.3 894.47 138.3C895.377 138.3 896.203 138.487 896.95 138.86C897.697 139.22 898.29 139.78 898.73 140.54C899.183 141.3 899.41 142.26 899.41 143.42C899.41 144.567 899.183 145.52 898.73 146.28C898.29 147.04 897.697 147.613 896.95 148C896.203 148.373 895.377 148.56 894.47 148.56ZM894.69 146.88C895.397 146.88 896.023 146.733 896.57 146.44C897.117 146.147 897.543 145.74 897.85 145.22C898.17 144.7 898.33 144.1 898.33 143.42C898.33 142.74 898.17 142.14 897.85 141.62C897.543 141.1 897.117 140.7 896.57 140.42C896.023 140.127 895.397 139.98 894.69 139.98C893.983 139.98 893.35 140.127 892.79 140.42C892.243 140.7 891.81 141.1 891.49 141.62C891.183 142.14 891.03 142.74 891.03 143.42C891.03 144.1 891.183 144.7 891.49 145.22C891.81 145.74 892.243 146.147 892.79 146.44C893.35 146.733 893.983 146.88 894.69 146.88Z" fill="white"/>
<defs>
<linearGradient id="paint0_linear_452_48" x1="-43.5" y1="100" x2="2540" y2="100" gradientUnits="userSpaceOnUse">
<stop stop-color="#022B36"/>
<stop offset="1" stop-color="#00EED9"/>
</linearGradient>
</defs>
</svg>
