<svg width="800" height="160" viewBox="0 0 800 160" fill="none" xmlns="http://www.w3.org/2000/svg">
<path d="M219.237 77.36C216.837 77.36 214.542 77 212.352 76.28C210.162 75.53 208.437 74.57 207.177 73.4L208.842 69.89C210.042 70.94 211.572 71.81 213.432 72.5C215.292 73.19 217.227 73.535 219.237 73.535C221.067 73.535 222.552 73.325 223.692 72.905C224.832 72.485 225.672 71.915 226.212 71.195C226.752 70.445 227.022 69.605 227.022 68.675C227.022 67.595 226.662 66.725 225.942 66.065C225.252 65.405 224.337 64.88 223.197 64.49C222.087 64.07 220.857 63.71 219.507 63.41C218.157 63.11 216.792 62.765 215.412 62.375C214.062 61.955 212.817 61.43 211.677 60.8C210.567 60.17 209.667 59.33 208.977 58.28C208.287 57.2 207.942 55.82 207.942 54.14C207.942 52.52 208.362 51.035 209.202 49.685C210.072 48.305 211.392 47.21 213.162 46.4C214.962 45.56 217.242 45.14 220.002 45.14C221.832 45.14 223.647 45.38 225.447 45.86C227.247 46.34 228.807 47.03 230.127 47.93L228.642 51.53C227.292 50.63 225.867 49.985 224.367 49.595C222.867 49.175 221.412 48.965 220.002 48.965C218.232 48.965 216.777 49.19 215.637 49.64C214.497 50.09 213.657 50.69 213.117 51.44C212.607 52.19 212.352 53.03 212.352 53.96C212.352 55.07 212.697 55.955 213.387 56.615C214.107 57.275 215.022 57.8 216.132 58.19C217.272 58.58 218.517 58.94 219.867 59.27C221.217 59.57 222.567 59.915 223.917 60.305C225.297 60.695 226.542 61.205 227.652 61.835C228.792 62.465 229.707 63.305 230.397 64.355C231.087 65.405 231.432 66.755 231.432 68.405C231.432 69.995 230.997 71.48 230.127 72.86C229.257 74.21 227.907 75.305 226.077 76.145C224.277 76.955 221.997 77.36 219.237 77.36ZM247.411 77.27C245.371 77.27 243.571 76.895 242.011 76.145C240.481 75.395 239.281 74.255 238.411 72.725C237.571 71.165 237.151 69.215 237.151 66.875V53.15H241.471V66.38C241.471 68.72 242.026 70.475 243.136 71.645C244.276 72.815 245.866 73.4 247.906 73.4C249.406 73.4 250.711 73.1 251.821 72.5C252.931 71.87 253.786 70.97 254.386 69.8C254.986 68.6 255.286 67.16 255.286 65.48V53.15H259.606V77H255.511V70.565L256.186 72.275C255.406 73.865 254.236 75.095 252.676 75.965C251.116 76.835 249.361 77.27 247.411 77.27ZM297.665 52.925C299.585 52.925 301.28 53.3 302.75 54.05C304.22 54.8 305.36 55.94 306.17 57.47C307.01 59 307.43 60.935 307.43 63.275V77H303.11V63.77C303.11 61.46 302.57 59.72 301.49 58.55C300.41 57.38 298.895 56.795 296.945 56.795C295.505 56.795 294.245 57.095 293.165 57.695C292.085 58.295 291.245 59.18 290.645 60.35C290.075 61.52 289.79 62.975 289.79 64.715V77H285.47V63.77C285.47 61.46 284.93 59.72 283.85 58.55C282.8 57.38 281.285 56.795 279.305 56.795C277.895 56.795 276.65 57.095 275.57 57.695C274.49 58.295 273.65 59.18 273.05 60.35C272.45 61.52 272.15 62.975 272.15 64.715V77H267.83V53.15H271.97V59.495L271.295 57.875C272.045 56.315 273.2 55.1 274.76 54.23C276.32 53.36 278.135 52.925 280.205 52.925C282.485 52.925 284.45 53.495 286.1 54.635C287.75 55.745 288.83 57.44 289.34 59.72L287.585 59C288.305 57.17 289.565 55.7 291.365 54.59C293.165 53.48 295.265 52.925 297.665 52.925ZM345.214 52.925C347.134 52.925 348.829 53.3 350.299 54.05C351.769 54.8 352.909 55.94 353.719 57.47C354.559 59 354.979 60.935 354.979 63.275V77H350.659V63.77C350.659 61.46 350.119 59.72 349.039 58.55C347.959 57.38 346.444 56.795 344.494 56.795C343.054 56.795 341.794 57.095 340.714 57.695C339.634 58.295 338.794 59.18 338.194 60.35C337.624 61.52 337.339 62.975 337.339 64.715V77H333.019V63.77C333.019 61.46 332.479 59.72 331.399 58.55C330.349 57.38 328.834 56.795 326.854 56.795C325.444 56.795 324.199 57.095 323.119 57.695C322.039 58.295 321.199 59.18 320.599 60.35C319.999 61.52 319.699 62.975 319.699 64.715V77H315.379V53.15H319.519V59.495L318.844 57.875C319.594 56.315 320.749 55.1 322.309 54.23C323.869 53.36 325.684 52.925 327.754 52.925C330.034 52.925 331.999 53.495 333.649 54.635C335.299 55.745 336.379 57.44 336.889 59.72L335.134 59C335.854 57.17 337.114 55.7 338.914 54.59C340.714 53.48 342.814 52.925 345.214 52.925ZM373.548 77.27C370.998 77.27 368.748 76.745 366.798 75.695C364.878 74.645 363.378 73.205 362.298 71.375C361.248 69.545 360.723 67.445 360.723 65.075C360.723 62.705 361.233 60.605 362.253 58.775C363.303 56.945 364.728 55.52 366.528 54.5C368.358 53.45 370.413 52.925 372.693 52.925C375.003 52.925 377.043 53.435 378.813 54.455C380.583 55.475 381.963 56.915 382.953 58.775C383.973 60.605 384.483 62.75 384.483 65.21C384.483 65.39 384.468 65.6 384.438 65.84C384.438 66.08 384.423 66.305 384.393 66.515H364.098V63.41H382.143L380.388 64.49C380.418 62.96 380.103 61.595 379.443 60.395C378.783 59.195 377.868 58.265 376.698 57.605C375.558 56.915 374.223 56.57 372.693 56.57C371.193 56.57 369.858 56.915 368.688 57.605C367.518 58.265 366.603 59.21 365.943 60.44C365.283 61.64 364.953 63.02 364.953 64.58V65.3C364.953 66.89 365.313 68.315 366.033 69.575C366.783 70.805 367.818 71.765 369.138 72.455C370.458 73.145 371.973 73.49 373.683 73.49C375.093 73.49 376.368 73.25 377.508 72.77C378.678 72.29 379.698 71.57 380.568 70.61L382.953 73.4C381.873 74.66 380.523 75.62 378.903 76.28C377.313 76.94 375.528 77.27 373.548 77.27ZM390.482 77V53.15H394.622V59.63L394.217 58.01C394.877 56.36 395.987 55.1 397.547 54.23C399.107 53.36 401.027 52.925 403.307 52.925V57.11C403.127 57.08 402.947 57.065 402.767 57.065C402.617 57.065 402.467 57.065 402.317 57.065C400.007 57.065 398.177 57.755 396.827 59.135C395.477 60.515 394.802 62.51 394.802 65.12V77H390.482ZM416.884 77L431.149 45.5H435.604L449.914 77H445.189L432.454 48.02H434.254L421.519 77H416.884ZM422.959 69.125L424.174 65.525H441.904L443.209 69.125H422.959ZM466.718 52.925C468.668 52.925 470.378 53.3 471.848 54.05C473.348 54.8 474.518 55.94 475.358 57.47C476.198 59 476.618 60.935 476.618 63.275V77H472.298V63.77C472.298 61.46 471.728 59.72 470.588 58.55C469.478 57.38 467.903 56.795 465.863 56.795C464.333 56.795 462.998 57.095 461.858 57.695C460.718 58.295 459.833 59.18 459.203 60.35C458.603 61.52 458.303 62.975 458.303 64.715V77H453.983V53.15H458.123V59.585L457.448 57.875C458.228 56.315 459.428 55.1 461.048 54.23C462.668 53.36 464.558 52.925 466.718 52.925ZM499.418 77V71.96L499.193 71.015V62.42C499.193 60.59 498.653 59.18 497.573 58.19C496.523 57.17 494.933 56.66 492.803 56.66C491.393 56.66 490.013 56.9 488.663 57.38C487.313 57.83 486.173 58.445 485.243 59.225L483.443 55.985C484.673 54.995 486.143 54.245 487.853 53.735C489.593 53.195 491.408 52.925 493.298 52.925C496.568 52.925 499.088 53.72 500.858 55.31C502.628 56.9 503.513 59.33 503.513 62.6V77H499.418ZM491.588 77.27C489.818 77.27 488.258 76.97 486.908 76.37C485.588 75.77 484.568 74.945 483.848 73.895C483.128 72.815 482.768 71.6 482.768 70.25C482.768 68.96 483.068 67.79 483.668 66.74C484.298 65.69 485.303 64.85 486.683 64.22C488.093 63.59 489.983 63.275 492.353 63.275H499.913V66.38H492.533C490.373 66.38 488.918 66.74 488.168 67.46C487.418 68.18 487.043 69.05 487.043 70.07C487.043 71.24 487.508 72.185 488.438 72.905C489.368 73.595 490.658 73.94 492.308 73.94C493.928 73.94 495.338 73.58 496.538 72.86C497.768 72.14 498.653 71.09 499.193 69.71L500.048 72.68C499.478 74.09 498.473 75.215 497.033 76.055C495.593 76.865 493.778 77.27 491.588 77.27ZM511.507 77V43.61H515.827V77H511.507ZM525.11 86C523.97 86 522.86 85.805 521.78 85.415C520.7 85.055 519.77 84.515 518.99 83.795L520.835 80.555C521.435 81.125 522.095 81.56 522.815 81.86C523.535 82.16 524.3 82.31 525.11 82.31C526.16 82.31 527.03 82.04 527.72 81.5C528.41 80.96 529.055 80 529.655 78.62L531.14 75.335L531.59 74.795L540.95 53.15H545.18L533.615 79.385C532.925 81.065 532.145 82.385 531.275 83.345C530.435 84.305 529.505 84.98 528.485 85.37C527.465 85.79 526.34 86 525.11 86ZM530.78 77.765L519.89 53.15H524.39L533.66 74.39L530.78 77.765ZM558.061 77.27C555.661 77.27 553.801 76.625 552.481 75.335C551.161 74.045 550.501 72.2 550.501 69.8V47.93H554.821V69.62C554.821 70.91 555.136 71.9 555.766 72.59C556.426 73.28 557.356 73.625 558.556 73.625C559.906 73.625 561.031 73.25 561.931 72.5L563.281 75.605C562.621 76.175 561.826 76.595 560.896 76.865C559.996 77.135 559.051 77.27 558.061 77.27ZM546.451 56.705V53.15H561.661V56.705H546.451ZM568.504 77V53.15H572.824V77H568.504ZM570.664 48.56C569.824 48.56 569.119 48.29 568.549 47.75C568.009 47.21 567.739 46.55 567.739 45.77C567.739 44.96 568.009 44.285 568.549 43.745C569.119 43.205 569.824 42.935 570.664 42.935C571.504 42.935 572.194 43.205 572.734 43.745C573.304 44.255 573.589 44.9 573.589 45.68C573.589 46.49 573.319 47.18 572.779 47.75C572.239 48.29 571.534 48.56 570.664 48.56ZM591.468 77.27C589.038 77.27 586.863 76.745 584.943 75.695C583.053 74.645 581.568 73.205 580.488 71.375C579.408 69.545 578.868 67.445 578.868 65.075C578.868 62.705 579.408 60.605 580.488 58.775C581.568 56.945 583.053 55.52 584.943 54.5C586.863 53.45 589.038 52.925 591.468 52.925C593.628 52.925 595.548 53.36 597.228 54.23C598.938 55.07 600.258 56.33 601.188 58.01L597.903 60.125C597.123 58.955 596.163 58.1 595.023 57.56C593.913 56.99 592.713 56.705 591.423 56.705C589.863 56.705 588.468 57.05 587.238 57.74C586.008 58.43 585.033 59.405 584.313 60.665C583.593 61.895 583.233 63.365 583.233 65.075C583.233 66.785 583.593 68.27 584.313 69.53C585.033 70.79 586.008 71.765 587.238 72.455C588.468 73.145 589.863 73.49 591.423 73.49C592.713 73.49 593.913 73.22 595.023 72.68C596.163 72.11 597.123 71.24 597.903 70.07L601.188 72.14C600.258 73.79 598.938 75.065 597.228 75.965C595.548 76.835 593.628 77.27 591.468 77.27ZM613.621 77.27C611.641 77.27 609.751 77 607.951 76.46C606.181 75.92 604.786 75.26 603.766 74.48L605.566 71.06C606.586 71.75 607.846 72.335 609.346 72.815C610.846 73.295 612.376 73.535 613.936 73.535C615.946 73.535 617.386 73.25 618.256 72.68C619.156 72.11 619.606 71.315 619.606 70.295C619.606 69.545 619.336 68.96 618.796 68.54C618.256 68.12 617.536 67.805 616.636 67.595C615.766 67.385 614.791 67.205 613.711 67.055C612.631 66.875 611.551 66.665 610.471 66.425C609.391 66.155 608.401 65.795 607.501 65.345C606.601 64.865 605.881 64.22 605.341 63.41C604.801 62.57 604.531 61.46 604.531 60.08C604.531 58.64 604.936 57.38 605.746 56.3C606.556 55.22 607.696 54.395 609.166 53.825C610.666 53.225 612.436 52.925 614.476 52.925C616.036 52.925 617.611 53.12 619.201 53.51C620.821 53.87 622.141 54.395 623.161 55.085L621.316 58.505C620.236 57.785 619.111 57.29 617.941 57.02C616.771 56.75 615.601 56.615 614.431 56.615C612.541 56.615 611.131 56.93 610.201 57.56C609.271 58.16 608.806 58.94 608.806 59.9C608.806 60.71 609.076 61.34 609.616 61.79C610.186 62.21 610.906 62.54 611.776 62.78C612.676 63.02 613.666 63.23 614.746 63.41C615.826 63.56 616.906 63.77 617.986 64.04C619.066 64.28 620.041 64.625 620.911 65.075C621.811 65.525 622.531 66.155 623.071 66.965C623.641 67.775 623.926 68.855 623.926 70.205C623.926 71.645 623.506 72.89 622.666 73.94C621.826 74.99 620.641 75.815 619.111 76.415C617.581 76.985 615.751 77.27 613.621 77.27ZM638.979 77V73.94L651.804 61.565C652.944 60.485 653.784 59.54 654.324 58.73C654.894 57.89 655.269 57.125 655.449 56.435C655.659 55.715 655.764 55.025 655.764 54.365C655.764 52.745 655.194 51.47 654.054 50.54C652.914 49.61 651.249 49.145 649.059 49.145C647.379 49.145 645.864 49.43 644.514 50C643.164 50.54 641.994 51.395 641.004 52.565L637.944 49.91C639.144 48.38 640.749 47.21 642.759 46.4C644.799 45.56 647.034 45.14 649.464 45.14C651.654 45.14 653.559 45.5 655.179 46.22C656.799 46.91 658.044 47.915 658.914 49.235C659.814 50.555 660.264 52.115 660.264 53.915C660.264 54.935 660.129 55.94 659.859 56.93C659.589 57.92 659.079 58.97 658.329 60.08C657.579 61.19 656.499 62.435 655.089 63.815L643.659 74.84L642.579 73.085H661.614V77H638.979ZM678.14 77.36C675.68 77.36 673.475 76.73 671.525 75.47C669.605 74.21 668.075 72.38 666.935 69.98C665.825 67.58 665.27 64.67 665.27 61.25C665.27 57.83 665.825 54.92 666.935 52.52C668.075 50.12 669.605 48.29 671.525 47.03C673.475 45.77 675.68 45.14 678.14 45.14C680.57 45.14 682.76 45.77 684.71 47.03C686.66 48.29 688.19 50.12 689.3 52.52C690.41 54.92 690.965 57.83 690.965 61.25C690.965 64.67 690.41 67.58 689.3 69.98C688.19 72.38 686.66 74.21 684.71 75.47C682.76 76.73 680.57 77.36 678.14 77.36ZM678.14 73.355C679.79 73.355 681.23 72.905 682.46 72.005C683.72 71.105 684.695 69.755 685.385 67.955C686.105 66.155 686.465 63.92 686.465 61.25C686.465 58.58 686.105 56.345 685.385 54.545C684.695 52.745 683.72 51.395 682.46 50.495C681.23 49.595 679.79 49.145 678.14 49.145C676.49 49.145 675.035 49.595 673.775 50.495C672.515 51.395 671.525 52.745 670.805 54.545C670.115 56.345 669.77 58.58 669.77 61.25C669.77 63.92 670.115 66.155 670.805 67.955C671.525 69.755 672.515 71.105 673.775 72.005C675.035 72.905 676.49 73.355 678.14 73.355ZM694.79 77V73.94L707.615 61.565C708.755 60.485 709.595 59.54 710.135 58.73C710.705 57.89 711.08 57.125 711.26 56.435C711.47 55.715 711.575 55.025 711.575 54.365C711.575 52.745 711.005 51.47 709.865 50.54C708.725 49.61 707.06 49.145 704.87 49.145C703.19 49.145 701.675 49.43 700.325 50C698.975 50.54 697.805 51.395 696.815 52.565L693.755 49.91C694.955 48.38 696.56 47.21 698.57 46.4C700.61 45.56 702.845 45.14 705.275 45.14C707.465 45.14 709.37 45.5 710.99 46.22C712.61 46.91 713.855 47.915 714.725 49.235C715.625 50.555 716.075 52.115 716.075 53.915C716.075 54.935 715.94 55.94 715.67 56.93C715.4 57.92 714.89 58.97 714.14 60.08C713.39 61.19 712.31 62.435 710.9 63.815L699.47 74.84L698.39 73.085H717.425V77H694.79ZM720.63 77V73.94L733.455 61.565C734.595 60.485 735.435 59.54 735.975 58.73C736.545 57.89 736.92 57.125 737.1 56.435C737.31 55.715 737.415 55.025 737.415 54.365C737.415 52.745 736.845 51.47 735.705 50.54C734.565 49.61 732.9 49.145 730.71 49.145C729.03 49.145 727.515 49.43 726.165 50C724.815 50.54 723.645 51.395 722.655 52.565L719.595 49.91C720.795 48.38 722.4 47.21 724.41 46.4C726.45 45.56 728.685 45.14 731.115 45.14C733.305 45.14 735.21 45.5 736.83 46.22C738.45 46.91 739.695 47.915 740.565 49.235C741.465 50.555 741.915 52.115 741.915 53.915C741.915 54.935 741.78 55.94 741.51 56.93C741.24 57.92 740.73 58.97 739.98 60.08C739.23 61.19 738.15 62.435 736.74 63.815L725.31 74.84L724.23 73.085H743.265V77H720.63Z" fill="white"/>
<path d="M222.775 122.977L228.445 110.377H230.749L236.437 122.977H233.989L229.111 111.619H230.047L225.187 122.977H222.775ZM225.385 120.061L226.015 118.225H232.819L233.449 120.061H225.385ZM248.126 123.103C247.346 123.103 246.632 122.923 245.984 122.563C245.348 122.203 244.838 121.663 244.454 120.943C244.082 120.211 243.896 119.287 243.896 118.171C243.896 117.043 244.076 116.119 244.436 115.399C244.808 114.679 245.312 114.145 245.948 113.797C246.584 113.437 247.31 113.257 248.126 113.257C249.074 113.257 249.908 113.461 250.628 113.869C251.36 114.277 251.936 114.847 252.356 115.579C252.788 116.311 253.004 117.175 253.004 118.171C253.004 119.167 252.788 120.037 252.356 120.781C251.936 121.513 251.36 122.083 250.628 122.491C249.908 122.899 249.074 123.103 248.126 123.103ZM242.798 126.469V113.365H244.94V115.633L244.868 118.189L245.048 120.745V126.469H242.798ZM247.874 121.177C248.414 121.177 248.894 121.057 249.314 120.817C249.746 120.577 250.088 120.229 250.34 119.773C250.592 119.317 250.718 118.783 250.718 118.171C250.718 117.547 250.592 117.013 250.34 116.569C250.088 116.113 249.746 115.765 249.314 115.525C248.894 115.285 248.414 115.165 247.874 115.165C247.334 115.165 246.848 115.285 246.416 115.525C245.984 115.765 245.642 116.113 245.39 116.569C245.138 117.013 245.012 117.547 245.012 118.171C245.012 118.783 245.138 119.317 245.39 119.773C245.642 120.229 245.984 120.577 246.416 120.817C246.848 121.057 247.334 121.177 247.874 121.177ZM255.138 122.977V113.365H257.28V116.011L257.028 115.237C257.316 114.589 257.766 114.097 258.378 113.761C259.002 113.425 259.776 113.257 260.7 113.257V115.399C260.604 115.375 260.514 115.363 260.43 115.363C260.346 115.351 260.262 115.345 260.178 115.345C259.326 115.345 258.648 115.597 258.144 116.101C257.64 116.593 257.388 117.331 257.388 118.315V122.977H255.138ZM262.609 122.977V113.365H264.859V122.977H262.609ZM263.743 111.781C263.323 111.781 262.975 111.649 262.699 111.385C262.435 111.121 262.303 110.803 262.303 110.431C262.303 110.047 262.435 109.729 262.699 109.477C262.975 109.213 263.323 109.081 263.743 109.081C264.163 109.081 264.505 109.207 264.769 109.459C265.045 109.699 265.183 110.005 265.183 110.377C265.183 110.773 265.051 111.109 264.787 111.385C264.523 111.649 264.175 111.781 263.743 111.781ZM279.944 113.257C280.712 113.257 281.39 113.407 281.978 113.707C282.578 114.007 283.046 114.469 283.382 115.093C283.718 115.705 283.886 116.497 283.886 117.469V122.977H281.636V117.757C281.636 116.905 281.45 116.269 281.078 115.849C280.706 115.429 280.172 115.219 279.476 115.219C278.984 115.219 278.546 115.327 278.162 115.543C277.79 115.759 277.496 116.077 277.28 116.497C277.076 116.917 276.974 117.451 276.974 118.099V122.977H274.724V117.757C274.724 116.905 274.538 116.269 274.166 115.849C273.794 115.429 273.26 115.219 272.564 115.219C272.072 115.219 271.634 115.327 271.25 115.543C270.878 115.759 270.584 116.077 270.368 116.497C270.164 116.917 270.062 117.451 270.062 118.099V122.977H267.812V113.365H269.954V115.921L269.576 115.165C269.9 114.541 270.368 114.067 270.98 113.743C271.604 113.419 272.312 113.257 273.104 113.257C274.004 113.257 274.784 113.479 275.444 113.923C276.116 114.367 276.56 115.039 276.776 115.939L275.894 115.633C276.206 114.913 276.722 114.337 277.442 113.905C278.162 113.473 278.996 113.257 279.944 113.257ZM291.297 123.103C290.229 123.103 289.293 122.893 288.489 122.473C287.697 122.041 287.079 121.453 286.635 120.709C286.203 119.965 285.987 119.119 285.987 118.171C285.987 117.211 286.197 116.365 286.617 115.633C287.049 114.889 287.637 114.307 288.381 113.887C289.137 113.467 289.995 113.257 290.955 113.257C291.891 113.257 292.725 113.461 293.457 113.869C294.189 114.277 294.765 114.853 295.185 115.597C295.605 116.341 295.815 117.217 295.815 118.225C295.815 118.321 295.809 118.429 295.797 118.549C295.797 118.669 295.791 118.783 295.779 118.891H287.769V117.397H294.591L293.709 117.865C293.721 117.313 293.607 116.827 293.367 116.407C293.127 115.987 292.797 115.657 292.377 115.417C291.969 115.177 291.495 115.057 290.955 115.057C290.403 115.057 289.917 115.177 289.497 115.417C289.089 115.657 288.765 115.993 288.525 116.425C288.297 116.845 288.183 117.343 288.183 117.919V118.279C288.183 118.855 288.315 119.365 288.579 119.809C288.843 120.253 289.215 120.595 289.695 120.835C290.175 121.075 290.727 121.195 291.351 121.195C291.891 121.195 292.377 121.111 292.809 120.943C293.241 120.775 293.625 120.511 293.961 120.151L295.167 121.537C294.735 122.041 294.189 122.431 293.529 122.707C292.881 122.971 292.137 123.103 291.297 123.103ZM297.976 122.977V113.365H300.118V116.011L299.866 115.237C300.154 114.589 300.604 114.097 301.216 113.761C301.84 113.425 302.614 113.257 303.538 113.257V115.399C303.442 115.375 303.352 115.363 303.268 115.363C303.184 115.351 303.1 115.345 303.016 115.345C302.164 115.345 301.486 115.597 300.982 116.101C300.478 116.593 300.226 117.331 300.226 118.315V122.977H297.976ZM314.919 123.103C313.911 123.103 313.011 122.893 312.219 122.473C311.439 122.041 310.827 121.453 310.383 120.709C309.939 119.965 309.717 119.119 309.717 118.171C309.717 117.211 309.939 116.365 310.383 115.633C310.827 114.889 311.439 114.307 312.219 113.887C313.011 113.467 313.911 113.257 314.919 113.257C315.855 113.257 316.677 113.449 317.385 113.833C318.105 114.205 318.651 114.757 319.023 115.489L317.295 116.497C317.007 116.041 316.653 115.705 316.233 115.489C315.825 115.273 315.381 115.165 314.901 115.165C314.349 115.165 313.851 115.285 313.407 115.525C312.963 115.765 312.615 116.113 312.363 116.569C312.111 117.013 311.985 117.547 311.985 118.171C311.985 118.795 312.111 119.335 312.363 119.791C312.615 120.235 312.963 120.577 313.407 120.817C313.851 121.057 314.349 121.177 314.901 121.177C315.381 121.177 315.825 121.069 316.233 120.853C316.653 120.637 317.007 120.301 317.295 119.845L319.023 120.853C318.651 121.573 318.105 122.131 317.385 122.527C316.677 122.911 315.855 123.103 314.919 123.103ZM325.148 123.103C324.164 123.103 323.288 122.893 322.52 122.473C321.752 122.041 321.146 121.453 320.702 120.709C320.258 119.965 320.036 119.119 320.036 118.171C320.036 117.211 320.258 116.365 320.702 115.633C321.146 114.889 321.752 114.307 322.52 113.887C323.288 113.467 324.164 113.257 325.148 113.257C326.144 113.257 327.026 113.467 327.794 113.887C328.574 114.307 329.18 114.883 329.612 115.615C330.056 116.347 330.278 117.199 330.278 118.171C330.278 119.119 330.056 119.965 329.612 120.709C329.18 121.453 328.574 122.041 327.794 122.473C327.026 122.893 326.144 123.103 325.148 123.103ZM325.148 121.177C325.7 121.177 326.192 121.057 326.624 120.817C327.056 120.577 327.392 120.229 327.632 119.773C327.884 119.317 328.01 118.783 328.01 118.171C328.01 117.547 327.884 117.013 327.632 116.569C327.392 116.113 327.056 115.765 326.624 115.525C326.192 115.285 325.706 115.165 325.166 115.165C324.614 115.165 324.122 115.285 323.69 115.525C323.27 115.765 322.934 116.113 322.682 116.569C322.43 117.013 322.304 117.547 322.304 118.171C322.304 118.783 322.43 119.317 322.682 119.773C322.934 120.229 323.27 120.577 323.69 120.817C324.122 121.057 324.608 121.177 325.148 121.177ZM336.497 123.103C335.681 123.103 334.961 122.953 334.337 122.653C333.713 122.341 333.227 121.873 332.879 121.249C332.531 120.613 332.357 119.815 332.357 118.855V113.365H334.607V118.549C334.607 119.413 334.799 120.061 335.183 120.493C335.579 120.913 336.137 121.123 336.857 121.123C337.385 121.123 337.841 121.015 338.225 120.799C338.621 120.583 338.927 120.259 339.143 119.827C339.371 119.395 339.485 118.861 339.485 118.225V113.365H341.735V122.977H339.593V120.385L339.971 121.177C339.647 121.801 339.173 122.281 338.549 122.617C337.925 122.941 337.241 123.103 336.497 123.103ZM344.681 122.977V113.365H346.823V116.011L346.571 115.237C346.859 114.589 347.309 114.097 347.921 113.761C348.545 113.425 349.319 113.257 350.243 113.257V115.399C350.147 115.375 350.057 115.363 349.973 115.363C349.889 115.351 349.805 115.345 349.721 115.345C348.869 115.345 348.191 115.597 347.687 116.101C347.183 116.593 346.931 117.331 346.931 118.315V122.977H344.681ZM355.21 123.103C354.406 123.103 353.632 123.001 352.888 122.797C352.156 122.581 351.574 122.323 351.142 122.023L352.006 120.313C352.438 120.589 352.954 120.817 353.554 120.997C354.154 121.177 354.754 121.267 355.354 121.267C356.062 121.267 356.572 121.171 356.884 120.979C357.208 120.787 357.37 120.529 357.37 120.205C357.37 119.941 357.262 119.743 357.046 119.611C356.83 119.467 356.548 119.359 356.2 119.287C355.852 119.215 355.462 119.149 355.03 119.089C354.61 119.029 354.184 118.951 353.752 118.855C353.332 118.747 352.948 118.597 352.6 118.405C352.252 118.201 351.97 117.931 351.754 117.595C351.538 117.259 351.43 116.815 351.43 116.263C351.43 115.651 351.604 115.123 351.952 114.679C352.3 114.223 352.786 113.875 353.41 113.635C354.046 113.383 354.796 113.257 355.66 113.257C356.308 113.257 356.962 113.329 357.622 113.473C358.282 113.617 358.828 113.821 359.26 114.085L358.396 115.795C357.94 115.519 357.478 115.333 357.01 115.237C356.554 115.129 356.098 115.075 355.642 115.075C354.958 115.075 354.448 115.177 354.112 115.381C353.788 115.585 353.626 115.843 353.626 116.155C353.626 116.443 353.734 116.659 353.95 116.803C354.166 116.947 354.448 117.061 354.796 117.145C355.144 117.229 355.528 117.301 355.948 117.361C356.38 117.409 356.806 117.487 357.226 117.595C357.646 117.703 358.03 117.853 358.378 118.045C358.738 118.225 359.026 118.483 359.242 118.819C359.458 119.155 359.566 119.593 359.566 120.133C359.566 120.733 359.386 121.255 359.026 121.699C358.678 122.143 358.18 122.491 357.532 122.743C356.884 122.983 356.11 123.103 355.21 123.103ZM366.021 123.103C364.953 123.103 364.017 122.893 363.213 122.473C362.421 122.041 361.803 121.453 361.359 120.709C360.927 119.965 360.711 119.119 360.711 118.171C360.711 117.211 360.921 116.365 361.341 115.633C361.773 114.889 362.361 114.307 363.105 113.887C363.861 113.467 364.719 113.257 365.679 113.257C366.615 113.257 367.449 113.461 368.181 113.869C368.913 114.277 369.489 114.853 369.909 115.597C370.329 116.341 370.539 117.217 370.539 118.225C370.539 118.321 370.533 118.429 370.521 118.549C370.521 118.669 370.515 118.783 370.503 118.891H362.493V117.397H369.315L368.433 117.865C368.445 117.313 368.331 116.827 368.091 116.407C367.851 115.987 367.521 115.657 367.101 115.417C366.693 115.177 366.219 115.057 365.679 115.057C365.127 115.057 364.641 115.177 364.221 115.417C363.813 115.657 363.489 115.993 363.249 116.425C363.021 116.845 362.907 117.343 362.907 117.919V118.279C362.907 118.855 363.039 119.365 363.303 119.809C363.567 120.253 363.939 120.595 364.419 120.835C364.899 121.075 365.451 121.195 366.075 121.195C366.615 121.195 367.101 121.111 367.533 120.943C367.965 120.775 368.349 120.511 368.685 120.151L369.891 121.537C369.459 122.041 368.913 122.431 368.253 122.707C367.605 122.971 366.861 123.103 366.021 123.103ZM381.995 123.103C381.011 123.103 380.135 122.893 379.367 122.473C378.599 122.041 377.993 121.453 377.549 120.709C377.105 119.965 376.883 119.119 376.883 118.171C376.883 117.211 377.105 116.365 377.549 115.633C377.993 114.889 378.599 114.307 379.367 113.887C380.135 113.467 381.011 113.257 381.995 113.257C382.991 113.257 383.873 113.467 384.641 113.887C385.421 114.307 386.027 114.883 386.459 115.615C386.903 116.347 387.125 117.199 387.125 118.171C387.125 119.119 386.903 119.965 386.459 120.709C386.027 121.453 385.421 122.041 384.641 122.473C383.873 122.893 382.991 123.103 381.995 123.103ZM381.995 121.177C382.547 121.177 383.039 121.057 383.471 120.817C383.903 120.577 384.239 120.229 384.479 119.773C384.731 119.317 384.857 118.783 384.857 118.171C384.857 117.547 384.731 117.013 384.479 116.569C384.239 116.113 383.903 115.765 383.471 115.525C383.039 115.285 382.553 115.165 382.013 115.165C381.461 115.165 380.969 115.285 380.537 115.525C380.117 115.765 379.781 116.113 379.529 116.569C379.277 117.013 379.151 117.547 379.151 118.171C379.151 118.783 379.277 119.317 379.529 119.773C379.781 120.229 380.117 120.577 380.537 120.817C380.969 121.057 381.455 121.177 381.995 121.177ZM394.731 113.257C395.499 113.257 396.183 113.407 396.783 113.707C397.395 114.007 397.875 114.469 398.223 115.093C398.571 115.705 398.745 116.497 398.745 117.469V122.977H396.495V117.757C396.495 116.905 396.291 116.269 395.883 115.849C395.487 115.429 394.929 115.219 394.209 115.219C393.681 115.219 393.213 115.327 392.805 115.543C392.397 115.759 392.079 116.083 391.851 116.515C391.635 116.935 391.527 117.469 391.527 118.117V122.977H389.277V113.365H391.419V115.957L391.041 115.165C391.377 114.553 391.863 114.085 392.499 113.761C393.147 113.425 393.891 113.257 394.731 113.257ZM406.79 122.977V110.377H412.298C413.666 110.377 414.866 110.641 415.898 111.169C416.93 111.697 417.734 112.429 418.31 113.365C418.886 114.301 419.174 115.405 419.174 116.677C419.174 117.937 418.886 119.041 418.31 119.989C417.734 120.925 416.93 121.657 415.898 122.185C414.866 122.713 413.666 122.977 412.298 122.977H406.79ZM409.13 120.997H412.19C413.138 120.997 413.954 120.817 414.638 120.457C415.334 120.097 415.868 119.593 416.24 118.945C416.624 118.297 416.816 117.541 416.816 116.677C416.816 115.801 416.624 115.045 416.24 114.409C415.868 113.761 415.334 113.257 414.638 112.897C413.954 112.537 413.138 112.357 412.19 112.357H409.13V120.997ZM427.367 122.977V121.033L427.241 120.619V117.217C427.241 116.557 427.043 116.047 426.647 115.687C426.251 115.315 425.651 115.129 424.847 115.129C424.307 115.129 423.773 115.213 423.245 115.381C422.729 115.549 422.291 115.783 421.931 116.083L421.049 114.445C421.565 114.049 422.177 113.755 422.885 113.563C423.605 113.359 424.349 113.257 425.117 113.257C426.509 113.257 427.583 113.593 428.339 114.265C429.107 114.925 429.491 115.951 429.491 117.343V122.977H427.367ZM424.343 123.103C423.623 123.103 422.993 122.983 422.453 122.743C421.913 122.491 421.493 122.149 421.193 121.717C420.905 121.273 420.761 120.775 420.761 120.223C420.761 119.683 420.887 119.197 421.139 118.765C421.403 118.333 421.829 117.991 422.417 117.739C423.005 117.487 423.785 117.361 424.757 117.361H427.547V118.855H424.919C424.151 118.855 423.635 118.981 423.371 119.233C423.107 119.473 422.975 119.773 422.975 120.133C422.975 120.541 423.137 120.865 423.461 121.105C423.785 121.345 424.235 121.465 424.811 121.465C425.363 121.465 425.855 121.339 426.287 121.087C426.731 120.835 427.049 120.463 427.241 119.971L427.619 121.321C427.403 121.885 427.013 122.323 426.449 122.635C425.897 122.947 425.195 123.103 424.343 123.103ZM435.996 123.103C434.94 123.103 434.124 122.833 433.548 122.293C432.972 121.741 432.684 120.931 432.684 119.863V111.241H434.934V119.809C434.934 120.265 435.048 120.619 435.276 120.871C435.516 121.123 435.846 121.249 436.266 121.249C436.77 121.249 437.19 121.117 437.526 120.853L438.156 122.455C437.892 122.671 437.568 122.833 437.184 122.941C436.8 123.049 436.404 123.103 435.996 123.103ZM431.1 115.237V113.437H437.508V115.237H431.1ZM445.929 122.977V121.033L445.803 120.619V117.217C445.803 116.557 445.605 116.047 445.209 115.687C444.813 115.315 444.213 115.129 443.409 115.129C442.869 115.129 442.335 115.213 441.807 115.381C441.291 115.549 440.853 115.783 440.493 116.083L439.611 114.445C440.127 114.049 440.739 113.755 441.447 113.563C442.167 113.359 442.911 113.257 443.679 113.257C445.071 113.257 446.145 113.593 446.901 114.265C447.669 114.925 448.053 115.951 448.053 117.343V122.977H445.929ZM442.905 123.103C442.185 123.103 441.555 122.983 441.015 122.743C440.475 122.491 440.055 122.149 439.755 121.717C439.467 121.273 439.323 120.775 439.323 120.223C439.323 119.683 439.449 119.197 439.701 118.765C439.965 118.333 440.391 117.991 440.979 117.739C441.567 117.487 442.347 117.361 443.319 117.361H446.109V118.855H443.481C442.713 118.855 442.197 118.981 441.933 119.233C441.669 119.473 441.537 119.773 441.537 120.133C441.537 120.541 441.699 120.865 442.023 121.105C442.347 121.345 442.797 121.465 443.373 121.465C443.925 121.465 444.417 121.339 444.849 121.087C445.293 120.835 445.611 120.463 445.803 119.971L446.181 121.321C445.965 121.885 445.575 122.323 445.011 122.635C444.459 122.947 443.757 123.103 442.905 123.103ZM460.037 123.157C459.053 123.157 458.111 123.019 457.211 122.743C456.311 122.455 455.597 122.089 455.069 121.645L455.879 119.827C456.383 120.223 457.007 120.553 457.751 120.817C458.495 121.081 459.257 121.213 460.037 121.213C460.697 121.213 461.231 121.141 461.639 120.997C462.047 120.853 462.347 120.661 462.539 120.421C462.731 120.169 462.827 119.887 462.827 119.575C462.827 119.191 462.689 118.885 462.413 118.657C462.137 118.417 461.777 118.231 461.333 118.099C460.901 117.955 460.415 117.823 459.875 117.703C459.347 117.583 458.813 117.445 458.273 117.289C457.745 117.121 457.259 116.911 456.815 116.659C456.383 116.395 456.029 116.047 455.753 115.615C455.477 115.183 455.339 114.631 455.339 113.959C455.339 113.275 455.519 112.651 455.879 112.087C456.251 111.511 456.809 111.055 457.553 110.719C458.309 110.371 459.263 110.197 460.415 110.197C461.171 110.197 461.921 110.293 462.665 110.485C463.409 110.677 464.057 110.953 464.609 111.313L463.871 113.131C463.307 112.795 462.725 112.549 462.125 112.393C461.525 112.225 460.949 112.141 460.397 112.141C459.749 112.141 459.221 112.219 458.813 112.375C458.417 112.531 458.123 112.735 457.931 112.987C457.751 113.239 457.661 113.527 457.661 113.851C457.661 114.235 457.793 114.547 458.057 114.787C458.333 115.015 458.687 115.195 459.119 115.327C459.563 115.459 460.055 115.591 460.595 115.723C461.135 115.843 461.669 115.981 462.197 116.137C462.737 116.293 463.223 116.497 463.655 116.749C464.099 117.001 464.453 117.343 464.717 117.775C464.993 118.207 465.131 118.753 465.131 119.413C465.131 120.085 464.945 120.709 464.573 121.285C464.213 121.849 463.655 122.305 462.899 122.653C462.143 122.989 461.189 123.157 460.037 123.157ZM471.646 123.103C470.638 123.103 469.738 122.893 468.946 122.473C468.166 122.041 467.554 121.453 467.11 120.709C466.666 119.965 466.444 119.119 466.444 118.171C466.444 117.211 466.666 116.365 467.11 115.633C467.554 114.889 468.166 114.307 468.946 113.887C469.738 113.467 470.638 113.257 471.646 113.257C472.582 113.257 473.404 113.449 474.112 113.833C474.832 114.205 475.378 114.757 475.75 115.489L474.022 116.497C473.734 116.041 473.38 115.705 472.96 115.489C472.552 115.273 472.108 115.165 471.628 115.165C471.076 115.165 470.578 115.285 470.134 115.525C469.69 115.765 469.342 116.113 469.09 116.569C468.838 117.013 468.712 117.547 468.712 118.171C468.712 118.795 468.838 119.335 469.09 119.791C469.342 120.235 469.69 120.577 470.134 120.817C470.578 121.057 471.076 121.177 471.628 121.177C472.108 121.177 472.552 121.069 472.96 120.853C473.38 120.637 473.734 120.301 474.022 119.845L475.75 120.853C475.378 121.573 474.832 122.131 474.112 122.527C473.404 122.911 472.582 123.103 471.646 123.103ZM477.607 122.977V113.365H479.857V122.977H477.607ZM478.741 111.781C478.321 111.781 477.973 111.649 477.697 111.385C477.433 111.121 477.301 110.803 477.301 110.431C477.301 110.047 477.433 109.729 477.697 109.477C477.973 109.213 478.321 109.081 478.741 109.081C479.161 109.081 479.503 109.207 479.767 109.459C480.043 109.699 480.181 110.005 480.181 110.377C480.181 110.773 480.049 111.109 479.785 111.385C479.521 111.649 479.173 111.781 478.741 111.781ZM487.328 123.103C486.26 123.103 485.324 122.893 484.52 122.473C483.728 122.041 483.11 121.453 482.666 120.709C482.234 119.965 482.018 119.119 482.018 118.171C482.018 117.211 482.228 116.365 482.648 115.633C483.08 114.889 483.668 114.307 484.412 113.887C485.168 113.467 486.026 113.257 486.986 113.257C487.922 113.257 488.756 113.461 489.488 113.869C490.22 114.277 490.796 114.853 491.216 115.597C491.636 116.341 491.846 117.217 491.846 118.225C491.846 118.321 491.84 118.429 491.828 118.549C491.828 118.669 491.822 118.783 491.81 118.891H483.8V117.397H490.622L489.74 117.865C489.752 117.313 489.638 116.827 489.398 116.407C489.158 115.987 488.828 115.657 488.408 115.417C488 115.177 487.526 115.057 486.986 115.057C486.434 115.057 485.948 115.177 485.528 115.417C485.12 115.657 484.796 115.993 484.556 116.425C484.328 116.845 484.214 117.343 484.214 117.919V118.279C484.214 118.855 484.346 119.365 484.61 119.809C484.874 120.253 485.246 120.595 485.726 120.835C486.206 121.075 486.758 121.195 487.382 121.195C487.922 121.195 488.408 121.111 488.84 120.943C489.272 120.775 489.656 120.511 489.992 120.151L491.198 121.537C490.766 122.041 490.22 122.431 489.56 122.707C488.912 122.971 488.168 123.103 487.328 123.103ZM499.461 113.257C500.229 113.257 500.913 113.407 501.513 113.707C502.125 114.007 502.605 114.469 502.953 115.093C503.301 115.705 503.475 116.497 503.475 117.469V122.977H501.225V117.757C501.225 116.905 501.021 116.269 500.613 115.849C500.217 115.429 499.659 115.219 498.939 115.219C498.411 115.219 497.943 115.327 497.535 115.543C497.127 115.759 496.809 116.083 496.581 116.515C496.365 116.935 496.257 117.469 496.257 118.117V122.977H494.007V113.365H496.149V115.957L495.771 115.165C496.107 114.553 496.593 114.085 497.229 113.761C497.877 113.425 498.621 113.257 499.461 113.257ZM510.757 123.103C509.749 123.103 508.849 122.893 508.057 122.473C507.277 122.041 506.665 121.453 506.221 120.709C505.777 119.965 505.555 119.119 505.555 118.171C505.555 117.211 505.777 116.365 506.221 115.633C506.665 114.889 507.277 114.307 508.057 113.887C508.849 113.467 509.749 113.257 510.757 113.257C511.693 113.257 512.515 113.449 513.223 113.833C513.943 114.205 514.489 114.757 514.861 115.489L513.133 116.497C512.845 116.041 512.491 115.705 512.071 115.489C511.663 115.273 511.219 115.165 510.739 115.165C510.187 115.165 509.689 115.285 509.245 115.525C508.801 115.765 508.453 116.113 508.201 116.569C507.949 117.013 507.823 117.547 507.823 118.171C507.823 118.795 507.949 119.335 508.201 119.791C508.453 120.235 508.801 120.577 509.245 120.817C509.689 121.057 510.187 121.177 510.739 121.177C511.219 121.177 511.663 121.069 512.071 120.853C512.491 120.637 512.845 120.301 513.133 119.845L514.861 120.853C514.489 121.573 513.943 122.131 513.223 122.527C512.515 122.911 511.693 123.103 510.757 123.103ZM521.183 123.103C520.115 123.103 519.179 122.893 518.375 122.473C517.583 122.041 516.965 121.453 516.521 120.709C516.089 119.965 515.873 119.119 515.873 118.171C515.873 117.211 516.083 116.365 516.503 115.633C516.935 114.889 517.523 114.307 518.267 113.887C519.023 113.467 519.881 113.257 520.841 113.257C521.777 113.257 522.611 113.461 523.343 113.869C524.075 114.277 524.651 114.853 525.071 115.597C525.491 116.341 525.701 117.217 525.701 118.225C525.701 118.321 525.695 118.429 525.683 118.549C525.683 118.669 525.677 118.783 525.665 118.891H517.655V117.397H524.477L523.595 117.865C523.607 117.313 523.493 116.827 523.253 116.407C523.013 115.987 522.683 115.657 522.263 115.417C521.855 115.177 521.381 115.057 520.841 115.057C520.289 115.057 519.803 115.177 519.383 115.417C518.975 115.657 518.651 115.993 518.411 116.425C518.183 116.845 518.069 117.343 518.069 117.919V118.279C518.069 118.855 518.201 119.365 518.465 119.809C518.729 120.253 519.101 120.595 519.581 120.835C520.061 121.075 520.613 121.195 521.237 121.195C521.777 121.195 522.263 121.111 522.695 120.943C523.127 120.775 523.511 120.511 523.847 120.151L525.053 121.537C524.621 122.041 524.075 122.431 523.415 122.707C522.767 122.971 522.023 123.103 521.183 123.103ZM538.759 122.977V121.033L538.633 120.619V117.217C538.633 116.557 538.435 116.047 538.039 115.687C537.643 115.315 537.043 115.129 536.239 115.129C535.699 115.129 535.165 115.213 534.637 115.381C534.121 115.549 533.683 115.783 533.323 116.083L532.441 114.445C532.957 114.049 533.569 113.755 534.277 113.563C534.997 113.359 535.741 113.257 536.509 113.257C537.901 113.257 538.975 113.593 539.731 114.265C540.499 114.925 540.883 115.951 540.883 117.343V122.977H538.759ZM535.735 123.103C535.015 123.103 534.385 122.983 533.845 122.743C533.305 122.491 532.885 122.149 532.585 121.717C532.297 121.273 532.153 120.775 532.153 120.223C532.153 119.683 532.279 119.197 532.531 118.765C532.795 118.333 533.221 117.991 533.809 117.739C534.397 117.487 535.177 117.361 536.149 117.361H538.939V118.855H536.311C535.543 118.855 535.027 118.981 534.763 119.233C534.499 119.473 534.367 119.773 534.367 120.133C534.367 120.541 534.529 120.865 534.853 121.105C535.177 121.345 535.627 121.465 536.203 121.465C536.755 121.465 537.247 121.339 537.679 121.087C538.123 120.835 538.441 120.463 538.633 119.971L539.011 121.321C538.795 121.885 538.405 122.323 537.841 122.635C537.289 122.947 536.587 123.103 535.735 123.103ZM549.225 113.257C549.993 113.257 550.677 113.407 551.277 113.707C551.889 114.007 552.369 114.469 552.717 115.093C553.065 115.705 553.239 116.497 553.239 117.469V122.977H550.989V117.757C550.989 116.905 550.785 116.269 550.377 115.849C549.981 115.429 549.423 115.219 548.703 115.219C548.175 115.219 547.707 115.327 547.299 115.543C546.891 115.759 546.573 116.083 546.345 116.515C546.129 116.935 546.021 117.469 546.021 118.117V122.977H543.771V113.365H545.913V115.957L545.535 115.165C545.871 114.553 546.357 114.085 546.993 113.761C547.641 113.425 548.385 113.257 549.225 113.257ZM560.179 123.103C559.255 123.103 558.421 122.899 557.677 122.491C556.945 122.071 556.369 121.495 555.949 120.763C555.529 120.031 555.319 119.167 555.319 118.171C555.319 117.175 555.529 116.311 555.949 115.579C556.369 114.847 556.945 114.277 557.677 113.869C558.421 113.461 559.255 113.257 560.179 113.257C560.983 113.257 561.703 113.437 562.339 113.797C562.975 114.145 563.479 114.679 563.851 115.399C564.223 116.119 564.409 117.043 564.409 118.171C564.409 119.287 564.229 120.211 563.869 120.943C563.509 121.663 563.011 122.203 562.375 122.563C561.739 122.923 561.007 123.103 560.179 123.103ZM560.449 121.177C560.989 121.177 561.469 121.057 561.889 120.817C562.321 120.577 562.663 120.229 562.915 119.773C563.179 119.317 563.311 118.783 563.311 118.171C563.311 117.547 563.179 117.013 562.915 116.569C562.663 116.113 562.321 115.765 561.889 115.525C561.469 115.285 560.989 115.165 560.449 115.165C559.909 115.165 559.423 115.285 558.991 115.525C558.571 115.765 558.229 116.113 557.965 116.569C557.713 117.013 557.587 117.547 557.587 118.171C557.587 118.783 557.713 119.317 557.965 119.773C558.229 120.229 558.571 120.577 558.991 120.817C559.423 121.057 559.909 121.177 560.449 121.177ZM563.365 122.977V120.709L563.455 118.153L563.275 115.597V109.621H565.507V122.977H563.365ZM573.659 122.977V110.377H575.585L581.093 119.575H580.085L585.503 110.377H587.429L587.447 122.977H585.233L585.215 113.851H585.683L581.075 121.537H580.031L575.351 113.851H575.891V122.977H573.659ZM596.556 122.977V121.033L596.43 120.619V117.217C596.43 116.557 596.232 116.047 595.836 115.687C595.44 115.315 594.84 115.129 594.036 115.129C593.496 115.129 592.962 115.213 592.434 115.381C591.918 115.549 591.48 115.783 591.12 116.083L590.238 114.445C590.754 114.049 591.366 113.755 592.074 113.563C592.794 113.359 593.538 113.257 594.306 113.257C595.698 113.257 596.772 113.593 597.528 114.265C598.296 114.925 598.68 115.951 598.68 117.343V122.977H596.556ZM593.532 123.103C592.812 123.103 592.182 122.983 591.642 122.743C591.102 122.491 590.682 122.149 590.382 121.717C590.094 121.273 589.95 120.775 589.95 120.223C589.95 119.683 590.076 119.197 590.328 118.765C590.592 118.333 591.018 117.991 591.606 117.739C592.194 117.487 592.974 117.361 593.946 117.361H596.736V118.855H594.108C593.34 118.855 592.824 118.981 592.56 119.233C592.296 119.473 592.164 119.773 592.164 120.133C592.164 120.541 592.326 120.865 592.65 121.105C592.974 121.345 593.424 121.465 594 121.465C594.552 121.465 595.044 121.339 595.476 121.087C595.92 120.835 596.238 120.463 596.43 119.971L596.808 121.321C596.592 121.885 596.202 122.323 595.638 122.635C595.086 122.947 594.384 123.103 593.532 123.103ZM605.995 123.103C604.987 123.103 604.087 122.893 603.295 122.473C602.515 122.041 601.903 121.453 601.459 120.709C601.015 119.965 600.793 119.119 600.793 118.171C600.793 117.211 601.015 116.365 601.459 115.633C601.903 114.889 602.515 114.307 603.295 113.887C604.087 113.467 604.987 113.257 605.995 113.257C606.931 113.257 607.753 113.449 608.461 113.833C609.181 114.205 609.727 114.757 610.099 115.489L608.371 116.497C608.083 116.041 607.729 115.705 607.309 115.489C606.901 115.273 606.457 115.165 605.977 115.165C605.425 115.165 604.927 115.285 604.483 115.525C604.039 115.765 603.691 116.113 603.439 116.569C603.187 117.013 603.061 117.547 603.061 118.171C603.061 118.795 603.187 119.335 603.439 119.791C603.691 120.235 604.039 120.577 604.483 120.817C604.927 121.057 605.425 121.177 605.977 121.177C606.457 121.177 606.901 121.069 607.309 120.853C607.729 120.637 608.083 120.301 608.371 119.845L610.099 120.853C609.727 121.573 609.181 122.131 608.461 122.527C607.753 122.911 606.931 123.103 605.995 123.103ZM617.41 113.257C618.178 113.257 618.862 113.407 619.462 113.707C620.074 114.007 620.554 114.469 620.902 115.093C621.25 115.705 621.424 116.497 621.424 117.469V122.977H619.174V117.757C619.174 116.905 618.97 116.269 618.562 115.849C618.166 115.429 617.608 115.219 616.888 115.219C616.36 115.219 615.892 115.327 615.484 115.543C615.076 115.759 614.758 116.083 614.53 116.515C614.314 116.935 614.206 117.469 614.206 118.117V122.977H611.956V109.621H614.206V115.957L613.72 115.165C614.056 114.553 614.542 114.085 615.178 113.761C615.826 113.425 616.57 113.257 617.41 113.257ZM624.279 122.977V113.365H626.529V122.977H624.279ZM625.413 111.781C624.993 111.781 624.645 111.649 624.369 111.385C624.105 111.121 623.973 110.803 623.973 110.431C623.973 110.047 624.105 109.729 624.369 109.477C624.645 109.213 624.993 109.081 625.413 109.081C625.833 109.081 626.175 109.207 626.439 109.459C626.715 109.699 626.853 110.005 626.853 110.377C626.853 110.773 626.721 111.109 626.457 111.385C626.193 111.649 625.845 111.781 625.413 111.781ZM634.936 113.257C635.704 113.257 636.388 113.407 636.988 113.707C637.6 114.007 638.08 114.469 638.428 115.093C638.776 115.705 638.95 116.497 638.95 117.469V122.977H636.7V117.757C636.7 116.905 636.496 116.269 636.088 115.849C635.692 115.429 635.134 115.219 634.414 115.219C633.886 115.219 633.418 115.327 633.01 115.543C632.602 115.759 632.284 116.083 632.056 116.515C631.84 116.935 631.732 117.469 631.732 118.117V122.977H629.482V113.365H631.624V115.957L631.246 115.165C631.582 114.553 632.068 114.085 632.704 113.761C633.352 113.425 634.096 113.257 634.936 113.257ZM646.34 123.103C645.272 123.103 644.336 122.893 643.532 122.473C642.74 122.041 642.122 121.453 641.678 120.709C641.246 119.965 641.03 119.119 641.03 118.171C641.03 117.211 641.24 116.365 641.66 115.633C642.092 114.889 642.68 114.307 643.424 113.887C644.18 113.467 645.038 113.257 645.998 113.257C646.934 113.257 647.768 113.461 648.5 113.869C649.232 114.277 649.808 114.853 650.228 115.597C650.648 116.341 650.858 117.217 650.858 118.225C650.858 118.321 650.852 118.429 650.84 118.549C650.84 118.669 650.834 118.783 650.822 118.891H642.812V117.397H649.634L648.752 117.865C648.764 117.313 648.65 116.827 648.41 116.407C648.17 115.987 647.84 115.657 647.42 115.417C647.012 115.177 646.538 115.057 645.998 115.057C645.446 115.057 644.96 115.177 644.54 115.417C644.132 115.657 643.808 115.993 643.568 116.425C643.34 116.845 643.226 117.343 643.226 117.919V118.279C643.226 118.855 643.358 119.365 643.622 119.809C643.886 120.253 644.258 120.595 644.738 120.835C645.218 121.075 645.77 121.195 646.394 121.195C646.934 121.195 647.42 121.111 647.852 120.943C648.284 120.775 648.668 120.511 649.004 120.151L650.21 121.537C649.778 122.041 649.232 122.431 648.572 122.707C647.924 122.971 647.18 123.103 646.34 123.103ZM658.21 122.977V110.377H660.55V120.997H667.138V122.977H658.21ZM673.199 123.103C672.131 123.103 671.195 122.893 670.391 122.473C669.599 122.041 668.981 121.453 668.537 120.709C668.105 119.965 667.889 119.119 667.889 118.171C667.889 117.211 668.099 116.365 668.519 115.633C668.951 114.889 669.539 114.307 670.283 113.887C671.039 113.467 671.897 113.257 672.857 113.257C673.793 113.257 674.627 113.461 675.359 113.869C676.091 114.277 676.667 114.853 677.087 115.597C677.507 116.341 677.717 117.217 677.717 118.225C677.717 118.321 677.711 118.429 677.699 118.549C677.699 118.669 677.693 118.783 677.681 118.891H669.671V117.397H676.493L675.611 117.865C675.623 117.313 675.509 116.827 675.269 116.407C675.029 115.987 674.699 115.657 674.279 115.417C673.871 115.177 673.397 115.057 672.857 115.057C672.305 115.057 671.819 115.177 671.399 115.417C670.991 115.657 670.667 115.993 670.427 116.425C670.199 116.845 670.085 117.343 670.085 117.919V118.279C670.085 118.855 670.217 119.365 670.481 119.809C670.745 120.253 671.117 120.595 671.597 120.835C672.077 121.075 672.629 121.195 673.253 121.195C673.793 121.195 674.279 121.111 674.711 120.943C675.143 120.775 675.527 120.511 675.863 120.151L677.069 121.537C676.637 122.041 676.091 122.431 675.431 122.707C674.783 122.971 674.039 123.103 673.199 123.103ZM685.537 122.977V121.033L685.411 120.619V117.217C685.411 116.557 685.213 116.047 684.817 115.687C684.421 115.315 683.821 115.129 683.017 115.129C682.477 115.129 681.943 115.213 681.415 115.381C680.899 115.549 680.461 115.783 680.101 116.083L679.219 114.445C679.735 114.049 680.347 113.755 681.055 113.563C681.775 113.359 682.519 113.257 683.287 113.257C684.679 113.257 685.753 113.593 686.509 114.265C687.277 114.925 687.661 115.951 687.661 117.343V122.977H685.537ZM682.513 123.103C681.793 123.103 681.163 122.983 680.623 122.743C680.083 122.491 679.663 122.149 679.363 121.717C679.075 121.273 678.931 120.775 678.931 120.223C678.931 119.683 679.057 119.197 679.309 118.765C679.573 118.333 679.999 117.991 680.587 117.739C681.175 117.487 681.955 117.361 682.927 117.361H685.717V118.855H683.089C682.321 118.855 681.805 118.981 681.541 119.233C681.277 119.473 681.145 119.773 681.145 120.133C681.145 120.541 681.307 120.865 681.631 121.105C681.955 121.345 682.405 121.465 682.981 121.465C683.533 121.465 684.025 121.339 684.457 121.087C684.901 120.835 685.219 120.463 685.411 119.971L685.789 121.321C685.573 121.885 685.183 122.323 684.619 122.635C684.067 122.947 683.365 123.103 682.513 123.103ZM690.548 122.977V113.365H692.69V116.011L692.438 115.237C692.726 114.589 693.176 114.097 693.788 113.761C694.412 113.425 695.186 113.257 696.11 113.257V115.399C696.014 115.375 695.924 115.363 695.84 115.363C695.756 115.351 695.672 115.345 695.588 115.345C694.736 115.345 694.058 115.597 693.554 116.101C693.05 116.593 692.798 117.331 692.798 118.315V122.977H690.548ZM703.473 113.257C704.241 113.257 704.925 113.407 705.525 113.707C706.137 114.007 706.617 114.469 706.965 115.093C707.313 115.705 707.487 116.497 707.487 117.469V122.977H705.237V117.757C705.237 116.905 705.033 116.269 704.625 115.849C704.229 115.429 703.671 115.219 702.951 115.219C702.423 115.219 701.955 115.327 701.547 115.543C701.139 115.759 700.821 116.083 700.593 116.515C700.377 116.935 700.269 117.469 700.269 118.117V122.977H698.019V113.365H700.161V115.957L699.783 115.165C700.119 114.553 700.605 114.085 701.241 113.761C701.889 113.425 702.633 113.257 703.473 113.257ZM710.341 122.977V113.365H712.591V122.977H710.341ZM711.475 111.781C711.055 111.781 710.707 111.649 710.431 111.385C710.167 111.121 710.035 110.803 710.035 110.431C710.035 110.047 710.167 109.729 710.431 109.477C710.707 109.213 711.055 109.081 711.475 109.081C711.895 109.081 712.237 109.207 712.501 109.459C712.777 109.699 712.915 110.005 712.915 110.377C712.915 110.773 712.783 111.109 712.519 111.385C712.255 111.649 711.907 111.781 711.475 111.781ZM720.998 113.257C721.766 113.257 722.45 113.407 723.05 113.707C723.662 114.007 724.142 114.469 724.49 115.093C724.838 115.705 725.012 116.497 725.012 117.469V122.977H722.762V117.757C722.762 116.905 722.558 116.269 722.15 115.849C721.754 115.429 721.196 115.219 720.476 115.219C719.948 115.219 719.48 115.327 719.072 115.543C718.664 115.759 718.346 116.083 718.118 116.515C717.902 116.935 717.794 117.469 717.794 118.117V122.977H715.544V113.365H717.686V115.957L717.308 115.165C717.644 114.553 718.13 114.085 718.766 113.761C719.414 113.425 720.158 113.257 720.998 113.257ZM732.24 126.595C731.352 126.595 730.482 126.475 729.63 126.235C728.79 126.007 728.1 125.671 727.56 125.227L728.568 123.535C728.988 123.883 729.516 124.159 730.152 124.363C730.8 124.579 731.454 124.687 732.114 124.687C733.17 124.687 733.944 124.441 734.436 123.949C734.928 123.469 735.174 122.743 735.174 121.771V120.061L735.354 117.883L735.282 115.705V113.365H737.424V121.519C737.424 123.259 736.98 124.537 736.092 125.353C735.204 126.181 733.92 126.595 732.24 126.595ZM731.952 122.545C731.04 122.545 730.212 122.353 729.468 121.969C728.736 121.573 728.154 121.027 727.722 120.331C727.302 119.635 727.092 118.819 727.092 117.883C727.092 116.959 727.302 116.149 727.722 115.453C728.154 114.757 728.736 114.217 729.468 113.833C730.212 113.449 731.04 113.257 731.952 113.257C732.768 113.257 733.5 113.419 734.148 113.743C734.796 114.067 735.312 114.571 735.696 115.255C736.092 115.939 736.29 116.815 736.29 117.883C736.29 118.951 736.092 119.833 735.696 120.529C735.312 121.213 734.796 121.723 734.148 122.059C733.5 122.383 732.768 122.545 731.952 122.545ZM732.294 120.637C732.858 120.637 733.362 120.523 733.806 120.295C734.25 120.055 734.592 119.731 734.832 119.323C735.084 118.903 735.21 118.423 735.21 117.883C735.21 117.343 735.084 116.869 734.832 116.461C734.592 116.041 734.25 115.723 733.806 115.507C733.362 115.279 732.858 115.165 732.294 115.165C731.73 115.165 731.22 115.279 730.764 115.507C730.32 115.723 729.972 116.041 729.72 116.461C729.48 116.869 729.36 117.343 729.36 117.883C729.36 118.423 729.48 118.903 729.72 119.323C729.972 119.731 730.32 120.055 730.764 120.295C731.22 120.523 731.73 120.637 732.294 120.637Z" fill="white"/>
<path d="M81.3104 33.0139C78.1708 33.1303 75.1162 33.735 72.2871 34.798C67.1021 36.7494 62.6337 40.1879 59.391 44.7252C57.4204 47.4828 55.9543 50.6317 55.1093 53.9223C54.6315 55.7796 54.3568 57.5967 54.2344 59.7004C54.209 60.1408 54.2001 61.6458 54.2195 62.1564C54.3628 65.9084 55.1854 69.4051 56.7231 72.8017C56.9098 73.2138 57.4248 74.2395 57.6488 74.6456C58.8177 76.7672 60.1599 78.6156 61.8201 80.3938C62.156 80.7536 62.986 81.5748 63.3279 81.8853C65.3509 83.7278 67.4798 85.1894 69.867 86.3719C74.5489 88.6951 79.7727 89.6536 85.0428 89.1564C90.4308 88.6503 95.5934 86.5645 99.8453 83.1783C100.384 82.7483 100.626 82.5408 100.614 82.5214C100.61 82.5154 100.656 82.4691 100.716 82.4169C100.896 82.2616 110.188 72.9943 117.162 66.0159C121.388 61.7861 123.756 59.4271 123.765 59.4361C123.774 59.445 123.753 59.4243 123.741 59.4422C123.725 59.4691 124.774 60.9172 134.453 74.1246C143.223 86.0927 145.186 88.7638 145.29 88.8683C145.423 89.0011 145.558 89.0922 145.734 89.1654C145.867 89.2206 146.288 89.3102 146.51 89.3296C146.631 89.3401 148.981 89.3445 154.032 89.3401C160.866 89.3356 161.384 89.3341 161.477 89.3102C161.861 89.2147 162.149 89.0474 162.416 88.7667C163.048 88.1008 163.233 87.0527 162.877 86.142C162.783 85.9016 162.65 85.6851 162.461 85.4627C162.386 85.3746 128.302 34.3173 128.159 34.0784C128.08 33.9455 127.895 33.7514 127.759 33.6574C127.533 33.5021 127.265 33.3901 126.953 33.3229C126.823 33.296 126.751 33.2901 126.472 33.2901C126.029 33.2886 125.914 33.311 125.399 33.4961C125.21 33.5648 125.073 33.6379 124.963 33.726C124.913 33.7649 118.84 40.2401 111.463 48.1144C104.088 55.9902 96.64 63.9406 94.9141 65.783C93.1883 67.6254 91.661 69.2617 91.5192 69.4185C91.0489 69.9396 90.9115 70.065 90.2457 70.5681C89.2454 71.3251 88.6393 71.7103 87.8062 72.1149C86.3954 72.8032 84.9846 73.181 83.3408 73.3123C83.0258 73.3377 81.9554 73.3377 81.6314 73.3123C79.7921 73.1705 78.126 72.6987 76.6554 71.9044C75.6074 71.3386 74.7146 70.6756 73.8741 69.8381C72.9111 68.8795 72.1632 67.8329 71.5675 66.6131C70.8733 65.1902 70.4851 63.7106 70.3582 61.9996C70.3328 61.6727 70.3328 60.6977 70.3567 60.3797C70.4254 59.4898 70.5508 58.7418 70.7643 57.961C71.4734 55.3676 73.038 53.0743 75.2118 51.4424C76.8719 50.1957 78.8799 49.3835 80.9447 49.1237C81.5284 49.0505 81.709 49.0401 82.4899 49.0401C83.2707 49.0401 83.4468 49.0505 84.0276 49.1237C85.5982 49.3193 87.1404 49.8359 88.5273 50.6302C91.3624 52.2516 93.4376 54.9659 94.2542 58.1162C94.2901 58.2566 94.3349 58.4357 94.3513 58.5134C94.3796 58.6373 94.3931 58.6672 94.4677 58.7717C94.6962 59.0897 94.9843 59.3047 95.3172 59.4032C95.4919 59.4555 95.786 59.4689 95.989 59.4331C96.2518 59.3883 96.5474 59.2748 96.7475 59.1435C96.7967 59.1121 96.9191 59.0091 97.0207 58.915C97.3148 58.6403 105.295 50.4002 105.28 50.3853C105.266 50.3719 105.354 50.2569 105.389 50.242C105.405 50.236 105.723 49.909 106.386 49.2178C106.604 48.9908 106.725 48.8296 106.817 48.6385C106.985 48.2936 107.031 47.9412 106.958 47.5575C106.941 47.4664 106.914 47.4067 106.799 47.2066C105.887 45.6061 104.747 44.0041 103.533 42.62C102.786 41.7675 101.885 40.8583 101.046 40.1117C97.0908 36.5927 92.2686 34.2725 87.0792 33.3946C85.8251 33.1811 84.6277 33.0601 83.3184 33.0124C82.8526 32.9959 81.7792 32.9959 81.3104 33.0139ZM126.621 33.6857C126.638 33.7096 126.618 33.7186 126.573 33.7081C126.542 33.6992 126.538 33.6947 126.556 33.6827C126.584 33.6648 126.609 33.6663 126.621 33.6857ZM125.74 35.7446C125.752 35.764 125.733 35.764 125.703 35.7446C125.684 35.7327 125.684 35.7297 125.706 35.7297C125.72 35.7297 125.736 35.7357 125.74 35.7446ZM127.092 35.7745C127.08 35.7819 127.059 35.7879 127.047 35.7879C127.032 35.7879 127.035 35.7834 127.054 35.7745C127.095 35.7566 127.118 35.7566 127.092 35.7745ZM83.4379 35.9984C87.951 36.1985 92.1477 37.5168 95.9263 39.9221C98.4285 41.5152 100.704 43.6204 102.5 46.0062C102.898 46.5378 103.608 47.5635 103.608 47.6113C103.608 47.6262 96.525 54.9615 96.5011 54.9719C96.4951 54.9734 96.4548 54.8973 96.4115 54.8002C96.2981 54.5494 96.0129 53.982 95.8711 53.7237C95.4561 52.9712 94.9589 52.2277 94.417 51.5499C92.0447 48.5817 88.6796 46.596 84.9607 45.9719C83.6947 45.7584 82.354 45.7061 81.0417 45.8151C80.1355 45.8913 79.1233 46.0675 78.2529 46.3004C75.9194 46.9245 73.7651 48.1054 71.9751 49.7403C71.6481 50.0404 71.0793 50.6182 70.8061 50.9318C68.698 53.34 67.4335 56.2619 67.0991 59.4913C67.0006 60.4379 66.9886 61.5487 67.0677 62.4625C67.329 65.462 68.4308 68.2584 70.288 70.6279C70.9837 71.5147 71.8586 72.4031 72.7365 73.1108C75.8358 75.6131 79.7219 76.8001 83.7141 76.4671C85.849 76.288 87.9525 75.6489 89.8336 74.6053C90.8249 74.0559 91.7789 73.378 92.6419 72.6091C93.1524 72.1552 93.9213 71.3475 94.3498 70.816C94.4692 70.6682 95.3217 69.7485 95.3292 69.7604C96.4041 71.1624 101.338 77.6914 101.334 77.7034C101.329 77.7138 101.25 77.8049 101.158 77.9079C98.533 80.8328 95.3172 83.0828 91.7013 84.525C89.2783 85.491 86.7059 86.0718 84.0873 86.2465C83.2721 86.3002 82.1674 86.3152 81.4 86.2838C76.6405 86.0867 72.2945 84.7102 68.4532 82.184C67.341 81.4524 66.3691 80.6939 65.3061 79.7294C64.9672 79.4218 64.1446 78.5992 63.8131 78.2364C61.8872 76.1282 60.3719 73.7797 59.2597 71.1818C58.2206 68.7541 57.5816 66.1846 57.3338 63.4329C57.2576 62.5774 57.2307 61.8458 57.2412 60.85C57.2502 60.0632 57.2576 59.8601 57.3054 59.23C57.595 55.3213 58.8013 51.5349 60.8302 48.1667C63.2772 44.1011 66.8423 40.7956 71.0793 38.659C74.2578 37.057 77.708 36.1597 81.2955 35.9999C81.6911 35.982 83.0512 35.982 83.4379 35.9984ZM129.565 41.4779C131.354 44.1594 132.818 46.3586 132.821 46.3676C132.823 46.375 130.878 48.3294 128.499 50.7078L124.173 55.0316L120.856 50.5033C119.031 48.0129 117.537 45.9674 117.534 45.9585C117.528 45.9361 126.29 36.5792 126.303 36.5927C126.308 36.5986 127.777 38.7964 129.565 41.4779ZM118.734 52.5711C120.518 55.0063 122.002 57.0293 122.029 57.0681L122.08 57.1398L112.892 66.3309C107.839 71.3848 103.687 75.534 103.664 75.5504L103.625 75.5788L100.526 71.4923L97.4267 67.4074L97.4909 67.3342C97.6611 67.1401 115.47 48.1383 115.479 48.1413C115.485 48.1428 116.95 50.136 118.734 52.5711ZM146.909 67.4686C153.773 77.7556 159.39 86.1853 159.39 86.2017C159.391 86.2316 159.381 86.2316 153.255 86.2346L147.119 86.2375L136.676 71.985C130.933 64.1466 126.164 57.64 126.079 57.525C125.949 57.3488 125.889 57.2977 125.869 57.3141C125.853 57.3275 125.876 57.3488 125.863 57.3354C125.849 57.3219 126.836 56.3276 130.122 53.0414C132.475 50.6884 134.407 48.7639 134.414 48.7639C134.423 48.7654 140.046 57.1816 146.909 67.4686Z" fill="white"/>
<path d="M106.704 61.1779C106.204 61.266 105.81 61.5347 105.595 61.9348C105.475 62.1543 105.429 62.3469 105.429 62.6187C105.429 62.9755 105.553 63.2786 105.887 63.7429C105.938 63.8146 105.981 63.8803 105.981 63.8862C105.981 63.8922 105.926 63.9325 105.859 63.9743C105.182 64.3879 104.823 64.9075 104.791 65.5151C104.745 66.4274 105.406 67.2112 106.392 67.4098C106.94 67.5203 107.519 67.4606 108.041 67.2396C108.155 67.1933 108.359 67.0843 108.454 67.0231L108.498 66.9932L108.721 67.2665L108.942 67.5397L109.685 67.5964C110.094 67.6278 110.436 67.6502 110.447 67.6472C110.456 67.6442 110.205 67.3247 109.887 66.938C109.57 66.5513 109.31 66.2303 109.31 66.2243C109.31 66.2199 109.33 66.187 109.354 66.1527C109.599 65.7943 109.812 65.2718 109.908 64.803C109.946 64.6104 109.999 64.2461 109.99 64.2356C109.985 64.2281 109.049 64.1595 109.045 64.1639C109.042 64.1669 109.03 64.2416 109.019 64.3312C108.981 64.6417 108.909 64.912 108.797 65.1747C108.719 65.3584 108.669 65.4465 108.654 65.43C108.577 65.3449 107.609 64.1535 107.61 64.146C107.61 64.1386 107.679 64.0893 107.762 64.0341C107.971 63.8982 108.142 63.7578 108.313 63.5861C108.618 63.2771 108.739 63.0098 108.754 62.6022C108.767 62.2782 108.718 62.0901 108.557 61.8497C108.339 61.5213 107.977 61.3003 107.489 61.1928C107.332 61.1585 106.865 61.1495 106.704 61.1779ZM107.225 62.0364C107.405 62.0647 107.561 62.1693 107.635 62.3111C107.671 62.3783 107.676 62.4037 107.676 62.5365C107.676 62.6724 107.671 62.6948 107.629 62.7829C107.604 62.8366 107.558 62.9083 107.526 62.9441C107.456 63.0248 107.265 63.1741 107.093 63.2816L106.959 63.3667L106.917 63.3174C106.893 63.2905 106.814 63.189 106.741 63.0919C106.526 62.8068 106.472 62.6724 106.504 62.4977C106.546 62.2663 106.707 62.1006 106.944 62.0423C107.038 62.0199 107.114 62.017 107.225 62.0364ZM107.27 65.4733C107.619 65.9033 107.906 66.2602 107.909 66.2691C107.915 66.2885 107.668 66.4169 107.538 66.4632C107.346 66.5304 107.205 66.5498 106.976 66.5409C106.732 66.5319 106.605 66.502 106.429 66.411C106.113 66.2452 105.942 65.9989 105.926 65.6794C105.911 65.4047 105.983 65.2285 106.189 65.0224C106.311 64.9015 106.581 64.6955 106.619 64.694C106.628 64.694 106.922 65.0448 107.27 65.4733Z" fill="white"/>
<path d="M45.7072 106.298C45.7072 105.686 45.8482 105.137 46.1302 104.651C46.4182 104.165 46.8052 103.787 47.2912 103.517C47.7832 103.241 48.3202 103.103 48.9022 103.103C49.5682 103.103 50.1592 103.268 50.6752 103.598C51.1972 103.922 51.5752 104.384 51.8092 104.984H50.5762C50.4142 104.654 50.1892 104.408 49.9012 104.246C49.6132 104.084 49.2802 104.003 48.9022 104.003C48.4882 104.003 48.1192 104.096 47.7952 104.282C47.4712 104.468 47.2162 104.735 47.0302 105.083C46.8502 105.431 46.7602 105.836 46.7602 106.298C46.7602 106.76 46.8502 107.165 47.0302 107.513C47.2162 107.861 47.4712 108.131 47.7952 108.323C48.1192 108.509 48.4882 108.602 48.9022 108.602C49.2802 108.602 49.6132 108.521 49.9012 108.359C50.1892 108.197 50.4142 107.951 50.5762 107.621H51.8092C51.5752 108.221 51.1972 108.683 50.6752 109.007C50.1592 109.331 49.5682 109.493 48.9022 109.493C48.3142 109.493 47.7772 109.358 47.2912 109.088C46.8052 108.812 46.4182 108.431 46.1302 107.945C45.8482 107.459 45.7072 106.91 45.7072 106.298ZM55.1612 109.52C54.6932 109.52 54.2702 109.415 53.8922 109.205C53.5142 108.989 53.2172 108.689 53.0012 108.305C52.7852 107.915 52.6772 107.465 52.6772 106.955C52.6772 106.451 52.7882 106.004 53.0102 105.614C53.2322 105.224 53.5352 104.924 53.9192 104.714C54.3032 104.504 54.7322 104.399 55.2062 104.399C55.6802 104.399 56.1092 104.504 56.4932 104.714C56.8772 104.924 57.1802 105.224 57.4022 105.614C57.6242 106.004 57.7352 106.451 57.7352 106.955C57.7352 107.459 57.6212 107.906 57.3932 108.296C57.1652 108.686 56.8532 108.989 56.4572 109.205C56.0672 109.415 55.6352 109.52 55.1612 109.52ZM55.1612 108.629C55.4252 108.629 55.6712 108.566 55.8992 108.44C56.1332 108.314 56.3222 108.125 56.4662 107.873C56.6102 107.621 56.6822 107.315 56.6822 106.955C56.6822 106.595 56.6132 106.292 56.4752 106.046C56.3372 105.794 56.1542 105.605 55.9262 105.479C55.6982 105.353 55.4522 105.29 55.1882 105.29C54.9242 105.29 54.6782 105.353 54.4502 105.479C54.2282 105.605 54.0512 105.794 53.9192 106.046C53.7872 106.292 53.7212 106.595 53.7212 106.955C53.7212 107.489 53.8562 107.903 54.1262 108.197C54.4022 108.485 54.7472 108.629 55.1612 108.629ZM61.2514 104.399C61.6414 104.399 61.9894 104.48 62.2954 104.642C62.6074 104.804 62.8504 105.044 63.0244 105.362C63.1984 105.68 63.2854 106.064 63.2854 106.514V109.439H62.2684V106.667C62.2684 106.223 62.1574 105.884 61.9354 105.65C61.7134 105.41 61.4104 105.29 61.0264 105.29C60.6424 105.29 60.3364 105.41 60.1084 105.65C59.8864 105.884 59.7754 106.223 59.7754 106.667V109.439H58.7494V104.48H59.7754V105.047C59.9434 104.843 60.1564 104.684 60.4144 104.57C60.6784 104.456 60.9574 104.399 61.2514 104.399ZM66.3942 109.52C66.0042 109.52 65.6532 109.451 65.3412 109.313C65.0352 109.169 64.7922 108.977 64.6122 108.737C64.4322 108.491 64.3362 108.218 64.3242 107.918H65.3862C65.4042 108.128 65.5032 108.305 65.6832 108.449C65.8692 108.587 66.1002 108.656 66.3762 108.656C66.6642 108.656 66.8862 108.602 67.0422 108.494C67.2042 108.38 67.2852 108.236 67.2852 108.062C67.2852 107.876 67.1952 107.738 67.0152 107.648C66.8412 107.558 66.5622 107.459 66.1782 107.351C65.8062 107.249 65.5032 107.15 65.2692 107.054C65.0352 106.958 64.8312 106.811 64.6572 106.613C64.4892 106.415 64.4052 106.154 64.4052 105.83C64.4052 105.566 64.4832 105.326 64.6392 105.11C64.7952 104.888 65.0172 104.714 65.3052 104.588C65.5992 104.462 65.9352 104.399 66.3132 104.399C66.8772 104.399 67.3302 104.543 67.6722 104.831C68.0202 105.113 68.2062 105.5 68.2302 105.992H67.2042C67.1862 105.77 67.0962 105.593 66.9342 105.461C66.7722 105.329 66.5532 105.263 66.2772 105.263C66.0072 105.263 65.8002 105.314 65.6562 105.416C65.5122 105.518 65.4402 105.653 65.4402 105.821C65.4402 105.953 65.4882 106.064 65.5842 106.154C65.6802 106.244 65.7972 106.316 65.9352 106.37C66.0732 106.418 66.2772 106.481 66.5472 106.559C66.9072 106.655 67.2012 106.754 67.4292 106.856C67.6632 106.952 67.8642 107.096 68.0322 107.288C68.2002 107.48 68.2872 107.735 68.2932 108.053C68.2932 108.335 68.2152 108.587 68.0592 108.809C67.9032 109.031 67.6812 109.205 67.3932 109.331C67.1112 109.457 66.7782 109.52 66.3942 109.52ZM73.8928 104.48V109.439H72.8668V108.854C72.7048 109.058 72.4918 109.22 72.2278 109.34C71.9698 109.454 71.6938 109.511 71.3998 109.511C71.0098 109.511 70.6588 109.43 70.3468 109.268C70.0408 109.106 69.7978 108.866 69.6178 108.548C69.4438 108.23 69.3568 107.846 69.3568 107.396V104.48H70.3738V107.243C70.3738 107.687 70.4848 108.029 70.7068 108.269C70.9288 108.503 71.2318 108.62 71.6158 108.62C71.9998 108.62 72.3028 108.503 72.5248 108.269C72.7528 108.029 72.8668 107.687 72.8668 107.243V104.48H73.8928ZM76.2725 102.779V109.439H75.2465V102.779H76.2725ZM78.8165 105.317V108.062C78.8165 108.248 78.8585 108.383 78.9425 108.467C79.0325 108.545 79.1825 108.584 79.3925 108.584H80.0225V109.439H79.2125C78.7505 109.439 78.3965 109.331 78.1505 109.115C77.9045 108.899 77.7815 108.548 77.7815 108.062V105.317H77.1965V104.48H77.7815V103.247H78.8165V104.48H80.0225V105.317H78.8165ZM81.4902 103.823C81.3042 103.823 81.1482 103.76 81.0222 103.634C80.8962 103.508 80.8332 103.352 80.8332 103.166C80.8332 102.98 80.8962 102.824 81.0222 102.698C81.1482 102.572 81.3042 102.509 81.4902 102.509C81.6702 102.509 81.8232 102.572 81.9492 102.698C82.0752 102.824 82.1382 102.98 82.1382 103.166C82.1382 103.352 82.0752 103.508 81.9492 103.634C81.8232 103.76 81.6702 103.823 81.4902 103.823ZM81.9942 104.48V109.439H80.9682V104.48H81.9942ZM85.8432 104.399C86.2332 104.399 86.5812 104.48 86.8872 104.642C87.1992 104.804 87.4422 105.044 87.6162 105.362C87.7902 105.68 87.8772 106.064 87.8772 106.514V109.439H86.8602V106.667C86.8602 106.223 86.7492 105.884 86.5272 105.65C86.3052 105.41 86.0022 105.29 85.6182 105.29C85.2342 105.29 84.9282 105.41 84.7002 105.65C84.4782 105.884 84.3672 106.223 84.3672 106.667V109.439H83.3412V104.48H84.3672V105.047C84.5352 104.843 84.7482 104.684 85.0062 104.57C85.2702 104.456 85.5492 104.399 85.8432 104.399ZM91.184 104.399C91.568 104.399 91.907 104.477 92.201 104.633C92.501 104.783 92.735 104.972 92.903 105.2V104.48H93.938V109.52C93.938 109.976 93.842 110.381 93.65 110.735C93.458 111.095 93.179 111.377 92.813 111.581C92.453 111.785 92.021 111.887 91.517 111.887C90.845 111.887 90.287 111.728 89.843 111.41C89.399 111.098 89.147 110.672 89.087 110.132H90.104C90.182 110.39 90.347 110.597 90.599 110.753C90.857 110.915 91.163 110.996 91.517 110.996C91.931 110.996 92.264 110.87 92.516 110.618C92.774 110.366 92.903 110 92.903 109.52V108.692C92.729 108.926 92.492 109.124 92.192 109.286C91.898 109.442 91.562 109.52 91.184 109.52C90.752 109.52 90.356 109.412 89.996 109.196C89.642 108.974 89.36 108.668 89.15 108.278C88.946 107.882 88.844 107.435 88.844 106.937C88.844 106.439 88.946 105.998 89.15 105.614C89.36 105.23 89.642 104.933 89.996 104.723C90.356 104.507 90.752 104.399 91.184 104.399ZM92.903 106.955C92.903 106.613 92.831 106.316 92.687 106.064C92.549 105.812 92.366 105.62 92.138 105.488C91.91 105.356 91.664 105.29 91.4 105.29C91.136 105.29 90.89 105.356 90.662 105.488C90.434 105.614 90.248 105.803 90.104 106.055C89.966 106.301 89.897 106.595 89.897 106.937C89.897 107.279 89.966 107.579 90.104 107.837C90.248 108.095 90.434 108.293 90.662 108.431C90.896 108.563 91.142 108.629 91.4 108.629C91.664 108.629 91.91 108.563 92.138 108.431C92.366 108.299 92.549 108.107 92.687 107.855C92.831 107.597 92.903 107.297 92.903 106.955ZM102.456 109.439L101.682 108.665C101.382 108.965 101.055 109.19 100.701 109.34C100.347 109.484 99.9515 109.556 99.5135 109.556C99.0695 109.556 98.6765 109.478 98.3345 109.322C97.9925 109.166 97.7285 108.944 97.5425 108.656C97.3565 108.362 97.2635 108.023 97.2635 107.639C97.2635 107.207 97.3865 106.823 97.6325 106.487C97.8785 106.145 98.2445 105.875 98.7305 105.677C98.5565 105.467 98.4335 105.272 98.3615 105.092C98.2895 104.906 98.2535 104.702 98.2535 104.48C98.2535 104.204 98.3225 103.958 98.4605 103.742C98.6045 103.526 98.8085 103.355 99.0725 103.229C99.3365 103.103 99.6425 103.04 99.9905 103.04C100.344 103.04 100.644 103.109 100.89 103.247C101.142 103.379 101.328 103.562 101.448 103.796C101.574 104.03 101.625 104.291 101.601 104.579H100.575C100.581 104.357 100.527 104.186 100.413 104.066C100.299 103.94 100.143 103.877 99.9455 103.877C99.7475 103.877 99.5855 103.937 99.4595 104.057C99.3395 104.171 99.2795 104.312 99.2795 104.48C99.2795 104.642 99.3245 104.804 99.4145 104.966C99.5105 105.122 99.6755 105.326 99.9095 105.578L101.565 107.225L102.204 106.172H103.311L102.501 107.558L102.276 107.927L103.797 109.439H102.456ZM99.5135 108.683C100.077 108.683 100.575 108.452 101.007 107.99L99.3515 106.325C98.6435 106.607 98.2895 107.033 98.2895 107.603C98.2895 107.909 98.4035 108.167 98.6315 108.377C98.8595 108.581 99.1535 108.683 99.5135 108.683ZM110.579 108.161H107.96L107.51 109.439H106.439L108.68 103.175H109.868L112.109 109.439H111.029L110.579 108.161ZM110.291 107.324L109.274 104.417L108.248 107.324H110.291ZM115.585 104.399C115.975 104.399 116.323 104.48 116.629 104.642C116.941 104.804 117.184 105.044 117.358 105.362C117.532 105.68 117.619 106.064 117.619 106.514V109.439H116.602V106.667C116.602 106.223 116.491 105.884 116.269 105.65C116.047 105.41 115.744 105.29 115.36 105.29C114.976 105.29 114.67 105.41 114.442 105.65C114.22 105.884 114.109 106.223 114.109 106.667V109.439H113.083V104.48H114.109V105.047C114.277 104.843 114.49 104.684 114.748 104.57C115.012 104.456 115.291 104.399 115.585 104.399ZM118.586 106.937C118.586 106.439 118.688 105.998 118.892 105.614C119.102 105.23 119.384 104.933 119.738 104.723C120.098 104.507 120.494 104.399 120.926 104.399C121.316 104.399 121.655 104.477 121.943 104.633C122.237 104.783 122.471 104.972 122.645 105.2V104.48H123.68V109.439H122.645V108.701C122.471 108.935 122.234 109.13 121.934 109.286C121.634 109.442 121.292 109.52 120.908 109.52C120.482 109.52 120.092 109.412 119.738 109.196C119.384 108.974 119.102 108.668 118.892 108.278C118.688 107.882 118.586 107.435 118.586 106.937ZM122.645 106.955C122.645 106.613 122.573 106.316 122.429 106.064C122.291 105.812 122.108 105.62 121.88 105.488C121.652 105.356 121.406 105.29 121.142 105.29C120.878 105.29 120.632 105.356 120.404 105.488C120.176 105.614 119.99 105.803 119.846 106.055C119.708 106.301 119.639 106.595 119.639 106.937C119.639 107.279 119.708 107.579 119.846 107.837C119.99 108.095 120.176 108.293 120.404 108.431C120.638 108.563 120.884 108.629 121.142 108.629C121.406 108.629 121.652 108.563 121.88 108.431C122.108 108.299 122.291 108.107 122.429 107.855C122.573 107.597 122.645 107.297 122.645 106.955ZM126.054 102.779V109.439H125.028V102.779H126.054ZM131.865 104.48L128.823 111.77H127.761L128.769 109.358L126.816 104.48H127.959L129.354 108.26L130.803 104.48H131.865ZM133.836 105.317V108.062C133.836 108.248 133.878 108.383 133.962 108.467C134.052 108.545 134.202 108.584 134.412 108.584H135.042V109.439H134.232C133.77 109.439 133.416 109.331 133.17 109.115C132.924 108.899 132.801 108.548 132.801 108.062V105.317H132.216V104.48H132.801V103.247H133.836V104.48H135.042V105.317H133.836ZM136.51 103.823C136.324 103.823 136.168 103.76 136.042 103.634C135.916 103.508 135.853 103.352 135.853 103.166C135.853 102.98 135.916 102.824 136.042 102.698C136.168 102.572 136.324 102.509 136.51 102.509C136.69 102.509 136.843 102.572 136.969 102.698C137.095 102.824 137.158 102.98 137.158 103.166C137.158 103.352 137.095 103.508 136.969 103.634C136.843 103.76 136.69 103.823 136.51 103.823ZM137.014 104.48V109.439H135.988V104.48H137.014ZM138.019 106.955C138.019 106.445 138.121 105.998 138.325 105.614C138.535 105.224 138.823 104.924 139.189 104.714C139.555 104.504 139.975 104.399 140.449 104.399C141.049 104.399 141.544 104.543 141.934 104.831C142.33 105.113 142.597 105.518 142.735 106.046H141.628C141.538 105.8 141.394 105.608 141.196 105.47C140.998 105.332 140.749 105.263 140.449 105.263C140.029 105.263 139.693 105.413 139.441 105.713C139.195 106.007 139.072 106.421 139.072 106.955C139.072 107.489 139.195 107.906 139.441 108.206C139.693 108.506 140.029 108.656 140.449 108.656C141.043 108.656 141.436 108.395 141.628 107.873H142.735C142.591 108.377 142.321 108.779 141.925 109.079C141.529 109.373 141.037 109.52 140.449 109.52C139.975 109.52 139.555 109.415 139.189 109.205C138.823 108.989 138.535 108.689 138.325 108.305C138.121 107.915 138.019 107.465 138.019 106.955ZM145.557 109.52C145.167 109.52 144.816 109.451 144.504 109.313C144.198 109.169 143.955 108.977 143.775 108.737C143.595 108.491 143.499 108.218 143.487 107.918H144.549C144.567 108.128 144.666 108.305 144.846 108.449C145.032 108.587 145.263 108.656 145.539 108.656C145.827 108.656 146.049 108.602 146.205 108.494C146.367 108.38 146.448 108.236 146.448 108.062C146.448 107.876 146.358 107.738 146.178 107.648C146.004 107.558 145.725 107.459 145.341 107.351C144.969 107.249 144.666 107.15 144.432 107.054C144.198 106.958 143.994 106.811 143.82 106.613C143.652 106.415 143.568 106.154 143.568 105.83C143.568 105.566 143.646 105.326 143.802 105.11C143.958 104.888 144.18 104.714 144.468 104.588C144.762 104.462 145.098 104.399 145.476 104.399C146.04 104.399 146.493 104.543 146.835 104.831C147.183 105.113 147.369 105.5 147.393 105.992H146.367C146.349 105.77 146.259 105.593 146.097 105.461C145.935 105.329 145.716 105.263 145.44 105.263C145.17 105.263 144.963 105.314 144.819 105.416C144.675 105.518 144.603 105.653 144.603 105.821C144.603 105.953 144.651 106.064 144.747 106.154C144.843 106.244 144.96 106.316 145.098 106.37C145.236 106.418 145.44 106.481 145.71 106.559C146.07 106.655 146.364 106.754 146.592 106.856C146.826 106.952 147.027 107.096 147.195 107.288C147.363 107.48 147.45 107.735 147.456 108.053C147.456 108.335 147.378 108.587 147.222 108.809C147.066 109.031 146.844 109.205 146.556 109.331C146.274 109.457 145.941 109.52 145.557 109.52ZM150.561 106.298C150.561 105.686 150.702 105.137 150.984 104.651C151.272 104.165 151.659 103.787 152.145 103.517C152.637 103.241 153.174 103.103 153.756 103.103C154.422 103.103 155.013 103.268 155.529 103.598C156.051 103.922 156.429 104.384 156.663 104.984H155.43C155.268 104.654 155.043 104.408 154.755 104.246C154.467 104.084 154.134 104.003 153.756 104.003C153.342 104.003 152.973 104.096 152.649 104.282C152.325 104.468 152.07 104.735 151.884 105.083C151.704 105.431 151.614 105.836 151.614 106.298C151.614 106.76 151.704 107.165 151.884 107.513C152.07 107.861 152.325 108.131 152.649 108.323C152.973 108.509 153.342 108.602 153.756 108.602C154.134 108.602 154.467 108.521 154.755 108.359C155.043 108.197 155.268 107.951 155.43 107.621H156.663C156.429 108.221 156.051 108.683 155.529 109.007C155.013 109.331 154.422 109.493 153.756 109.493C153.168 109.493 152.631 109.358 152.145 109.088C151.659 108.812 151.272 108.431 150.984 107.945C150.702 107.459 150.561 106.91 150.561 106.298ZM158.89 102.779V109.439H157.864V102.779H158.89ZM164.728 104.48V109.439H163.702V108.854C163.54 109.058 163.327 109.22 163.063 109.34C162.805 109.454 162.529 109.511 162.235 109.511C161.845 109.511 161.494 109.43 161.182 109.268C160.876 109.106 160.633 108.866 160.453 108.548C160.279 108.23 160.192 107.846 160.192 107.396V104.48H161.209V107.243C161.209 107.687 161.32 108.029 161.542 108.269C161.764 108.503 162.067 108.62 162.451 108.62C162.835 108.62 163.138 108.503 163.36 108.269C163.588 108.029 163.702 107.687 163.702 107.243V104.48H164.728ZM167.107 105.218C167.281 104.978 167.518 104.783 167.818 104.633C168.124 104.477 168.463 104.399 168.835 104.399C169.273 104.399 169.669 104.504 170.023 104.714C170.377 104.924 170.656 105.224 170.86 105.614C171.064 105.998 171.166 106.439 171.166 106.937C171.166 107.435 171.064 107.882 170.86 108.278C170.656 108.668 170.374 108.974 170.014 109.196C169.66 109.412 169.267 109.52 168.835 109.52C168.451 109.52 168.109 109.445 167.809 109.295C167.515 109.145 167.281 108.953 167.107 108.719V109.439H166.081V102.779H167.107V105.218ZM170.122 106.937C170.122 106.595 170.05 106.301 169.906 106.055C169.768 105.803 169.582 105.614 169.348 105.488C169.12 105.356 168.874 105.29 168.61 105.29C168.352 105.29 168.106 105.356 167.872 105.488C167.644 105.62 167.458 105.812 167.314 106.064C167.176 106.316 167.107 106.613 167.107 106.955C167.107 107.297 167.176 107.597 167.314 107.855C167.458 108.107 167.644 108.299 167.872 108.431C168.106 108.563 168.352 108.629 168.61 108.629C168.874 108.629 169.12 108.563 169.348 108.431C169.582 108.293 169.768 108.095 169.906 107.837C170.05 107.579 170.122 107.279 170.122 106.937ZM82.0601 117.184V123.439H81.0341V117.184H82.0601ZM84.4331 117.184V123.439H83.4071V117.184H84.4331ZM89.8212 117.184V118.021H88.1562V123.439H87.1302V118.021H85.4562V117.184H89.8212ZM97.7252 118.984C97.5632 118.672 97.3382 118.438 97.0502 118.282C96.7622 118.12 96.4292 118.039 96.0512 118.039C95.6372 118.039 95.2682 118.132 94.9442 118.318C94.6202 118.504 94.3652 118.768 94.1792 119.11C93.9992 119.452 93.9092 119.848 93.9092 120.298C93.9092 120.748 93.9992 121.147 94.1792 121.495C94.3652 121.837 94.6202 122.101 94.9442 122.287C95.2682 122.473 95.6372 122.566 96.0512 122.566C96.6092 122.566 97.0622 122.41 97.4102 122.098C97.7582 121.786 97.9712 121.363 98.0492 120.829H95.7002V120.01H99.1472V120.811C99.0812 121.297 98.9072 121.744 98.6252 122.152C98.3492 122.56 97.9862 122.887 97.5362 123.133C97.0922 123.373 96.5972 123.493 96.0512 123.493C95.4632 123.493 94.9262 123.358 94.4402 123.088C93.9542 122.812 93.5672 122.431 93.2792 121.945C92.9972 121.459 92.8562 120.91 92.8562 120.298C92.8562 119.686 92.9972 119.137 93.2792 118.651C93.5672 118.165 93.9542 117.787 94.4402 117.517C94.9322 117.241 95.4692 117.103 96.0512 117.103C96.7172 117.103 97.3082 117.268 97.8242 117.598C98.3462 117.922 98.7242 118.384 98.9582 118.984H97.7252ZM104.65 118.48V123.439H103.624V122.854C103.462 123.058 103.249 123.22 102.985 123.34C102.727 123.454 102.451 123.511 102.157 123.511C101.767 123.511 101.416 123.43 101.104 123.268C100.798 123.106 100.555 122.866 100.375 122.548C100.201 122.23 100.114 121.846 100.114 121.396V118.48H101.131V121.243C101.131 121.687 101.242 122.029 101.464 122.269C101.686 122.503 101.989 122.62 102.373 122.62C102.757 122.62 103.06 122.503 103.282 122.269C103.51 122.029 103.624 121.687 103.624 121.243V118.48H104.65ZM112.664 118.48L111.125 123.439H110.045L109.046 119.776L108.047 123.439H106.967L105.419 118.48H106.463L107.498 122.467L108.551 118.48H109.622L110.63 122.449L111.656 118.48H112.664ZM113.089 120.937C113.089 120.439 113.191 119.998 113.395 119.614C113.605 119.23 113.887 118.933 114.241 118.723C114.601 118.507 114.997 118.399 115.429 118.399C115.819 118.399 116.158 118.477 116.446 118.633C116.74 118.783 116.974 118.972 117.148 119.2V118.48H118.183V123.439H117.148V122.701C116.974 122.935 116.737 123.13 116.437 123.286C116.137 123.442 115.795 123.52 115.411 123.52C114.985 123.52 114.595 123.412 114.241 123.196C113.887 122.974 113.605 122.668 113.395 122.278C113.191 121.882 113.089 121.435 113.089 120.937ZM117.148 120.955C117.148 120.613 117.076 120.316 116.932 120.064C116.794 119.812 116.611 119.62 116.383 119.488C116.155 119.356 115.909 119.29 115.645 119.29C115.381 119.29 115.135 119.356 114.907 119.488C114.679 119.614 114.493 119.803 114.349 120.055C114.211 120.301 114.142 120.595 114.142 120.937C114.142 121.279 114.211 121.579 114.349 121.837C114.493 122.095 114.679 122.293 114.907 122.431C115.141 122.563 115.387 122.629 115.645 122.629C115.909 122.629 116.155 122.563 116.383 122.431C116.611 122.299 116.794 122.107 116.932 121.855C117.076 121.597 117.148 121.297 117.148 120.955ZM122.095 118.399C122.473 118.399 122.809 118.48 123.103 118.642C123.403 118.804 123.637 119.044 123.805 119.362C123.979 119.68 124.066 120.064 124.066 120.514V123.439H123.049V120.667C123.049 120.223 122.938 119.884 122.716 119.65C122.494 119.41 122.191 119.29 121.807 119.29C121.423 119.29 121.117 119.41 120.889 119.65C120.667 119.884 120.556 120.223 120.556 120.667V123.439H119.53V116.779H120.556V119.056C120.73 118.846 120.949 118.684 121.213 118.57C121.483 118.456 121.777 118.399 122.095 118.399ZM125.033 120.937C125.033 120.439 125.135 119.998 125.339 119.614C125.549 119.23 125.831 118.933 126.185 118.723C126.545 118.507 126.941 118.399 127.373 118.399C127.763 118.399 128.102 118.477 128.39 118.633C128.684 118.783 128.918 118.972 129.092 119.2V118.48H130.127V123.439H129.092V122.701C128.918 122.935 128.681 123.13 128.381 123.286C128.081 123.442 127.739 123.52 127.355 123.52C126.929 123.52 126.539 123.412 126.185 123.196C125.831 122.974 125.549 122.668 125.339 122.278C125.135 121.882 125.033 121.435 125.033 120.937ZM129.092 120.955C129.092 120.613 129.02 120.316 128.876 120.064C128.738 119.812 128.555 119.62 128.327 119.488C128.099 119.356 127.853 119.29 127.589 119.29C127.325 119.29 127.079 119.356 126.851 119.488C126.623 119.614 126.437 119.803 126.293 120.055C126.155 120.301 126.086 120.595 126.086 120.937C126.086 121.279 126.155 121.579 126.293 121.837C126.437 122.095 126.623 122.293 126.851 122.431C127.085 122.563 127.331 122.629 127.589 122.629C127.853 122.629 128.099 122.563 128.327 122.431C128.555 122.299 128.738 122.107 128.876 121.855C129.02 121.597 129.092 121.297 129.092 120.955ZM132.672 119.317V122.062C132.672 122.248 132.714 122.383 132.798 122.467C132.888 122.545 133.038 122.584 133.248 122.584H133.878V123.439H133.068C132.606 123.439 132.252 123.331 132.006 123.115C131.76 122.899 131.637 122.548 131.637 122.062V119.317H131.052V118.48H131.637V117.247H132.672V118.48H133.878V119.317H132.672ZM135.345 117.823C135.159 117.823 135.003 117.76 134.877 117.634C134.751 117.508 134.688 117.352 134.688 117.166C134.688 116.98 134.751 116.824 134.877 116.698C135.003 116.572 135.159 116.509 135.345 116.509C135.525 116.509 135.678 116.572 135.804 116.698C135.93 116.824 135.993 116.98 135.993 117.166C135.993 117.352 135.93 117.508 135.804 117.634C135.678 117.76 135.525 117.823 135.345 117.823ZM135.849 118.48V123.439H134.823V118.48H135.849Z" fill="white"/>
</svg>
