<svg width="272" height="222" viewBox="0 0 272 222" fill="none" xmlns="http://www.w3.org/2000/svg">
<path d="M10.9639 35.0012H26.2002V27.3831L31.0118 23.0969L38.5815 35.0012H56.8219L41.4887 14.2861L56.8219 0.71582H38.1045L26.2971 11.5244L26.2002 11.4759V0.71582H10.9639V35.0012Z" fill="white"/>
<path d="M97.4373 35.9544C100.773 35.9544 105.152 34.9034 107.154 33.4274L105.152 27.5722C104.631 28.0008 103.486 28.2841 102.771 28.2841C101.343 28.2841 100.438 27.8107 99.7257 26.9535L97.3441 24.0464C96.5353 23.0475 95.5812 22.2872 94.6308 22.0487V22.0002C100.915 20.6175 104.44 17.0469 104.44 11.9035C104.44 4.714 99.0586 0.714844 89.3421 0.714844H59.2012V35.0003H74.4375V24.5234H78.4851C80.8182 24.5234 82.9613 25.2875 84.4857 27.2368L86.2486 29.5252C88.5333 32.5255 91.4404 35.9544 97.4373 35.9544ZM74.4375 16.4282V9.28713H84.4372C87.486 9.28713 89.2005 10.573 89.2005 12.8577C89.2005 15.1424 87.486 16.4282 84.3925 16.4282H74.4375Z" fill="white"/>
<path d="M107.101 35.0012H122.818L124.864 29.7647H139.91L141.96 35.0012H157.722L141.483 0.71582H123.865L107.101 35.0012ZM127.436 21.6695L132.389 9.71672H132.482L137.338 21.6695H127.436Z" fill="white"/>
<path d="M184.764 35.7166C198.1 35.7166 207.526 30.2863 209.099 21.714L195.051 19.4293C194.384 22.9998 190.575 25.2398 185.193 25.2398C178.574 25.2398 174.385 22.3811 174.385 17.8564C174.385 13.3355 178.052 10.4768 183.766 10.4768C187.813 10.4768 191.004 12.2882 192.002 15.1431L205.86 12.523C203.668 4.85639 194.91 0 183.337 0C168.526 0 159.145 6.95473 159.145 17.8564C159.145 29.239 169.1 35.7166 184.764 35.7166Z" fill="white"/>
<path d="M211.954 35.0012H227.19V27.3831L232.002 23.0969L239.572 35.0012H257.812L242.479 14.2861L257.812 0.71582H239.095L227.287 11.5244L227.19 11.4759V0.71582H211.954V35.0012Z" fill="white"/>
<path d="M21.4409 101.436H36.6772V77.6277H49.0586V67.1509H9.05957V77.6277H21.4409V101.436Z" fill="white"/>
<path d="M51.915 101.437H67.1513V88.5784H82.8685V101.437H98.1048V67.1514H82.8685V78.5786H67.1513V67.1514H51.915V101.437Z" fill="white"/>
<path d="M102.864 101.436H140.482V92.3869H117.627V87.866H138.104V80.2441H117.627V76.1965H140.008V67.1509H102.864V101.436Z" fill="white"/>
<path d="M35.6297 168.588C48.9652 168.588 58.391 163.157 59.9638 154.585L45.9165 152.3C45.2493 155.871 41.4402 158.111 36.0583 158.111C29.439 158.111 25.2498 155.252 25.2498 150.728C25.2498 146.207 28.9173 143.348 34.6309 143.348C38.6785 143.348 41.8689 145.159 42.8677 148.014L56.725 145.394C54.5335 137.727 45.7748 132.871 34.2023 132.871C19.3908 132.871 10.0098 139.826 10.0098 150.728C10.0098 162.11 19.9648 168.588 35.6297 168.588Z" fill="white"/>
<path d="M60.3867 167.872H76.1038L78.15 162.636H93.1962L95.2461 167.872H111.008L94.769 133.587H77.1511L60.3867 167.872ZM80.7217 154.541L85.675 142.588H85.7681L90.6245 154.541H80.7217Z" fill="white"/>
<path d="M133.769 168.826C147.388 168.826 156.009 163.776 155.96 156.445C155.96 149.919 150.724 146.68 138.532 145.588L132.912 145.111C128.864 144.775 127.101 144.254 127.15 143.445C127.198 142.159 130.437 141.492 134.962 141.443C139.867 141.395 145.629 142.539 149.911 144.585L153.437 135.871C148.629 133.777 141.771 132.588 134.816 132.588C121.388 132.588 112.435 136.826 112.391 144.537C112.391 150.921 117.437 154.112 129.2 155.204L134.675 155.729C139.248 156.109 141.197 156.728 141.197 157.731C141.197 158.968 138.674 159.538 134.578 159.538C128.533 159.538 121.149 157.776 116.39 155.349L111.962 164.443C117.15 167.063 126.151 168.826 133.769 168.826Z" fill="white"/>
<path d="M159.29 167.872H196.907V158.823H174.053V154.302H194.53V146.68H174.053V142.633H196.434V133.587H159.29V167.872Z" fill="white"/>
<path d="M14.7397 199.682H11.117L10.4908 201.456H9L12.1158 192.765H13.7558L16.8716 201.456H15.3659L14.7397 199.682ZM14.3521 198.519L12.9358 194.494L11.5195 198.519H14.3521Z" fill="white"/>
<path d="M20.9756 197.103C20.9756 196.261 21.1694 195.5 21.557 194.822C21.9521 194.147 22.4888 193.622 23.1671 193.242C23.8529 192.865 24.5983 192.675 25.4034 192.675C26.3277 192.675 27.1476 192.906 27.8632 193.361C28.5863 193.808 29.1081 194.449 29.4286 195.284H27.7291C27.498 194.83 27.1849 194.487 26.7898 194.256C26.391 194.028 25.9289 193.913 25.4034 193.913C24.8257 193.913 24.3151 194.043 23.8678 194.3C23.4206 194.561 23.0665 194.934 22.8093 195.418C22.5596 195.895 22.4366 196.458 22.4366 197.103C22.4366 197.74 22.5596 198.303 22.8093 198.788C23.0665 199.265 23.4206 199.637 23.8678 199.906C24.3151 200.167 24.8257 200.293 25.4034 200.293C25.9289 200.293 26.391 200.185 26.7898 199.965C27.1849 199.738 27.498 199.395 27.7291 198.937H29.4286C29.1081 199.772 28.5863 200.413 27.8632 200.86C27.1476 201.307 26.3277 201.531 25.4034 201.531C24.5871 201.531 23.8417 201.344 23.1671 200.964C22.4888 200.588 21.9521 200.062 21.557 199.384C21.1694 198.709 20.9756 197.949 20.9756 197.103Z" fill="white"/>
<path d="M34.0727 201.576C33.4242 201.576 32.8391 201.427 32.3135 201.128C31.7843 200.83 31.3743 200.413 31.0762 199.876C30.778 199.339 30.6289 198.721 30.6289 198.013C30.6289 197.319 30.7817 196.701 31.0911 196.164C31.3967 195.62 31.8141 195.202 32.3434 194.912C32.8801 194.613 33.4764 194.464 34.1324 194.464C34.7883 194.464 35.3772 194.613 35.9065 194.912C36.4432 195.202 36.8643 195.62 37.1737 196.164C37.4793 196.701 37.6358 197.319 37.6358 198.013C37.6358 198.71 37.4756 199.332 37.1588 199.876C36.8494 200.413 36.4208 200.83 35.8766 201.128C35.3288 201.427 34.7287 201.576 34.0727 201.576ZM34.0727 200.338C34.438 200.338 34.7809 200.256 35.1014 200.085C35.4182 199.906 35.6754 199.645 35.8766 199.295C36.0742 198.937 36.1748 198.512 36.1748 198.013C36.1748 197.517 36.0779 197.096 35.8915 196.745C35.7015 196.399 35.448 196.142 35.1312 195.97C34.8107 195.791 34.4678 195.702 34.1025 195.702C33.7447 195.702 33.4056 195.791 33.0888 195.97C32.7794 196.142 32.5297 196.399 32.3434 196.745C32.1645 197.096 32.075 197.517 32.075 198.013C32.075 198.75 32.2614 199.321 32.6415 199.727C33.018 200.137 33.495 200.338 34.0727 200.338Z" fill="white"/>
<path d="M47.3657 194.464C47.9024 194.464 48.3832 194.579 48.8118 194.807C49.2479 195.027 49.5871 195.358 49.8256 195.806C50.0716 196.245 50.1983 196.775 50.1983 197.401V201.456H48.782V197.61C48.782 196.995 48.6255 196.521 48.3199 196.193C48.0217 195.865 47.6043 195.701 47.0676 195.701C46.5309 195.701 46.106 195.865 45.8003 196.193C45.491 196.521 45.3382 196.995 45.3382 197.61V201.456H43.9219V197.61C43.9219 196.995 43.7654 196.521 43.4597 196.193C43.1504 195.865 42.733 195.701 42.2074 195.701C41.6707 195.701 41.2421 195.865 40.9253 196.193C40.616 196.521 40.4632 196.995 40.4632 197.61V201.456H39.0469V194.583H40.4632V195.373C40.7017 195.086 40.9999 194.863 41.3577 194.702C41.7155 194.546 42.0956 194.464 42.5056 194.464C43.0498 194.464 43.538 194.583 43.9666 194.822C44.4027 195.053 44.7344 195.388 44.9655 195.835C45.1742 195.418 45.4947 195.086 45.9345 194.837C46.3818 194.591 46.8588 194.464 47.3657 194.464Z" fill="white"/>
<path d="M53.4143 195.597C53.6529 195.28 53.9809 195.012 54.3983 194.792C54.8157 194.576 55.2853 194.464 55.8146 194.464C56.4109 194.464 56.9551 194.613 57.4545 194.911C57.9502 195.209 58.3378 195.627 58.6173 196.163C58.9043 196.693 59.0497 197.296 59.0497 197.982C59.0497 198.679 58.9043 199.302 58.6173 199.846C58.3378 200.382 57.9502 200.807 57.4545 201.113C56.9551 201.422 56.4109 201.575 55.8146 201.575C55.2853 201.575 54.8194 201.471 54.4132 201.262C54.0032 201.046 53.6715 200.778 53.4143 200.457V204.721H51.998V194.583H53.4143V195.597ZM57.6036 197.982C57.6036 197.516 57.5029 197.11 57.3054 196.76C57.1041 196.413 56.847 196.149 56.5302 195.97C56.2096 195.791 55.8668 195.701 55.5015 195.701C55.1437 195.701 54.8045 195.798 54.4877 195.985C54.1672 196.163 53.91 196.428 53.7125 196.775C53.5112 197.125 53.4143 197.535 53.4143 198.012C53.4143 198.489 53.5112 198.907 53.7125 199.264C53.91 199.615 54.1672 199.883 54.4877 200.069C54.8045 200.248 55.1437 200.338 55.5015 200.338C55.8668 200.338 56.2096 200.245 56.5302 200.054C56.847 199.868 57.1041 199.592 57.3054 199.235C57.5029 198.877 57.6036 198.459 57.6036 197.982Z" fill="white"/>
<path d="M61.8704 195.582C62.0791 195.235 62.3549 194.963 62.7053 194.762C63.0519 194.564 63.4581 194.464 63.9277 194.464V195.94H63.5699C63.0109 195.94 62.5897 196.085 62.3027 196.372C62.012 196.652 61.8704 197.14 61.8704 197.833V201.456H60.4541V194.583H61.8704V195.582Z" fill="white"/>
<path d="M71.5321 197.849C71.5321 198.109 71.5171 198.341 71.4873 198.549H66.2396C66.2769 199.097 66.4819 199.541 66.8508 199.876C67.2161 200.204 67.6633 200.368 68.1926 200.368C68.9566 200.368 69.4971 200.051 69.8176 199.414H71.3532C71.1444 200.04 70.7643 200.558 70.2201 200.964C69.6722 201.374 68.9976 201.576 68.1926 201.576C67.5366 201.576 66.944 201.427 66.4185 201.128C65.9004 200.83 65.4942 200.413 65.196 199.876C64.9053 199.339 64.7637 198.721 64.7637 198.013C64.7637 197.308 64.9053 196.686 65.196 196.149C65.483 195.612 65.8855 195.202 66.4036 194.912C66.9179 194.613 67.5143 194.464 68.1926 194.464C68.8374 194.464 69.4151 194.61 69.922 194.897C70.4363 195.176 70.8351 195.575 71.1146 196.089C71.3904 196.596 71.5321 197.185 71.5321 197.849ZM70.0561 197.401C70.0449 196.876 69.8549 196.458 69.4896 196.149C69.1206 195.832 68.6697 195.672 68.133 195.672C67.6447 195.672 67.2235 195.828 66.8657 196.134C66.5154 196.443 66.3141 196.865 66.2545 197.401H70.0561Z" fill="white"/>
<path d="M76.4818 194.464C77.0073 194.464 77.4732 194.579 77.8832 194.807C78.3006 195.027 78.6286 195.358 78.8671 195.806C79.1056 196.245 79.2249 196.775 79.2249 197.401V201.456H77.8086V197.609C77.8086 196.994 77.6521 196.521 77.3465 196.193C77.0371 195.865 76.6197 195.701 76.0942 195.701C75.5575 195.701 75.1288 195.865 74.812 196.193C74.5027 196.521 74.3499 196.994 74.3499 197.609V201.456H72.9336V192.228H74.3499V195.373C74.5884 195.086 74.8903 194.863 75.2593 194.702C75.6357 194.546 76.042 194.464 76.4818 194.464Z" fill="white"/>
<path d="M87.3162 197.849C87.3162 198.109 87.3013 198.341 87.2715 198.549H82.0238C82.061 199.097 82.266 199.541 82.635 199.876C83.0003 200.204 83.4475 200.368 83.9768 200.368C84.7408 200.368 85.2812 200.051 85.6018 199.414H87.1373C86.9286 200.04 86.5485 200.558 86.0043 200.964C85.4564 201.374 84.7818 201.576 83.9768 201.576C83.3208 201.576 82.7282 201.427 82.2027 201.128C81.6846 200.83 81.2784 200.413 80.9802 199.876C80.6895 199.339 80.5479 198.721 80.5479 198.013C80.5479 197.308 80.6895 196.686 80.9802 196.149C81.2672 195.612 81.6697 195.202 82.1878 194.912C82.7021 194.613 83.2984 194.464 83.9768 194.464C84.6216 194.464 85.1992 194.61 85.7061 194.897C86.2205 195.176 86.6193 195.575 86.8988 196.089C87.1746 196.596 87.3162 197.185 87.3162 197.849ZM85.8403 197.401C85.8291 196.876 85.639 196.458 85.2738 196.149C84.9048 195.832 84.4538 195.672 83.9171 195.672C83.4289 195.672 83.0077 195.828 82.6499 196.134C82.2996 196.443 82.0983 196.865 82.0387 197.401H85.8403Z" fill="white"/>
<path d="M92.1746 194.464C92.7187 194.464 93.207 194.579 93.6356 194.807C94.0605 195.027 94.3959 195.358 94.6344 195.806C94.8804 196.245 95.0071 196.775 95.0071 197.401V201.456H93.5908V197.61C93.5908 196.995 93.4343 196.521 93.1287 196.193C92.8193 195.865 92.4019 195.701 91.8764 195.701C91.3397 195.701 90.9111 195.865 90.5943 196.193C90.2849 196.521 90.1321 196.995 90.1321 197.61V201.456H88.7158V194.583H90.1321V195.373C90.3706 195.086 90.6688 194.863 91.0266 194.702C91.3844 194.546 91.7646 194.464 92.1746 194.464Z" fill="white"/>
<path d="M99.2989 201.576C98.7622 201.576 98.2777 201.475 97.8528 201.277C97.4242 201.08 97.0813 200.812 96.8241 200.472C96.5744 200.137 96.444 199.764 96.4365 199.354H97.8975C97.9274 199.645 98.0653 199.887 98.315 200.085C98.5721 200.275 98.8964 200.368 99.284 200.368C99.6791 200.368 99.9884 200.294 100.208 200.144C100.425 199.988 100.536 199.787 100.536 199.548C100.536 199.291 100.41 199.101 100.164 198.982C99.9251 198.855 99.5375 198.713 99.0008 198.564C98.4827 198.426 98.0615 198.292 97.7335 198.162C97.413 198.024 97.1372 197.819 96.8987 197.55C96.6601 197.275 96.5409 196.906 96.5409 196.447C96.5409 196.089 96.649 195.758 96.8689 195.448C97.085 195.143 97.3944 194.904 97.7932 194.733C98.1994 194.554 98.6653 194.464 99.1946 194.464C99.9698 194.464 100.596 194.666 101.073 195.061C101.558 195.459 101.818 195.996 101.848 196.671H100.432C100.402 196.365 100.272 196.119 100.044 195.94C99.8244 195.761 99.5225 195.672 99.1349 195.672C98.7659 195.672 98.479 195.743 98.2702 195.881C98.069 196.022 97.9721 196.209 97.9721 196.447C97.9721 196.626 98.0354 196.783 98.1659 196.909C98.3038 197.029 98.4678 197.125 98.6579 197.193C98.8554 197.263 99.1387 197.353 99.5076 197.461C100.015 197.603 100.425 197.74 100.745 197.878C101.062 198.009 101.334 198.206 101.565 198.475C101.804 198.743 101.927 199.097 101.938 199.533C101.938 199.921 101.826 200.271 101.61 200.577C101.39 200.886 101.08 201.128 100.685 201.307C100.298 201.486 99.8356 201.576 99.2989 201.576Z" fill="white"/>
<path d="M104.183 193.674C103.922 193.674 103.706 193.592 103.527 193.421C103.355 193.242 103.273 193.026 103.273 192.765C103.273 192.508 103.355 192.295 103.527 192.124C103.706 191.945 103.922 191.855 104.183 191.855C104.429 191.855 104.645 191.945 104.824 192.124C105.003 192.295 105.092 192.508 105.092 192.765C105.092 193.026 105.003 193.242 104.824 193.421C104.645 193.592 104.429 193.674 104.183 193.674ZM104.884 194.584V201.456H103.467V194.584H104.884Z" fill="white"/>
<path d="M109.412 200.189L111.365 194.583H112.871L110.247 201.456H108.547L105.938 194.583H107.459L109.412 200.189Z" fill="white"/>
<path d="M120.231 197.849C120.231 198.109 120.216 198.341 120.187 198.549H114.939C114.976 199.097 115.181 199.541 115.55 199.876C115.915 200.204 116.363 200.368 116.892 200.368C117.656 200.368 118.196 200.051 118.517 199.414H120.052C119.844 200.04 119.463 200.558 118.919 200.964C118.371 201.374 117.697 201.576 116.892 201.576C116.236 201.576 115.643 201.427 115.118 201.128C114.6 200.83 114.193 200.413 113.895 199.876C113.605 199.339 113.463 198.721 113.463 198.013C113.463 197.308 113.605 196.686 113.895 196.149C114.182 195.612 114.585 195.202 115.103 194.912C115.617 194.613 116.213 194.464 116.892 194.464C117.537 194.464 118.114 194.61 118.621 194.897C119.136 195.176 119.534 195.575 119.814 196.089C120.09 196.596 120.231 197.185 120.231 197.849ZM118.755 197.401C118.744 196.876 118.554 196.458 118.189 196.149C117.82 195.832 117.369 195.672 116.832 195.672C116.344 195.672 115.923 195.828 115.565 196.134C115.215 196.443 115.013 196.865 114.954 197.401H118.755Z" fill="white"/>
<path d="M131.151 195.284C130.92 194.848 130.607 194.52 130.212 194.3C129.813 194.084 129.351 193.972 128.825 193.972C128.248 193.972 127.737 194.103 127.29 194.36C126.842 194.621 126.488 194.986 126.231 195.463C125.981 195.933 125.858 196.477 125.858 197.103C125.858 197.729 125.981 198.281 126.231 198.758C126.488 199.235 126.842 199.604 127.29 199.861C127.737 200.122 128.248 200.249 128.825 200.249C129.6 200.249 130.227 200.036 130.704 199.608C131.188 199.172 131.486 198.579 131.598 197.834H128.333V196.701H133.119V197.819C133.029 198.486 132.791 199.101 132.403 199.667C132.016 200.234 131.509 200.689 130.883 201.024C130.264 201.363 129.578 201.531 128.825 201.531C128.009 201.531 127.264 201.344 126.589 200.964C125.911 200.588 125.374 200.062 124.979 199.384C124.591 198.709 124.397 197.949 124.397 197.103C124.397 196.261 124.591 195.5 124.979 194.822C125.374 194.147 125.911 193.622 126.589 193.242C127.275 192.865 128.02 192.675 128.825 192.675C129.75 192.675 130.57 192.906 131.285 193.361C132.008 193.808 132.53 194.449 132.85 195.284H131.151Z" fill="white"/>
<path d="M140.729 194.584V201.457H139.312V200.652C139.081 200.932 138.79 201.155 138.433 201.323C138.075 201.48 137.691 201.562 137.285 201.562C136.737 201.562 136.249 201.45 135.824 201.219C135.395 200.991 135.056 200.66 134.81 200.22C134.571 199.784 134.452 199.251 134.452 198.625V194.584H135.854V198.416C135.854 199.035 136.006 199.504 136.316 199.832C136.621 200.16 137.046 200.324 137.583 200.324C138.108 200.324 138.526 200.16 138.835 199.832C139.152 199.504 139.312 199.035 139.312 198.416V194.584H140.729Z" fill="white"/>
<path d="M143.321 193.674C143.06 193.674 142.843 193.592 142.665 193.421C142.493 193.242 142.411 193.026 142.411 192.765C142.411 192.508 142.493 192.295 142.665 192.124C142.843 191.945 143.06 191.855 143.321 191.855C143.567 191.855 143.783 191.945 143.962 192.124C144.14 192.295 144.23 192.508 144.23 192.765C144.23 193.026 144.14 193.242 143.962 193.421C143.783 193.592 143.567 193.674 143.321 193.674ZM144.021 194.584V201.456H142.605V194.584H144.021Z" fill="white"/>
<path d="M145.418 197.983C145.418 197.297 145.56 196.693 145.85 196.164C146.137 195.627 146.525 195.21 147.013 194.912C147.509 194.613 148.06 194.464 148.668 194.464C149.123 194.464 149.57 194.565 150.01 194.762C150.446 194.964 150.789 195.221 151.038 195.538V192.228H152.485V201.456H151.038V200.428C150.807 200.756 150.487 201.031 150.069 201.248C149.659 201.464 149.194 201.576 148.668 201.576C148.06 201.576 147.509 201.423 147.013 201.113C146.525 200.808 146.137 200.383 145.85 199.846C145.56 199.302 145.418 198.68 145.418 197.983ZM151.038 198.012C151.038 197.535 150.938 197.125 150.74 196.775C150.55 196.428 150.297 196.164 149.98 195.985C149.671 195.799 149.331 195.702 148.966 195.702C148.597 195.702 148.254 195.791 147.937 195.97C147.617 196.149 147.36 196.414 147.162 196.76C146.972 197.111 146.879 197.517 146.879 197.983C146.879 198.46 146.972 198.877 147.162 199.235C147.36 199.593 147.617 199.869 147.937 200.055C148.265 200.245 148.608 200.338 148.966 200.338C149.331 200.338 149.671 200.249 149.98 200.07C150.297 199.883 150.55 199.615 150.74 199.265C150.938 198.907 151.038 198.49 151.038 198.012Z" fill="white"/>
<path d="M160.64 197.849C160.64 198.109 160.626 198.341 160.596 198.549H155.348C155.385 199.097 155.59 199.541 155.959 199.876C156.324 200.204 156.772 200.368 157.301 200.368C158.065 200.368 158.605 200.051 158.926 199.414H160.462C160.253 200.04 159.873 200.558 159.329 200.964C158.781 201.374 158.106 201.576 157.301 201.576C156.645 201.576 156.052 201.427 155.527 201.128C155.009 200.83 154.603 200.413 154.304 199.876C154.014 199.339 153.872 198.721 153.872 198.013C153.872 197.308 154.014 196.686 154.304 196.149C154.591 195.612 154.994 195.202 155.512 194.912C156.026 194.613 156.623 194.464 157.301 194.464C157.946 194.464 158.523 194.61 159.03 194.897C159.545 195.176 159.943 195.575 160.223 196.089C160.499 196.596 160.64 197.185 160.64 197.849ZM159.165 197.401C159.153 196.876 158.963 196.458 158.598 196.149C158.229 195.832 157.778 195.672 157.241 195.672C156.753 195.672 156.332 195.828 155.974 196.134C155.624 196.443 155.423 196.865 155.363 197.401H159.165Z" fill="white"/>
<path d="M168.16 195.747H166.893V201.457H165.447V195.747H164.642V194.584H165.447V194.092C165.447 193.31 165.655 192.736 166.073 192.378C166.498 192.013 167.161 191.826 168.056 191.826V193.004C167.627 193.004 167.325 193.09 167.146 193.257C166.975 193.418 166.893 193.697 166.893 194.092V194.584H168.16V195.747Z" fill="white"/>
<path d="M172.405 201.575C171.756 201.575 171.171 201.426 170.646 201.128C170.116 200.83 169.706 200.412 169.408 199.876C169.11 199.339 168.961 198.72 168.961 198.012C168.961 197.319 169.114 196.7 169.423 196.163C169.729 195.619 170.146 195.202 170.675 194.911C171.212 194.613 171.808 194.464 172.464 194.464C173.12 194.464 173.709 194.613 174.238 194.911C174.775 195.202 175.196 195.619 175.506 196.163C175.811 196.7 175.968 197.319 175.968 198.012C175.968 198.709 175.808 199.331 175.491 199.876C175.181 200.412 174.753 200.83 174.209 201.128C173.661 201.426 173.061 201.575 172.405 201.575ZM172.405 200.338C172.77 200.338 173.113 200.256 173.433 200.084C173.75 199.905 174.007 199.645 174.209 199.294C174.406 198.936 174.507 198.511 174.507 198.012C174.507 197.516 174.41 197.095 174.224 196.745C174.033 196.398 173.78 196.141 173.463 195.97C173.143 195.791 172.8 195.701 172.435 195.701C172.077 195.701 171.738 195.791 171.421 195.97C171.111 196.141 170.862 196.398 170.675 196.745C170.496 197.095 170.407 197.516 170.407 198.012C170.407 198.75 170.593 199.32 170.974 199.727C171.35 200.136 171.827 200.338 172.405 200.338Z" fill="white"/>
<path d="M178.793 195.582C179.002 195.236 179.278 194.964 179.628 194.763C179.975 194.565 180.381 194.464 180.851 194.464V195.94H180.493C179.934 195.94 179.513 196.086 179.226 196.373C178.935 196.652 178.793 197.14 178.793 197.834V201.456H177.377V194.584H178.793V195.582Z" fill="white"/>
<path d="M9.04492 214.248C9.04492 213.405 9.23873 212.645 9.62635 211.967C10.0214 211.292 10.5581 210.767 11.2364 210.386C11.9222 210.01 12.6676 209.82 13.4727 209.82C14.397 209.82 15.217 210.051 15.9326 210.506C16.6556 210.953 17.1774 211.594 17.4979 212.429H15.7984C15.5673 211.974 15.2542 211.631 14.8592 211.4C14.4604 211.173 13.9982 211.057 13.4727 211.057C12.895 211.057 12.3844 211.188 11.9371 211.445C11.4899 211.706 11.1358 212.078 10.8786 212.563C10.6289 213.04 10.5059 213.603 10.5059 214.248C10.5059 214.885 10.6289 215.448 10.8786 215.932C11.1358 216.409 11.4899 216.782 11.9371 217.05C12.3844 217.311 12.895 217.438 13.4727 217.438C13.9982 217.438 14.4604 217.33 14.8592 217.11C15.2542 216.883 15.5673 216.54 15.7984 216.081H17.4979C17.1774 216.916 16.6556 217.557 15.9326 218.004C15.217 218.452 14.397 218.675 13.4727 218.675C12.6565 218.675 11.911 218.489 11.2364 218.109C10.5581 217.732 10.0214 217.207 9.62635 216.529C9.23873 215.854 9.04492 215.094 9.04492 214.248Z" fill="white"/>
<path d="M22.1401 218.72C21.4916 218.72 20.9064 218.571 20.3809 218.273C19.8517 217.975 19.4417 217.557 19.1435 217.021C18.8454 216.484 18.6963 215.865 18.6963 215.157C18.6963 214.464 18.8491 213.845 19.1584 213.308C19.4641 212.764 19.8815 212.347 20.4107 212.056C20.9474 211.758 21.5438 211.609 22.1997 211.609C22.8557 211.609 23.4446 211.758 23.9738 212.056C24.5105 212.347 24.9317 212.764 25.241 213.308C25.5467 213.845 25.7032 214.464 25.7032 215.157C25.7032 215.854 25.5429 216.476 25.2261 217.021C24.9168 217.557 24.4882 217.975 23.944 218.273C23.3961 218.571 22.7961 218.72 22.1401 218.72ZM22.1401 217.483C22.5054 217.483 22.8483 217.401 23.1688 217.229C23.4856 217.05 23.7428 216.79 23.944 216.439C24.1416 216.081 24.2422 215.656 24.2422 215.157C24.2422 214.661 24.1453 214.24 23.9589 213.89C23.7688 213.543 23.5154 213.286 23.1986 213.115C22.8781 212.936 22.5352 212.846 22.1699 212.846C21.8121 212.846 21.473 212.936 21.1562 213.115C20.8468 213.286 20.5971 213.543 20.4107 213.89C20.2318 214.24 20.1424 214.661 20.1424 215.157C20.1424 215.895 20.3288 216.465 20.7089 216.872C21.0853 217.282 21.5624 217.483 22.1401 217.483Z" fill="white"/>
<path d="M30.573 211.609C31.1171 211.609 31.6054 211.724 32.034 211.952C32.4589 212.172 32.7943 212.503 33.0329 212.951C33.2789 213.39 33.4056 213.92 33.4056 214.546V218.601H31.9893V214.755C31.9893 214.14 31.8327 213.666 31.5271 213.338C31.2178 213.01 30.8003 212.846 30.2748 212.846C29.7381 212.846 29.3095 213.01 28.9927 213.338C28.6834 213.666 28.5305 214.14 28.5305 214.755V218.601H27.1143V211.728H28.5305V212.518C28.7691 212.231 29.0672 212.008 29.425 211.847C29.7828 211.691 30.163 211.609 30.573 211.609Z" fill="white"/>
<path d="M37.6954 218.72C37.1587 218.72 36.6742 218.62 36.2493 218.422C35.8207 218.224 35.4778 217.956 35.2206 217.617C34.9709 217.282 34.8405 216.909 34.833 216.499H36.294C36.3238 216.79 36.4617 217.032 36.7115 217.229C36.9686 217.419 37.2929 217.513 37.6805 217.513C38.0756 217.513 38.3849 217.438 38.6048 217.289C38.821 217.132 38.9328 216.931 38.9328 216.693C38.9328 216.435 38.8061 216.245 38.5601 216.126C38.3216 215.999 37.9339 215.858 37.3972 215.709C36.8792 215.571 36.458 215.437 36.13 215.306C35.8095 215.168 35.5337 214.963 35.2952 214.695C35.0566 214.419 34.9374 214.05 34.9374 213.592C34.9374 213.234 35.0455 212.902 35.2653 212.593C35.4815 212.287 35.7909 212.049 36.1897 211.877C36.5959 211.698 37.0618 211.609 37.591 211.609C38.3663 211.609 38.9924 211.81 39.4695 212.205C39.954 212.604 40.2149 213.141 40.2447 213.815H38.8284C38.7986 213.51 38.6682 213.264 38.4408 213.085C38.2209 212.906 37.919 212.816 37.5314 212.816C37.1624 212.816 36.8754 212.887 36.6667 213.025C36.4655 213.167 36.3686 213.353 36.3686 213.592C36.3686 213.771 36.4319 213.927 36.5624 214.054C36.7003 214.173 36.8643 214.27 37.0543 214.337C37.2519 214.408 37.5351 214.497 37.9041 214.605C38.411 214.747 38.821 214.885 39.1415 215.023C39.4583 215.153 39.7304 215.351 39.9615 215.619C40.2 215.888 40.323 216.242 40.3342 216.678C40.3342 217.065 40.2224 217.416 40.0062 217.721C39.7863 218.031 39.477 218.273 39.0819 218.452C38.6943 218.631 38.2321 218.72 37.6954 218.72Z" fill="white"/>
<path d="M48.0801 211.729V218.601H46.6638V217.796C46.4327 218.076 46.142 218.299 45.7842 218.467C45.4264 218.624 45.0425 218.706 44.6363 218.706C44.0884 218.706 43.6002 218.594 43.1753 218.363C42.7467 218.135 42.4075 217.804 42.1615 217.364C41.923 216.928 41.8037 216.395 41.8037 215.769V211.729H43.2051V215.56C43.2051 216.179 43.3579 216.648 43.6673 216.976C43.9729 217.304 44.3978 217.468 44.9345 217.468C45.46 217.468 45.8774 217.304 46.1868 216.976C46.5036 216.648 46.6638 216.179 46.6638 215.56V211.729H48.0801Z" fill="white"/>
<path d="M51.3704 209.373V218.601H49.9541V209.373H51.3704Z" fill="white"/>
<path d="M54.9015 212.891V216.693C54.9015 216.953 54.9612 217.136 55.0804 217.244C55.1997 217.356 55.4084 217.408 55.7066 217.408H56.5713V218.601H55.4532C54.8046 218.601 54.3127 218.452 53.9772 218.154C53.6381 217.855 53.4703 217.371 53.4703 216.693V212.891H52.6504V211.728H53.4703V210.014H54.9015V211.728H56.5713V212.891H54.9015Z" fill="white"/>
<path d="M58.6018 210.819C58.3409 210.819 58.1247 210.737 57.9458 210.566C57.7744 210.387 57.6924 210.171 57.6924 209.91C57.6924 209.653 57.7744 209.44 57.9458 209.269C58.1247 209.09 58.3409 209 58.6018 209C58.8478 209 59.0639 209.09 59.2428 209.269C59.4217 209.44 59.5112 209.653 59.5112 209.91C59.5112 210.171 59.4217 210.387 59.2428 210.566C59.0639 210.737 58.8478 210.819 58.6018 210.819ZM59.3025 211.729V218.601H57.8862V211.729H59.3025Z" fill="white"/>
<path d="M64.6345 211.609C65.1787 211.609 65.6669 211.724 66.0955 211.952C66.5204 212.172 66.8559 212.503 67.0944 212.951C67.3404 213.39 67.4671 213.92 67.4671 214.546V218.601H66.0508V214.755C66.0508 214.14 65.8943 213.666 65.5886 213.338C65.2793 213.01 64.8619 212.846 64.3363 212.846C63.7996 212.846 63.371 213.01 63.0542 213.338C62.7449 213.666 62.5921 214.14 62.5921 214.755V218.601H61.1758V211.728H62.5921V212.518C62.8306 212.231 63.1288 212.008 63.4866 211.847C63.8444 211.691 64.2245 211.609 64.6345 211.609Z" fill="white"/>
<path d="M72.041 211.609C72.5665 211.609 73.0324 211.721 73.4424 211.937C73.8598 212.146 74.1804 212.41 74.4115 212.727V211.728H75.8576V218.72C75.8576 219.346 75.7234 219.905 75.455 220.405C75.1867 220.901 74.7991 221.288 74.2922 221.568C73.7928 221.855 73.1964 222 72.5032 222C71.5677 222 70.7925 221.78 70.1775 221.344C69.5588 220.904 69.2122 220.308 69.1339 219.555H70.5353C70.6434 219.913 70.8707 220.2 71.2211 220.42C71.5789 220.647 72.0038 220.763 72.5032 220.763C73.0697 220.763 73.5244 220.584 73.8748 220.226C74.2326 219.876 74.4115 219.376 74.4115 218.72V217.572C74.1729 217.893 73.8449 218.165 73.4275 218.392C73.0175 218.608 72.5554 218.72 72.041 218.72C71.4335 218.72 70.8819 218.567 70.3862 218.258C69.898 217.952 69.5103 217.527 69.2234 216.991C68.9326 216.447 68.791 215.824 68.791 215.127C68.791 214.441 68.9326 213.838 69.2234 213.308C69.5103 212.772 69.898 212.354 70.3862 212.056C70.8819 211.758 71.4335 211.609 72.041 211.609ZM74.4115 215.157C74.4115 214.68 74.3108 214.27 74.1133 213.92C73.9232 213.573 73.6698 213.308 73.353 213.13C73.0436 212.943 72.7045 212.846 72.3392 212.846C71.9702 212.846 71.6273 212.936 71.3105 213.115C70.99 213.294 70.7328 213.558 70.5353 213.905C70.3452 214.255 70.252 214.661 70.252 215.127C70.252 215.604 70.3452 216.022 70.5353 216.38C70.7328 216.737 70.99 217.013 71.3105 217.2C71.6385 217.39 71.9814 217.483 72.3392 217.483C72.7045 217.483 73.0436 217.393 73.353 217.214C73.6698 217.028 73.9232 216.76 74.1133 216.409C74.3108 216.052 74.4115 215.634 74.4115 215.157Z" fill="white"/>
<path d="M80.4854 215.127C80.4854 214.441 80.627 213.838 80.9177 213.308C81.2047 212.772 81.5923 212.354 82.0805 212.056C82.5762 211.758 83.1279 211.609 83.7354 211.609C84.2721 211.609 84.738 211.721 85.1367 211.937C85.543 212.146 85.8673 212.41 86.1058 212.727V211.728H87.5519V218.601H86.1058V217.572C85.8673 217.9 85.5393 218.176 85.1218 218.392C84.7044 218.608 84.2311 218.72 83.7055 218.72C83.1092 218.72 82.5651 218.567 82.0805 218.258C81.5923 217.952 81.2047 217.527 80.9177 216.991C80.627 216.447 80.4854 215.824 80.4854 215.127ZM86.1058 215.157C86.1058 214.68 86.0052 214.27 85.8076 213.92C85.6175 213.573 85.3641 213.308 85.0473 213.13C84.738 212.943 84.3988 212.846 84.0335 212.846C83.6646 212.846 83.3217 212.936 83.0049 213.115C82.6843 213.294 82.4272 213.558 82.2296 213.905C82.0395 214.255 81.9464 214.661 81.9464 215.127C81.9464 215.604 82.0395 216.022 82.2296 216.38C82.4272 216.737 82.6843 217.013 83.0049 217.2C83.3328 217.39 83.6757 217.483 84.0335 217.483C84.3988 217.483 84.738 217.393 85.0473 217.214C85.3641 217.028 85.6175 216.76 85.8076 216.409C86.0052 216.052 86.1058 215.634 86.1058 215.157Z" fill="white"/>
<path d="M92.8757 211.609C93.4199 211.609 93.9081 211.724 94.3367 211.952C94.7616 212.172 95.0971 212.503 95.3356 212.951C95.5816 213.39 95.7083 213.92 95.7083 214.546V218.601H94.292V214.755C94.292 214.14 94.1355 213.666 93.8299 213.338C93.5205 213.01 93.1031 212.846 92.5776 212.846C92.0409 212.846 91.6122 213.01 91.2954 213.338C90.9861 213.666 90.8333 214.14 90.8333 214.755V218.601H89.417V211.728H90.8333V212.518C91.0718 212.231 91.37 212.008 91.7278 211.847C92.0856 211.691 92.4657 211.609 92.8757 211.609Z" fill="white"/>
<path d="M97.0312 215.128C97.0312 214.442 97.1729 213.838 97.4636 213.309C97.7506 212.772 98.1382 212.355 98.6264 212.057C99.1221 211.758 99.6738 211.609 100.281 211.609C100.736 211.609 101.183 211.71 101.623 211.907C102.059 212.109 102.402 212.366 102.652 212.683V209.373H104.098V218.601H102.652V217.573C102.421 217.901 102.1 218.176 101.683 218.393C101.273 218.609 100.807 218.721 100.281 218.721C99.6738 218.721 99.1221 218.568 98.6264 218.258C98.1382 217.953 97.7506 217.528 97.4636 216.991C97.1729 216.447 97.0312 215.825 97.0312 215.128ZM102.652 215.157C102.652 214.68 102.551 214.27 102.354 213.92C102.163 213.573 101.91 213.309 101.593 213.13C101.284 212.944 100.945 212.847 100.579 212.847C100.21 212.847 99.8676 212.936 99.5508 213.115C99.2302 213.294 98.9731 213.559 98.7755 213.905C98.5854 214.256 98.4923 214.662 98.4923 215.128C98.4923 215.605 98.5854 216.022 98.7755 216.38C98.9731 216.738 99.2302 217.014 99.5508 217.2C99.8787 217.39 100.222 217.483 100.579 217.483C100.945 217.483 101.284 217.394 101.593 217.215C101.91 217.028 102.163 216.76 102.354 216.41C102.551 216.052 102.652 215.635 102.652 215.157Z" fill="white"/>
<path d="M115.27 212.518C115.27 212.958 115.165 213.376 114.957 213.771C114.748 214.158 114.413 214.479 113.958 214.725C113.499 214.963 112.914 215.083 112.199 215.083H110.618V218.601H109.202V209.924H112.199C112.862 209.924 113.425 210.04 113.883 210.267C114.349 210.498 114.696 210.811 114.927 211.206C115.154 211.594 115.27 212.034 115.27 212.518ZM112.199 213.92C112.735 213.92 113.138 213.8 113.406 213.562C113.675 213.316 113.809 212.966 113.809 212.518C113.809 211.564 113.272 211.087 112.199 211.087H110.618V213.92H112.199Z" fill="white"/>
<path d="M125.745 209.924V218.601H124.329V212.667L121.69 218.601H120.691L118.037 212.667V218.601H116.621V209.924H118.157L121.198 216.723L124.224 209.924H125.745Z" fill="white"/>
<path d="M132.277 209.924V218.601H130.86V209.924H132.277Z" fill="white"/>
<path d="M137.608 211.609C138.152 211.609 138.641 211.724 139.069 211.952C139.494 212.172 139.829 212.503 140.068 212.951C140.314 213.39 140.441 213.92 140.441 214.546V218.601H139.024V214.755C139.024 214.14 138.868 213.666 138.562 213.338C138.253 213.01 137.835 212.846 137.31 212.846C136.773 212.846 136.345 213.01 136.028 213.338C135.719 213.666 135.566 214.14 135.566 214.755V218.601H134.149V211.728H135.566V212.518C135.804 212.231 136.102 212.008 136.46 211.847C136.818 211.691 137.198 211.609 137.608 211.609Z" fill="white"/>
<path d="M143.899 212.891V216.693C143.899 216.954 143.958 217.137 144.078 217.245C144.197 217.357 144.406 217.409 144.704 217.409H145.568V218.601H144.45C143.802 218.601 143.31 218.452 142.974 218.154C142.635 217.856 142.467 217.371 142.467 216.693V212.891H141.647V211.729H142.467V210.014H143.899V211.729H145.568V212.891H143.899Z" fill="white"/>
<path d="M153.172 214.993C153.172 215.254 153.157 215.485 153.127 215.694H147.879C147.917 216.242 148.122 216.685 148.49 217.021C148.856 217.349 149.303 217.513 149.832 217.513C150.596 217.513 151.137 217.196 151.457 216.558H152.993C152.784 217.185 152.404 217.703 151.86 218.109C151.312 218.519 150.637 218.72 149.832 218.72C149.176 218.72 148.584 218.571 148.058 218.273C147.54 217.975 147.134 217.557 146.836 217.021C146.545 216.484 146.403 215.865 146.403 215.157C146.403 214.453 146.545 213.83 146.836 213.294C147.123 212.757 147.525 212.347 148.043 212.056C148.558 211.758 149.154 211.609 149.832 211.609C150.477 211.609 151.055 211.754 151.562 212.041C152.076 212.321 152.475 212.72 152.754 213.234C153.03 213.741 153.172 214.33 153.172 214.993ZM151.696 214.546C151.685 214.02 151.495 213.603 151.129 213.294C150.76 212.977 150.309 212.816 149.773 212.816C149.284 212.816 148.863 212.973 148.505 213.279C148.155 213.588 147.954 214.009 147.894 214.546H151.696Z" fill="white"/>
<path d="M155.988 212.727C156.196 212.38 156.472 212.108 156.822 211.907C157.169 211.71 157.575 211.609 158.045 211.609V213.085H157.687C157.128 213.085 156.707 213.23 156.42 213.517C156.129 213.797 155.988 214.285 155.988 214.978V218.601H154.571V211.728H155.988V212.727Z" fill="white"/>
<path d="M162.014 217.334L163.967 211.728H165.472L162.849 218.601H161.149L158.54 211.728H160.061L162.014 217.334Z" fill="white"/>
<path d="M167.258 210.819C166.997 210.819 166.781 210.737 166.602 210.565C166.431 210.386 166.349 210.17 166.349 209.909C166.349 209.652 166.431 209.44 166.602 209.268C166.781 209.089 166.997 209 167.258 209C167.504 209 167.72 209.089 167.899 209.268C168.078 209.44 168.167 209.652 168.167 209.909C168.167 210.17 168.078 210.386 167.899 210.565C167.72 210.737 167.504 210.819 167.258 210.819ZM167.959 211.728V218.601H166.542V211.728H167.959Z" fill="white"/>
<path d="M176.125 214.993C176.125 215.254 176.11 215.485 176.08 215.694H170.832C170.87 216.242 171.075 216.685 171.444 217.021C171.809 217.349 172.256 217.513 172.785 217.513C173.549 217.513 174.09 217.196 174.41 216.558H175.946C175.737 217.185 175.357 217.703 174.813 218.109C174.265 218.519 173.59 218.72 172.785 218.72C172.129 218.72 171.537 218.571 171.011 218.273C170.493 217.975 170.087 217.557 169.789 217.021C169.498 216.484 169.356 215.865 169.356 215.157C169.356 214.453 169.498 213.83 169.789 213.294C170.076 212.757 170.478 212.347 170.996 212.056C171.511 211.758 172.107 211.609 172.785 211.609C173.43 211.609 174.008 211.754 174.515 212.041C175.029 212.321 175.428 212.72 175.707 213.234C175.983 213.741 176.125 214.33 176.125 214.993ZM174.649 214.546C174.638 214.02 174.448 213.603 174.082 213.294C173.713 212.977 173.262 212.816 172.726 212.816C172.237 212.816 171.816 212.973 171.459 213.279C171.108 213.588 170.907 214.009 170.847 214.546H174.649Z" fill="white"/>
<path d="M186.754 211.728L184.622 218.601H183.132L181.745 213.517L180.359 218.601H178.853L176.706 211.728H178.152L179.598 217.259L181.059 211.728H182.535L183.937 217.229L185.353 211.728H186.754Z" fill="white"/>
<path d="M197.121 212.518C197.121 212.958 197.017 213.376 196.808 213.771C196.6 214.158 196.264 214.479 195.809 214.725C195.351 214.963 194.766 215.083 194.05 215.083H192.47V218.601H191.054V209.924H194.05C194.714 209.924 195.276 210.04 195.735 210.267C196.201 210.498 196.547 210.811 196.779 211.206C197.006 211.594 197.121 212.034 197.121 212.518ZM194.05 213.92C194.587 213.92 194.99 213.8 195.258 213.562C195.526 213.316 195.66 212.966 195.66 212.518C195.66 211.564 195.124 211.087 194.05 211.087H192.47V213.92H194.05Z" fill="white"/>
<path d="M199.889 212.727C200.098 212.38 200.373 212.108 200.724 211.907C201.07 211.71 201.477 211.609 201.946 211.609V213.085H201.588C201.029 213.085 200.608 213.23 200.321 213.517C200.031 213.797 199.889 214.285 199.889 214.978V218.601H198.473V211.728H199.889V212.727Z" fill="white"/>
<path d="M209.551 214.993C209.551 215.254 209.536 215.485 209.506 215.694H204.258C204.295 216.242 204.5 216.685 204.869 217.021C205.235 217.349 205.682 217.513 206.211 217.513C206.975 217.513 207.516 217.196 207.836 216.558H209.372C209.163 217.185 208.783 217.703 208.239 218.109C207.691 218.519 207.016 218.72 206.211 218.72C205.555 218.72 204.963 218.571 204.437 218.273C203.919 217.975 203.513 217.557 203.215 217.021C202.924 216.484 202.782 215.865 202.782 215.157C202.782 214.453 202.924 213.83 203.215 213.294C203.502 212.757 203.904 212.347 204.422 212.056C204.936 211.758 205.533 211.609 206.211 211.609C206.856 211.609 207.434 211.754 207.941 212.041C208.455 212.321 208.854 212.72 209.133 213.234C209.409 213.741 209.551 214.33 209.551 214.993ZM208.075 214.546C208.064 214.02 207.873 213.603 207.508 213.294C207.139 212.977 206.688 212.816 206.152 212.816C205.663 212.816 205.242 212.973 204.884 213.279C204.534 213.588 204.333 214.009 204.273 214.546H208.075Z" fill="white"/>
<path d="M212.368 212.742C212.607 212.425 212.935 212.157 213.352 211.937C213.77 211.721 214.239 211.609 214.769 211.609C215.365 211.609 215.909 211.758 216.409 212.056C216.904 212.354 217.292 212.772 217.571 213.308C217.858 213.838 218.004 214.441 218.004 215.127C218.004 215.824 217.858 216.447 217.571 216.991C217.292 217.527 216.904 217.952 216.409 218.258C215.909 218.567 215.365 218.72 214.769 218.72C214.239 218.72 213.774 218.616 213.367 218.407C212.957 218.191 212.626 217.923 212.368 217.602V221.866H210.952V211.728H212.368V212.742ZM216.558 215.127C216.558 214.661 216.457 214.255 216.26 213.905C216.058 213.558 215.801 213.294 215.484 213.115C215.164 212.936 214.821 212.846 214.456 212.846C214.098 212.846 213.759 212.943 213.442 213.13C213.121 213.308 212.864 213.573 212.667 213.92C212.465 214.27 212.368 214.68 212.368 215.157C212.368 215.634 212.465 216.052 212.667 216.409C212.864 216.76 213.121 217.028 213.442 217.214C213.759 217.393 214.098 217.483 214.456 217.483C214.821 217.483 215.164 217.39 215.484 217.2C215.801 217.013 216.058 216.737 216.26 216.38C216.457 216.022 216.558 215.604 216.558 215.127Z" fill="white"/>
<path d="M218.928 215.127C218.928 214.441 219.069 213.838 219.36 213.308C219.647 212.772 220.035 212.354 220.523 212.056C221.019 211.758 221.57 211.609 222.178 211.609C222.714 211.609 223.18 211.721 223.579 211.937C223.985 212.146 224.31 212.41 224.548 212.727V211.728H225.994V218.601H224.548V217.572C224.31 217.9 223.982 218.176 223.564 218.392C223.147 218.608 222.673 218.72 222.148 218.72C221.552 218.72 221.007 218.567 220.523 218.258C220.035 217.952 219.647 217.527 219.36 216.991C219.069 216.447 218.928 215.824 218.928 215.127ZM224.548 215.157C224.548 214.68 224.448 214.27 224.25 213.92C224.06 213.573 223.806 213.308 223.49 213.13C223.18 212.943 222.841 212.846 222.476 212.846C222.107 212.846 221.764 212.936 221.447 213.115C221.127 213.294 220.87 213.558 220.672 213.905C220.482 214.255 220.389 214.661 220.389 215.127C220.389 215.604 220.482 216.022 220.672 216.38C220.87 216.737 221.127 217.013 221.447 217.2C221.775 217.39 222.118 217.483 222.476 217.483C222.841 217.483 223.18 217.393 223.49 217.214C223.806 217.028 224.06 216.76 224.25 216.409C224.448 216.052 224.548 215.634 224.548 215.157Z" fill="white"/>
<path d="M229.276 212.727C229.484 212.38 229.76 212.108 230.111 211.907C230.457 211.71 230.863 211.609 231.333 211.609V213.085H230.975C230.416 213.085 229.995 213.23 229.708 213.517C229.417 213.797 229.276 214.285 229.276 214.978V218.601H227.859V211.728H229.276V212.727Z" fill="white"/>
<path d="M232.17 215.127C232.17 214.441 232.312 213.838 232.602 213.308C232.889 212.772 233.277 212.354 233.765 212.056C234.261 211.758 234.812 211.609 235.42 211.609C235.957 211.609 236.423 211.721 236.821 211.937C237.228 212.146 237.552 212.41 237.79 212.727V211.728H239.236V218.601H237.79V217.572C237.552 217.9 237.224 218.176 236.806 218.392C236.389 218.608 235.916 218.72 235.39 218.72C234.794 218.72 234.25 218.567 233.765 218.258C233.277 217.952 232.889 217.527 232.602 216.991C232.312 216.447 232.17 215.824 232.17 215.127ZM237.79 215.157C237.79 214.68 237.69 214.27 237.492 213.92C237.302 213.573 237.049 213.308 236.732 213.13C236.423 212.943 236.083 212.846 235.718 212.846C235.349 212.846 235.006 212.936 234.689 213.115C234.369 213.294 234.112 213.558 233.914 213.905C233.724 214.255 233.631 214.661 233.631 215.127C233.631 215.604 233.724 216.022 233.914 216.38C234.112 216.737 234.369 217.013 234.689 217.2C235.017 217.39 235.36 217.483 235.718 217.483C236.083 217.483 236.423 217.393 236.732 217.214C237.049 217.028 237.302 216.76 237.492 216.409C237.69 216.052 237.79 215.634 237.79 215.157Z" fill="white"/>
<path d="M242.756 212.891V216.693C242.756 216.954 242.816 217.137 242.935 217.245C243.054 217.357 243.263 217.409 243.561 217.409H244.426V218.601H243.308C242.659 218.601 242.167 218.452 241.832 218.154C241.493 217.856 241.325 217.371 241.325 216.693V212.891H240.505V211.729H241.325V210.014H242.756V211.729H244.426V212.891H242.756Z" fill="white"/>
<path d="M246.454 210.819C246.193 210.819 245.977 210.737 245.798 210.565C245.627 210.386 245.545 210.17 245.545 209.909C245.545 209.652 245.627 209.44 245.798 209.268C245.977 209.089 246.193 209 246.454 209C246.7 209 246.916 209.089 247.095 209.268C247.274 209.44 247.364 209.652 247.364 209.909C247.364 210.17 247.274 210.386 247.095 210.565C246.916 210.737 246.7 210.819 246.454 210.819ZM247.155 211.728V218.601H245.739V211.728H247.155Z" fill="white"/>
<path d="M252.01 218.72C251.362 218.72 250.777 218.571 250.251 218.273C249.722 217.975 249.312 217.557 249.014 217.021C248.715 216.484 248.566 215.865 248.566 215.157C248.566 214.464 248.719 213.845 249.029 213.308C249.334 212.764 249.752 212.347 250.281 212.056C250.818 211.758 251.414 211.609 252.07 211.609C252.726 211.609 253.315 211.758 253.844 212.056C254.381 212.347 254.802 212.764 255.111 213.308C255.417 213.845 255.573 214.464 255.573 215.157C255.573 215.854 255.413 216.476 255.096 217.021C254.787 217.557 254.358 217.975 253.814 218.273C253.266 218.571 252.666 218.72 252.01 218.72ZM252.01 217.483C252.375 217.483 252.718 217.401 253.039 217.229C253.356 217.05 253.613 216.79 253.814 216.439C254.012 216.081 254.112 215.656 254.112 215.157C254.112 214.661 254.015 214.24 253.829 213.89C253.639 213.543 253.386 213.286 253.069 213.115C252.748 212.936 252.405 212.846 252.04 212.846C251.682 212.846 251.343 212.936 251.026 213.115C250.717 213.286 250.467 213.543 250.281 213.89C250.102 214.24 250.013 214.661 250.013 215.157C250.013 215.895 250.199 216.465 250.579 216.872C250.955 217.282 251.433 217.483 252.01 217.483Z" fill="white"/>
<path d="M260.444 211.609C260.988 211.609 261.476 211.724 261.905 211.952C262.33 212.172 262.665 212.503 262.904 212.951C263.15 213.39 263.277 213.92 263.277 214.546V218.601H261.86V214.755C261.86 214.14 261.704 213.666 261.398 213.338C261.089 213.01 260.671 212.846 260.146 212.846C259.609 212.846 259.181 213.01 258.864 213.338C258.554 213.666 258.402 214.14 258.402 214.755V218.601H256.985V211.728H258.402V212.518C258.64 212.231 258.938 212.008 259.296 211.847C259.654 211.691 260.034 211.609 260.444 211.609Z" fill="white"/>
</svg>
