<svg width="1203" height="600" viewBox="0 0 1203 600" fill="none" xmlns="http://www.w3.org/2000/svg">
<g clip-path="url(#clip0_442_2)">
<rect width="1203" height="600" fill="#1E1950"/>
<path d="M-394.938 -93.0646C-342.811 -255.677 -265.866 -335.248 -189.873 -374.607C39.7019 -493.51 276.069 -294.566 485.926 -3.56795C695.784 287.43 1271.61 623.59 1482.28 909.744C1692.96 1195.89 1548.21 1430.92 1776.7 1296.18" stroke="#7BD3DD" stroke-width="5.3332" stroke-miterlimit="10"/>
<path d="M-334.666 -90.5182C-284.949 -265.553 -218.968 -343.341 -149.529 -379.985C69.1395 -495.386 294.912 -291.883 494.505 1.34852C694.099 294.577 1241.65 627.015 1440.49 912.852C1639.82 1199.41 1500.32 1430.95 1718.39 1284.78" stroke="#79D3E0" stroke-width="5.26816" stroke-miterlimit="10"/>
<path d="M-274.389 -87.9757C-227.081 -275.434 -172.081 -351.441 -109.184 -385.366C98.5006 -497.383 313.755 -289.197 503.084 6.26079C692.415 301.718 1211.72 630.54 1398.69 915.964C1586.74 1203.03 1452.44 1430.98 1660.08 1273.38" stroke="#78D3E3" stroke-width="5.20312" stroke-miterlimit="10"/>
<path d="M-214.114 -85.4329C-169.215 -285.311 -125.211 -359.549 -68.8388 -390.743C127.756 -499.532 332.598 -286.514 511.663 11.1774C690.727 308.865 1181.81 634.169 1356.9 919.076C1533.7 1206.77 1404.56 1431.02 1601.77 1261.98" stroke="#76D2E6" stroke-width="5.13808" stroke-miterlimit="10"/>
<path d="M-153.84 -82.8911C-111.349 -295.188 -78.3629 -367.666 -28.4941 -396.121C156.865 -501.895 351.441 -283.827 520.242 16.0893C689.042 316.01 1151.91 637.918 1315.1 922.188C1480.7 1210.64 1356.67 1431.04 1543.46 1250.58" stroke="#74D2E9" stroke-width="5.07305" stroke-miterlimit="10"/>
<path d="M-93.5645 -80.3487C-53.4821 -305.069 -31.5423 -375.79 11.8513 -401.503C185.763 -504.541 370.284 -281.145 528.821 21.0056C687.358 323.156 1122.01 641.788 1273.31 925.296C1427.73 1214.65 1308.79 1431.08 1485.15 1239.18" stroke="#6FD0EC" stroke-width="5.00801" stroke-miterlimit="10"/>
<path d="M-33.29 -77.8024C4.38384 -314.946 15.2377 -383.919 52.196 -406.88C214.339 -507.609 389.126 -278.458 537.4 25.922C685.673 330.302 1092.09 645.79 1231.51 928.407C1374.77 1218.8 1260.91 1431.11 1426.84 1227.78" stroke="#6DD0F0" stroke-width="4.94297" stroke-miterlimit="10"/>
<path d="M26.9854 -75.26C62.2508 -324.826 61.9604 -392.047 92.5417 -412.258C242.397 -511.307 407.97 -275.775 545.98 30.8342C683.989 337.448 1062.14 649.932 1189.72 931.519C1321.82 1223.1 1213.03 1431.14 1368.53 1216.38" stroke="#69CFF4" stroke-width="4.87793" stroke-miterlimit="10"/>
<path d="M87.2598 -72.7171C120.117 -334.703 108.59 -400.151 132.886 -417.635C269.555 -516.002 426.813 -273.088 554.559 35.7512C682.304 344.59 1032.15 654.215 1147.92 934.631C1268.86 1227.55 1165.15 1431.17 1310.22 1204.98" stroke="#67CEF5" stroke-width="4.81289" stroke-miterlimit="10"/>
<path d="M147.534 -70.175C177.983 -344.58 155.059 -408.183 173.231 -423.017C294.985 -522.378 445.656 -270.406 563.138 40.6672C680.619 351.736 1002.09 658.638 1106.13 937.743C1215.87 1232.16 1117.27 1431.2 1251.91 1193.58" stroke="#6ACBF3" stroke-width="4.74785" stroke-miterlimit="10"/>
<path d="M207.809 -67.6323C235.849 -354.46 204.594 -413.388 213.576 -428.394C338.681 -503.542 464.499 -267.723 571.716 45.5798C678.935 358.882 971.958 663.21 1064.33 940.851C1162.84 1236.93 1069.38 1431.23 1193.6 1182.18" stroke="#6CC3EF" stroke-width="4.68282" stroke-miterlimit="10"/>
<path d="M268.084 -65.0863C293.715 -364.337 251.641 -421.204 253.921 -433.772C368.58 -504.545 483.342 -265.036 580.296 50.4959C677.251 366.028 941.725 667.922 1022.54 943.963C1109.75 1241.86 1021.5 1431.26 1135.29 1170.78" stroke="#6EBBEA" stroke-width="4.61776" stroke-miterlimit="10"/>
<path d="M328.358 -62.5439C351.581 -374.214 298.686 -429.016 294.266 -439.153C398.477 -505.548 502.184 -262.353 588.874 55.4121C675.562 373.174 911.376 672.77 980.741 947.074C1056.57 1246.93 973.618 1431.29 1076.98 1159.38" stroke="#70B2E5" stroke-width="4.55273" stroke-miterlimit="10"/>
<path d="M388.634 -60.0015C409.448 -384.095 345.733 -436.831 334.611 -444.531C428.376 -506.554 521.028 -259.667 597.454 60.3244C673.878 380.32 880.899 677.746 938.95 950.186C1003.29 1252.15 925.739 1431.32 1018.68 1147.98" stroke="#70A8DF" stroke-width="4.48769" stroke-miterlimit="10"/>
<path d="M448.908 -57.4591C467.314 -393.972 392.778 -444.643 374.956 -449.908C458.274 -507.557 539.871 -256.984 606.032 65.2409C672.193 387.462 850.269 682.839 897.154 953.294C949.887 1257.5 877.855 1431.35 960.363 1136.58" stroke="#72A1DB" stroke-width="4.42265" stroke-miterlimit="10"/>
<path d="M509.182 -54.9167C525.18 -403.849 439.824 -452.459 415.301 -455.29C488.171 -508.559 558.714 -254.297 614.611 70.1532C670.508 394.608 819.486 688.032 855.358 956.406C896.336 1262.97 829.975 1431.38 902.055 1125.18" stroke="#7499D6" stroke-width="4.35761" stroke-miterlimit="10"/>
<path d="M569.459 -52.3704C583.047 -413.729 486.871 -460.274 455.646 -460.667C518.07 -509.562 577.557 -251.614 623.191 75.0695C668.825 401.753 788.528 693.313 813.563 959.517C842.625 1268.54 782.091 1431.41 843.744 1113.78" stroke="#7490D1" stroke-width="4.29257" stroke-miterlimit="10"/>
<path d="M629.732 -49.828C640.914 -423.606 533.917 -468.086 495.991 -466.045C547.969 -510.568 596.399 -248.932 631.769 79.9859C667.14 408.9 757.397 698.663 771.767 962.629C788.733 1274.18 734.211 1431.44 785.436 1102.38" stroke="#7589CD" stroke-width="4.22753" stroke-miterlimit="10"/>
<path d="M690.009 -47.2858C698.78 -433.483 580.961 -475.902 536.336 -471.426C577.865 -511.571 615.241 -246.245 640.348 84.898C665.455 416.045 726.085 704.056 729.975 965.737C734.644 1279.89 686.327 1431.47 727.124 1090.98" stroke="#7582CA" stroke-width="4.1625" stroke-miterlimit="10"/>
<path d="M750.282 -44.7429C756.647 -443.363 628.007 -483.713 576.682 -476.803C607.765 -512.573 634.087 -243.562 648.927 89.8147C663.77 423.191 694.589 709.482 688.18 968.849C680.351 1285.63 638.447 1431.5 668.816 1079.57" stroke="#767CC6" stroke-width="4.09746" stroke-miterlimit="10"/>
<path d="M810.555 -42.2006C814.509 -453.24 675.057 -491.528 617.025 -482.181C637.661 -513.576 652.929 -240.875 657.506 94.731C662.082 430.337 662.912 714.912 646.384 971.961C625.845 1291.37 590.563 1431.53 610.504 1068.17" stroke="#7675C2" stroke-width="4.03242" stroke-miterlimit="10"/>
<path d="M870.832 -39.6586C872.376 -463.117 722.102 -499.34 657.369 -487.559C667.56 -514.579 671.772 -238.193 666.085 99.643C660.397 437.479 631.063 720.325 604.588 975.072C571.123 1297.1 542.683 1431.56 552.196 1056.77" stroke="#766EBE" stroke-width="3.96738" stroke-miterlimit="10"/>
<path d="M931.105 -37.112C930.243 -472.998 769.148 -507.156 697.717 -492.94C697.457 -515.585 690.614 -235.506 674.664 104.56C658.713 444.625 599.05 725.707 562.793 978.18C516.181 1302.78 494.799 1431.59 493.886 1045.37" stroke="#7668BB" stroke-width="3.90234" stroke-miterlimit="10"/>
<path d="M991.382 -34.5697C988.11 -482.875 816.194 -514.971 738.061 -498.318C727.357 -516.588 709.457 -232.823 683.243 109.472C657.029 451.771 566.884 731.032 521 981.292C461.026 1308.4 446.917 1431.62 435.576 1033.97" stroke="#7762B7" stroke-width="3.8373" stroke-miterlimit="10"/>
<path d="M1051.66 -32.027C1045.98 -492.755 863.24 -522.783 778.405 -503.695C757.253 -517.59 728.299 -230.14 691.822 114.388C655.344 458.917 534.577 736.293 479.205 984.404C405.665 1313.92 399.036 1431.65 377.267 1022.57" stroke="#785DB5" stroke-width="3.77227" stroke-miterlimit="10"/>
<path d="M1111.93 -29.4849C1103.84 -502.632 910.285 -530.599 818.749 -509.077C787.152 -518.593 747.141 -227.454 700.4 119.305C653.659 466.063 502.143 741.47 437.409 987.516C350.108 1319.34 351.153 1431.68 318.956 1011.17" stroke="#7B59B2" stroke-width="3.70723" stroke-miterlimit="10"/>
<path d="M1172.21 -26.9424C1161.71 -512.509 957.331 -538.41 859.097 -514.454C817.048 -519.599 765.988 -224.771 708.979 124.217C651.975 473.209 469.601 746.551 395.615 990.628C294.371 1324.62 303.271 1431.71 260.646 999.771" stroke="#7D54AF" stroke-width="3.64219" stroke-miterlimit="10"/>
<path d="M1232.48 -24.3961C1219.58 -522.39 1006.92 -532.343 899.441 -519.832C847.293 -513.764 784.83 -222.084 717.559 129.133C650.291 480.351 436.966 751.527 353.82 993.735C238.468 1329.76 255.389 1431.74 202.337 988.37" stroke="#8050AD" stroke-width="3.57715" stroke-miterlimit="10"/>
<path d="M1292.76 -21.8537C1277.44 -532.267 1053.7 -543.01 939.784 -525.213C877.498 -515.481 803.673 -219.402 726.138 134.05C648.606 487.497 404.254 756.396 312.025 996.847C182.419 1334.75 207.507 1431.77 144.027 976.969" stroke="#834DAC" stroke-width="3.51211" stroke-miterlimit="10"/>
<path d="M1353.03 -19.3114C1335.3 -542.144 1100.48 -552.903 980.132 -530.591C907.546 -517.133 822.515 -216.715 734.716 138.962C646.917 494.643 371.48 761.148 270.23 999.959C126.241 1339.57 159.625 1431.8 85.7168 965.569" stroke="#864AAA" stroke-width="3.44707" stroke-miterlimit="10"/>
<path d="M1413.31 -16.7688C1393.17 -552.024 1147.27 -562.306 1020.48 -535.968C937.506 -518.737 841.357 -214.032 743.295 143.878C645.233 501.789 338.662 765.783 228.435 1003.07C69.9561 1344.23 111.743 1431.83 27.4072 954.168" stroke="#8A47A8" stroke-width="3.38204" stroke-miterlimit="10"/>
<path d="M1473.58 -14.2266C1451.04 -561.901 1194.08 -571.381 1060.82 -541.35C967.41 -520.297 860.2 -211.349 751.874 148.795C643.549 508.935 305.813 770.303 186.641 1006.18C13.5829 1348.71 63.8609 1431.86 -30.9023 942.767" stroke="#8E45A7" stroke-width="3.31698" stroke-miterlimit="10"/>
<path d="M1533.85 -11.6841C1508.9 -571.778 1240.92 -580.231 1101.17 -546.727C997.273 -521.821 879.045 -208.663 760.453 153.707C641.864 516.081 272.944 774.706 144.845 1009.29C-42.8606 1353.04 15.9782 1431.89 -89.2129 931.367" stroke="#9242A6" stroke-width="3.25195" stroke-miterlimit="10"/>
<path d="M1594.13 -9.13775C1566.77 -581.659 1287.77 -588.913 1141.51 -552.105C1027.12 -523.316 897.888 -205.98 769.032 158.623C640.179 523.222 240.07 778.992 103.05 1012.4C-99.3537 1357.19 -31.9035 1431.92 -147.522 919.966" stroke="#9640A5" stroke-width="3.18691" stroke-miterlimit="10"/>
<path d="M1654.4 -6.59543C1624.64 -591.536 1334.64 -597.475 1181.86 -557.486C1056.94 -524.788 916.731 -203.293 777.611 163.536C638.495 530.368 207.199 783.171 61.2557 1015.51C-155.881 1361.19 -79.7852 1431.95 -205.832 908.566" stroke="#9A3EA4" stroke-width="3.12187" stroke-miterlimit="10"/>
<path d="M1714.68 -4.05295C1682.51 -601.412 1381.53 -605.944 1222.2 -562.863C1086.75 -526.24 935.574 -200.61 786.19 168.452C636.811 537.514 174.342 787.249 19.4613 1018.63C-212.426 1365.04 -127.667 1431.98 -264.141 897.165" stroke="#9F3CA4" stroke-width="3.05683" stroke-miterlimit="10"/>
<path d="M1774.95 -1.51063C1740.37 -611.293 1428.42 -614.337 1262.55 -568.241C1116.56 -527.675 954.415 -197.924 794.768 173.368C635.126 544.66 141.504 791.223 -22.3343 1021.73C-268.978 1368.75 -175.55 1432.02 -322.453 885.764" stroke="#A339A2" stroke-width="2.99179" stroke-miterlimit="10"/>
<path d="M1835.23 1.03179C1798.24 -621.17 1475.33 -622.674 1302.89 -573.619C1146.36 -529.095 973.258 -195.241 803.348 178.281C633.438 551.806 108.693 795.109 -64.129 1024.85C-325.521 1372.32 -223.432 1432.04 -380.761 874.364" stroke="#A739A2" stroke-width="2.92675" stroke-miterlimit="10"/>
<path d="M1895.5 3.57794C1856.1 -631.051 1522.24 -630.959 1343.23 -579C1176.15 -530.499 992.1 -192.558 811.927 183.197C631.753 558.948 75.9147 798.906 -105.924 1027.96C-382.048 1375.77 -271.312 1432.08 -439.072 862.963" stroke="#AA38A2" stroke-width="2.86172" stroke-miterlimit="10"/>
<path d="M1955.77 6.12045C1913.97 -640.928 1569.16 -639.211 1383.58 -584.378C1205.94 -531.894 1010.95 -189.872 820.505 188.113C630.068 566.094 43.1705 802.624 -147.719 1031.07C-438.544 1379.11 -319.197 1432.1 -497.381 851.562" stroke="#B036A1" stroke-width="2.79668" stroke-miterlimit="10"/>
<path d="M2016.05 8.66289C1971.83 -650.804 1615.98 -647.809 1423.93 -589.755C1235.62 -533.646 1029.79 -187.189 829.084 193.026C628.384 573.24 10.4666 806.269 -189.514 1034.18C-495.01 1382.34 -367.076 1432.14 -555.692 840.162" stroke="#B436A1" stroke-width="2.73164" stroke-miterlimit="10"/>
<path d="M2076.33 11.2053C2029.7 -660.685 1663.02 -655.62 1464.27 -595.137C1265.52 -534.649 1048.63 -184.502 837.663 197.942C626.7 580.386 -22.1966 809.846 -231.309 1037.29C-551.437 1385.48 -414.96 1432.16 -614 828.761" stroke="#B936A2" stroke-width="2.6666" stroke-miterlimit="10"/>
<path d="M224.242 1049.33C189.749 940.341 178.01 763.57 276.245 752.546C911.084 681.299 550.573 383.363 742.096 336.474C1417.55 171.115 444.608 -133.474 1408.03 -264.828" stroke="#7BD3DD" stroke-width="0.999975" stroke-miterlimit="10"/>
<path d="M1402.38 -279.38C467.709 -147.541 1378.31 167.473 749.909 334.717C569.836 382.642 902.733 669.02 283.545 743.11C183.203 755.116 189.552 928.989 219.156 1038.1" stroke="#79D3E1" stroke-width="1.05374" stroke-miterlimit="10"/>
<path d="M1396.73 -293.936C490.81 -161.604 1339.23 163.925 757.722 332.957C589.139 381.96 894.395 657.103 290.844 733.675C188.387 746.675 189.355 917.64 214.07 1026.88" stroke="#78D3E4" stroke-width="1.1075" stroke-miterlimit="10"/>
<path d="M1391.07 -308.489C513.91 -175.672 1300.34 160.464 765.531 331.2C608.499 381.33 886.073 645.517 298.145 724.243C193.563 738.246 189.159 906.288 208.984 1015.65" stroke="#74D2E9" stroke-width="1.16126" stroke-miterlimit="10"/>
<path d="M1385.42 -323.042C537.011 -189.739 1261.7 157.099 773.343 329.44C627.931 380.757 877.766 634.245 305.444 714.807C198.732 729.825 188.962 894.935 203.897 1004.43" stroke="#6FD0ED" stroke-width="1.21502" stroke-miterlimit="10"/>
<path d="M1379.77 -337.598C560.114 -203.807 1223.39 153.819 781.157 327.683C647.451 380.247 869.481 623.273 312.744 705.371C203.895 721.424 188.766 883.587 198.812 993.202" stroke="#6BCFF2" stroke-width="1.26879" stroke-miterlimit="10"/>
<path d="M1374.12 -352.151C583.211 -217.87 1185.51 150.603 788.965 325.923C667.1 379.802 861.214 612.579 320.044 695.936C209.052 713.031 188.57 872.234 193.726 981.974" stroke="#67CEF5" stroke-width="1.32255" stroke-miterlimit="10"/>
<path d="M1368.47 -366.703C606.313 -231.937 1148.21 147.395 796.778 324.167C686.912 379.425 852.972 602.148 327.344 686.5C214.206 704.658 188.373 860.886 188.64 970.75" stroke="#6AC8F2" stroke-width="1.37631" stroke-miterlimit="10"/>
<path d="M1362.82 -381.26C629.415 -246.004 1111.69 144.099 804.591 322.406C706.946 379.101 844.754 591.963 334.643 677.065C219.355 696.301 188.176 849.533 183.554 959.521" stroke="#6DBDEB" stroke-width="1.43007" stroke-miterlimit="10"/>
<path d="M1357.17 -395.812C652.516 -260.068 1076.18 140.51 812.4 320.65C727.268 378.788 836.556 582.014 341.943 667.633C224.502 687.96 187.98 838.181 178.468 948.297" stroke="#70B3E5" stroke-width="1.48383" stroke-miterlimit="10"/>
<path d="M1351.52 -410.365C675.618 -274.135 1042.01 136.275 820.213 318.89C747.952 378.383 828.387 572.282 349.243 658.197C229.648 679.639 187.784 826.833 173.382 937.073" stroke="#70A7DF" stroke-width="1.5376" stroke-miterlimit="10"/>
<path d="M1345.87 -424.921C698.716 -288.202 1009.45 130.801 828.022 317.133C769.036 377.713 820.241 562.762 356.543 648.762C234.793 671.342 187.588 815.48 168.296 925.845" stroke="#739DD8" stroke-width="1.59136" stroke-miterlimit="10"/>
<path d="M1340.22 -439.474C721.818 -302.265 939.215 99.4669 835.835 315.373C779.616 366.674 812.123 553.434 363.842 639.326C239.938 663.065 187.391 804.128 163.21 914.621" stroke="#7491D2" stroke-width="1.64512" stroke-miterlimit="10"/>
<path d="M1334.57 -454.03C744.92 -316.333 899.352 93.4959 843.648 313.616C798.703 365.282 804.03 544.295 371.142 629.89C245.084 654.817 187.195 792.779 158.124 903.393" stroke="#7588CD" stroke-width="1.69888" stroke-miterlimit="10"/>
<path d="M1328.92 -468.583C768.021 -330.4 859.494 87.5249 851.456 311.856C817.79 363.891 795.964 535.329 378.442 620.458C250.233 646.596 186.998 781.426 153.038 892.168" stroke="#757FC8" stroke-width="1.75265" stroke-miterlimit="10"/>
<path d="M1323.27 -483.136C791.123 -344.468 819.631 81.5538 859.269 310.099C836.877 362.499 787.923 526.531 385.742 611.023C255.386 638.407 186.802 770.074 147.952 880.944" stroke="#7776C3" stroke-width="1.80641" stroke-miterlimit="10"/>
<path d="M1317.62 -497.692C814.221 -358.531 779.773 75.583 867.082 308.339C855.965 361.108 779.913 517.885 393.042 601.587C260.544 630.251 186.606 758.725 142.866 869.716" stroke="#756DBE" stroke-width="1.86017" stroke-miterlimit="10"/>
<path d="M1311.97 -512.244C837.323 -372.598 739.91 69.6119 874.891 306.583C875.051 359.716 771.928 509.392 400.342 592.151C265.71 622.135 186.409 747.373 137.78 858.492" stroke="#7766B9" stroke-width="1.91393" stroke-miterlimit="10"/>
<path d="M1306.32 -526.797C860.425 -386.666 700.048 63.6408 882.704 304.822C894.135 358.328 763.975 501.039 407.642 582.716C270.883 614.062 186.212 736.02 132.694 847.264" stroke="#785EB5" stroke-width="1.9677" stroke-miterlimit="10"/>
<path d="M1300.66 -541.354C883.526 -400.729 660.189 57.6699 890.513 303.066C913.222 356.937 756.053 492.818 414.941 573.28C276.068 606.038 186.016 724.672 127.608 836.04" stroke="#7B58B1" stroke-width="2.02146" stroke-miterlimit="10"/>
<path d="M1295.01 -555.906C906.624 -414.796 657.799 15.4279 898.326 301.305C939.532 350.284 748.16 484.726 422.241 563.848C281.266 598.07 185.819 713.32 122.522 824.811" stroke="#7E52AE" stroke-width="2.07521" stroke-miterlimit="10"/>
<path d="M1289.37 -570.459C929.725 -428.863 609.822 12.0113 906.138 299.549C957.038 348.941 740.295 476.75 429.54 554.413C286.48 590.162 185.622 701.971 117.436 813.587" stroke="#824EAC" stroke-width="2.12897" stroke-miterlimit="10"/>
<path d="M1283.72 -585.015C952.828 -442.927 563.379 9.58914 913.948 297.793C974.862 347.87 732.471 468.886 436.841 544.977C291.715 582.331 185.426 690.618 112.351 802.363" stroke="#874AAA" stroke-width="2.18275" stroke-miterlimit="10"/>
<path d="M1278.06 -599.568C975.929 -456.994 518.296 7.51996 921.76 296.032C992.958 346.944 724.677 461.13 444.14 535.541C296.973 574.575 185.229 679.266 107.264 791.135" stroke="#8C46A8" stroke-width="2.2365" stroke-miterlimit="10"/>
<path d="M1272.41 -614.12C999.03 -471.061 474.315 5.47499 929.572 294.276C1011.26 346.094 716.92 453.475 451.44 526.106C302.261 566.92 185.033 667.918 102.178 779.911" stroke="#9143A7" stroke-width="2.29026" stroke-miterlimit="10"/>
<path d="M1266.76 -628.677C1022.13 -485.128 431.187 3.28939 937.381 292.515C1029.72 345.276 709.208 445.916 458.739 516.67C307.586 559.373 184.836 656.565 97.0918 768.682" stroke="#9740A5" stroke-width="2.34402" stroke-miterlimit="10"/>
<path d="M1261.11 -643.23C1045.23 -499.192 388.71 0.903321 945.194 290.759C1048.3 344.466 701.535 438.442 466.039 507.238C312.956 551.958 184.64 645.213 92.0059 757.458" stroke="#9C3DA4" stroke-width="2.39779" stroke-miterlimit="10"/>
<path d="M1255.46 -657.782C1068.33 -513.259 346.73 -1.69925 953.007 288.998C1066.98 343.648 693.915 431.051 473.339 497.803C318.38 544.696 184.443 633.864 86.9199 746.23" stroke="#A23AA3" stroke-width="2.45155" stroke-miterlimit="10"/>
<path d="M1249.81 -672.339C1091.43 -527.327 305.131 -4.50631 960.816 287.242C1085.73 342.821 686.351 423.733 480.639 488.367C323.875 537.622 184.247 622.511 81.834 735.006" stroke="#A739A2" stroke-width="2.50531" stroke-miterlimit="10"/>
<path d="M1244.16 -686.891C1114.53 -541.39 263.826 -7.50179 968.629 285.482C1104.53 341.979 678.847 416.486 487.939 478.931C329.458 530.773 184.051 611.159 76.748 723.782" stroke="#AD37A2" stroke-width="2.55907" stroke-miterlimit="10"/>
<path d="M1238.51 -701.443C1137.63 -555.457 222.751 -10.6655 976.438 283.725C1123.38 341.121 671.419 409.297 495.238 469.496C335.155 524.197 183.854 599.811 71.6621 712.554" stroke="#B236A1" stroke-width="2.61284" stroke-miterlimit="10"/>
<path d="M1232.86 -716C1160.73 -569.525 181.857 -13.9781 984.251 281.965C1142.27 340.247 664.075 402.158 502.538 460.064C341 517.965 183.658 588.458 66.5762 701.329" stroke="#B936A2" stroke-width="2.6666" stroke-miterlimit="10"/>
</g>
<defs>
<clipPath id="clip0_442_2">
<rect width="1203" height="600" fill="white"/>
</clipPath>
</defs>
</svg>
