<svg width="280" height="280" viewBox="0 0 280 280" fill="none" xmlns="http://www.w3.org/2000/svg">
<rect width="280" height="280" rx="50" fill="white"/>
<path d="M90.4976 89.0247C84.7633 89.2355 79.1845 90.3302 74.0175 92.2547C64.5477 95.7875 56.3867 102.012 50.4644 110.227C46.8652 115.219 44.1876 120.92 42.6443 126.877C41.7717 130.239 41.27 133.529 41.0464 137.338C41.0001 138.135 40.9837 140.86 41.0192 141.784C41.2809 148.577 42.7833 154.907 45.5918 161.056C45.9327 161.802 46.8734 163.659 47.2824 164.394C49.4173 168.235 51.8686 171.581 54.9007 174.801C55.5142 175.452 57.0302 176.939 57.6547 177.501C61.3493 180.836 65.2375 183.483 69.5974 185.623C78.1483 189.829 87.689 191.564 97.3142 190.664C107.155 189.748 116.584 185.972 124.349 179.842C125.334 179.063 125.775 178.688 125.753 178.652C125.745 178.642 125.83 178.558 125.939 178.463C126.269 178.182 143.24 161.405 155.976 148.771C163.695 141.114 168.02 136.843 168.036 136.859C168.052 136.875 168.014 136.838 167.992 136.87C167.962 136.919 169.879 139.54 187.556 163.451C203.573 185.118 207.159 189.954 207.349 190.143C207.592 190.383 207.837 190.548 208.16 190.681C208.401 190.781 209.17 190.943 209.578 190.978C209.797 190.997 214.09 191.005 223.314 190.997C235.796 190.989 236.743 190.986 236.911 190.943C237.613 190.77 238.139 190.467 238.627 189.959C239.781 188.753 240.118 186.856 239.469 185.207C239.298 184.772 239.055 184.38 238.709 183.977C238.573 183.818 176.323 91.3844 176.061 90.9519C175.916 90.7113 175.578 90.3599 175.33 90.1897C174.918 89.9085 174.427 89.7058 173.858 89.5842C173.62 89.5355 173.489 89.5247 172.98 89.5247C172.17 89.522 171.96 89.5626 171.019 89.8977C170.675 90.0221 170.425 90.1545 170.223 90.314C170.133 90.3843 159.041 102.107 145.568 116.363C132.098 130.621 118.495 145.014 115.343 148.349C112.191 151.685 109.402 154.647 109.143 154.931C108.284 155.874 108.033 156.102 106.817 157.012C104.99 158.383 103.883 159.08 102.361 159.813C99.7845 161.059 97.2078 161.743 94.2057 161.981C93.6305 162.026 91.6755 162.026 91.0838 161.981C87.7244 161.724 84.6815 160.87 81.9958 159.432C80.0816 158.407 78.4511 157.207 76.9159 155.691C75.1572 153.955 73.7912 152.061 72.7032 149.852C71.4352 147.276 70.7264 144.598 70.4945 141.5C70.4482 140.908 70.4482 139.143 70.4919 138.567C70.6173 136.956 70.8464 135.602 71.2362 134.189C72.5314 129.494 75.3889 125.342 79.359 122.387C82.3911 120.13 86.0584 118.66 89.8294 118.19C90.8956 118.057 91.2255 118.038 92.6515 118.038C94.0777 118.038 94.3994 118.057 95.4601 118.19C98.3285 118.544 101.145 119.479 103.678 120.917C108.856 123.852 112.646 128.766 114.138 134.47C114.203 134.724 114.285 135.048 114.315 135.189C114.367 135.413 114.391 135.467 114.528 135.656C114.945 136.232 115.471 136.621 116.079 136.8C116.398 136.894 116.935 136.919 117.306 136.854C117.786 136.773 118.326 136.567 118.691 136.329C118.781 136.273 119.005 136.086 119.19 135.916C119.728 135.418 134.302 120.501 134.274 120.474C134.25 120.449 134.411 120.241 134.473 120.214C134.503 120.203 135.084 119.611 136.295 118.36C136.693 117.949 136.914 117.657 137.083 117.311C137.388 116.687 137.473 116.049 137.339 115.354C137.309 115.189 137.26 115.081 137.05 114.719C135.384 111.822 133.301 108.921 131.084 106.416C129.721 104.872 128.074 103.226 126.541 101.875C119.319 95.5037 110.511 91.3033 101.033 89.7139C98.743 89.3274 96.5561 89.1085 94.1649 89.022C93.3142 88.9922 91.3536 88.9922 90.4976 89.0247ZM173.252 90.241C173.282 90.2843 173.247 90.3005 173.165 90.2816C173.108 90.2653 173.1 90.2572 173.132 90.2356C173.184 90.2032 173.23 90.2059 173.252 90.241ZM171.643 93.9684C171.665 94.0035 171.63 94.0035 171.575 93.9684C171.54 93.9468 171.54 93.9414 171.581 93.9414C171.605 93.9414 171.635 93.9522 171.643 93.9684ZM174.111 94.0225C174.089 94.036 174.051 94.0468 174.029 94.0468C174.002 94.0468 174.007 94.0387 174.043 94.0225C174.117 93.99 174.16 93.99 174.111 94.0225ZM94.383 94.4279C102.626 94.7901 110.29 97.1768 117.192 101.531C121.762 104.415 125.917 108.227 129.197 112.546C129.925 113.508 131.22 115.365 131.22 115.452C131.22 115.479 118.285 128.758 118.241 128.777C118.231 128.78 118.157 128.642 118.078 128.466C117.871 128.012 117.35 126.985 117.091 126.518C116.333 125.155 115.425 123.809 114.435 122.582C110.102 117.208 103.956 113.614 97.1642 112.484C94.852 112.097 92.4035 112.003 90.0067 112.2C88.3515 112.338 86.5029 112.657 84.9132 113.078C80.6515 114.208 76.7168 116.346 73.4475 119.306C72.8505 119.849 71.8116 120.895 71.3126 121.463C67.4625 125.823 65.153 131.113 64.5422 136.959C64.3623 138.673 64.3405 140.684 64.485 142.338C64.9621 147.768 66.9744 152.831 70.3665 157.121C71.6371 158.726 73.2348 160.334 74.8381 161.616C80.4988 166.146 87.5962 168.295 94.8875 167.692C98.7867 167.367 102.628 166.211 106.064 164.321C107.875 163.327 109.617 162.099 111.193 160.707C112.125 159.886 113.53 158.423 114.312 157.461C114.53 157.194 116.087 155.529 116.101 155.55C118.064 158.088 127.076 169.908 127.068 169.93C127.059 169.949 126.915 170.114 126.746 170.3C121.953 175.595 116.079 179.669 109.475 182.28C105.05 184.029 100.352 185.08 95.5691 185.396C94.0803 185.494 92.0626 185.521 90.661 185.464C81.9684 185.107 74.0311 182.615 67.0153 178.041C64.984 176.717 63.2088 175.344 61.2675 173.598C60.6486 173.041 59.1462 171.552 58.5408 170.895C55.0235 167.078 52.2558 162.826 50.2244 158.123C48.3267 153.728 47.1597 149.077 46.707 144.095C46.568 142.546 46.5189 141.222 46.538 139.419C46.5543 137.994 46.568 137.627 46.6552 136.486C47.1842 129.41 49.3874 122.555 53.0929 116.457C57.5619 109.097 64.0733 103.113 71.8116 99.2446C77.6167 96.3443 83.918 94.7198 90.4702 94.4306C91.1928 94.3982 93.6768 94.3982 94.383 94.4279ZM178.629 104.348C181.896 109.202 184.571 113.184 184.577 113.2C184.579 113.213 181.026 116.752 176.682 121.058L168.78 128.885L162.722 120.687C159.39 116.179 156.66 112.476 156.655 112.459C156.644 112.419 172.647 95.4794 172.671 95.5037C172.68 95.5145 175.363 99.4933 178.629 104.348ZM158.847 124.431C162.106 128.839 164.816 132.502 164.865 132.572L164.958 132.702L148.178 149.341C138.948 158.491 131.365 166.003 131.324 166.032L131.253 166.084L125.593 158.686L119.932 151.29L120.049 151.158C120.36 150.806 152.887 116.406 152.903 116.411C152.914 116.414 155.589 120.022 158.847 124.431ZM210.305 151.401C222.843 170.025 233.099 185.285 233.099 185.315C233.102 185.369 233.084 185.369 221.896 185.375L210.69 185.38L191.616 159.578C181.128 145.387 172.418 133.607 172.262 133.399C172.025 133.08 171.914 132.988 171.879 133.018C171.849 133.042 171.892 133.08 171.867 133.056C171.843 133.032 173.645 131.232 179.646 125.282C183.944 121.022 187.472 117.538 187.485 117.538C187.502 117.541 197.771 132.778 210.305 151.401Z" fill="#223887"/>
<path d="M140.101 136.906C139.227 137.054 138.538 137.507 138.163 138.181C137.954 138.551 137.873 138.876 137.873 139.333C137.873 139.935 138.09 140.445 138.674 141.228C138.763 141.348 138.838 141.459 138.838 141.469C138.838 141.479 138.742 141.547 138.624 141.618C137.442 142.314 136.814 143.19 136.759 144.214C136.678 145.75 137.834 147.071 139.556 147.406C140.513 147.592 141.526 147.491 142.439 147.119C142.637 147.041 142.995 146.857 143.159 146.754L143.237 146.704L143.626 147.164L144.012 147.624L145.312 147.72C146.026 147.773 146.624 147.811 146.642 147.806C146.658 147.801 146.22 147.262 145.664 146.611C145.111 145.959 144.657 145.418 144.657 145.408C144.657 145.401 144.691 145.346 144.732 145.288C145.16 144.684 145.533 143.804 145.7 143.014C145.768 142.689 145.86 142.075 145.844 142.058C145.836 142.045 144.2 141.929 144.192 141.937C144.187 141.942 144.166 142.068 144.148 142.219C144.08 142.742 143.955 143.197 143.759 143.64C143.623 143.949 143.535 144.098 143.509 144.07C143.376 143.927 141.682 141.919 141.685 141.907C141.685 141.894 141.805 141.811 141.951 141.718C142.316 141.489 142.614 141.253 142.914 140.964C143.446 140.443 143.657 139.992 143.683 139.306C143.707 138.76 143.621 138.443 143.339 138.038C142.958 137.485 142.327 137.112 141.474 136.931C141.2 136.873 140.383 136.858 140.101 136.906ZM141.012 138.352C141.327 138.4 141.599 138.576 141.729 138.815C141.792 138.928 141.8 138.971 141.8 139.195C141.8 139.424 141.792 139.462 141.719 139.61C141.674 139.701 141.594 139.822 141.539 139.882C141.416 140.018 141.082 140.269 140.782 140.45L140.547 140.594L140.474 140.511C140.432 140.465 140.294 140.294 140.166 140.131C139.791 139.65 139.697 139.424 139.752 139.13C139.825 138.74 140.106 138.461 140.521 138.363C140.686 138.325 140.819 138.32 141.012 138.352ZM141.09 144.143C141.7 144.868 142.201 145.469 142.207 145.484C142.217 145.517 141.787 145.733 141.56 145.811C141.223 145.924 140.978 145.957 140.576 145.942C140.151 145.927 139.929 145.876 139.621 145.723C139.068 145.444 138.77 145.029 138.742 144.49C138.716 144.027 138.841 143.731 139.201 143.383C139.415 143.18 139.887 142.833 139.952 142.83C139.968 142.83 140.482 143.421 141.09 144.143Z" fill="#223887"/>
</svg>
