<svg width="1203" height="600" viewBox="0 0 1203 600" fill="none" xmlns="http://www.w3.org/2000/svg">
<g clip-path="url(#clip0_442_2)">
<rect width="1203" height="600" fill="#1E1950"/>
<path d="M-394.938 -93.0646C-342.811 -255.677 -265.866 -335.248 -189.873 -374.607C39.7019 -493.51 276.069 -294.566 485.926 -3.56795C695.784 287.43 1271.61 623.59 1482.28 909.744C1692.96 1195.89 1548.21 1430.92 1776.7 1296.18" stroke="#7BD3DD" stroke-width="5.3332" stroke-miterlimit="10"/>
<path d="M-334.666 -90.5182C-284.949 -265.553 -218.968 -343.341 -149.529 -379.985C69.1395 -495.386 294.912 -291.883 494.505 1.34852C694.099 294.577 1241.65 627.015 1440.49 912.852C1639.82 1199.41 1500.32 1430.95 1718.39 1284.78" stroke="#79D3E0" stroke-width="5.26816" stroke-miterlimit="10"/>
<path d="M-274.389 -87.9757C-227.081 -275.434 -172.081 -351.441 -109.184 -385.366C98.5006 -497.383 313.755 -289.197 503.084 6.26079C692.415 301.718 1211.72 630.54 1398.69 915.964C1586.74 1203.03 1452.44 1430.98 1660.08 1273.38" stroke="#78D3E3" stroke-width="5.20312" stroke-miterlimit="10"/>
<path d="M-214.114 -85.4329C-169.215 -285.311 -125.211 -359.549 -68.8388 -390.743C127.756 -499.532 332.598 -286.514 511.663 11.1774C690.727 308.865 1181.81 634.169 1356.9 919.076C1533.7 1206.77 1404.56 1431.02 1601.77 1261.98" stroke="#76D2E6" stroke-width="5.13808" stroke-miterlimit="10"/>
<path d="M-153.84 -82.8911C-111.349 -295.188 -78.3629 -367.666 -28.4941 -396.121C156.865 -501.895 351.441 -283.827 520.242 16.0893C689.042 316.01 1151.91 637.918 1315.1 922.188C1480.7 1210.64 1356.67 1431.04 1543.46 1250.58" stroke="#74D2E9" stroke-width="5.07305" stroke-miterlimit="10"/>
<path d="M-93.5645 -80.3487C-53.4821 -305.069 -31.5423 -375.79 11.8513 -401.503C185.763 -504.541 370.284 -281.145 528.821 21.0056C687.358 323.156 1122.01 641.788 1273.31 925.296C1427.73 1214.65 1308.79 1431.08 1485.15 1239.18" stroke="#6FD0EC" stroke-width="5.00801" stroke-miterlimit="10"/>
<path d="M-33.29 -77.8024C4.38384 -314.946 15.2377 -383.919 52.196 -406.88C214.339 -507.609 389.126 -278.458 537.4 25.922C685.673 330.302 1092.09 645.79 1231.51 928.407C1374.77 1218.8 1260.91 1431.11 1426.84 1227.78" stroke="#6DD0F0" stroke-width="4.94297" stroke-miterlimit="10"/>
<path d="M26.9854 -75.26C62.2508 -324.826 61.9604 -392.047 92.5417 -412.258C242.397 -511.307 407.97 -275.775 545.98 30.8342C683.989 337.448 1062.14 649.932 1189.72 931.519C1321.82 1223.1 1213.03 1431.14 1368.53 1216.38" stroke="#69CFF4" stroke-width="4.87793" stroke-miterlimit="10"/>
<path d="M87.2598 -72.7171C120.117 -334.703 108.59 -400.151 132.886 -417.635C269.555 -516.002 426.813 -273.088 554.559 35.7512C682.304 344.59 1032.15 654.215 1147.92 934.631C1268.86 1227.55 1165.15 1431.17 1310.22 1204.98" stroke="#67CEF5" stroke-width="4.81289" stroke-miterlimit="10"/>
<path d="M147.534 -70.175C177.983 -344.58 155.059 -408.183 173.231 -423.017C294.985 -522.378 445.656 -270.406 563.138 40.6672C680.619 351.736 1002.09 658.638 1106.13 937.743C1215.87 1232.16 1117.27 1431.2 1251.91 1193.58" stroke="#6ACBF3" stroke-width="4.74785" stroke-miterlimit="10"/>
<path d="M207.809 -67.6323C235.849 -354.46 204.594 -413.388 213.576 -428.394C338.681 -503.542 464.499 -267.723 571.716 45.5798C678.935 358.882 971.958 663.21 1064.33 940.851C1162.84 1236.93 1069.38 1431.23 1193.6 1182.18" stroke="#6CC3EF" stroke-width="4.68282" stroke-miterlimit="10"/>
<path d="M268.084 -65.0863C293.715 -364.337 251.641 -421.204 253.921 -433.772C368.58 -504.545 483.342 -265.036 580.296 50.4959C677.251 366.028 941.725 667.922 1022.54 943.963C1109.75 1241.86 1021.5 1431.26 1135.29 1170.78" stroke="#6EBBEA" stroke-width="4.61776" stroke-miterlimit="10"/>
<path d="M328.358 -62.5439C351.581 -374.214 298.686 -429.016 294.266 -439.153C398.477 -505.548 502.184 -262.353 588.874 55.4121C675.562 373.174 911.376 672.77 980.741 947.074C1056.57 1246.93 973.618 1431.29 1076.98 1159.38" stroke="#70B2E5" stroke-width="4.55273" stroke-miterlimit="10"/>
<path d="M388.634 -60.0015C409.448 -384.095 345.733 -436.831 334.611 -444.531C428.376 -506.554 521.028 -259.667 597.454 60.3244C673.878 380.32 880.899 677.746 938.95 950.186C1003.29 1252.15 925.739 1431.32 1018.68 1147.98" stroke="#70A8DF" stroke-width="4.48769" stroke-miterlimit="10"/>
<path d="M448.908 -57.4591C467.314 -393.972 392.778 -444.643 374.956 -449.908C458.274 -507.557 539.871 -256.984 606.032 65.2409C672.193 387.462 850.269 682.839 897.154 953.294C949.887 1257.5 877.855 1431.35 960.363 1136.58" stroke="#72A1DB" stroke-width="4.42265" stroke-miterlimit="10"/>
<path d="M509.182 -54.9167C525.18 -403.849 439.824 -452.459 415.301 -455.29C488.171 -508.559 558.714 -254.297 614.611 70.1532C670.508 394.608 819.486 688.032 855.358 956.406C896.336 1262.97 829.975 1431.38 902.055 1125.18" stroke="#7499D6" stroke-width="4.35761" stroke-miterlimit="10"/>
<path d="M569.459 -52.3704C583.047 -413.729 486.871 -460.274 455.646 -460.667C518.07 -509.562 577.557 -251.614 623.191 75.0695C668.825 401.753 788.528 693.313 813.563 959.517C842.625 1268.54 782.091 1431.41 843.744 1113.78" stroke="#7490D1" stroke-width="4.29257" stroke-miterlimit="10"/>
<path d="M629.732 -49.828C640.914 -423.606 533.917 -468.086 495.991 -466.045C547.969 -510.568 596.399 -248.932 631.769 79.9859C667.14 408.9 757.397 698.663 771.767 962.629C788.733 1274.18 734.211 1431.44 785.436 1102.38" stroke="#7589CD" stroke-width="4.22753" stroke-miterlimit="10"/>
<path d="M690.009 -47.2858C698.78 -433.483 580.961 -475.902 536.336 -471.426C577.865 -511.571 615.241 -246.245 640.348 84.898C665.455 416.045 726.085 704.056 729.975 965.737C734.644 1279.89 686.327 1431.47 727.124 1090.98" stroke="#7582CA" stroke-width="4.1625" stroke-miterlimit="10"/>
<path d="M750.282 -44.7429C756.647 -443.363 628.007 -483.713 576.682 -476.803C607.765 -512.573 634.087 -243.562 648.927 89.8147C663.77 423.191 694.589 709.482 688.18 968.849C680.351 1285.63 638.447 1431.5 668.816 1079.57" stroke="#767CC6" stroke-width="4.09746" stroke-miterlimit="10"/>
<path d="M810.555 -42.2006C814.509 -453.24 675.057 -491.528 617.025 -482.181C637.661 -513.576 652.929 -240.875 657.506 94.731C662.082 430.337 662.912 714.912 646.384 971.961C625.845 1291.37 590.563 1431.53 610.504 1068.17" stroke="#7675C2" stroke-width="4.03242" stroke-miterlimit="10"/>
<path d="M870.832 -39.6586C872.376 -463.117 722.102 -499.34 657.369 -487.559C667.56 -514.579 671.772 -238.193 666.085 99.643C660.397 437.479 631.063 720.325 604.588 975.072C571.123 1297.1 542.683 1431.56 552.196 1056.77" stroke="#766EBE" stroke-width="3.96738" stroke-miterlimit="10"/>
<path d="M931.105 -37.112C930.243 -472.998 769.148 -507.156 697.717 -492.94C697.457 -515.585 690.614 -235.506 674.664 104.56C658.713 444.625 599.05 725.707 562.793 978.18C516.181 1302.78 494.799 1431.59 493.886 1045.37" stroke="#7668BB" stroke-width="3.90234" stroke-miterlimit="10"/>
<path d="M991.382 -34.5697C988.11 -482.875 816.194 -514.971 738.061 -498.318C727.357 -516.588 709.457 -232.823 683.243 109.472C657.029 451.771 566.884 731.032 521 981.292C461.026 1308.4 446.917 1431.62 435.576 1033.97" stroke="#7762B7" stroke-width="3.8373" stroke-miterlimit="10"/>
<path d="M1051.66 -32.027C1045.98 -492.755 863.24 -522.783 778.405 -503.695C757.253 -517.59 728.299 -230.14 691.822 114.388C655.344 458.917 534.577 736.293 479.205 984.404C405.665 1313.92 399.036 1431.65 377.267 1022.57" stroke="#785DB5" stroke-width="3.77227" stroke-miterlimit="10"/>
<path d="M1111.93 -29.4849C1103.84 -502.632 910.285 -530.599 818.749 -509.077C787.152 -518.593 747.141 -227.454 700.4 119.305C653.659 466.063 502.143 741.47 437.409 987.516C350.108 1319.34 351.153 1431.68 318.956 1011.17" stroke="#7B59B2" stroke-width="3.70723" stroke-miterlimit="10"/>
<path d="M1172.21 -26.9424C1161.71 -512.509 957.331 -538.41 859.097 -514.454C817.048 -519.599 765.988 -224.771 708.979 124.217C651.975 473.209 469.601 746.551 395.615 990.628C294.371 1324.62 303.271 1431.71 260.646 999.771" stroke="#7D54AF" stroke-width="3.64219" stroke-miterlimit="10"/>
<path d="M1232.48 -24.3961C1219.58 -522.39 1006.92 -532.343 899.441 -519.832C847.293 -513.764 784.83 -222.084 717.559 129.133C650.291 480.351 436.966 751.527 353.82 993.735C238.468 1329.76 255.389 1431.74 202.337 988.37" stroke="#8050AD" stroke-width="3.57715" stroke-miterlimit="10"/>
<path d="M1292.76 -21.8537C1277.44 -532.267 1053.7 -543.01 939.784 -525.213C877.498 -515.481 803.673 -219.402 726.138 134.05C648.606 487.497 404.254 756.396 312.025 996.847C182.419 1334.75 207.507 1431.77 144.027 976.969" stroke="#834DAC" stroke-width="3.51211" stroke-miterlimit="10"/>
<path d="M1353.03 -19.3114C1335.3 -542.144 1100.48 -552.903 980.132 -530.591C907.546 -517.133 822.515 -216.715 734.716 138.962C646.917 494.643 371.48 761.148 270.23 999.959C126.241 1339.57 159.625 1431.8 85.7168 965.569" stroke="#864AAA" stroke-width="3.44707" stroke-miterlimit="10"/>
<path d="M1413.31 -16.7688C1393.17 -552.024 1147.27 -562.306 1020.48 -535.968C937.506 -518.737 841.357 -214.032 743.295 143.878C645.233 501.789 338.662 765.783 228.435 1003.07C69.9561 1344.23 111.743 1431.83 27.4072 954.168" stroke="#8A47A8" stroke-width="3.38204" stroke-miterlimit="10"/>
<path d="M1473.58 -14.2266C1451.04 -561.901 1194.08 -571.381 1060.82 -541.35C967.41 -520.297 860.2 -211.349 751.874 148.795C643.549 508.935 305.813 770.303 186.641 1006.18C13.5829 1348.71 63.8609 1431.86 -30.9023 942.767" stroke="#8E45A7" stroke-width="3.31698" stroke-miterlimit="10"/>
<path d="M1533.85 -11.6841C1508.9 -571.778 1240.92 -580.231 1101.17 -546.727C997.273 -521.821 879.045 -208.663 760.453 153.707C641.864 516.081 272.944 774.706 144.845 1009.29C-42.8606 1353.04 15.9782 1431.89 -89.2129 931.367" stroke="#9242A6" stroke-width="3.25195" stroke-miterlimit="10"/>
<path d="M1594.13 -9.13775C1566.77 -581.659 1287.77 -588.913 1141.51 -552.105C1027.12 -523.316 897.888 -205.98 769.032 158.623C640.179 523.222 240.07 778.992 103.05 1012.4C-99.3537 1357.19 -31.9035 1431.92 -147.522 919.966" stroke="#9640A5" stroke-width="3.18691" stroke-miterlimit="10"/>
<path d="M1654.4 -6.59543C1624.64 -591.536 1334.64 -597.475 1181.86 -557.486C1056.94 -524.788 916.731 -203.293 777.611 163.536C638.495 530.368 207.199 783.171 61.2557 1015.51C-155.881 1361.19 -79.7852 1431.95 -205.832 908.566" stroke="#9A3EA4" stroke-width="3.12187" stroke-miterlimit="10"/>
<path d="M1714.68 -4.05295C1682.51 -601.412 1381.53 -605.944 1222.2 -562.863C1086.75 -526.24 935.574 -200.61 786.19 168.452C636.811 537.514 174.342 787.249 19.4613 1018.63C-212.426 1365.04 -127.667 1431.98 -264.141 897.165" stroke="#9F3CA4" stroke-width="3.05683" stroke-miterlimit="10"/>
<path d="M1774.95 -1.51063C1740.37 -611.293 1428.42 -614.337 1262.55 -568.241C1116.56 -527.675 954.415 -197.924 794.768 173.368C635.126 544.66 141.504 791.223 -22.3343 1021.73C-268.978 1368.75 -175.55 1432.02 -322.453 885.764" stroke="#A339A2" stroke-width="2.99179" stroke-miterlimit="10"/>
<path d="M1835.23 1.03179C1798.24 -621.17 1475.33 -622.674 1302.89 -573.619C1146.36 -529.095 973.258 -195.241 803.348 178.281C633.438 551.806 108.693 795.109 -64.129 1024.85C-325.521 1372.32 -223.432 1432.04 -380.761 874.364" stroke="#A739A2" stroke-width="2.92675" stroke-miterlimit="10"/>
<path d="M1895.5 3.57794C1856.1 -631.051 1522.24 -630.959 1343.23 -579C1176.15 -530.499 992.1 -192.558 811.927 183.197C631.753 558.948 75.9147 798.906 -105.924 1027.96C-382.048 1375.77 -271.312 1432.08 -439.072 862.963" stroke="#AA38A2" stroke-width="2.86172" stroke-miterlimit="10"/>
<path d="M1955.77 6.12045C1913.97 -640.928 1569.16 -639.211 1383.58 -584.378C1205.94 -531.894 1010.95 -189.872 820.505 188.113C630.068 566.094 43.1705 802.624 -147.719 1031.07C-438.544 1379.11 -319.197 1432.1 -497.381 851.562" stroke="#B036A1" stroke-width="2.79668" stroke-miterlimit="10"/>
<path d="M2016.05 8.66289C1971.83 -650.804 1615.98 -647.809 1423.93 -589.755C1235.62 -533.646 1029.79 -187.189 829.084 193.026C628.384 573.24 10.4666 806.269 -189.514 1034.18C-495.01 1382.34 -367.076 1432.14 -555.692 840.162" stroke="#B436A1" stroke-width="2.73164" stroke-miterlimit="10"/>
<path d="M2076.33 11.2053C2029.7 -660.685 1663.02 -655.62 1464.27 -595.137C1265.52 -534.649 1048.63 -184.502 837.663 197.942C626.7 580.386 -22.1966 809.846 -231.309 1037.29C-551.437 1385.48 -414.96 1432.16 -614 828.761" stroke="#B936A2" stroke-width="2.6666" stroke-miterlimit="10"/>
<path d="M224.242 1049.33C189.749 940.341 178.01 763.57 276.245 752.546C911.084 681.299 550.573 383.363 742.096 336.474C1417.55 171.115 444.608 -133.474 1408.03 -264.828" stroke="#7BD3DD" stroke-width="0.999975" stroke-miterlimit="10"/>
<path d="M1402.38 -279.38C467.709 -147.541 1378.31 167.473 749.909 334.717C569.836 382.642 902.733 669.02 283.545 743.11C183.203 755.116 189.552 928.989 219.156 1038.1" stroke="#79D3E1" stroke-width="1.05374" stroke-miterlimit="10"/>
<path d="M1396.73 -293.936C490.81 -161.604 1339.23 163.925 757.722 332.957C589.139 381.96 894.395 657.103 290.844 733.675C188.387 746.675 189.355 917.64 214.07 1026.88" stroke="#78D3E4" stroke-width="1.1075" stroke-miterlimit="10"/>
<path d="M1391.07 -308.489C513.91 -175.672 1300.34 160.464 765.531 331.2C608.499 381.33 886.073 645.517 298.145 724.243C193.563 738.246 189.159 906.288 208.984 1015.65" stroke="#74D2E9" stroke-width="1.16126" stroke-miterlimit="10"/>
<path d="M1385.42 -323.042C537.011 -189.739 1261.7 157.099 773.343 329.44C627.931 380.757 877.766 634.245 305.444 714.807C198.732 729.825 188.962 894.935 203.897 1004.43" stroke="#6FD0ED" stroke-width="1.21502" stroke-miterlimit="10"/>
<path d="M1379.77 -337.598C560.114 -203.807 1223.39 153.819 781.157 327.683C647.451 380.247 869.481 623.273 312.744 705.371C203.895 721.424 188.766 883.587 198.812 993.202" stroke="#6BCFF2" stroke-width="1.26879" stroke-miterlimit="10"/>
<path d="M1374.12 -352.151C583.211 -217.87 1185.51 150.603 788.965 325.923C667.1 379.802 861.214 612.579 320.044 695.936C209.052 713.031 188.57 872.234 193.726 981.974" stroke="#67CEF5" stroke-width="1.32255" stroke-miterlimit="10"/>
<path d="M1368.47 -366.703C606.313 -231.937 1148.21 147.395 796.778 324.167C686.912 379.425 852.972 602.148 327.344 686.5C214.206 704.658 188.373 860.886 188.64 970.75" stroke="#6AC8F2" stroke-width="1.37631" stroke-miterlimit="10"/>
<path d="M1362.82 -381.26C629.415 -246.004 1111.69 144.099 804.591 322.406C706.946 379.101 844.754 591.963 334.643 677.065C219.355 696.301 188.176 849.533 183.554 959.521" stroke="#6DBDEB" stroke-width="1.43007" stroke-miterlimit="10"/>
<path d="M1357.17 -395.812C652.516 -260.068 1076.18 140.51 812.4 320.65C727.268 378.788 836.556 582.014 341.943 667.633C224.502 687.96 187.98 838.181 178.468 948.297" stroke="#70B3E5" stroke-width="1.48383" stroke-miterlimit="10"/>
<path d="M1351.52 -410.365C675.618 -274.135 1042.01 136.275 820.213 318.89C747.952 378.383 828.387 572.282 349.243 658.197C229.648 679.639 187.784 826.833 173.382 937.073" stroke="#70A7DF" stroke-width="1.5376" stroke-miterlimit="10"/>
<path d="M1345.87 -424.921C698.716 -288.202 1009.45 130.801 828.022 317.133C769.036 377.713 820.241 562.762 356.543 648.762C234.793 671.342 187.588 815.48 168.296 925.845" stroke="#739DD8" stroke-width="1.59136" stroke-miterlimit="10"/>
<path d="M1340.22 -439.474C721.818 -302.265 939.215 99.4669 835.835 315.373C779.616 366.674 812.123 553.434 363.842 639.326C239.938 663.065 187.391 804.128 163.21 914.621" stroke="#7491D2" stroke-width="1.64512" stroke-miterlimit="10"/>
<path d="M1334.57 -454.03C744.92 -316.333 899.352 93.4959 843.648 313.616C798.703 365.282 804.03 544.295 371.142 629.89C245.084 654.817 187.195 792.779 158.124 903.393" stroke="#7588CD" stroke-width="1.69888" stroke-miterlimit="10"/>
<path d="M1328.92 -468.583C768.021 -330.4 859.494 87.5249 851.456 311.856C817.79 363.891 795.964 535.329 378.442 620.458C250.233 646.596 186.998 781.426 153.038 892.168" stroke="#757FC8" stroke-width="1.75265" stroke-miterlimit="10"/>
<path d="M1323.27 -483.136C791.123 -344.468 819.631 81.5538 859.269 310.099C836.877 362.499 787.923 526.531 385.742 611.023C255.386 638.407 186.802 770.074 147.952 880.944" stroke="#7776C3" stroke-width="1.80641" stroke-miterlimit="10"/>
<path d="M1317.62 -497.692C814.221 -358.531 779.773 75.583 867.082 308.339C855.965 361.108 779.913 517.885 393.042 601.587C260.544 630.251 186.606 758.725 142.866 869.716" stroke="#756DBE" stroke-width="1.86017" stroke-miterlimit="10"/>
<path d="M1311.97 -512.244C837.323 -372.598 739.91 69.6119 874.891 306.583C875.051 359.716 771.928 509.392 400.342 592.151C265.71 622.135 186.409 747.373 137.78 858.492" stroke="#7766B9" stroke-width="1.91393" stroke-miterlimit="10"/>
<path d="M1306.32 -526.797C860.425 -386.666 700.048 63.6408 882.704 304.822C894.135 358.328 763.975 501.039 407.642 582.716C270.883 614.062 186.212 736.02 132.694 847.264" stroke="#785EB5" stroke-width="1.9677" stroke-miterlimit="10"/>
<path d="M1300.66 -541.354C883.526 -400.729 660.189 57.6699 890.513 303.066C913.222 356.937 756.053 492.818 414.941 573.28C276.068 606.038 186.016 724.672 127.608 836.04" stroke="#7B58B1" stroke-width="2.02146" stroke-miterlimit="10"/>
<path d="M1295.01 -555.906C906.624 -414.796 657.799 15.4279 898.326 301.305C939.532 350.284 748.16 484.726 422.241 563.848C281.266 598.07 185.819 713.32 122.522 824.811" stroke="#7E52AE" stroke-width="2.07521" stroke-miterlimit="10"/>
<path d="M1289.37 -570.459C929.725 -428.863 609.822 12.0113 906.138 299.549C957.038 348.941 740.295 476.75 429.54 554.413C286.48 590.162 185.622 701.971 117.436 813.587" stroke="#824EAC" stroke-width="2.12897" stroke-miterlimit="10"/>
<path d="M1283.72 -585.015C952.828 -442.927 563.379 9.58914 913.948 297.793C974.862 347.87 732.471 468.886 436.841 544.977C291.715 582.331 185.426 690.618 112.351 802.363" stroke="#874AAA" stroke-width="2.18275" stroke-miterlimit="10"/>
<path d="M1278.06 -599.568C975.929 -456.994 518.296 7.51996 921.76 296.032C992.958 346.944 724.677 461.13 444.14 535.541C296.973 574.575 185.229 679.266 107.264 791.135" stroke="#8C46A8" stroke-width="2.2365" stroke-miterlimit="10"/>
<path d="M1272.41 -614.12C999.03 -471.061 474.315 5.47499 929.572 294.276C1011.26 346.094 716.92 453.475 451.44 526.106C302.261 566.92 185.033 667.918 102.178 779.911" stroke="#9143A7" stroke-width="2.29026" stroke-miterlimit="10"/>
<path d="M1266.76 -628.677C1022.13 -485.128 431.187 3.28939 937.381 292.515C1029.72 345.276 709.208 445.916 458.739 516.67C307.586 559.373 184.836 656.565 97.0918 768.682" stroke="#9740A5" stroke-width="2.34402" stroke-miterlimit="10"/>
<path d="M1261.11 -643.23C1045.23 -499.192 388.71 0.903321 945.194 290.759C1048.3 344.466 701.535 438.442 466.039 507.238C312.956 551.958 184.64 645.213 92.0059 757.458" stroke="#9C3DA4" stroke-width="2.39779" stroke-miterlimit="10"/>
<path d="M1255.46 -657.782C1068.33 -513.259 346.73 -1.69925 953.007 288.998C1066.98 343.648 693.915 431.051 473.339 497.803C318.38 544.696 184.443 633.864 86.9199 746.23" stroke="#A23AA3" stroke-width="2.45155" stroke-miterlimit="10"/>
<path d="M1249.81 -672.339C1091.43 -527.327 305.131 -4.50631 960.816 287.242C1085.73 342.821 686.351 423.733 480.639 488.367C323.875 537.622 184.247 622.511 81.834 735.006" stroke="#A739A2" stroke-width="2.50531" stroke-miterlimit="10"/>
<path d="M1244.16 -686.891C1114.53 -541.39 263.826 -7.50179 968.629 285.482C1104.53 341.979 678.847 416.486 487.939 478.931C329.458 530.773 184.051 611.159 76.748 723.782" stroke="#AD37A2" stroke-width="2.55907" stroke-miterlimit="10"/>
<path d="M1238.51 -701.443C1137.63 -555.457 222.751 -10.6655 976.438 283.725C1123.38 341.121 671.419 409.297 495.238 469.496C335.155 524.197 183.854 599.811 71.6621 712.554" stroke="#B236A1" stroke-width="2.61284" stroke-miterlimit="10"/>
<path d="M1232.86 -716C1160.73 -569.525 181.857 -13.9781 984.251 281.965C1142.27 340.247 664.075 402.158 502.538 460.064C341 517.965 183.658 588.458 66.5762 701.329" stroke="#B936A2" stroke-width="2.6666" stroke-miterlimit="10"/>
<path d="M176.292 173.477H175.497C173.528 171.221 171.113 169.491 168.253 168.29C165.395 167.089 162.404 166.488 159.281 166.488C152.987 166.488 147.952 168.472 144.178 172.438C140.407 176.402 138.522 181.96 138.522 189.118C138.522 196.422 140.359 202.104 144.034 206.166C147.713 210.225 153.059 212.253 160.076 212.253C162.093 212.253 164.075 212.05 166.019 211.64C167.966 211.232 169.732 210.619 171.318 209.801V191.282L174.49 191.495L177.662 191.282V211.678C171.268 213.89 164.732 214.994 158.055 214.994C149.311 214.994 142.609 212.566 137.947 207.711C133.621 203.194 131.459 197.118 131.459 189.48C131.459 181.31 134.126 174.919 139.461 170.305C144.554 165.935 151.256 163.748 159.569 163.748C164.277 163.748 168.481 164.302 172.182 165.406C174.442 166.079 176.364 166.918 177.95 167.927C177.758 168.458 177.506 169.252 177.193 170.311C176.88 171.367 176.58 172.422 176.292 173.477Z" fill="white"/>
<path d="M188.611 214.13V179.677L191.496 179.896L194.38 179.677V186.884L194.736 186.02C196.033 183.953 197.378 182.365 198.772 181.259C200.456 179.917 202.139 179.245 203.821 179.245C204.779 179.245 205.524 179.364 206.054 179.601L205.047 185.658C204.804 185.612 204.298 185.411 203.526 185.051C202.758 184.688 202.134 184.506 201.656 184.506C200.838 184.506 199.998 184.663 199.135 184.976C198.271 185.289 197.574 185.733 197.045 186.308C195.939 187.606 195.218 188.928 194.88 190.275C194.545 191.618 194.38 193.347 194.38 195.461V214.13L191.496 213.911L188.611 214.13Z" fill="white"/>
<path d="M236.684 191.35V208.074C236.684 208.796 236.684 209.492 236.684 210.163C236.825 211.174 237.474 211.677 238.63 211.677C239.256 211.677 239.952 211.582 240.72 211.389V212.972C240.477 213.069 240.127 213.202 239.669 213.373C239.213 213.54 238.708 213.671 238.154 213.767C237.604 213.864 236.944 213.911 236.177 213.911C234.784 213.911 233.644 213.576 232.755 212.904C231.867 212.228 231.326 211.099 231.135 209.513L230.484 210.163C227.456 213.191 223.899 214.705 219.817 214.705C217.172 214.705 214.914 213.889 213.042 212.253C211.168 210.618 210.232 208.504 210.232 205.909C210.232 202.26 211.603 199.643 214.343 198.057C216.023 197.094 219.098 196.252 223.565 195.53C226.688 195.004 228.659 194.526 229.477 194.091C230.628 193.465 231.204 192.337 231.204 190.706C231.204 188.013 230.472 185.932 229.008 184.468C227.544 183.004 225.463 182.272 222.77 182.272C220.463 182.272 218.447 182.897 216.72 184.143C215.372 185.107 214.532 186.142 214.199 187.246H213.404V183.205C215.277 181.908 217.161 180.924 219.06 180.252C220.957 179.581 222.941 179.244 225.01 179.244C232.793 179.244 236.684 183.28 236.684 191.35ZM230.916 206.703V196.18L228.395 196.687C224.215 197.505 221.572 198.154 220.468 198.633C217.585 199.931 216.145 202.021 216.145 204.902C216.145 207.113 216.767 208.796 218.015 209.951C219.267 211.102 220.996 211.677 223.208 211.677C224.117 211.677 225.124 211.402 226.23 210.851C227.334 210.298 228.248 209.66 228.97 208.937C229.353 208.599 229.773 208.203 230.228 207.748C230.686 207.295 230.916 206.946 230.916 206.703Z" fill="white"/>
<path d="M278.047 160V214.13L275.163 213.911L272.285 214.13V207.21C269.353 212.208 265.219 214.705 259.885 214.705C255.609 214.705 252.198 213.288 249.65 210.451C246.863 207.378 245.471 202.981 245.471 197.263C245.471 192.17 246.888 187.895 249.725 184.437C252.561 180.976 256.308 179.245 260.968 179.245C263.37 179.245 265.532 179.858 267.456 181.084C269.378 182.307 270.987 184.023 272.285 186.233V160L275.163 160.219L278.047 160ZM272.285 195.968C272.285 192.364 271.588 189.311 270.196 186.808C268.464 183.735 265.916 182.198 262.551 182.198C258.421 182.198 255.49 183.952 253.76 187.459C252.462 190.054 251.815 193.658 251.815 198.27C251.815 201.924 252.511 205 253.904 207.498C255.634 210.573 258.229 212.109 261.687 212.109C265.436 212.109 268.247 210.26 270.121 206.56C271.563 203.679 272.285 200.147 272.285 195.968Z" fill="white"/>
<path d="M295.923 179.676V214.129L293.039 213.91L290.155 214.129V179.676L293.039 179.895L295.923 179.676ZM296.717 167.351C296.717 168.361 296.356 169.226 295.635 169.947C294.912 170.67 294.048 171.029 293.039 171.029C292.028 171.029 291.163 170.67 290.442 169.947C289.724 169.226 289.366 168.361 289.366 167.351C289.366 166.342 289.724 165.478 290.442 164.761C291.163 164.04 292.028 163.678 293.039 163.678C294.002 163.678 294.855 164.027 295.598 164.723C296.344 165.421 296.717 166.297 296.717 167.351Z" fill="white"/>
<path d="M334.982 206.704L334.914 210.451C333.04 211.8 331.069 212.846 329.001 213.592C326.937 214.333 324.774 214.706 322.514 214.706C317.421 214.706 313.312 213.121 310.189 209.951C307.068 206.777 305.509 202.453 305.509 196.975C305.509 191.737 306.901 187.533 309.688 184.362C312.666 180.951 316.773 179.245 322.013 179.245C326.288 179.245 329.722 180.663 332.317 183.499C335.198 186.619 336.64 191.086 336.64 196.9L322.013 196.687H311.846C311.846 201.014 312.832 204.52 314.806 207.21C317.016 210.189 320.186 211.678 324.315 211.678C326.525 211.678 328.665 211.1 330.734 209.945C332.126 209.178 333.543 208.097 334.982 206.704ZM311.846 194.016H331.022C331.022 190.317 330.422 187.434 329.22 185.37C327.731 182.776 325.329 181.478 322.013 181.478C318.793 181.478 316.246 182.801 314.374 185.445C312.688 187.797 311.846 190.655 311.846 194.016Z" fill="white"/>
<path d="M344.642 214.13V179.676L347.526 179.895L350.41 179.676V186.233C351.657 184.023 353.277 182.307 355.271 181.084C357.264 179.858 359.51 179.245 362.009 179.245C366.096 179.245 369.051 180.375 370.874 182.636C372.701 184.893 373.615 188.446 373.615 193.296V214.13L370.731 213.911L367.846 214.13V194.954C367.846 191.113 367.366 188.279 366.407 186.452C365.159 184.146 362.974 182.992 359.851 182.992C356.292 182.992 353.77 184.29 352.281 186.884C351.032 189.095 350.41 192.602 350.41 197.407V214.13L347.526 213.911L344.642 214.13Z" fill="white"/>
<path d="M384.346 172.544L390.114 170.304V179.676H397.753C397.656 180.349 397.609 180.853 397.609 181.19C397.609 181.528 397.656 181.938 397.753 182.417H390.114V202.812C390.114 205.745 390.354 207.835 390.834 209.081C391.65 211.151 393.189 212.184 395.451 212.184C395.976 212.184 396.561 212.112 397.209 211.965C397.86 211.82 398.354 211.725 398.692 211.678V213.404C397.536 213.839 396.502 214.163 395.589 214.38C394.678 214.596 393.694 214.706 392.636 214.706C389.753 214.706 387.688 213.936 386.442 212.397C385.044 210.667 384.346 207.664 384.346 203.388V182.417H379.879C379.974 182.129 380.023 181.672 380.023 181.047C380.023 180.471 379.974 180.014 379.879 179.676H384.346V172.544Z" fill="white"/>
<path d="M152.149 242.728L173.771 293.11L170.018 292.891L166.201 293.11C164.47 288.16 163.004 284.17 161.803 281.142C161.035 279.219 159.978 276.721 158.631 273.646H140.325C137.538 280.616 135.977 284.581 135.639 285.54C134.921 287.464 134.106 289.986 133.193 293.11L130.528 292.891L128 293.11L150.492 242.728H152.149ZM157.555 270.618L149.553 252.168L141.695 270.618H157.555Z" fill="white"/>
<path d="M179.461 286.115H180.037C180.95 287.654 182.152 288.929 183.641 289.938C185.13 290.948 186.691 291.452 188.327 291.452C190.149 291.452 191.782 290.83 193.225 289.581C194.667 288.33 195.39 286.766 195.39 284.889C195.39 281.911 192.553 279.607 186.881 277.976C181.213 276.341 178.379 273.313 178.379 268.892C178.379 265.526 179.483 262.907 181.695 261.034C183.905 259.161 186.716 258.225 190.128 258.225C191.808 258.225 193.407 258.43 194.921 258.838C196.435 259.248 197.55 259.667 198.268 260.095C197.55 261.731 196.974 263.436 196.541 265.213H195.89C195.41 263.966 194.592 262.864 193.438 261.903C192.287 260.94 191.062 260.458 189.766 260.458C187.892 260.458 186.331 260.988 185.08 262.047C183.831 263.103 183.209 264.567 183.209 266.439C183.209 269.322 186.043 271.676 191.711 273.503C197.383 275.329 200.22 278.262 200.22 282.299C200.22 285.903 198.801 288.76 195.966 290.87C193.466 292.747 190.463 293.686 186.956 293.686C185.467 293.686 183.892 293.481 182.233 293.072C180.576 292.664 179.148 292.1 177.947 291.377C178.235 290.514 178.523 289.638 178.811 288.749C179.098 287.858 179.314 286.979 179.461 286.115Z" fill="white"/>
<path d="M235.962 261.178L234.304 265.939H233.728C233.44 265.551 233.128 265.13 232.79 264.675C232.455 264.217 232.12 263.843 231.782 263.555C230.964 262.642 229.907 261.935 228.611 261.434C227.312 260.93 225.992 260.677 224.65 260.677C220.709 260.677 217.607 262.19 215.347 265.213C213.282 268 212.25 271.411 212.25 275.448C212.25 280.062 213.464 283.847 215.891 286.804C218.319 289.757 221.478 291.233 225.37 291.233C227.337 291.233 229.139 290.801 230.775 289.938C232.022 289.262 233.534 288.133 235.311 286.547L235.749 286.766L235.386 290.082C232.12 292.484 228.443 293.686 224.356 293.686C218.496 293.686 213.908 291.981 210.592 288.568C207.467 285.349 205.906 281.096 205.906 275.811C205.906 270.331 207.635 266.031 211.093 262.911C214.554 259.787 219.048 258.225 224.575 258.225C226.785 258.225 228.801 258.455 230.625 258.913C232.452 259.368 234.23 260.123 235.962 261.178Z" fill="white"/>
<path d="M270.912 285.684L270.843 289.431C268.97 290.78 266.999 291.826 264.931 292.572C262.866 293.313 260.703 293.686 258.443 293.686C253.351 293.686 249.242 292.101 246.118 288.931C242.998 285.757 241.438 281.433 241.438 275.955C241.438 270.717 242.831 266.513 245.618 263.342C248.596 259.931 252.703 258.225 257.943 258.225C262.217 258.225 265.652 259.643 268.247 262.479C271.128 265.599 272.57 270.066 272.57 275.88L257.943 275.667H247.776C247.776 279.994 248.762 283.5 250.735 286.19C252.945 289.168 256.116 290.658 260.245 290.658C262.455 290.658 264.595 290.08 266.664 288.924C268.056 288.158 269.473 287.077 270.912 285.684ZM247.776 272.996H266.952C266.952 269.297 266.351 266.414 265.15 264.35C263.661 261.756 261.259 260.458 257.943 260.458C254.722 260.458 252.176 261.781 250.304 264.425C248.618 266.777 247.776 269.635 247.776 272.996Z" fill="white"/>
<path d="M280.569 293.11V258.656L283.454 258.875L286.338 258.656V265.213C287.584 263.003 289.205 261.287 291.199 260.064C293.192 258.838 295.438 258.225 297.937 258.225C302.024 258.225 304.978 259.355 306.802 261.616C308.629 263.873 309.542 267.426 309.542 272.276V293.11L306.658 292.891L303.774 293.11V273.934C303.774 270.093 303.294 267.259 302.335 265.432C301.087 263.126 298.902 261.972 295.779 261.972C292.22 261.972 289.697 263.27 288.208 265.864C286.96 268.075 286.338 271.582 286.338 276.387V293.11L283.454 292.891L280.569 293.11Z" fill="white"/>
<path d="M320.277 251.524L326.045 249.284V258.656H333.684C333.587 259.329 333.54 259.832 333.54 260.17C333.54 260.508 333.587 260.918 333.684 261.396H326.045V281.792C326.045 284.725 326.284 286.814 326.764 288.061C327.581 290.13 329.12 291.164 331.382 291.164C331.907 291.164 332.492 291.092 333.14 290.945C333.79 290.8 334.285 290.704 334.622 290.657V292.384C333.467 292.819 332.433 293.143 331.519 293.36C330.609 293.576 329.625 293.685 328.566 293.685C325.684 293.685 323.619 292.916 322.372 291.377C320.974 289.647 320.277 286.644 320.277 282.368V261.396H315.81C315.905 261.109 315.953 260.652 315.953 260.026C315.953 259.451 315.905 258.994 315.81 258.656H320.277V251.524Z" fill="white"/>
<path d="M357.328 261.604L357.333 261.614C357.338 261.614 357.338 261.614 357.338 261.614V261.609C357.338 261.604 357.338 261.604 357.333 261.604H357.328C357.328 261.599 357.328 261.599 357.328 261.604Z" fill="white"/>
<path d="M357.118 257.986L357.165 258.042C357.184 258.037 357.184 258.037 357.203 258.033L357.207 257.995C357.193 257.981 357.189 257.972 357.174 257.958H357.128C357.128 257.972 357.123 257.972 357.118 257.986Z" fill="white"/>
<path d="M356.339 254.298L356.407 254.293V254.227C356.385 254.209 356.376 254.195 356.353 254.176L356.282 254.18L356.287 254.246C356.306 254.265 356.315 254.274 356.339 254.298Z" fill="white"/>
<path d="M354.726 250.403L354.785 250.445C354.804 250.436 354.804 250.431 354.818 250.422L354.813 250.389C354.794 250.375 354.785 250.37 354.766 250.358L354.735 250.363C354.73 250.384 354.73 250.384 354.726 250.403Z" fill="white"/>
<path d="M352.373 246.609L352.387 246.618C352.387 246.618 352.387 246.618 352.392 246.613L352.387 246.604C352.383 246.604 352.383 246.599 352.378 246.599H352.373C352.373 246.604 352.373 246.604 352.373 246.609Z" fill="white"/>
<path d="M358.623 269.754L358.628 269.773C358.633 269.773 358.633 269.773 358.637 269.778L358.647 269.768C358.647 269.764 358.647 269.759 358.642 269.754L358.628 269.749C358.623 269.749 358.623 269.749 358.623 269.754Z" fill="white"/>
<path d="M359.697 266.571C359.721 266.637 359.735 266.668 359.758 266.738C359.815 266.757 359.838 266.766 359.894 266.785C359.927 266.738 359.941 266.71 359.969 266.663C359.946 266.599 359.932 266.562 359.908 266.496C359.852 266.477 359.829 266.468 359.772 266.449C359.744 266.501 359.73 266.524 359.697 266.571Z" fill="white"/>
<path d="M360.212 263.036C360.296 263.205 360.339 263.288 360.423 263.457C360.562 263.495 360.633 263.513 360.773 263.551C360.83 263.415 360.863 263.349 360.919 263.215C360.834 263.041 360.792 262.956 360.703 262.784C360.562 262.752 360.493 262.733 360.353 262.7C360.292 262.836 360.268 262.902 360.212 263.036Z" fill="white"/>
<path d="M360.226 259.261C360.385 259.494 360.46 259.609 360.609 259.844C360.811 259.882 360.914 259.899 361.114 259.936C361.166 259.736 361.194 259.633 361.241 259.433C361.086 259.19 361.006 259.073 360.843 258.835C360.637 258.802 360.534 258.784 360.329 258.755C360.296 258.957 360.273 259.059 360.226 259.261Z" fill="white"/>
<path d="M359.689 255.3C359.908 255.549 360.016 255.679 360.231 255.931C360.465 255.954 360.581 255.964 360.816 255.992C360.839 255.759 360.848 255.641 360.867 255.404C360.647 255.143 360.534 255.011 360.31 254.755C360.073 254.736 359.955 254.726 359.716 254.712C359.707 254.947 359.702 255.067 359.689 255.3Z" fill="white"/>
<path d="M358.524 251.226C358.782 251.449 358.903 251.562 359.151 251.79C359.38 251.795 359.492 251.795 359.721 251.805C359.702 251.576 359.693 251.464 359.675 251.235C359.422 251.001 359.291 250.885 359.029 250.656C358.796 250.656 358.679 250.656 358.449 250.661C358.482 250.885 358.496 251.001 358.524 251.226Z" fill="white"/>
<path d="M356.669 247.112C356.903 247.272 357.02 247.35 357.248 247.514C357.431 247.5 357.525 247.496 357.706 247.486C357.66 247.308 357.636 247.225 357.591 247.047C357.356 246.884 357.239 246.8 357.001 246.642C356.813 246.656 356.726 246.665 356.538 246.682C356.59 246.851 356.618 246.94 356.669 247.112Z" fill="white"/>
<path d="M354.06 243.041C354.187 243.107 354.253 243.139 354.378 243.205C354.467 243.191 354.509 243.186 354.598 243.172C354.561 243.093 354.542 243.05 354.5 242.972C354.373 242.906 354.309 242.874 354.178 242.808C354.088 242.822 354.046 242.831 353.957 242.845C353.999 242.925 354.018 242.963 354.06 243.041Z" fill="white"/>
<path d="M350.428 239.139L350.508 239.167C350.512 239.162 350.512 239.162 350.517 239.157L350.498 239.134C350.484 239.129 350.475 239.125 350.461 239.12L350.428 239.129C350.428 239.129 350.428 239.129 350.428 239.139Z" fill="white"/>
<path d="M359.185 274.773V274.811C359.194 274.815 359.194 274.815 359.203 274.82L359.222 274.806C359.222 274.797 359.222 274.792 359.222 274.782L359.199 274.764C359.194 274.768 359.189 274.773 359.185 274.773Z" fill="white"/>
<path d="M360.834 271.873C360.853 272.014 360.857 272.089 360.876 272.228C360.973 272.289 361.025 272.322 361.123 272.383C361.208 272.304 361.25 272.261 361.334 272.177C361.32 272.033 361.311 271.958 361.292 271.814C361.194 271.753 361.142 271.72 361.039 271.664C360.954 271.753 360.918 271.795 360.834 271.873Z" fill="white"/>
<path d="M362.068 268.55C362.143 268.849 362.175 268.999 362.24 269.297C362.452 269.408 362.555 269.465 362.764 269.582C362.915 269.391 362.985 269.297 363.129 269.1C363.063 268.792 363.026 268.639 362.952 268.331C362.736 268.223 362.628 268.168 362.414 268.065C362.273 268.26 362.203 268.359 362.068 268.55Z" fill="white"/>
<path d="M362.952 264.927C363.096 265.315 363.166 265.506 363.298 265.899C363.578 266.021 363.719 266.08 363.999 266.211C364.153 265.941 364.228 265.805 364.372 265.525C364.236 265.118 364.163 264.918 364.013 264.516C363.723 264.4 363.582 264.339 363.293 264.231C363.162 264.511 363.091 264.652 362.952 264.927Z" fill="white"/>
<path d="M363.368 261.016C363.597 261.449 363.704 261.669 363.914 262.112C364.246 262.225 364.41 262.286 364.741 262.411C364.868 262.079 364.929 261.912 365.046 261.571C364.826 261.109 364.713 260.879 364.476 260.427C364.135 260.319 363.966 260.268 363.625 260.171C363.526 260.51 363.475 260.679 363.368 261.016Z" fill="white"/>
<path d="M363.208 256.869C363.521 257.323 363.676 257.551 363.965 258.019C364.329 258.111 364.517 258.158 364.882 258.266C364.961 257.892 364.999 257.701 365.068 257.318C364.764 256.831 364.606 256.594 364.278 256.123C363.899 256.034 363.713 255.996 363.335 255.921C363.288 256.304 363.264 256.492 363.208 256.869Z" fill="white"/>
<path d="M362.424 252.56C362.812 252.99 362.998 253.209 363.364 253.658C363.742 253.719 363.933 253.755 364.312 253.83C364.33 253.442 364.335 253.251 364.344 252.859C363.966 252.397 363.77 252.169 363.368 251.72C362.98 251.664 362.783 251.64 362.396 251.598C362.414 251.981 362.419 252.174 362.424 252.56Z" fill="white"/>
<path d="M360.928 248.163C361.361 248.54 361.577 248.733 361.993 249.125C362.362 249.152 362.545 249.171 362.914 249.208C362.872 248.839 362.844 248.658 362.788 248.289C362.357 247.884 362.139 247.686 361.685 247.294C361.306 247.277 361.119 247.267 360.74 247.253C360.825 247.621 360.862 247.804 360.928 248.163Z" fill="white"/>
<path d="M358.674 243.77C359.109 244.059 359.319 244.205 359.735 244.503C360.059 244.499 360.217 244.499 360.539 244.503C360.446 244.2 360.399 244.045 360.296 243.737C359.866 243.429 359.652 243.28 359.208 242.986C358.879 242.995 358.717 242.999 358.39 243.017C358.505 243.321 358.562 243.471 358.674 243.77Z" fill="white"/>
<path d="M355.701 239.461C355.985 239.606 356.126 239.675 356.406 239.825C356.598 239.806 356.692 239.797 356.883 239.778C356.795 239.611 356.749 239.526 356.659 239.357C356.375 239.209 356.234 239.134 355.945 238.99C355.752 239.012 355.654 239.021 355.463 239.044C355.56 239.213 355.607 239.293 355.701 239.461Z" fill="white"/>
<path d="M351.901 235.371L351.971 235.357L351.924 235.302C351.891 235.288 351.863 235.278 351.827 235.264L351.757 235.278L351.804 235.333C351.837 235.347 351.863 235.357 351.901 235.371Z" fill="white"/>
<path d="M358.618 279.821L358.613 279.84C358.618 279.845 358.618 279.845 358.623 279.845L358.637 279.84C358.637 279.835 358.637 279.83 358.642 279.825L358.632 279.816C358.628 279.821 358.628 279.821 358.618 279.821Z" fill="white"/>
<path d="M360.872 277.36C360.858 277.504 360.849 277.574 360.83 277.714C360.915 277.798 360.951 277.84 361.035 277.925C361.134 277.864 361.185 277.836 361.288 277.775C361.307 277.631 361.317 277.556 361.331 277.41C361.246 277.327 361.204 277.285 361.119 277.205C361.021 277.271 360.969 277.299 360.872 277.36Z" fill="white"/>
<path d="M362.774 274.381C362.779 274.717 362.779 274.881 362.774 275.217C362.971 275.389 363.068 275.474 363.261 275.651C363.466 275.488 363.569 275.403 363.771 275.236C363.775 274.89 363.775 274.712 363.771 274.366C363.569 274.194 363.466 274.115 363.261 273.947C363.068 274.124 362.971 274.208 362.774 274.381Z" fill="white"/>
<path d="M364.415 271.052C364.476 271.515 364.504 271.743 364.546 272.209C364.826 272.416 364.962 272.522 365.238 272.743C365.475 272.485 365.597 272.355 365.832 272.089C365.785 271.603 365.762 271.36 365.696 270.88C365.407 270.673 365.261 270.572 364.972 270.379C364.751 270.65 364.64 270.786 364.415 271.052Z" fill="white"/>
<path d="M365.673 267.35C365.814 267.905 365.879 268.181 365.995 268.742C366.341 268.961 366.514 269.074 366.855 269.307C367.095 268.966 367.21 268.789 367.44 268.434C367.318 267.846 367.253 267.552 367.104 266.972C366.743 266.757 366.561 266.654 366.197 266.454C365.995 266.818 365.887 267 365.673 267.35Z" fill="white"/>
<path d="M366.457 263.312C366.696 263.928 366.807 264.241 367.014 264.866C367.421 265.077 367.621 265.188 368.023 265.417C368.234 265.002 368.332 264.788 368.528 264.358C368.314 263.699 368.196 263.373 367.944 262.723C367.524 262.519 367.308 262.42 366.882 262.229C366.718 262.672 366.635 262.888 366.457 263.312Z" fill="white"/>
<path d="M366.701 258.998C367.042 259.638 367.205 259.964 367.51 260.623C367.957 260.809 368.182 260.912 368.627 261.117C368.78 260.646 368.85 260.409 368.991 259.922C368.673 259.232 368.5 258.891 368.145 258.219C367.677 258.037 367.444 257.953 366.976 257.793C366.873 258.28 366.817 258.522 366.701 258.998Z" fill="white"/>
<path d="M366.33 254.47C366.77 255.096 366.981 255.418 367.383 256.062C367.855 256.215 368.093 256.295 368.565 256.469C368.645 255.968 368.682 255.716 368.748 255.208C368.327 254.531 368.107 254.199 367.649 253.541C367.157 253.402 366.91 253.331 366.415 253.209C366.391 253.719 366.372 253.971 366.33 254.47Z" fill="white"/>
<path d="M365.28 249.806C365.799 250.375 366.046 250.671 366.528 251.259C367 251.365 367.238 251.421 367.715 251.548C367.715 251.057 367.71 250.81 367.696 250.311C367.196 249.695 366.934 249.391 366.396 248.798C365.905 248.7 365.658 248.658 365.167 248.578C365.223 249.078 365.247 249.321 365.28 249.806Z" fill="white"/>
<path d="M363.488 245.087C364.04 245.562 364.311 245.805 364.839 246.3C365.284 246.361 365.507 246.393 365.951 246.463C365.878 246.02 365.84 245.8 365.747 245.353C365.204 244.838 364.924 244.586 364.353 244.097C363.895 244.05 363.666 244.026 363.208 243.993C363.325 244.433 363.382 244.652 363.488 245.087Z" fill="white"/>
<path d="M360.881 240.404C361.408 240.754 361.671 240.931 362.179 241.3C362.56 241.314 362.75 241.324 363.129 241.347C363.002 240.992 362.938 240.815 362.802 240.456C362.278 240.082 362.012 239.896 361.469 239.536C361.081 239.531 360.886 239.527 360.498 239.531C360.656 239.882 360.731 240.054 360.881 240.404Z" fill="white"/>
<path d="M357.553 235.843C357.871 236.001 358.03 236.086 358.348 236.248C358.557 236.236 358.66 236.231 358.87 236.222C358.768 236.043 358.712 235.954 358.604 235.773C358.287 235.605 358.127 235.521 357.8 235.361C357.591 235.375 357.483 235.385 357.271 235.399C357.389 235.577 357.445 235.665 357.553 235.843Z" fill="white"/>
<path d="M353.205 231.501L353.285 231.529C353.294 231.515 353.294 231.515 353.304 231.501L353.29 231.487C353.266 231.478 353.252 231.473 353.229 231.464L353.205 231.468C353.21 231.482 353.21 231.482 353.205 231.501Z" fill="white"/>
<path d="M359.758 282.864C359.735 282.924 359.726 282.957 359.702 283.018C359.73 283.064 359.744 283.083 359.773 283.13C359.824 283.116 359.848 283.107 359.899 283.088C359.923 283.027 359.932 282.994 359.956 282.933C359.927 282.888 359.913 282.869 359.885 282.822C359.829 282.841 359.805 282.845 359.758 282.864Z" fill="white"/>
<path d="M362.236 280.305C362.17 280.599 362.139 280.75 362.068 281.044C362.208 281.234 362.273 281.333 362.409 281.528C362.624 281.425 362.727 281.375 362.943 281.267C363.016 280.964 363.054 280.809 363.119 280.501C362.976 280.31 362.905 280.212 362.76 280.025C362.55 280.138 362.442 280.193 362.236 280.305Z" fill="white"/>
<path d="M364.546 277.396C364.504 277.854 364.476 278.088 364.415 278.546C364.64 278.812 364.747 278.942 364.967 279.218C365.257 279.026 365.402 278.923 365.687 278.723C365.752 278.242 365.78 278.003 365.823 277.523C365.588 277.257 365.471 277.126 365.233 276.874C364.962 277.083 364.826 277.191 364.546 277.396Z" fill="white"/>
<path d="M366.561 274.049C366.575 274.646 366.575 274.95 366.561 275.547C366.864 275.856 367.014 276.015 367.308 276.337C367.635 276.048 367.795 275.898 368.112 275.59C368.126 274.959 368.126 274.642 368.112 274.011C367.795 273.703 367.63 273.555 367.308 273.265C367.014 273.583 366.864 273.741 366.561 274.049Z" fill="white"/>
<path d="M368.196 270.292C368.295 271 368.337 271.356 368.396 272.07C368.775 272.397 368.963 272.565 369.327 272.91C369.654 272.522 369.814 272.322 370.131 271.915C370.065 271.165 370.023 270.786 369.921 270.034C369.524 269.712 369.322 269.554 368.916 269.25C368.631 269.68 368.49 269.885 368.196 270.292Z" fill="white"/>
<path d="M369.379 266.16C369.585 266.948 369.678 267.345 369.837 268.145C370.281 268.467 370.5 268.639 370.935 268.984C371.235 268.507 371.375 268.265 371.656 267.771C371.487 266.926 371.389 266.505 371.174 265.675C370.707 265.357 370.468 265.202 369.997 264.908C369.757 265.417 369.631 265.665 369.379 266.16Z" fill="white"/>
<path d="M370.042 261.702C370.366 262.528 370.514 262.944 370.786 263.789C371.281 264.092 371.529 264.245 372.021 264.577C372.258 264.031 372.376 263.756 372.59 263.196C372.305 262.309 372.146 261.869 371.805 260.997C371.281 260.703 371.02 260.562 370.491 260.296C370.324 260.865 370.234 261.145 370.042 261.702Z" fill="white"/>
<path d="M370.122 256.982C370.562 257.803 370.773 258.219 371.156 259.059C371.688 259.32 371.955 259.461 372.479 259.75C372.637 259.167 372.712 258.868 372.848 258.266C372.442 257.379 372.226 256.944 371.763 256.085C371.203 255.834 370.921 255.716 370.361 255.493C370.277 256.095 370.23 256.394 370.122 256.982Z" fill="white"/>
<path d="M369.549 252.075C370.09 252.84 370.348 253.228 370.835 254.022C371.376 254.232 371.653 254.345 372.189 254.578C372.259 253.99 372.288 253.691 372.33 253.089C371.82 252.261 371.549 251.851 370.983 251.052C370.414 250.857 370.128 250.768 369.558 250.595C369.568 251.193 369.563 251.492 369.549 252.075Z" fill="white"/>
<path d="M368.253 247.061C368.855 247.724 369.151 248.065 369.706 248.756C370.234 248.905 370.496 248.98 371.02 249.147C370.996 248.597 370.977 248.321 370.935 247.761C370.352 247.042 370.051 246.691 369.426 246.002C368.878 245.866 368.603 245.805 368.056 245.694C368.145 246.244 368.182 246.515 368.253 247.061Z" fill="white"/>
<path d="M366.164 242.015C366.78 242.542 367.08 242.813 367.664 243.363C368.141 243.448 368.379 243.495 368.851 243.593C368.754 243.121 368.698 242.883 368.58 242.406C367.977 241.837 367.668 241.561 367.038 241.016C366.547 240.94 366.298 240.908 365.813 240.851C365.962 241.319 366.032 241.552 366.164 242.015Z" fill="white"/>
<path d="M363.256 237.038C363.789 237.393 364.051 237.57 364.565 237.939C364.934 237.967 365.12 237.986 365.49 238.023C365.35 237.682 365.28 237.509 365.13 237.168C364.607 236.795 364.34 236.608 363.794 236.248C363.414 236.226 363.223 236.217 362.845 236.203C363.017 236.534 363.101 236.702 363.256 237.038Z" fill="white"/>
<path d="M359.681 232.216C359.862 232.308 359.956 232.355 360.137 232.449C360.255 232.444 360.316 232.444 360.433 232.444C360.367 232.346 360.334 232.299 360.269 232.202C360.087 232.108 359.993 232.056 359.806 231.962C359.69 231.967 359.629 231.967 359.512 231.972C359.582 232.07 359.615 232.117 359.681 232.216Z" fill="white"/>
<path d="M357.319 287.98L357.314 287.99C357.314 287.995 357.314 287.995 357.319 287.995H357.324C357.324 287.99 357.324 287.99 357.33 287.99V287.985C357.324 287.98 357.324 287.98 357.319 287.98Z" fill="white"/>
<path d="M360.418 286.16C360.343 286.313 360.3 286.393 360.221 286.548C360.272 286.673 360.296 286.734 360.347 286.86C360.479 286.828 360.543 286.813 360.674 286.781C360.754 286.621 360.796 286.543 360.871 286.383C360.82 286.258 360.792 286.197 360.74 286.071C360.613 286.108 360.548 286.127 360.418 286.16Z" fill="white"/>
<path d="M363.298 283.709C363.167 284.092 363.101 284.283 362.957 284.661C363.092 284.932 363.157 285.066 363.289 285.348C363.573 285.24 363.714 285.184 363.999 285.066C364.149 284.671 364.219 284.474 364.354 284.073C364.21 283.803 364.139 283.667 363.985 283.401C363.709 283.53 363.573 283.591 363.298 283.709Z" fill="white"/>
<path d="M365.995 280.86C365.88 281.416 365.819 281.691 365.678 282.243C365.892 282.593 365.995 282.77 366.197 283.135C366.557 282.938 366.738 282.831 367.095 282.62C367.243 282.041 367.309 281.752 367.431 281.169C367.201 280.814 367.09 280.642 366.851 280.301C366.51 280.534 366.336 280.646 365.995 280.86Z" fill="white"/>
<path d="M368.393 277.527C368.333 278.242 368.291 278.597 368.192 279.306C368.486 279.712 368.632 279.917 368.912 280.343C369.319 280.039 369.52 279.884 369.918 279.558C370.024 278.812 370.066 278.433 370.132 277.682C369.819 277.276 369.655 277.075 369.333 276.688C368.959 277.033 368.773 277.201 368.393 277.527Z" fill="white"/>
<path d="M370.435 273.75C370.458 274.592 370.458 275.016 370.435 275.856C370.81 276.29 370.991 276.514 371.346 276.972C371.758 276.566 371.96 276.356 372.362 275.921C372.39 275.03 372.39 274.587 372.362 273.696C371.964 273.261 371.758 273.051 371.346 272.645C370.991 273.092 370.81 273.317 370.435 273.75Z" fill="white"/>
<path d="M372.045 269.544C372.184 270.487 372.236 270.958 372.311 271.906C372.76 272.346 372.979 272.574 373.409 273.046C373.797 272.536 373.984 272.275 374.354 271.739C374.274 270.735 374.217 270.231 374.074 269.236C373.592 268.797 373.352 268.587 372.863 268.18C372.544 268.742 372.381 269.013 372.045 269.544Z" fill="white"/>
<path d="M373.156 264.979C373.422 265.978 373.539 266.482 373.735 267.495C374.245 267.919 374.498 268.14 374.997 268.592C375.33 267.999 375.488 267.696 375.796 267.079C375.587 266.011 375.465 265.478 375.185 264.424C374.637 264.007 374.362 263.807 373.805 263.424C373.558 264.059 373.427 264.367 373.156 264.979Z" fill="white"/>
<path d="M373.714 260.11C374.111 261.109 374.288 261.613 374.615 262.636C375.172 263.017 375.447 263.214 375.99 263.629C376.237 262.984 376.354 262.658 376.579 261.991C376.237 260.917 376.046 260.385 375.63 259.329C375.036 258.962 374.741 258.783 374.142 258.442C373.984 259.124 373.9 259.456 373.714 260.11Z" fill="white"/>
<path d="M373.647 254.997C374.156 255.945 374.395 256.426 374.839 257.398C375.413 257.72 375.704 257.887 376.269 258.238C376.419 257.579 376.485 257.248 376.607 256.57C376.139 255.554 375.89 255.049 375.354 254.054C374.745 253.746 374.437 253.602 373.824 253.322C373.768 254.004 373.73 254.34 373.647 254.997Z" fill="white"/>
<path d="M372.882 249.713C373.479 250.558 373.759 250.987 374.302 251.861C374.873 252.113 375.157 252.243 375.723 252.518C375.766 251.889 375.784 251.572 375.802 250.927C375.242 250.017 374.948 249.568 374.325 248.691C373.728 248.457 373.427 248.345 372.825 248.135C372.858 248.775 372.867 249.088 372.882 249.713Z" fill="white"/>
<path d="M371.347 244.339C371.984 245.04 372.287 245.395 372.882 246.122C373.409 246.296 373.676 246.388 374.203 246.58C374.152 246.021 374.125 245.741 374.055 245.17C373.442 244.419 373.129 244.05 372.475 243.326C371.923 243.168 371.648 243.093 371.091 242.953C371.203 243.513 371.253 243.789 371.347 244.339Z" fill="white"/>
<path d="M369.006 238.966C369.598 239.479 369.889 239.736 370.454 240.268C370.898 240.366 371.119 240.418 371.563 240.526C371.446 240.086 371.385 239.867 371.258 239.423C370.679 238.877 370.385 238.611 369.777 238.087C369.318 238 369.09 237.962 368.632 237.887C368.785 238.322 368.86 238.536 369.006 238.966Z" fill="white"/>
<path d="M365.909 233.7C366.28 233.952 366.466 234.079 366.831 234.335C367.084 234.363 367.214 234.377 367.467 234.409C367.359 234.18 367.303 234.065 367.19 233.835C366.821 233.573 366.64 233.448 366.261 233.195C366.003 233.171 365.873 233.159 365.615 233.135C365.733 233.359 365.794 233.476 365.909 233.7Z" fill="white"/>
<path d="M361.84 228.596L361.896 228.624C361.901 228.62 361.901 228.62 361.906 228.61L361.901 228.601C361.891 228.596 361.882 228.592 361.868 228.587H361.84C361.84 228.592 361.84 228.592 361.84 228.596Z" fill="white"/>
<path d="M357.156 291.556L357.118 291.598C357.123 291.607 357.123 291.607 357.128 291.617H357.16C357.17 291.607 357.174 291.603 357.179 291.593L357.174 291.56C357.165 291.56 357.165 291.56 357.156 291.556Z" fill="white"/>
<path d="M360.605 289.777C360.461 290.001 360.39 290.109 360.24 290.333C360.282 290.525 360.306 290.617 360.343 290.814C360.539 290.786 360.633 290.772 360.83 290.739C360.983 290.516 361.058 290.398 361.204 290.17C361.157 289.978 361.133 289.881 361.082 289.693C360.891 289.726 360.797 289.744 360.605 289.777Z" fill="white"/>
<path d="M363.905 287.495C363.7 287.929 363.592 288.148 363.368 288.573C363.475 288.905 363.521 289.072 363.62 289.408C363.956 289.316 364.125 289.264 364.457 289.156C364.69 288.709 364.802 288.484 365.018 288.032C364.901 287.696 364.845 287.531 364.718 287.206C364.391 287.326 364.232 287.383 363.905 287.495Z" fill="white"/>
<path d="M367.005 284.736C366.799 285.362 366.692 285.67 366.453 286.282C366.631 286.706 366.714 286.92 366.874 287.355C367.295 287.169 367.506 287.07 367.926 286.865C368.174 286.221 368.291 285.894 368.505 285.24C368.314 284.81 368.211 284.6 368.005 284.184C367.607 284.419 367.412 284.525 367.005 284.736Z" fill="white"/>
<path d="M369.832 281.467C369.673 282.262 369.58 282.658 369.374 283.443C369.626 283.932 369.748 284.18 369.987 284.69C370.458 284.395 370.693 284.245 371.16 283.928C371.379 283.102 371.473 282.681 371.642 281.846C371.36 281.352 371.221 281.108 370.926 280.637C370.491 280.978 370.272 281.145 369.832 281.467Z" fill="white"/>
<path d="M372.315 277.699C372.24 278.642 372.183 279.115 372.049 280.053C372.385 280.585 372.548 280.856 372.862 281.411C373.352 281.006 373.591 280.795 374.068 280.361C374.212 279.367 374.268 278.872 374.353 277.873C373.984 277.341 373.796 277.08 373.413 276.57C372.978 277.038 372.759 277.261 372.315 277.699Z" fill="white"/>
<path d="M374.371 273.461C374.409 274.531 374.409 275.067 374.371 276.142C374.792 276.692 374.992 276.977 375.389 277.56C375.866 277.043 376.101 276.775 376.559 276.22C376.601 275.086 376.601 274.517 376.559 273.383C376.101 272.831 375.866 272.56 375.394 272.042C374.992 272.63 374.787 272.91 374.371 273.461Z" fill="white"/>
<path d="M375.957 268.825C376.131 269.974 376.196 270.553 376.284 271.71C376.775 272.252 377.019 272.532 377.49 273.11C377.915 272.494 378.122 272.177 378.524 271.534C378.43 270.311 378.359 269.699 378.178 268.484C377.64 267.947 377.369 267.686 376.817 267.182C376.49 267.85 376.317 268.18 375.957 268.825Z" fill="white"/>
<path d="M377.022 263.845C377.335 265.002 377.465 265.586 377.695 266.762C378.242 267.261 378.508 267.524 379.037 268.06C379.378 267.383 379.541 267.037 379.85 266.333C379.611 265.096 379.472 264.48 379.139 263.257C378.551 262.766 378.252 262.528 377.653 262.07C377.42 262.794 377.288 263.149 377.022 263.845Z" fill="white"/>
<path d="M377.484 258.574C377.924 259.68 378.126 260.244 378.485 261.375C379.061 261.813 379.346 262.037 379.907 262.509C380.14 261.809 380.253 261.453 380.458 260.731C380.079 259.545 379.87 258.957 379.411 257.794C378.794 257.37 378.485 257.163 377.863 256.777C377.728 257.499 377.653 257.864 377.484 258.574Z" fill="white"/>
<path d="M377.279 253.065C377.822 254.068 378.074 254.578 378.546 255.613C379.125 255.968 379.411 256.156 379.98 256.542C380.102 255.862 380.159 255.516 380.253 254.82C379.762 253.746 379.496 253.214 378.934 252.169C378.321 251.828 378.013 251.659 377.397 251.346C377.364 252.038 377.34 252.383 377.279 253.065Z" fill="white"/>
<path d="M376.34 247.406C376.939 248.256 377.224 248.69 377.766 249.568C378.312 249.834 378.584 249.975 379.126 250.264C379.14 249.648 379.144 249.335 379.135 248.709C378.575 247.804 378.275 247.355 377.658 246.477C377.083 246.225 376.798 246.103 376.223 245.87C376.284 246.487 376.307 246.795 376.34 247.406Z" fill="white"/>
<path d="M374.596 241.674C375.181 242.328 375.465 242.659 376.017 243.33C376.494 243.504 376.727 243.598 377.204 243.784C377.134 243.28 377.097 243.027 377.014 242.518C376.447 241.827 376.153 241.486 375.554 240.82C375.063 240.656 374.816 240.576 374.32 240.427C374.442 240.926 374.494 241.178 374.596 241.674Z" fill="white"/>
<path d="M372.068 235.982C372.511 236.37 372.727 236.566 373.157 236.963C373.479 237.043 373.643 237.085 373.966 237.173C373.867 236.857 373.815 236.697 373.709 236.38C373.274 235.978 373.054 235.777 372.605 235.385C372.273 235.311 372.109 235.274 371.777 235.203C371.895 235.511 371.956 235.669 372.068 235.982Z" fill="white"/>
<path d="M368.818 230.422C368.869 230.455 368.893 230.474 368.944 230.511C368.977 230.516 368.996 230.521 369.029 230.525C369.015 230.497 369.005 230.478 368.987 230.45C368.935 230.413 368.911 230.4 368.86 230.363C368.827 230.358 368.808 230.358 368.775 230.353C368.794 230.381 368.799 230.396 368.818 230.422Z" fill="white"/>
<path d="M356.338 295.3L356.263 295.366C356.267 295.38 356.267 295.38 356.272 295.394L356.324 295.399C356.338 295.385 356.347 295.38 356.361 295.366V295.314C356.352 295.305 356.352 295.305 356.338 295.3Z" fill="white"/>
<path d="M360.212 293.699C360.012 293.938 359.909 294.059 359.702 294.292C359.716 294.512 359.721 294.623 359.726 294.844C359.951 294.83 360.059 294.82 360.282 294.801C360.498 294.559 360.6 294.437 360.806 294.195C360.792 293.969 360.783 293.863 360.759 293.644C360.544 293.666 360.433 293.675 360.212 293.699Z" fill="white"/>
<path d="M363.951 291.603C363.666 292.056 363.516 292.28 363.208 292.724C363.264 293.092 363.288 293.275 363.33 293.649C363.699 293.574 363.881 293.536 364.25 293.452C364.573 292.99 364.727 292.756 365.022 292.285C364.957 291.911 364.919 291.725 364.844 291.36C364.489 291.464 364.311 291.511 363.951 291.603Z" fill="white"/>
<path d="M367.496 288.985C367.191 289.638 367.033 289.961 366.692 290.594C366.808 291.066 366.86 291.309 366.958 291.795C367.426 291.636 367.654 291.551 368.122 291.37C368.477 290.702 368.646 290.361 368.963 289.679C368.827 289.199 368.759 288.961 368.604 288.489C368.164 288.7 367.945 288.797 367.496 288.985Z" fill="white"/>
<path d="M370.782 285.823C370.509 286.659 370.361 287.075 370.037 287.896C370.225 288.446 370.319 288.728 370.481 289.297C371.005 289.031 371.266 288.895 371.79 288.601C372.131 287.738 372.286 287.298 372.571 286.416C372.357 285.856 372.239 285.581 372.006 285.04C371.52 285.367 371.271 285.525 370.782 285.823Z" fill="white"/>
<path d="M373.731 282.121C373.536 283.13 373.418 283.629 373.152 284.624C373.423 285.231 373.554 285.543 373.797 286.174C374.354 285.791 374.624 285.595 375.172 285.179C375.452 284.13 375.574 283.601 375.785 282.537C375.48 281.921 375.317 281.622 374.989 281.03C374.494 281.482 374.241 281.696 373.731 282.121Z" fill="white"/>
<path d="M376.284 277.906C376.196 279.059 376.131 279.633 375.957 280.776C376.312 281.416 376.486 281.747 376.817 282.415C377.369 281.916 377.64 281.66 378.173 281.122C378.355 279.913 378.425 279.306 378.519 278.087C378.122 277.443 377.915 277.125 377.49 276.514C377.014 277.088 376.775 277.365 376.284 277.906Z" fill="white"/>
<path d="M378.363 273.218C378.41 274.484 378.41 275.119 378.363 276.389C378.807 277.043 379.023 277.374 379.439 278.059C379.952 277.448 380.206 277.13 380.697 276.476C380.749 275.137 380.749 274.465 380.697 273.125C380.206 272.472 379.952 272.159 379.439 271.543C379.023 272.233 378.803 272.569 378.363 273.218Z" fill="white"/>
<path d="M379.976 268.195C380.168 269.469 380.238 270.109 380.335 271.393C380.836 272 381.08 272.313 381.557 272.953C381.982 272.275 382.187 271.925 382.584 271.216C382.481 269.867 382.406 269.189 382.206 267.851C381.659 267.248 381.379 266.957 380.812 266.393C380.495 267.126 380.328 267.486 379.976 268.195Z" fill="white"/>
<path d="M381.009 262.813C381.336 264.036 381.476 264.652 381.719 265.894C382.252 266.43 382.518 266.706 383.037 267.28C383.35 266.571 383.505 266.212 383.79 265.478C383.538 264.181 383.388 263.532 383.047 262.253C382.467 261.726 382.172 261.468 381.583 260.973C381.369 261.721 381.251 262.089 381.009 262.813Z" fill="white"/>
<path d="M381.384 257.125C381.828 258.251 382.028 258.821 382.399 259.969C382.945 260.422 383.222 260.655 383.753 261.136C383.955 260.437 384.044 260.081 384.216 259.367C383.833 258.172 383.624 257.579 383.161 256.412C382.576 255.968 382.277 255.758 381.683 255.342C381.579 256.062 381.52 256.417 381.384 257.125Z" fill="white"/>
<path d="M381.052 251.221C381.566 252.188 381.813 252.677 382.272 253.672C382.8 254.027 383.062 254.209 383.586 254.587C383.668 253.943 383.706 253.62 383.767 252.967C383.295 251.939 383.043 251.435 382.509 250.436C381.954 250.095 381.673 249.928 381.108 249.61C381.099 250.255 381.085 250.577 381.052 251.221Z" fill="white"/>
<path d="M379.943 245.174C380.472 245.936 380.725 246.319 381.215 247.098C381.682 247.345 381.917 247.472 382.385 247.738C382.375 247.201 382.361 246.931 382.338 246.388C381.837 245.59 381.574 245.193 381.033 244.414C380.547 244.176 380.3 244.059 379.809 243.84C379.874 244.377 379.898 244.647 379.943 245.174Z" fill="white"/>
<path d="M378.06 239.106C378.485 239.583 378.69 239.825 379.097 240.315C379.435 240.451 379.602 240.521 379.938 240.66C379.874 240.3 379.837 240.124 379.766 239.764C379.355 239.27 379.139 239.021 378.709 238.536C378.363 238.405 378.191 238.345 377.846 238.223C377.933 238.574 377.98 238.75 378.06 239.106Z" fill="white"/>
<path d="M375.531 233.131C375.597 233.186 375.625 233.214 375.691 233.275C375.738 233.289 375.761 233.294 375.807 233.308C375.79 233.261 375.785 233.242 375.766 233.195C375.7 233.14 375.672 233.112 375.607 233.051C375.56 233.037 375.536 233.032 375.489 233.018C375.503 233.065 375.513 233.089 375.531 233.131Z" fill="white"/>
<path d="M354.756 299.157L354.706 299.193C354.706 299.203 354.706 299.203 354.711 299.212L354.742 299.217C354.756 299.207 354.761 299.203 354.775 299.193L354.78 299.171C354.765 299.162 354.765 299.162 354.756 299.157Z" fill="white"/>
<path d="M359.123 297.84C358.889 298.054 358.773 298.162 358.533 298.367C358.51 298.577 358.496 298.685 358.468 298.899C358.684 298.904 358.796 298.904 359.011 298.904C359.255 298.689 359.375 298.582 359.614 298.363C359.633 298.148 359.642 298.04 359.661 297.831C359.445 297.831 359.337 297.836 359.123 297.84Z" fill="white"/>
<path d="M363.345 295.963C362.99 296.398 362.802 296.613 362.424 297.033C362.419 297.406 362.414 297.598 362.396 297.975C362.774 297.934 362.966 297.911 363.345 297.854C363.737 297.415 363.928 297.196 364.297 296.742C364.293 296.361 364.283 296.168 364.269 295.796C363.9 295.87 363.714 295.903 363.345 295.963Z" fill="white"/>
<path d="M367.369 293.55C366.972 294.19 366.761 294.502 366.326 295.123C366.368 295.618 366.382 295.865 366.406 296.365C366.892 296.243 367.135 296.178 367.621 296.038C368.075 295.389 368.295 295.062 368.711 294.395C368.65 293.891 368.613 293.644 368.533 293.148C368.07 293.322 367.837 293.4 367.369 293.55Z" fill="white"/>
<path d="M371.142 290.558C370.758 291.388 370.552 291.804 370.117 292.612C370.225 293.195 370.272 293.489 370.356 294.086C370.912 293.868 371.193 293.746 371.744 293.498C372.202 292.649 372.418 292.214 372.82 291.342C372.684 290.749 372.613 290.455 372.455 289.876C371.932 290.161 371.669 290.295 371.142 290.558Z" fill="white"/>
<path d="M374.61 286.985C374.288 287.999 374.111 288.498 373.719 289.488C373.9 290.137 373.985 290.469 374.139 291.136C374.732 290.8 375.026 290.627 375.611 290.259C376.023 289.217 376.213 288.69 376.551 287.625C376.331 286.967 376.213 286.64 375.971 286C375.433 286.411 375.158 286.607 374.61 286.985Z" fill="white"/>
<path d="M377.691 282.855C377.461 284.026 377.331 284.605 377.019 285.758C377.284 286.454 377.411 286.804 377.649 287.522C378.248 287.07 378.547 286.832 379.13 286.341C379.459 285.127 379.598 284.516 379.837 283.283C379.527 282.579 379.365 282.239 379.028 281.561C378.5 282.098 378.234 282.354 377.691 282.855Z" fill="white"/>
<path d="M380.335 278.228C380.238 279.508 380.163 280.147 379.971 281.411C380.323 282.117 380.49 282.476 380.807 283.21C381.374 282.648 381.649 282.359 382.196 281.757C382.398 280.423 382.472 279.75 382.58 278.405C382.182 277.695 381.977 277.351 381.557 276.674C381.08 277.313 380.836 277.621 380.335 278.228Z" fill="white"/>
<path d="M382.501 273.162C382.548 274.474 382.548 275.133 382.501 276.45C382.917 277.121 383.119 277.467 383.511 278.172C383.998 277.532 384.236 277.205 384.699 276.533C384.75 275.156 384.75 274.465 384.699 273.089C384.236 272.416 383.998 272.089 383.511 271.445C383.123 272.15 382.917 272.49 382.501 273.162Z" fill="white"/>
<path d="M384.113 267.7C384.301 268.984 384.376 269.629 384.478 270.922C384.941 271.534 385.171 271.847 385.615 272.49C385.998 271.809 386.184 271.464 386.544 270.753C386.438 269.404 386.362 268.733 386.165 267.392C385.657 266.785 385.399 266.487 384.872 265.913C384.581 266.637 384.428 266.995 384.113 267.7Z" fill="white"/>
<path d="M385.1 261.884C385.412 263.074 385.549 263.671 385.791 264.876C386.277 265.404 386.521 265.675 386.992 266.226C387.26 265.544 387.385 265.198 387.633 264.497C387.385 263.248 387.241 262.627 386.919 261.389C386.395 260.87 386.127 260.618 385.591 260.124C385.403 260.837 385.309 261.192 385.1 261.884Z" fill="white"/>
<path d="M385.403 255.787C385.805 256.817 385.988 257.341 386.334 258.391C386.811 258.816 387.049 259.031 387.516 259.475C387.667 258.845 387.737 258.522 387.862 257.878C387.507 256.796 387.316 256.258 386.905 255.189C386.4 254.773 386.142 254.573 385.629 254.18C385.553 254.83 385.507 255.152 385.403 255.787Z" fill="white"/>
<path d="M384.963 249.484C385.393 250.302 385.599 250.711 385.992 251.548C386.417 251.852 386.632 252.01 387.053 252.327C387.099 251.795 387.118 251.529 387.146 250.991C386.744 250.137 386.533 249.718 386.095 248.881C385.651 248.583 385.426 248.439 384.972 248.154C384.977 248.686 384.972 248.952 384.963 249.484Z" fill="white"/>
<path d="M383.786 243.097C384.127 243.603 384.296 243.854 384.622 244.363C384.921 244.532 385.071 244.615 385.365 244.793C385.342 244.447 385.328 244.274 385.295 243.928C384.963 243.41 384.796 243.154 384.446 242.645C384.136 242.481 383.987 242.401 383.678 242.243C383.729 242.584 383.748 242.752 383.786 243.097Z" fill="white"/>
<path d="M381.94 236.739C381.983 236.786 382 236.81 382.042 236.857C382.075 236.869 382.089 236.874 382.122 236.888C382.113 236.857 382.108 236.838 382.098 236.805C382.056 236.758 382.037 236.735 381.995 236.683C381.964 236.669 381.95 236.664 381.917 236.65C381.926 236.688 381.931 236.706 381.94 236.739Z" fill="white"/>
<path d="M352.354 302.97L352.335 302.98C352.335 302.98 352.335 302.98 352.335 302.985H352.344C352.349 302.985 352.349 302.98 352.354 302.98V302.97C352.359 302.97 352.359 302.97 352.354 302.97Z" fill="white"/>
<path d="M357.207 302.131C357.005 302.275 356.902 302.345 356.693 302.481C356.646 302.634 356.622 302.709 356.575 302.864C356.739 302.877 356.818 302.886 356.982 302.895C357.193 302.756 357.295 302.681 357.501 302.537C357.543 302.382 357.567 302.303 357.609 302.149C357.445 302.149 357.365 302.145 357.207 302.131Z" fill="white"/>
<path d="M361.961 300.501C361.559 300.879 361.348 301.065 360.928 301.43C360.863 301.78 360.83 301.957 360.755 302.307C361.119 302.298 361.302 302.289 361.667 302.27C362.102 301.898 362.316 301.701 362.732 301.314C362.788 300.959 362.812 300.776 362.854 300.426C362.499 300.459 362.321 300.473 361.961 300.501Z" fill="white"/>
<path d="M366.504 298.363C366.032 298.941 365.785 299.226 365.28 299.788C365.247 300.263 365.223 300.501 365.167 300.987C365.649 300.912 365.886 300.865 366.373 300.771C366.902 300.193 367.153 299.894 367.649 299.292C367.668 298.807 367.673 298.565 367.673 298.083C367.205 298.205 366.972 298.261 366.504 298.363Z" fill="white"/>
<path d="M370.815 295.594C370.329 296.379 370.076 296.761 369.539 297.518C369.558 298.097 369.558 298.391 369.553 298.979C370.118 298.812 370.399 298.718 370.964 298.527C371.525 297.737 371.787 297.337 372.297 296.514C372.254 295.921 372.226 295.627 372.16 295.044C371.619 295.281 371.352 295.389 370.815 295.594Z" fill="white"/>
<path d="M374.825 292.224C374.386 293.186 374.146 293.661 373.643 294.599C373.727 295.253 373.763 295.585 373.819 296.253C374.428 295.977 374.731 295.832 375.335 295.529C375.862 294.549 376.111 294.049 376.574 293.042C376.456 292.374 376.386 292.042 376.241 291.393C375.681 291.739 375.394 291.906 374.825 292.224Z" fill="white"/>
<path d="M378.48 288.251C378.12 289.371 377.923 289.927 377.488 291.029C377.653 291.734 377.728 292.089 377.857 292.812C378.475 292.425 378.783 292.224 379.392 291.804C379.85 290.655 380.055 290.071 380.433 288.895C380.233 288.18 380.121 287.827 379.892 287.131C379.331 287.592 379.051 287.822 378.48 288.251Z" fill="white"/>
<path d="M381.715 283.728C381.473 284.965 381.332 285.576 381.005 286.795C381.247 287.514 381.36 287.882 381.574 288.625C382.164 288.134 382.458 287.877 383.034 287.355C383.374 286.08 383.525 285.436 383.776 284.142C383.492 283.415 383.342 283.055 383.029 282.35C382.51 282.919 382.248 283.196 381.715 283.728Z" fill="white"/>
<path d="M384.478 278.704C384.376 279.992 384.301 280.632 384.113 281.912C384.428 282.611 384.576 282.971 384.867 283.695C385.39 283.121 385.648 282.827 386.156 282.224C386.353 280.889 386.428 280.221 386.539 278.877C386.184 278.172 385.998 277.826 385.619 277.144C385.166 277.784 384.941 278.097 384.478 278.704Z" fill="white"/>
<path d="M386.703 273.218C386.741 274.488 386.741 275.123 386.703 276.394C387.072 277.043 387.251 277.37 387.601 278.041C388.031 277.42 388.241 277.102 388.647 276.455C388.69 275.133 388.69 274.47 388.647 273.153C388.236 272.504 388.031 272.186 387.601 271.565C387.255 272.242 387.072 272.574 386.703 273.218Z" fill="white"/>
<path d="M388.329 267.327C388.498 268.517 388.564 269.11 388.665 270.306C389.067 270.871 389.264 271.16 389.648 271.748C389.965 271.118 390.12 270.8 390.419 270.151C390.315 268.914 390.245 268.298 390.073 267.07C389.638 266.505 389.415 266.23 388.966 265.689C388.722 266.355 388.595 266.682 388.329 267.327Z" fill="white"/>
<path d="M389.298 261.091C389.564 262.126 389.686 262.648 389.9 263.7C390.302 264.163 390.504 264.396 390.892 264.876C391.092 264.288 391.186 263.989 391.373 263.387C391.153 262.309 391.028 261.771 390.756 260.703C390.325 260.244 390.111 260.021 389.672 259.581C389.531 260.19 389.456 260.493 389.298 261.091Z" fill="white"/>
<path d="M389.56 254.592C389.868 255.399 390.013 255.81 390.284 256.626C390.645 256.963 390.817 257.13 391.172 257.476C391.266 256.986 391.308 256.744 391.388 256.248C391.106 255.413 390.958 254.997 390.645 254.171C390.27 253.844 390.084 253.681 389.705 253.364C389.649 253.853 389.621 254.1 389.56 254.592Z" fill="white"/>
<path d="M389.157 247.98C389.378 248.41 389.484 248.625 389.691 249.055C389.905 249.217 390.013 249.297 390.229 249.46C390.238 249.189 390.243 249.055 390.246 248.779C390.036 248.345 389.928 248.126 389.709 247.696C389.489 247.538 389.378 247.458 389.157 247.303C389.157 247.575 389.157 247.71 389.157 247.98Z" fill="white"/>
<path d="M387.928 241.225L387.956 241.267C387.975 241.263 387.951 241.267 387.97 241.263V241.253C387.965 241.244 387.956 241.235 387.951 241.225L387.942 241.22C387.923 241.23 387.937 241.211 387.928 241.225Z" fill="white"/>
<path d="M354.318 306.43C354.219 306.482 354.168 306.505 354.069 306.557C354.036 306.616 354.022 306.649 353.989 306.71C354.06 306.72 354.092 306.729 354.163 306.738C354.261 306.687 354.313 306.663 354.41 306.612C354.443 306.552 354.457 306.519 354.485 306.458C354.419 306.444 354.387 306.44 354.318 306.43Z" fill="white"/>
<path d="M359.689 305.127C359.29 305.412 359.09 305.548 358.679 305.823C358.576 306.108 358.519 306.252 358.408 306.538C358.716 306.552 358.874 306.56 359.184 306.569C359.605 306.289 359.81 306.15 360.216 305.861C360.315 305.571 360.362 305.426 360.451 305.137C360.146 305.132 359.997 305.132 359.689 305.127Z" fill="white"/>
<path d="M364.803 303.321C364.288 303.806 364.022 304.045 363.479 304.507C363.378 304.932 363.321 305.146 363.204 305.576C363.653 305.544 363.872 305.525 364.326 305.478C364.887 304.998 365.158 304.754 365.691 304.255C365.78 303.82 365.818 303.601 365.891 303.168C365.453 303.232 365.237 303.265 364.803 303.321Z" fill="white"/>
<path d="M369.683 300.865C369.128 301.547 368.841 301.883 368.244 302.542C368.178 303.078 368.136 303.349 368.047 303.89C368.59 303.779 368.86 303.718 369.398 303.587C370.019 302.905 370.319 302.561 370.894 301.851C370.94 301.3 370.955 301.025 370.983 300.482C370.459 300.641 370.202 300.721 369.683 300.865Z" fill="white"/>
<path d="M374.278 297.761C373.744 298.624 373.46 299.049 372.872 299.885C372.862 300.506 372.848 300.818 372.811 301.444C373.403 301.239 373.704 301.127 374.292 300.894C374.905 300.025 375.199 299.581 375.756 298.685C375.737 298.05 375.723 297.737 375.681 297.112C375.124 297.382 374.839 297.514 374.278 297.761Z" fill="white"/>
<path d="M378.532 294.016C378.064 295.039 377.812 295.543 377.274 296.537C377.335 297.215 377.354 297.556 377.387 298.242C377.999 297.934 378.302 297.77 378.91 297.429C379.467 296.394 379.728 295.87 380.22 294.806C380.126 294.115 380.074 293.774 379.952 293.096C379.387 293.48 379.106 293.661 378.532 294.016Z" fill="white"/>
<path d="M382.389 289.666C382.024 290.8 381.823 291.365 381.384 292.475C381.52 293.176 381.575 293.526 381.683 294.241C382.272 293.835 382.566 293.62 383.147 293.186C383.605 292.028 383.81 291.445 384.193 290.264C384.026 289.554 383.932 289.203 383.735 288.507C383.203 288.989 382.931 289.217 382.389 289.666Z" fill="white"/>
<path d="M385.786 284.75C385.549 285.95 385.408 286.547 385.1 287.728C385.305 288.42 385.398 288.768 385.581 289.474C386.118 288.984 386.381 288.732 386.905 288.218C387.227 286.99 387.371 286.369 387.619 285.127C387.375 284.433 387.25 284.087 386.983 283.41C386.512 283.956 386.273 284.222 385.786 284.75Z" fill="white"/>
<path d="M388.666 279.31C388.565 280.505 388.499 281.103 388.325 282.29C388.588 282.933 388.718 283.26 388.962 283.923C389.411 283.382 389.634 283.107 390.069 282.547C390.243 281.319 390.316 280.703 390.42 279.465C390.121 278.816 389.966 278.494 389.653 277.868C389.265 278.457 389.063 278.746 388.666 279.31Z" fill="white"/>
<path d="M390.967 273.414C390.995 274.531 390.995 275.091 390.967 276.206C391.266 276.772 391.416 277.061 391.7 277.645C392.041 277.093 392.21 276.817 392.542 276.248C392.57 275.1 392.57 274.521 392.542 273.373C392.215 272.807 392.046 272.527 391.7 271.977C391.416 272.56 391.27 272.849 390.967 273.414Z" fill="white"/>
<path d="M392.636 267.107C392.766 268.074 392.817 268.559 392.906 269.53C393.214 269.993 393.365 270.226 393.663 270.697C393.893 270.189 394.004 269.927 394.22 269.404C394.131 268.41 394.075 267.915 393.94 266.926C393.612 266.468 393.444 266.239 393.108 265.795C392.925 266.324 392.831 266.585 392.636 267.107Z" fill="white"/>
<path d="M393.63 260.488C393.808 261.201 393.893 261.561 394.041 262.285C394.309 262.603 394.439 262.766 394.697 263.092C394.812 262.69 394.869 262.486 394.977 262.079C394.817 261.347 394.734 260.982 394.556 260.254C394.281 259.936 394.14 259.783 393.86 259.47C393.775 259.877 393.728 260.082 393.63 260.488Z" fill="white"/>
<path d="M394.079 253.783C394.159 253.999 394.196 254.105 394.271 254.321C394.365 254.409 394.406 254.451 394.5 254.54C394.514 254.413 394.523 254.349 394.537 254.223C394.462 254.008 394.425 253.9 394.347 253.686C394.253 253.597 394.206 253.555 394.117 253.466C394.098 253.592 394.093 253.658 394.079 253.783Z" fill="white"/>
<path d="M350.457 310.427L350.415 310.441C350.415 310.45 350.415 310.45 350.415 310.455L350.424 310.459C350.434 310.455 350.439 310.455 350.448 310.45L350.462 310.431C350.462 310.431 350.462 310.431 350.457 310.427Z" fill="white"/>
<path d="M356.338 309.824C356.094 309.949 355.969 310.015 355.721 310.142C355.636 310.286 355.599 310.356 355.516 310.501C355.683 310.52 355.767 310.53 355.932 310.548C356.183 310.422 356.305 310.356 356.553 310.231C356.632 310.085 356.675 310.01 356.75 309.866C356.59 309.848 356.506 309.838 356.338 309.824Z" fill="white"/>
<path d="M362.13 308.34C361.644 308.69 361.395 308.858 360.891 309.194C360.751 309.526 360.676 309.693 360.525 310.025C360.896 310.025 361.082 310.025 361.451 310.02C361.971 309.679 362.222 309.502 362.723 309.147C362.854 308.806 362.92 308.639 363.036 308.298C362.671 308.317 362.49 308.326 362.13 308.34Z" fill="white"/>
<path d="M367.625 306.261C367.056 306.799 366.76 307.065 366.158 307.583C366.027 308.037 365.956 308.265 365.808 308.717C366.289 308.662 366.527 308.629 367.009 308.559C367.63 308.027 367.93 307.757 368.518 307.2C368.635 306.734 368.687 306.505 368.784 306.042C368.323 306.136 368.088 306.183 367.625 306.261Z" fill="white"/>
<path d="M372.849 303.507C372.269 304.222 371.965 304.572 371.343 305.254C371.25 305.795 371.203 306.066 371.091 306.612C371.634 306.477 371.904 306.402 372.447 306.244C373.091 305.534 373.399 305.174 373.998 304.436C374.069 303.881 374.097 303.605 374.147 303.055C373.629 303.25 373.367 303.34 372.849 303.507Z" fill="white"/>
<path d="M377.743 300.063C377.205 300.931 376.92 301.355 376.33 302.196C376.298 302.798 376.274 303.107 376.218 303.713C376.789 303.485 377.073 303.368 377.64 303.116C378.253 302.248 378.542 301.808 379.097 300.912C379.107 300.296 379.102 299.988 379.089 299.376C378.551 299.666 378.279 299.802 377.743 300.063Z" fill="white"/>
<path d="M382.253 295.963C381.799 296.944 381.557 297.429 381.047 298.382C381.08 299.017 381.089 299.334 381.098 299.978C381.654 299.661 381.935 299.497 382.486 299.162C383.014 298.172 383.262 297.671 383.734 296.659C383.673 296.015 383.637 295.693 383.557 295.058C383.038 295.432 382.777 295.613 382.253 295.963Z" fill="white"/>
<path d="M386.32 291.234C385.979 292.28 385.792 292.798 385.395 293.825C385.493 294.456 385.54 294.778 385.62 295.418C386.133 295.03 386.386 294.829 386.891 294.418C387.303 293.358 387.494 292.826 387.844 291.748C387.719 291.108 387.648 290.791 387.498 290.161C387.035 290.599 386.798 290.814 386.32 291.234Z" fill="white"/>
<path d="M389.89 285.931C389.676 286.971 389.554 287.491 389.293 288.521C389.451 289.114 389.521 289.413 389.662 290.015C390.097 289.582 390.311 289.358 390.737 288.905C391.009 287.844 391.134 287.312 391.354 286.239C391.171 285.642 391.078 285.348 390.877 284.758C390.489 285.24 390.292 285.473 389.89 285.931Z" fill="white"/>
<path d="M392.906 280.105C392.817 281.067 392.761 281.547 392.631 282.509C392.826 283.027 392.92 283.284 393.103 283.812C393.439 283.368 393.602 283.144 393.931 282.691C394.06 281.71 394.117 281.216 394.211 280.23C393.995 279.713 393.884 279.456 393.658 278.946C393.364 279.419 393.214 279.647 392.906 280.105Z" fill="white"/>
<path d="M395.313 273.811C395.328 274.615 395.328 275.015 395.313 275.819C395.515 276.224 395.617 276.431 395.809 276.841C396.033 276.445 396.141 276.243 396.357 275.838C396.371 275.02 396.371 274.61 396.357 273.792C396.141 273.387 396.028 273.185 395.809 272.788C395.612 273.199 395.515 273.404 395.313 273.811Z" fill="white"/>
<path d="M397.156 267.266C397.208 267.691 397.231 267.905 397.277 268.331C397.408 268.531 397.469 268.634 397.6 268.839C397.688 268.615 397.73 268.503 397.815 268.274C397.768 267.846 397.744 267.63 397.693 267.201C397.563 267 397.493 266.898 397.361 266.701C397.277 266.926 397.236 267.037 397.156 267.266Z" fill="white"/>
<path d="M398.244 260.287L398.272 260.413C398.296 260.413 398.268 260.413 398.291 260.413L398.305 260.362C398.3 260.338 398.296 260.315 398.286 260.291L398.272 260.272C398.258 260.277 398.263 260.277 398.244 260.287Z" fill="white"/>
<path d="M351.872 314.232L351.775 314.268C351.775 314.287 351.775 314.282 351.78 314.301H351.799C351.818 314.291 351.836 314.287 351.854 314.282L351.882 314.244C351.877 314.235 351.877 314.235 351.872 314.232Z" fill="white"/>
<path d="M358.263 313.409C357.993 313.55 357.857 313.62 357.586 313.755C357.492 313.905 357.445 313.979 357.347 314.129C357.525 314.143 357.619 314.147 357.796 314.162C358.071 314.021 358.207 313.95 358.482 313.811C358.576 313.656 358.623 313.583 358.712 313.428C358.534 313.423 358.446 313.419 358.263 313.409Z" fill="white"/>
<path d="M364.508 311.706C364.017 312.056 363.77 312.224 363.265 312.56C363.115 312.877 363.035 313.035 362.877 313.353C363.237 313.339 363.413 313.33 363.775 313.312C364.288 312.971 364.541 312.793 365.042 312.438C365.181 312.111 365.251 311.953 365.387 311.626C365.037 311.659 364.859 311.678 364.508 311.706Z" fill="white"/>
<path d="M370.409 309.357C369.857 309.876 369.572 310.128 368.996 310.627C368.856 311.047 368.785 311.257 368.632 311.678C369.076 311.603 369.3 311.565 369.749 311.481C370.343 310.972 370.632 310.711 371.199 310.179C371.324 309.749 371.385 309.535 371.497 309.105C371.058 309.217 370.842 309.264 370.409 309.357Z" fill="white"/>
<path d="M375.984 306.304C375.441 306.962 375.166 307.284 374.59 307.924C374.493 308.409 374.437 308.653 374.324 309.142C374.806 308.999 375.048 308.919 375.53 308.759C376.12 308.105 376.404 307.775 376.957 307.103C377.039 306.607 377.077 306.36 377.143 305.866C376.68 306.047 376.447 306.136 375.984 306.304Z" fill="white"/>
<path d="M381.187 302.533C380.707 303.297 380.454 303.681 379.934 304.427C379.889 304.951 379.861 305.212 379.8 305.744C380.282 305.525 380.524 305.412 381.006 305.179C381.539 304.413 381.796 304.022 382.291 303.236C382.32 302.705 382.329 302.439 382.343 301.912C381.88 302.163 381.65 302.289 381.187 302.533Z" fill="white"/>
<path d="M385.969 298.092C385.581 298.913 385.38 299.32 384.954 300.122C384.963 300.646 384.968 300.908 384.963 301.435C385.408 301.155 385.628 301.016 386.068 300.721C386.503 299.899 386.707 299.48 387.105 298.643C387.077 298.116 387.058 297.85 387.011 297.327C386.6 297.64 386.39 297.793 385.969 298.092Z" fill="white"/>
<path d="M390.269 293.009C389.999 293.82 389.853 294.227 389.55 295.025C389.615 295.51 389.644 295.754 389.695 296.243C390.069 295.93 390.255 295.768 390.631 295.446C390.943 294.628 391.087 294.213 391.369 293.386C391.289 292.896 391.247 292.654 391.158 292.167C390.798 292.508 390.621 292.677 390.269 293.009Z" fill="white"/>
<path d="M394.036 287.355C393.883 288.07 393.803 288.425 393.625 289.133C393.724 289.535 393.766 289.735 393.86 290.142C394.135 289.834 394.276 289.679 394.546 289.366C394.725 288.648 394.807 288.284 394.962 287.56C394.854 287.159 394.798 286.958 394.687 286.557C394.429 286.879 394.299 287.037 394.036 287.355Z" fill="white"/>
<path d="M397.272 281.31C397.231 281.729 397.203 281.94 397.156 282.354C397.236 282.58 397.272 282.691 397.352 282.914C397.483 282.719 397.549 282.62 397.679 282.425C397.73 282.004 397.754 281.79 397.801 281.371C397.716 281.145 397.676 281.039 397.591 280.814C397.464 281.011 397.399 281.108 397.272 281.31Z" fill="white"/>
<path d="M399.876 274.881L399.914 274.959L399.951 274.881C399.951 274.834 399.951 274.797 399.951 274.755L399.914 274.675L399.876 274.755C399.876 274.797 399.876 274.834 399.876 274.881Z" fill="white"/>
<path d="M353.219 318.078L353.167 318.097C353.167 318.102 353.167 318.102 353.167 318.106L353.19 318.111C353.2 318.106 353.209 318.102 353.219 318.102L353.228 318.092C353.223 318.083 353.223 318.083 353.219 318.078Z" fill="white"/>
<path d="M360.059 317.196C359.914 317.271 359.839 317.307 359.693 317.382C359.643 317.457 359.615 317.499 359.563 317.574C359.657 317.579 359.703 317.579 359.797 317.584C359.942 317.509 360.017 317.471 360.161 317.396C360.213 317.316 360.241 317.28 360.292 317.205C360.198 317.2 360.152 317.2 360.059 317.196Z" fill="white"/>
<path d="M366.752 315.328C366.43 315.557 366.267 315.669 365.934 315.893C365.832 316.093 365.781 316.196 365.673 316.397C365.901 316.379 366.019 316.37 366.248 316.347C366.58 316.121 366.747 316.006 367.076 315.776C367.173 315.571 367.224 315.468 367.318 315.267C367.095 315.291 366.982 315.305 366.752 315.328Z" fill="white"/>
<path d="M373.101 312.691C372.699 313.063 372.492 313.246 372.076 313.611C371.97 313.905 371.913 314.054 371.801 314.348C372.114 314.282 372.268 314.244 372.577 314.176C372.997 313.806 373.204 313.62 373.615 313.242C373.718 312.943 373.764 312.793 373.858 312.494C373.559 312.579 373.404 312.616 373.101 312.691Z" fill="white"/>
<path d="M379.056 309.338C378.669 309.806 378.467 310.034 378.065 310.492C377.985 310.829 377.943 310.996 377.858 311.337C378.192 311.22 378.354 311.16 378.683 311.038C379.094 310.575 379.294 310.337 379.692 309.867C379.762 309.526 379.795 309.352 379.86 309.013C379.537 309.143 379.379 309.208 379.056 309.338Z" fill="white"/>
<path d="M384.59 305.296C384.277 305.781 384.118 306.024 383.791 306.501C383.753 306.828 383.735 306.99 383.692 307.317C383.988 307.169 384.132 307.089 384.423 306.934C384.754 306.449 384.912 306.207 385.231 305.711C385.26 305.379 385.274 305.217 385.296 304.89C385.016 305.057 384.876 305.137 384.59 305.296Z" fill="white"/>
<path d="M389.666 300.609C389.469 301.015 389.372 301.216 389.166 301.613C389.166 301.865 389.166 301.995 389.161 302.248C389.368 302.102 389.469 302.027 389.676 301.879C389.881 301.472 389.984 301.272 390.181 300.865C390.176 300.609 390.172 300.482 390.167 300.23C389.97 300.385 389.871 300.459 389.666 300.609Z" fill="white"/>
<path d="M394.253 295.328C394.182 295.528 394.145 295.627 394.074 295.827C394.088 295.944 394.093 296.005 394.107 296.121C394.192 296.043 394.238 296.001 394.323 295.916C394.396 295.716 394.429 295.618 394.5 295.417C394.486 295.3 394.476 295.239 394.462 295.123C394.378 295.206 394.337 295.244 394.253 295.328Z" fill="white"/>
<path d="M398.258 289.26L398.234 289.354C398.248 289.361 398.23 289.354 398.248 289.358L398.272 289.325C398.277 289.307 398.281 289.293 398.286 289.274L398.281 289.26C398.248 289.26 398.286 289.26 398.258 289.26Z" fill="white"/>
<path d="M361.839 320.978L361.806 320.995C361.806 321 361.806 320.995 361.806 321H361.82C361.825 320.995 361.829 320.995 361.834 320.99L361.839 320.978C361.844 320.983 361.839 320.978 361.839 320.978Z" fill="white"/>
<path d="M368.794 319.17L368.763 319.231L368.832 319.221C368.86 319.202 368.888 319.184 368.916 319.16L368.949 319.101L368.878 319.11C368.85 319.134 368.822 319.151 368.794 319.17Z" fill="white"/>
<path d="M375.512 316.462L375.475 316.561L375.578 316.532C375.62 316.495 375.653 316.462 375.695 316.429L375.733 316.332L375.629 316.36C375.587 316.396 375.55 316.425 375.512 316.462Z" fill="white"/>
<path d="M381.922 312.863L381.903 312.933L381.969 312.905C381.991 312.877 382.014 312.854 382.038 312.826L382.057 312.755L381.991 312.783C381.969 312.807 381.946 312.835 381.922 312.863Z" fill="white"/>
<path d="M387.918 308.368L387.899 308.397C387.899 308.397 387.899 308.397 387.904 308.4L387.914 308.397C387.918 308.392 387.918 308.387 387.923 308.382V308.378C387.918 308.368 387.918 308.368 387.918 308.368Z" fill="white"/>
</g>
<defs>
<clipPath id="clip0_442_2">
<rect width="1203" height="600" fill="white"/>
</clipPath>
</defs>
</svg>
