<svg width="500" height="77" viewBox="0 0 500 77" fill="none" xmlns="http://www.w3.org/2000/svg">
<path d="M35.6051 0.0178528C31.4803 0.170853 27.4673 0.965248 23.7505 2.36184C16.9386 4.92552 11.0681 9.44287 6.80802 15.4039C4.219 19.0268 2.29292 23.1636 1.18278 27.4867C0.555134 29.9268 0.19424 32.314 0.0334062 35.0778C6.27283e-05 35.6564 -0.0117056 37.6336 0.0137924 38.3044C0.202085 43.2337 1.28281 47.8275 3.30303 52.2899C3.54821 52.8313 4.22488 54.1789 4.51909 54.7124C6.05485 57.4997 7.81814 59.928 9.9992 62.2642C10.4405 62.7369 11.531 63.8157 11.9802 64.2237C14.6379 66.6442 17.4348 68.5645 20.5711 70.118C26.7219 73.1701 33.5848 74.4294 40.5085 73.7762C47.5871 73.1113 54.3696 70.3711 59.9556 65.9224C60.6637 65.3575 60.9814 65.0848 60.9657 65.0593C60.9599 65.0515 61.0207 64.9907 61.0991 64.922C61.3364 64.718 73.5441 52.543 82.7057 43.3749C88.2584 37.818 91.3691 34.7188 91.3809 34.7306C91.3927 34.7423 91.3652 34.7151 91.3495 34.7386C91.3279 34.7739 92.7068 36.6764 105.422 54.0278C116.944 69.7512 119.523 73.2604 119.66 73.3977C119.835 73.5722 120.011 73.6919 120.243 73.788C120.417 73.8606 120.97 73.9783 121.263 74.0038C121.421 74.0175 124.509 74.0234 131.144 74.0175C140.123 74.0116 140.804 74.0097 140.925 73.9783C141.43 73.8527 141.808 73.633 142.159 73.2643C142.989 72.3895 143.232 71.0125 142.765 69.816C142.642 69.5002 142.467 69.2157 142.218 68.9235C142.12 68.8078 97.3416 1.73024 97.1533 1.4164C97.0493 1.24183 96.8061 0.986832 96.6276 0.863258C96.3314 0.659264 95.9784 0.512146 95.5685 0.423882C95.3978 0.388573 95.3037 0.38073 94.9369 0.38073C94.3544 0.378769 94.2033 0.408195 93.5267 0.651421C93.2795 0.741646 93.0991 0.837761 92.9539 0.953491C92.8892 1.00449 84.9103 9.51153 75.2191 19.8565C65.5299 30.2034 55.7445 40.6484 53.4772 43.0689C51.2098 45.4894 49.2033 47.6392 49.017 47.8452C48.3992 48.5297 48.2187 48.6945 47.3439 49.3555C46.0298 50.35 45.2335 50.8561 44.139 51.3876C42.2855 52.2919 40.432 52.7882 38.2725 52.9608C37.8587 52.9941 36.4524 52.9941 36.0267 52.9608C33.6103 52.7744 31.4214 52.1546 29.4895 51.1111C28.1126 50.3677 26.9397 49.4968 25.8354 48.3964C24.5703 47.1371 23.5877 45.7621 22.8051 44.1595C21.893 42.2902 21.3831 40.3463 21.2163 38.0985C21.183 37.6689 21.183 36.388 21.2144 35.9702C21.3046 34.8012 21.4694 33.8185 21.7498 32.7926C22.6815 29.3855 24.737 26.3726 27.5928 24.2287C29.7739 22.5908 32.4119 21.5238 35.1245 21.1825C35.8914 21.0864 36.1287 21.0726 37.1545 21.0726C38.1804 21.0726 38.4118 21.0864 39.1748 21.1825C41.2381 21.4394 43.2643 22.1181 45.0864 23.1616C48.811 25.2918 51.5374 28.8578 52.6102 32.9966C52.6573 33.181 52.7162 33.4164 52.7377 33.5184C52.775 33.6812 52.7927 33.7204 52.8907 33.8577C53.1908 34.2755 53.5694 34.558 54.0068 34.6874C54.2362 34.7561 54.6226 34.7737 54.8894 34.7266C55.2346 34.6678 55.6229 34.5187 55.8858 34.3461C55.9505 34.3049 56.1113 34.1696 56.2447 34.046C56.6311 33.6851 67.1147 22.8596 67.0951 22.8399C67.0774 22.8223 67.1931 22.6712 67.2382 22.6516C67.2598 22.6438 67.6776 22.2142 68.5484 21.306C68.8348 21.0079 68.9937 20.7961 69.1153 20.545C69.335 20.0919 69.3958 19.629 69.2997 19.1249C69.2781 19.0052 69.2428 18.9267 69.0918 18.6639C67.8933 16.5612 66.3949 14.4565 64.8002 12.6382C63.8196 11.5181 62.6349 10.3236 61.5326 9.34283C56.3369 4.71957 50.0016 1.67139 43.1838 0.518036C41.5363 0.237541 39.9632 0.0786591 38.2431 0.015892C37.6312 -0.0056839 36.2209 -0.0056839 35.6051 0.0178528ZM95.133 0.900528C95.1546 0.931915 95.1291 0.94368 95.0703 0.929947C95.0291 0.918182 95.0232 0.912292 95.0467 0.896606C95.084 0.873062 95.1173 0.875031 95.133 0.900528ZM93.9758 3.60544C93.9915 3.63094 93.966 3.63094 93.9268 3.60544C93.9013 3.58974 93.9013 3.58582 93.9307 3.58582C93.9484 3.58582 93.9699 3.59367 93.9758 3.60544ZM95.7509 3.64467C95.7352 3.65447 95.7077 3.66232 95.692 3.66232C95.6724 3.66232 95.6763 3.65643 95.7018 3.64467C95.7548 3.62113 95.7862 3.62113 95.7509 3.64467ZM38.4 3.93889C44.3293 4.20173 49.8427 5.93374 54.807 9.09372C58.0943 11.1866 61.0834 13.9524 63.443 17.0869C63.9667 17.7851 64.8983 19.1327 64.8983 19.1955C64.8983 19.2151 55.5935 28.8519 55.5621 28.8657C55.5543 28.8676 55.5013 28.7676 55.4445 28.6401C55.2954 28.3106 54.9208 27.5652 54.7344 27.2259C54.1892 26.2373 53.536 25.2604 52.824 24.3699C49.7074 20.4704 45.2864 17.8616 40.4006 17.0417C38.7374 16.7612 36.9761 16.6926 35.252 16.8358C34.0614 16.9358 32.7316 17.1673 31.5881 17.4733C28.5225 18.2932 25.6922 19.8447 23.3405 21.9926C22.911 22.3868 22.1637 23.1459 21.8048 23.5578C19.0353 26.7217 17.374 30.5604 16.9346 34.8031C16.8052 36.0467 16.7895 37.5061 16.8935 38.7065C17.2367 42.6472 18.6842 46.3211 21.1242 49.434C22.0382 50.5991 23.1875 51.7662 24.3408 52.696C28.4127 55.9834 33.5181 57.5428 38.7629 57.1054C41.5677 56.87 44.3312 56.0305 46.8026 54.6594C48.1049 53.9376 49.3583 53.0471 50.492 52.0369C51.1627 51.4406 52.1729 50.3794 52.7358 49.6811C52.8927 49.487 54.0126 48.2787 54.0224 48.2944C55.4346 50.1362 61.917 58.7139 61.9111 58.7296C61.9052 58.7433 61.8013 58.8629 61.6797 58.9983C58.2316 62.8409 54.0068 65.7968 49.2563 67.6917C46.073 68.9607 42.6935 69.7238 39.2532 69.9533C38.1823 70.0239 36.7309 70.0435 35.7227 70.0023C29.4698 69.7434 23.7603 67.9349 18.7136 64.616C17.2524 63.6549 15.9755 62.6584 14.579 61.3913C14.1338 60.9872 13.0531 59.9065 12.6176 59.4298C10.0875 56.6602 8.09665 53.5747 6.63542 50.1617C5.2703 46.9723 4.43083 43.5966 4.10524 39.9815C4.00521 38.8576 3.9699 37.8964 3.98363 36.5881C3.9954 35.5544 4.00521 35.2876 4.06797 34.4599C4.44848 29.3247 6.03328 24.3503 8.6988 19.9251C11.9135 14.584 16.5973 10.2412 22.1637 7.4343C26.3395 5.32961 30.8722 4.15074 35.5854 3.94086C36.1052 3.91732 37.892 3.91731 38.4 3.93889ZM99.0009 11.1376C101.351 14.6605 103.275 17.5498 103.279 17.5615C103.281 17.5713 100.725 20.1389 97.6005 23.2636L91.9164 28.9441L87.5582 22.9949C85.1614 19.7231 83.198 17.0359 83.1941 17.0241C83.1863 16.9947 94.6976 4.70192 94.7153 4.71957C94.7211 4.72742 96.6512 7.61475 99.0009 11.1376ZM84.771 25.7116C87.1149 28.9108 89.0645 31.5686 89.0998 31.6196L89.1665 31.7138L77.0962 43.7888C70.4569 50.4285 65.0023 55.8795 64.9728 55.9011L64.9219 55.9383L60.85 50.5697L56.7782 45.203L56.8625 45.1069C57.0861 44.8519 80.4835 19.8879 80.4952 19.8918C80.5031 19.8938 82.4272 22.5124 84.771 25.7116ZM121.786 45.2835C130.805 58.7982 138.183 69.8728 138.183 69.8944C138.185 69.9337 138.172 69.9337 130.124 69.9376L122.063 69.9415L108.343 51.217C100.798 40.9191 94.5329 32.3709 94.4211 32.2198C94.2504 31.9884 94.1707 31.9212 94.1452 31.9428C94.1236 31.9604 94.1543 31.9884 94.1367 31.9707C94.119 31.9531 95.4155 30.6467 99.7325 26.3294C102.824 23.2381 105.362 20.7097 105.371 20.7097C105.383 20.7117 112.77 31.7687 121.786 45.2835Z" fill="white"/>
<path d="M68.9667 37.0197C68.3096 37.1355 67.7918 37.4886 67.5094 38.0142C67.3525 38.3026 67.2917 38.5556 67.2917 38.9126C67.2917 39.3814 67.4545 39.7796 67.8938 40.3897C67.9605 40.4838 68.0174 40.5701 68.0174 40.578C68.0174 40.5858 67.9448 40.6388 67.8566 40.6937C66.9681 41.237 66.4954 41.9196 66.4542 42.718C66.3934 43.9165 67.2623 44.9463 68.5568 45.2072C69.2766 45.3523 70.0376 45.2739 70.7241 44.9836C70.8732 44.9228 71.1419 44.7796 71.2655 44.6991L71.3243 44.6599L71.6166 45.0189L71.9068 45.3778L72.8836 45.4524C73.421 45.4936 73.8702 45.523 73.8839 45.5191C73.8957 45.5151 73.5662 45.0954 73.1484 44.5873C72.7326 44.0793 72.3913 43.6576 72.3913 43.6497C72.3913 43.6438 72.4168 43.6007 72.4482 43.5556C72.7699 43.0848 73.0503 42.3983 73.1759 41.7823C73.2269 41.5293 73.2955 41.0507 73.2837 41.037C73.2779 41.0272 72.0481 40.9369 72.0422 40.9428C72.0383 40.9467 72.0226 41.0448 72.0088 41.1625C71.9578 41.5705 71.8637 41.9255 71.7166 42.2708C71.6146 42.512 71.5479 42.6278 71.5283 42.6062C71.4283 42.4944 70.1553 40.9291 70.1573 40.9193C70.1573 40.9095 70.2475 40.8447 70.3573 40.7722C70.6319 40.5937 70.8555 40.4093 71.0811 40.1837C71.4812 39.7777 71.6401 39.4265 71.6597 38.891C71.6774 38.4654 71.6126 38.2182 71.4008 37.9024C71.1144 37.4709 70.6398 37.1806 69.9984 37.0394C69.7925 36.9942 69.1785 36.9825 68.9667 37.0197ZM69.6512 38.1476C69.8886 38.1849 70.0926 38.3222 70.1906 38.5085C70.2377 38.5968 70.2436 38.6302 70.2436 38.8047C70.2436 38.9832 70.2377 39.0127 70.1828 39.1284C70.1494 39.199 70.0886 39.2932 70.0474 39.3402C69.9553 39.4462 69.7042 39.6423 69.4786 39.7835L69.3021 39.8953L69.2472 39.8306C69.2158 39.7953 69.1119 39.6619 69.0158 39.5344C68.7333 39.1598 68.6627 38.9832 68.7039 38.7537C68.7588 38.4497 68.9706 38.232 69.2825 38.1555C69.4061 38.126 69.5061 38.1221 69.6512 38.1476ZM69.7101 42.6631C70.169 43.228 70.5456 43.6968 70.5496 43.7086C70.5574 43.7341 70.2338 43.9028 70.0631 43.9636C69.8101 44.0518 69.6257 44.0773 69.3237 44.0656C69.004 44.0538 68.8373 44.0146 68.6058 43.8949C68.19 43.6772 67.9664 43.3535 67.9448 42.9338C67.9252 42.5728 68.0194 42.3414 68.29 42.0707C68.4509 41.9118 68.8059 41.6411 68.8549 41.6391C68.8667 41.6391 69.2531 42.1001 69.7101 42.6631Z" fill="white"/>
<path d="M159.84 22.6C159.84 20.952 160.208 19.48 160.944 18.184C161.696 16.872 162.712 15.856 163.992 15.136C165.288 14.4 166.736 14.032 168.336 14.032C170.208 14.032 171.848 14.512 173.256 15.472C174.664 16.432 175.648 17.76 176.208 19.456H172.344C171.96 18.656 171.416 18.056 170.712 17.656C170.024 17.256 169.224 17.056 168.312 17.056C167.336 17.056 166.464 17.288 165.696 17.752C164.944 18.2 164.352 18.84 163.92 19.672C163.504 20.504 163.296 21.48 163.296 22.6C163.296 23.704 163.504 24.68 163.92 25.528C164.352 26.36 164.944 27.008 165.696 27.472C166.464 27.92 167.336 28.144 168.312 28.144C169.224 28.144 170.024 27.944 170.712 27.544C171.416 27.128 171.96 26.52 172.344 25.72H176.208C175.648 27.432 174.664 28.768 173.256 29.728C171.864 30.672 170.224 31.144 168.336 31.144C166.736 31.144 165.288 30.784 163.992 30.064C162.712 29.328 161.696 28.312 160.944 27.016C160.208 25.72 159.84 24.248 159.84 22.6ZM184.982 31.216C183.702 31.216 182.55 30.936 181.526 30.376C180.502 29.8 179.694 28.992 179.102 27.952C178.526 26.912 178.238 25.712 178.238 24.352C178.238 22.992 178.534 21.792 179.126 20.752C179.734 19.712 180.558 18.912 181.598 18.352C182.638 17.776 183.798 17.488 185.078 17.488C186.358 17.488 187.518 17.776 188.558 18.352C189.598 18.912 190.414 19.712 191.006 20.752C191.614 21.792 191.918 22.992 191.918 24.352C191.918 25.712 191.606 26.912 190.982 27.952C190.374 28.992 189.542 29.8 188.486 30.376C187.446 30.936 186.278 31.216 184.982 31.216ZM184.982 28.288C185.59 28.288 186.158 28.144 186.686 27.856C187.23 27.552 187.662 27.104 187.982 26.512C188.302 25.92 188.462 25.2 188.462 24.352C188.462 23.088 188.126 22.12 187.454 21.448C186.798 20.76 185.99 20.416 185.03 20.416C184.07 20.416 183.262 20.76 182.606 21.448C181.966 22.12 181.646 23.088 181.646 24.352C181.646 25.616 181.958 26.592 182.582 27.28C183.222 27.952 184.022 28.288 184.982 28.288ZM201.751 17.512C203.335 17.512 204.615 18.016 205.591 19.024C206.567 20.016 207.055 21.408 207.055 23.2V31H203.695V23.656C203.695 22.6 203.431 21.792 202.903 21.232C202.375 20.656 201.655 20.368 200.743 20.368C199.815 20.368 199.079 20.656 198.535 21.232C198.007 21.792 197.743 22.6 197.743 23.656V31H194.383V17.704H197.743V19.36C198.191 18.784 198.759 18.336 199.447 18.016C200.151 17.68 200.919 17.512 201.751 17.512ZM215.338 31.216C214.25 31.216 213.274 31.024 212.41 30.64C211.546 30.24 210.858 29.704 210.346 29.032C209.85 28.36 209.578 27.616 209.53 26.8H212.914C212.978 27.312 213.226 27.736 213.658 28.072C214.106 28.408 214.658 28.576 215.314 28.576C215.954 28.576 216.45 28.448 216.802 28.192C217.17 27.936 217.354 27.608 217.354 27.208C217.354 26.776 217.13 26.456 216.682 26.248C216.25 26.024 215.554 25.784 214.594 25.528C213.602 25.288 212.786 25.04 212.146 24.784C211.522 24.528 210.978 24.136 210.514 23.608C210.066 23.08 209.842 22.368 209.842 21.472C209.842 20.736 210.05 20.064 210.466 19.456C210.898 18.848 211.506 18.368 212.29 18.016C213.09 17.664 214.026 17.488 215.098 17.488C216.682 17.488 217.946 17.888 218.89 18.688C219.834 19.472 220.354 20.536 220.45 21.88H217.234C217.186 21.352 216.962 20.936 216.562 20.632C216.178 20.312 215.658 20.152 215.002 20.152C214.394 20.152 213.922 20.264 213.586 20.488C213.266 20.712 213.106 21.024 213.106 21.424C213.106 21.872 213.33 22.216 213.778 22.456C214.226 22.68 214.922 22.912 215.866 23.152C216.826 23.392 217.618 23.64 218.242 23.896C218.866 24.152 219.402 24.552 219.85 25.096C220.314 25.624 220.554 26.328 220.57 27.208C220.57 27.976 220.354 28.664 219.922 29.272C219.506 29.88 218.898 30.36 218.098 30.712C217.314 31.048 216.394 31.216 215.338 31.216ZM235.88 17.704V31H232.496V29.32C232.064 29.896 231.496 30.352 230.792 30.688C230.104 31.008 229.352 31.168 228.536 31.168C227.496 31.168 226.576 30.952 225.776 30.52C224.976 30.072 224.344 29.424 223.88 28.576C223.432 27.712 223.208 26.688 223.208 25.504V17.704H226.568V25.024C226.568 26.08 226.832 26.896 227.36 27.472C227.888 28.032 228.608 28.312 229.52 28.312C230.448 28.312 231.176 28.032 231.704 27.472C232.232 26.896 232.496 26.08 232.496 25.024V17.704H235.88ZM242.555 13.24V31H239.195V13.24H242.555ZM249.787 20.464V26.896C249.787 27.344 249.891 27.672 250.099 27.88C250.323 28.072 250.691 28.168 251.203 28.168H252.763V31H250.651C247.819 31 246.403 29.624 246.403 26.872V20.464H244.819V17.704H246.403V14.416H249.787V17.704H252.763V20.464H249.787ZM256.883 16.12C256.291 16.12 255.795 15.936 255.395 15.568C255.011 15.184 254.819 14.712 254.819 14.152C254.819 13.592 255.011 13.128 255.395 12.76C255.795 12.376 256.291 12.184 256.883 12.184C257.475 12.184 257.963 12.376 258.347 12.76C258.747 13.128 258.947 13.592 258.947 14.152C258.947 14.712 258.747 15.184 258.347 15.568C257.963 15.936 257.475 16.12 256.883 16.12ZM258.539 17.704V31H255.179V17.704H258.539ZM269.227 17.512C270.811 17.512 272.091 18.016 273.067 19.024C274.043 20.016 274.531 21.408 274.531 23.2V31H271.171V23.656C271.171 22.6 270.907 21.792 270.379 21.232C269.851 20.656 269.131 20.368 268.219 20.368C267.291 20.368 266.555 20.656 266.011 21.232C265.483 21.792 265.219 22.6 265.219 23.656V31H261.859V17.704H265.219V19.36C265.667 18.784 266.235 18.336 266.923 18.016C267.627 17.68 268.395 17.512 269.227 17.512ZM282.934 17.488C283.926 17.488 284.798 17.688 285.55 18.088C286.302 18.472 286.894 18.976 287.326 19.6V17.704H290.71V31.096C290.71 32.328 290.462 33.424 289.966 34.384C289.47 35.36 288.726 36.128 287.734 36.688C286.742 37.264 285.542 37.552 284.134 37.552C282.246 37.552 280.694 37.112 279.478 36.232C278.278 35.352 277.598 34.152 277.438 32.632H280.774C280.95 33.24 281.326 33.72 281.902 34.072C282.494 34.44 283.206 34.624 284.038 34.624C285.014 34.624 285.806 34.328 286.414 33.736C287.022 33.16 287.326 32.28 287.326 31.096V29.032C286.894 29.656 286.294 30.176 285.526 30.592C284.774 31.008 283.91 31.216 282.934 31.216C281.814 31.216 280.79 30.928 279.862 30.352C278.934 29.776 278.198 28.968 277.654 27.928C277.126 26.872 276.862 25.664 276.862 24.304C276.862 22.96 277.126 21.768 277.654 20.728C278.198 19.688 278.926 18.888 279.838 18.328C280.766 17.768 281.798 17.488 282.934 17.488ZM287.326 24.352C287.326 23.536 287.166 22.84 286.846 22.264C286.526 21.672 286.094 21.224 285.55 20.92C285.006 20.6 284.422 20.44 283.798 20.44C283.174 20.44 282.598 20.592 282.07 20.896C281.542 21.2 281.11 21.648 280.774 22.24C280.454 22.816 280.294 23.504 280.294 24.304C280.294 25.104 280.454 25.808 280.774 26.416C281.11 27.008 281.542 27.464 282.07 27.784C282.614 28.104 283.19 28.264 283.798 28.264C284.422 28.264 285.006 28.112 285.55 27.808C286.094 27.488 286.526 27.04 286.846 26.464C287.166 25.872 287.326 25.168 287.326 24.352ZM312.599 31L310.775 29.2C309.223 30.592 307.327 31.288 305.087 31.288C303.855 31.288 302.767 31.08 301.823 30.664C300.895 30.232 300.175 29.632 299.663 28.864C299.151 28.08 298.895 27.176 298.895 26.152C298.895 25.048 299.207 24.056 299.831 23.176C300.455 22.296 301.375 21.584 302.591 21.04C302.159 20.512 301.847 20.008 301.655 19.528C301.463 19.032 301.367 18.504 301.367 17.944C301.367 17.176 301.567 16.488 301.967 15.88C302.367 15.256 302.935 14.768 303.671 14.416C304.423 14.064 305.295 13.888 306.287 13.888C307.295 13.888 308.159 14.08 308.879 14.464C309.599 14.848 310.135 15.36 310.487 16C310.839 16.64 310.991 17.352 310.943 18.136H307.679C307.695 17.608 307.567 17.208 307.295 16.936C307.023 16.648 306.655 16.504 306.191 16.504C305.743 16.504 305.367 16.64 305.063 16.912C304.775 17.168 304.631 17.504 304.631 17.92C304.631 18.32 304.751 18.72 304.991 19.12C305.231 19.504 305.623 19.984 306.167 20.56L310.391 24.736C310.423 24.704 310.447 24.672 310.463 24.64C310.479 24.608 310.495 24.576 310.511 24.544L311.879 22.264H315.383L313.703 25.216C313.383 25.84 313.039 26.432 312.671 26.992L316.727 31H312.599ZM305.183 28.504C306.495 28.504 307.655 28.04 308.663 27.112L304.535 23.032C302.983 23.72 302.207 24.696 302.207 25.96C302.207 26.68 302.479 27.288 303.023 27.784C303.567 28.264 304.287 28.504 305.183 28.504ZM334.381 27.808H327.709L326.605 31H323.077L329.101 14.224H333.013L339.037 31H335.485L334.381 27.808ZM333.469 25.12L331.045 18.112L328.621 25.12H333.469ZM348.657 17.512C350.241 17.512 351.521 18.016 352.497 19.024C353.473 20.016 353.961 21.408 353.961 23.2V31H350.601V23.656C350.601 22.6 350.337 21.792 349.809 21.232C349.281 20.656 348.561 20.368 347.649 20.368C346.721 20.368 345.985 20.656 345.441 21.232C344.913 21.792 344.649 22.6 344.649 23.656V31H341.289V17.704H344.649V19.36C345.097 18.784 345.665 18.336 346.353 18.016C347.057 17.68 347.825 17.512 348.657 17.512ZM356.292 24.304C356.292 22.96 356.556 21.768 357.084 20.728C357.628 19.688 358.356 18.888 359.268 18.328C360.196 17.768 361.228 17.488 362.364 17.488C363.356 17.488 364.22 17.688 364.956 18.088C365.708 18.488 366.308 18.992 366.756 19.6V17.704H370.14V31H366.756V29.056C366.324 29.68 365.724 30.2 364.956 30.616C364.204 31.016 363.332 31.216 362.34 31.216C361.22 31.216 360.196 30.928 359.268 30.352C358.356 29.776 357.628 28.968 357.084 27.928C356.556 26.872 356.292 25.664 356.292 24.304ZM366.756 24.352C366.756 23.536 366.596 22.84 366.276 22.264C365.956 21.672 365.524 21.224 364.98 20.92C364.436 20.6 363.852 20.44 363.228 20.44C362.604 20.44 362.028 20.592 361.5 20.896C360.972 21.2 360.54 21.648 360.204 22.24C359.884 22.816 359.724 23.504 359.724 24.304C359.724 25.104 359.884 25.808 360.204 26.416C360.54 27.008 360.972 27.464 361.5 27.784C362.044 28.104 362.62 28.264 363.228 28.264C363.852 28.264 364.436 28.112 364.98 27.808C365.524 27.488 365.956 27.04 366.276 26.464C366.596 25.872 366.756 25.168 366.756 24.352ZM376.782 13.24V31H373.422V13.24H376.782ZM392.821 17.704L384.589 37.288H381.013L383.893 30.664L378.565 17.704H382.333L385.765 26.992L389.245 17.704H392.821ZM398.545 20.464V26.896C398.545 27.344 398.649 27.672 398.857 27.88C399.081 28.072 399.449 28.168 399.961 28.168H401.521V31H399.409C396.577 31 395.161 29.624 395.161 26.872V20.464H393.577V17.704H395.161V14.416H398.545V17.704H401.521V20.464H398.545ZM405.641 16.12C405.049 16.12 404.553 15.936 404.153 15.568C403.769 15.184 403.577 14.712 403.577 14.152C403.577 13.592 403.769 13.128 404.153 12.76C404.553 12.376 405.049 12.184 405.641 12.184C406.233 12.184 406.721 12.376 407.105 12.76C407.505 13.128 407.705 13.592 407.705 14.152C407.705 14.712 407.505 15.184 407.105 15.568C406.721 15.936 406.233 16.12 405.641 16.12ZM407.297 17.704V31H403.937V17.704H407.297ZM409.753 24.352C409.753 22.976 410.033 21.776 410.593 20.752C411.153 19.712 411.929 18.912 412.921 18.352C413.913 17.776 415.049 17.488 416.329 17.488C417.977 17.488 419.337 17.904 420.409 18.736C421.497 19.552 422.225 20.704 422.593 22.192H418.969C418.777 21.616 418.449 21.168 417.985 20.848C417.537 20.512 416.977 20.344 416.305 20.344C415.345 20.344 414.585 20.696 414.025 21.4C413.465 22.088 413.185 23.072 413.185 24.352C413.185 25.616 413.465 26.6 414.025 27.304C414.585 27.992 415.345 28.336 416.305 28.336C417.665 28.336 418.553 27.728 418.969 26.512H422.593C422.225 27.952 421.497 29.096 420.409 29.944C419.321 30.792 417.961 31.216 416.329 31.216C415.049 31.216 413.913 30.936 412.921 30.376C411.929 29.8 411.153 29 410.593 27.976C410.033 26.936 409.753 25.728 409.753 24.352ZM430.142 31.216C429.054 31.216 428.078 31.024 427.214 30.64C426.35 30.24 425.662 29.704 425.15 29.032C424.654 28.36 424.382 27.616 424.334 26.8H427.718C427.782 27.312 428.03 27.736 428.462 28.072C428.91 28.408 429.462 28.576 430.118 28.576C430.758 28.576 431.254 28.448 431.606 28.192C431.974 27.936 432.158 27.608 432.158 27.208C432.158 26.776 431.934 26.456 431.486 26.248C431.054 26.024 430.358 25.784 429.398 25.528C428.406 25.288 427.59 25.04 426.95 24.784C426.326 24.528 425.782 24.136 425.318 23.608C424.87 23.08 424.646 22.368 424.646 21.472C424.646 20.736 424.854 20.064 425.27 19.456C425.702 18.848 426.31 18.368 427.094 18.016C427.894 17.664 428.83 17.488 429.902 17.488C431.486 17.488 432.75 17.888 433.694 18.688C434.638 19.472 435.158 20.536 435.254 21.88H432.038C431.99 21.352 431.766 20.936 431.366 20.632C430.982 20.312 430.462 20.152 429.806 20.152C429.198 20.152 428.726 20.264 428.39 20.488C428.07 20.712 427.91 21.024 427.91 21.424C427.91 21.872 428.134 22.216 428.582 22.456C429.03 22.68 429.726 22.912 430.67 23.152C431.63 23.392 432.422 23.64 433.046 23.896C433.67 24.152 434.206 24.552 434.654 25.096C435.118 25.624 435.358 26.328 435.374 27.208C435.374 27.976 435.158 28.664 434.726 29.272C434.31 29.88 433.702 30.36 432.902 30.712C432.118 31.048 431.198 31.216 430.142 31.216ZM443.035 22.6C443.035 20.952 443.403 19.48 444.139 18.184C444.891 16.872 445.907 15.856 447.187 15.136C448.483 14.4 449.931 14.032 451.531 14.032C453.403 14.032 455.043 14.512 456.451 15.472C457.859 16.432 458.843 17.76 459.403 19.456H455.539C455.155 18.656 454.611 18.056 453.907 17.656C453.219 17.256 452.419 17.056 451.507 17.056C450.531 17.056 449.659 17.288 448.891 17.752C448.139 18.2 447.547 18.84 447.115 19.672C446.699 20.504 446.491 21.48 446.491 22.6C446.491 23.704 446.699 24.68 447.115 25.528C447.547 26.36 448.139 27.008 448.891 27.472C449.659 27.92 450.531 28.144 451.507 28.144C452.419 28.144 453.219 27.944 453.907 27.544C454.611 27.128 455.155 26.52 455.539 25.72H459.403C458.843 27.432 457.859 28.768 456.451 29.728C455.059 30.672 453.419 31.144 451.531 31.144C449.931 31.144 448.483 30.784 447.187 30.064C445.907 29.328 444.891 28.312 444.139 27.016C443.403 25.72 443.035 24.248 443.035 22.6ZM465.633 13.24V31H462.273V13.24H465.633ZM481.505 17.704V31H478.121V29.32C477.689 29.896 477.121 30.352 476.417 30.688C475.729 31.008 474.977 31.168 474.161 31.168C473.121 31.168 472.201 30.952 471.401 30.52C470.601 30.072 469.969 29.424 469.505 28.576C469.057 27.712 468.833 26.688 468.833 25.504V17.704H472.193V25.024C472.193 26.08 472.457 26.896 472.985 27.472C473.513 28.032 474.233 28.312 475.145 28.312C476.073 28.312 476.801 28.032 477.329 27.472C477.857 26.896 478.121 26.08 478.121 25.024V17.704H481.505ZM488.18 19.648C488.612 19.008 489.204 18.488 489.956 18.088C490.724 17.688 491.596 17.488 492.572 17.488C493.708 17.488 494.732 17.768 495.644 18.328C496.572 18.888 497.3 19.688 497.828 20.728C498.372 21.752 498.644 22.944 498.644 24.304C498.644 25.664 498.372 26.872 497.828 27.928C497.3 28.968 496.572 29.776 495.644 30.352C494.732 30.928 493.708 31.216 492.572 31.216C491.58 31.216 490.708 31.024 489.956 30.64C489.22 30.24 488.628 29.728 488.18 29.104V31H484.82V13.24H488.18V19.648ZM495.212 24.304C495.212 23.504 495.044 22.816 494.708 22.24C494.388 21.648 493.956 21.2 493.412 20.896C492.884 20.592 492.308 20.44 491.684 20.44C491.076 20.44 490.5 20.6 489.956 20.92C489.428 21.224 488.996 21.672 488.66 22.264C488.34 22.856 488.18 23.552 488.18 24.352C488.18 25.152 488.34 25.848 488.66 26.44C488.996 27.032 489.428 27.488 489.956 27.808C490.5 28.112 491.076 28.264 491.684 28.264C492.308 28.264 492.884 28.104 493.412 27.784C493.956 27.464 494.388 27.008 494.708 26.416C495.044 25.824 495.212 25.12 495.212 24.304ZM164.016 50.248V67H160.656V50.248H164.016ZM170.696 50.248V67H167.336V50.248H170.696ZM185.415 50.248V52.96H180.951V67H177.591V52.96H173.127V50.248H185.415ZM205.25 55.288C204.866 54.584 204.338 54.048 203.666 53.68C202.994 53.312 202.21 53.128 201.314 53.128C200.322 53.128 199.442 53.352 198.674 53.8C197.906 54.248 197.306 54.888 196.874 55.72C196.442 56.552 196.226 57.512 196.226 58.6C196.226 59.72 196.442 60.696 196.874 61.528C197.322 62.36 197.938 63 198.722 63.448C199.506 63.896 200.418 64.12 201.458 64.12C202.738 64.12 203.786 63.784 204.602 63.112C205.418 62.424 205.954 61.472 206.21 60.256H200.45V57.688H209.522V60.616C209.298 61.784 208.818 62.864 208.082 63.856C207.346 64.848 206.394 65.648 205.226 66.256C204.074 66.848 202.778 67.144 201.338 67.144C199.722 67.144 198.258 66.784 196.946 66.064C195.65 65.328 194.626 64.312 193.874 63.016C193.138 61.72 192.77 60.248 192.77 58.6C192.77 56.952 193.138 55.48 193.874 54.184C194.626 52.872 195.65 51.856 196.946 51.136C198.258 50.4 199.714 50.032 201.314 50.032C203.202 50.032 204.842 50.496 206.234 51.424C207.626 52.336 208.586 53.624 209.114 55.288H205.25ZM224.56 53.704V67H221.176V65.32C220.744 65.896 220.176 66.352 219.472 66.688C218.784 67.008 218.032 67.168 217.216 67.168C216.176 67.168 215.256 66.952 214.456 66.52C213.656 66.072 213.024 65.424 212.56 64.576C212.112 63.712 211.888 62.688 211.888 61.504V53.704H215.248V61.024C215.248 62.08 215.512 62.896 216.04 63.472C216.568 64.032 217.288 64.312 218.2 64.312C219.128 64.312 219.856 64.032 220.384 63.472C220.912 62.896 221.176 62.08 221.176 61.024V53.704H224.56ZM246.307 53.704L242.419 67H238.795L236.371 57.712L233.947 67H230.299L226.387 53.704H229.795L232.147 63.832L234.691 53.704H238.243L240.739 63.808L243.091 53.704H246.307ZM247.261 60.304C247.261 58.96 247.525 57.768 248.053 56.728C248.597 55.688 249.325 54.888 250.237 54.328C251.165 53.768 252.197 53.488 253.333 53.488C254.325 53.488 255.189 53.688 255.925 54.088C256.677 54.488 257.277 54.992 257.725 55.6V53.704H261.109V67H257.725V65.056C257.293 65.68 256.693 66.2 255.925 66.616C255.173 67.016 254.301 67.216 253.309 67.216C252.189 67.216 251.165 66.928 250.237 66.352C249.325 65.776 248.597 64.968 248.053 63.928C247.525 62.872 247.261 61.664 247.261 60.304ZM257.725 60.352C257.725 59.536 257.565 58.84 257.245 58.264C256.925 57.672 256.493 57.224 255.949 56.92C255.405 56.6 254.821 56.44 254.197 56.44C253.573 56.44 252.997 56.592 252.469 56.896C251.941 57.2 251.509 57.648 251.173 58.24C250.853 58.816 250.693 59.504 250.693 60.304C250.693 61.104 250.853 61.808 251.173 62.416C251.509 63.008 251.941 63.464 252.469 63.784C253.013 64.104 253.589 64.264 254.197 64.264C254.821 64.264 255.405 64.112 255.949 63.808C256.493 63.488 256.925 63.04 257.245 62.464C257.565 61.872 257.725 61.168 257.725 60.352ZM271.878 53.512C272.886 53.512 273.782 53.736 274.566 54.184C275.35 54.616 275.958 55.264 276.39 56.128C276.838 56.976 277.062 58 277.062 59.2V67H273.702V59.656C273.702 58.6 273.438 57.792 272.91 57.232C272.382 56.656 271.662 56.368 270.75 56.368C269.822 56.368 269.086 56.656 268.542 57.232C268.014 57.792 267.75 58.6 267.75 59.656V67H264.39V49.24H267.75V55.36C268.182 54.784 268.758 54.336 269.478 54.016C270.198 53.68 270.998 53.512 271.878 53.512ZM279.394 60.304C279.394 58.96 279.658 57.768 280.186 56.728C280.73 55.688 281.458 54.888 282.37 54.328C283.298 53.768 284.33 53.488 285.466 53.488C286.458 53.488 287.322 53.688 288.058 54.088C288.81 54.488 289.41 54.992 289.858 55.6V53.704H293.242V67H289.858V65.056C289.426 65.68 288.826 66.2 288.058 66.616C287.306 67.016 286.434 67.216 285.442 67.216C284.322 67.216 283.298 66.928 282.37 66.352C281.458 65.776 280.73 64.968 280.186 63.928C279.658 62.872 279.394 61.664 279.394 60.304ZM289.858 60.352C289.858 59.536 289.698 58.84 289.378 58.264C289.058 57.672 288.626 57.224 288.082 56.92C287.538 56.6 286.954 56.44 286.33 56.44C285.706 56.44 285.13 56.592 284.602 56.896C284.074 57.2 283.642 57.648 283.306 58.24C282.986 58.816 282.826 59.504 282.826 60.304C282.826 61.104 282.986 61.808 283.306 62.416C283.642 63.008 284.074 63.464 284.602 63.784C285.146 64.104 285.722 64.264 286.33 64.264C286.954 64.264 287.538 64.112 288.082 63.808C288.626 63.488 289.058 63.04 289.378 62.464C289.698 61.872 289.858 61.168 289.858 60.352ZM300.435 56.464V62.896C300.435 63.344 300.539 63.672 300.747 63.88C300.971 64.072 301.339 64.168 301.851 64.168H303.411V67H301.299C298.467 67 297.051 65.624 297.051 62.872V56.464H295.467V53.704H297.051V50.416H300.435V53.704H303.411V56.464H300.435ZM307.532 52.12C306.94 52.12 306.444 51.936 306.044 51.568C305.66 51.184 305.468 50.712 305.468 50.152C305.468 49.592 305.66 49.128 306.044 48.76C306.444 48.376 306.94 48.184 307.532 48.184C308.124 48.184 308.612 48.376 308.996 48.76C309.396 49.128 309.596 49.592 309.596 50.152C309.596 50.712 309.396 51.184 308.996 51.568C308.612 51.936 308.124 52.12 307.532 52.12ZM309.188 53.704V67H305.828V53.704H309.188Z" fill="white"/>
</svg>
