<svg width="199" height="102" viewBox="0 0 199 102" fill="none" xmlns="http://www.w3.org/2000/svg">
<path d="M49.4976 0.0246762C43.7633 0.235507 38.1845 1.3302 33.0175 3.25471C23.5477 6.7875 15.3867 13.0124 9.46438 21.2268C5.86518 26.2192 3.18758 31.9197 1.64428 37.877C0.771737 41.2395 0.270029 44.5291 0.0464407 48.3376C8.72322e-05 49.1349 -0.0162729 51.8595 0.019174 52.7839C0.280935 59.5765 1.78334 65.9068 4.59181 72.056C4.93266 72.8021 5.87335 74.6591 6.28236 75.3942C8.41734 79.2352 10.8686 82.5814 13.9007 85.8007C14.5142 86.4521 16.0302 87.9387 16.6547 88.5009C20.3493 91.8364 24.2375 94.4826 28.5974 96.6233C37.1483 100.829 46.689 102.564 56.3142 101.664C66.1547 100.748 75.5836 96.9721 83.3492 90.8417C84.3336 90.0633 84.7752 89.6875 84.7534 89.6524C84.7453 89.6416 84.8299 89.5578 84.9388 89.4632C85.2687 89.1821 102.24 72.4048 114.976 59.7711C122.695 52.1136 127.02 47.8429 127.036 47.8591C127.052 47.8753 127.014 47.8378 126.992 47.8702C126.962 47.9188 128.879 50.5405 146.556 74.4509C162.573 96.1179 166.159 100.954 166.349 101.143C166.592 101.383 166.837 101.548 167.16 101.681C167.401 101.781 168.17 101.943 168.578 101.978C168.797 101.997 173.09 102.005 182.314 101.997C194.796 101.989 195.743 101.986 195.911 101.943C196.613 101.77 197.139 101.467 197.627 100.959C198.781 99.7534 199.118 97.8559 198.469 96.2071C198.298 95.772 198.055 95.3799 197.709 94.9773C197.573 94.8178 135.323 2.38436 135.061 1.95189C134.916 1.71133 134.578 1.35994 134.33 1.18965C133.918 0.908546 133.427 0.705819 132.858 0.584185C132.62 0.535532 132.489 0.524727 131.98 0.524727C131.17 0.522024 130.96 0.56257 130.019 0.897737C129.675 1.02207 129.425 1.15452 129.223 1.31399C129.133 1.38427 118.041 13.1071 104.568 27.3625C91.0985 41.6206 77.495 56.0139 74.343 59.3494C71.1909 62.6849 68.4015 65.6473 68.1425 65.9312C67.2837 66.8744 67.0328 67.1015 65.8166 68.0124C63.9898 69.3828 62.8828 70.0802 61.3612 70.8126C58.7845 72.0588 56.2078 72.7427 53.2057 72.9805C52.6305 73.0264 50.6755 73.0264 50.0838 72.9805C46.7244 72.7237 43.6815 71.8696 40.9958 70.4316C39.0816 69.4072 37.4511 68.2071 35.9159 66.6907C34.1572 64.9554 32.7912 63.0607 31.7032 60.8523C30.4352 58.2763 29.7264 55.5976 29.4945 52.5001C29.4482 51.9082 29.4482 50.1431 29.4919 49.5673C29.6173 47.9564 29.8464 46.6023 30.2362 45.1886C31.5314 40.4936 34.3889 36.3418 38.359 33.3874C41.3911 31.1304 45.0584 29.6601 48.8294 29.1898C49.8956 29.0573 50.2255 29.0383 51.6515 29.0383C53.0777 29.0383 53.3994 29.0573 54.4601 29.1898C57.3285 29.5438 60.1452 30.479 62.6783 31.917C67.8562 34.8524 71.6463 39.7664 73.1377 45.4697C73.2032 45.7238 73.2851 46.0482 73.315 46.1887C73.3668 46.4131 73.3914 46.4671 73.5277 46.6563C73.9449 47.232 74.4712 47.6213 75.0793 47.7996C75.3982 47.8943 75.9353 47.9185 76.3062 47.8536C76.7861 47.7726 77.3259 47.5672 77.6914 47.3293C77.7814 47.2725 78.0049 47.0861 78.1904 46.9158C78.7275 46.4184 93.3016 31.5008 93.2744 31.4737C93.2498 31.4494 93.4106 31.2412 93.4733 31.2142C93.5033 31.2034 94.0842 30.6114 95.2947 29.3599C95.6929 28.9492 95.9138 28.6573 96.0828 28.3113C96.3882 27.6869 96.4728 27.049 96.3392 26.3544C96.3091 26.1894 96.2601 26.0812 96.0501 25.7191C94.384 22.8216 92.301 19.9213 90.0841 17.4156C88.7208 15.8721 87.0739 14.2261 85.5415 12.8746C78.3185 6.50369 69.5113 2.30328 60.0333 0.71393C57.743 0.327407 55.5561 0.108467 53.1649 0.021972C52.3142 -0.00776063 50.3536 -0.00775936 49.4976 0.0246762ZM132.252 1.24101C132.282 1.28426 132.247 1.30047 132.165 1.28155C132.108 1.26533 132.1 1.25723 132.132 1.2356C132.184 1.20317 132.23 1.20587 132.252 1.24101ZM130.643 4.96839C130.665 5.00353 130.63 5.00353 130.575 4.96839C130.54 4.94677 130.54 4.94137 130.581 4.94137C130.605 4.94137 130.635 4.95219 130.643 4.96839ZM133.111 5.02246C133.089 5.03597 133.051 5.04679 133.029 5.04679C133.002 5.04679 133.007 5.03868 133.043 5.02246C133.117 4.99003 133.16 4.99003 133.111 5.02246ZM53.383 5.4279C61.6258 5.7901 69.2904 8.17682 76.1917 12.5313C80.7616 15.4153 84.917 19.2266 88.1973 23.546C88.9253 24.5081 90.2204 26.3651 90.2204 26.4516C90.2204 26.4787 77.2851 39.7583 77.2414 39.7773C77.2306 39.7799 77.1569 39.6421 77.0778 39.4664C76.8707 39.0123 76.3499 37.9852 76.0908 37.5176C75.3328 36.1553 74.4248 34.8091 73.435 33.582C69.1023 28.2085 62.9563 24.6135 56.1642 23.4837C53.852 23.0972 51.4035 23.0026 49.0067 23.2C47.3515 23.3378 45.5029 23.6568 43.9132 24.0784C39.6515 25.2083 35.7168 27.3462 32.4475 30.3061C31.8505 30.8493 30.8116 31.8953 30.3126 32.4629C26.4625 36.8228 24.153 42.1126 23.5422 47.9591C23.3623 49.6728 23.3405 51.6838 23.485 53.338C23.9621 58.7683 25.9744 63.831 29.3665 68.1206C30.6371 69.7261 32.2348 71.3344 33.8381 72.6156C39.4988 77.1457 46.5962 79.2946 53.8875 78.6918C57.7867 78.3674 61.6284 77.2106 65.0641 75.3212C66.8746 74.3266 68.617 73.0995 70.1931 71.7074C71.1254 70.8857 72.5298 69.4233 73.3123 68.4611C73.5305 68.1936 75.0873 66.5286 75.1009 66.5502C77.0642 69.0882 86.0759 80.9084 86.0677 80.93C86.0595 80.9489 85.915 81.1137 85.746 81.3003C80.9525 86.5954 75.0793 90.6687 68.4752 93.2798C64.0498 95.0285 59.3517 96.0801 54.5691 96.3963C53.0803 96.4936 51.0626 96.5206 49.661 96.4639C40.9684 96.1071 33.0311 93.615 26.0153 89.0415C23.984 87.7171 22.2088 86.3439 20.2675 84.5978C19.6486 84.041 18.1462 82.5518 17.5408 81.8949C14.0235 78.0783 11.2558 73.8265 9.22444 69.1233C7.32667 64.7283 6.15966 60.0766 5.70703 55.0949C5.56797 53.5462 5.51888 52.2217 5.53797 50.4188C5.55433 48.9944 5.56797 48.6267 5.65522 47.4861C6.1842 40.4098 8.38736 33.555 12.0929 27.457C16.5619 20.097 23.0733 14.1125 30.8116 10.2446C36.6167 7.34431 42.918 5.71983 49.4702 5.43062C50.1928 5.39818 52.6768 5.39816 53.383 5.4279ZM137.629 15.3478C140.896 20.2024 143.571 24.1839 143.577 24.2C143.579 24.2135 140.026 27.7517 135.682 32.0575L127.78 39.8853L121.722 31.6873C118.39 27.1787 115.66 23.4757 115.655 23.4594C115.644 23.4189 131.647 6.47936 131.671 6.50369C131.68 6.5145 134.363 10.4933 137.629 15.3478ZM117.847 35.4309C121.106 39.8394 123.816 43.5019 123.865 43.5722L123.958 43.702L107.178 60.3414C97.9479 69.491 90.365 77.0025 90.324 77.0323L90.2531 77.0836L84.5926 69.6856L78.932 62.2902L79.0492 62.1578C79.36 61.8064 111.887 27.4058 111.903 27.4112C111.914 27.4139 114.589 31.0224 117.847 35.4309ZM169.305 62.4011C181.843 81.0245 192.099 96.2854 192.099 96.3152C192.102 96.3693 192.084 96.3693 180.896 96.3747L169.69 96.3801L150.616 70.5776C140.128 56.387 131.418 44.6075 131.262 44.3992C131.025 44.0804 130.914 43.9878 130.879 44.0175C130.849 44.0418 130.892 44.0804 130.867 44.056C130.843 44.0317 132.645 42.2315 138.646 36.2822C142.944 32.0224 146.472 28.5382 146.485 28.5382C146.502 28.541 156.771 43.7776 169.305 62.4011Z" fill="white"/>
<path d="M99.1011 47.906C98.227 48.0545 97.5382 48.5073 97.1626 49.1813C96.9538 49.5512 96.873 49.8756 96.873 50.3335C96.873 50.9346 97.0895 51.4453 97.6739 52.2277C97.7626 52.3484 97.8383 52.459 97.8383 52.4692C97.8383 52.4792 97.7417 52.5471 97.6244 52.6176C96.4425 53.3143 95.8137 54.1897 95.7589 55.2135C95.678 56.7505 96.8338 58.0711 98.5559 58.4057C99.5134 58.5918 100.526 58.4912 101.439 58.119C101.637 58.041 101.995 57.8573 102.159 57.7541L102.237 57.7038L102.626 58.1642L103.012 58.6245L104.312 58.7202C105.026 58.773 105.624 58.8107 105.642 58.8057C105.658 58.8006 105.22 58.2623 104.664 57.6107C104.111 56.9593 103.657 56.4185 103.657 56.4084C103.657 56.4008 103.691 56.3455 103.732 56.2877C104.16 55.6839 104.533 54.8035 104.7 54.0136C104.768 53.6891 104.86 53.0754 104.844 53.0578C104.836 53.0452 103.2 52.9294 103.192 52.937C103.187 52.942 103.166 53.0678 103.148 53.2187C103.08 53.742 102.955 54.1972 102.759 54.64C102.623 54.9494 102.535 55.0979 102.509 55.0702C102.376 54.9268 100.682 52.9194 100.685 52.9069C100.685 52.8943 100.805 52.8112 100.951 52.7182C101.316 52.4893 101.614 52.2528 101.914 51.9635C102.446 51.4429 102.657 50.9925 102.683 50.3058C102.707 49.76 102.621 49.443 102.339 49.038C101.958 48.4846 101.327 48.1123 100.474 47.9312C100.2 47.8733 99.3829 47.8583 99.1011 47.906ZM100.012 49.3524C100.327 49.4002 100.599 49.5763 100.729 49.8152C100.792 49.9285 100.8 49.9713 100.8 50.1951C100.8 50.424 100.792 50.4618 100.719 50.6102C100.674 50.7007 100.594 50.8215 100.539 50.8818C100.416 51.0177 100.082 51.2692 99.7821 51.4503L99.5473 51.5937L99.4743 51.5107C99.4325 51.4654 99.2943 51.2944 99.1664 51.1309C98.7906 50.6505 98.6967 50.424 98.7515 50.1297C98.8246 49.7398 99.1063 49.4606 99.5212 49.3625C99.6856 49.3247 99.8187 49.3197 100.012 49.3524ZM100.09 55.1431C100.7 55.8676 101.201 56.4688 101.207 56.4839C101.217 56.5166 100.787 56.7329 100.56 56.8109C100.223 56.924 99.9778 56.9567 99.576 56.9417C99.1507 56.9266 98.929 56.8763 98.621 56.7228C98.0679 56.4436 97.7705 56.0285 97.7417 55.4903C97.7157 55.0273 97.841 54.7306 98.2009 54.3834C98.415 54.1797 98.8872 53.8325 98.9524 53.8299C98.9681 53.8299 99.4821 54.4211 100.09 55.1431Z" fill="white"/>
</svg>
